<svg id="Layer_2_00000137126726011451936220000013561904778207378064_" enable-background="new 0 0 512 512" viewBox="68 0 376 512" xmlns="http://www.w3.org/2000/svg" xmlns:xlink="http://www.w3.org/1999/xlink"><linearGradient id="SVGID_1_" gradientTransform="matrix(1 0 0 -1 0 512)" gradientUnits="userSpaceOnUse" x1="48.749" x2="463.231" y1="463.246" y2="48.754"><stop offset="0" stop-color="#454545"/><stop offset="1"/></linearGradient><linearGradient id="SVGID_00000142857865143734664390000010350257239855746442_" gradientTransform="matrix(1 0 0 -1 0 512)" gradientUnits="userSpaceOnUse" x1="55.818" x2="456.162" y1="456.172" y2="55.828"><stop offset="0" stop-color="#f2f2f2"/><stop offset="1" stop-color="#d9d9d9"/></linearGradient><linearGradient id="lg1"><stop offset="0" stop-color="#fe5b42"/><stop offset="1" stop-color="#ba0000"/></linearGradient><linearGradient id="SVGID_00000109012559178615303980000013361031157947279506_" gradientTransform="matrix(1 0 0 -1 0 512)" gradientUnits="userSpaceOnUse" x1="103.463" x2="163.986" xlink:href="#lg1" y1="465.023" y2="404.501"/><linearGradient id="SVGID_00000132799725846795706040000013184812816766800519_" gradientTransform="matrix(1 0 0 -1 0 512)" gradientUnits="userSpaceOnUse" x1="348.014" x2="408.537" xlink:href="#lg1" y1="107.499" y2="46.977"/><linearGradient id="SVGID_00000110441566945509289420000015701627935449108892_" gradientTransform="matrix(1 0 0 -1 0 512)" gradientUnits="userSpaceOnUse" x1="359.58" x2="393.21" xlink:href="#lg1" y1="176.51" y2="142.87"/><linearGradient id="SVGID_00000045582492514636953880000005872456061895977393_" gradientTransform="matrix(1 0 0 -1 0 512)" gradientUnits="userSpaceOnUse" x1="219.745" x2="292.245" xlink:href="#lg1" y1="292.255" y2="219.745"/><linearGradient id="SVGID_00000057117428245953197550000015591672489928848002_" gradientTransform="matrix(1 0 0 -1 0 512)" gradientUnits="userSpaceOnUse" x1="118.78" x2="152.41" xlink:href="#lg1" y1="369.13" y2="335.49"/><g id="Icon"><g id="_45"><path d="m443.8 50v412c0 27.6-22.4 50-50 50h-275.6c-27.6 0-50-22.4-50-50v-412c0-27.6 22.4-50 50-50h275.5c27.7 0 50.1 22.4 50.1 50z" fill="url(#SVGID_1_)"/><path d="m433.8 50v412c0 22.1-17.9 40-40 40h-275.6c-22.1 0-40-17.9-40-40v-412c0-22.1 17.9-40 40-40h275.5c22.2 0 40.1 17.9 40.1 40z" fill="url(#SVGID_00000142857865143734664390000010350257239855746442_)"/><path d="m149.5 90.9h10.3v20.8h-51.5v-5.3c0-9.7 3.6-18.3 10.7-26 2.8-2.9 9.4-8.2 19.9-15.9 7.1-5.2 10.7-9.6 10.7-13.4 0-3.5-2-6.2-5.9-8.1-3.1-1.5-6.6-2.3-10.6-2.3-9.6 0-14.5 3.2-14.5 9.6 0 1.3.4 2.8 1.1 4.5l-9.6 4c-1.2-3-1.7-5.9-1.7-8.5 0-6.7 2.5-11.8 7.5-15.4 4.5-3.2 10.2-4.8 17.2-4.8s13 1.7 18 5.2c5.8 3.9 8.8 9.2 8.8 15.8 0 6.2-3.1 11.9-9.3 17.3-6.1 4.6-12.1 9.2-18.2 13.8-7.1 5.9-11.4 12.2-12.8 18.8h30z" fill="url(#SVGID_00000109012559178615303980000013361031157947279506_)"/><path d="m362.5 421.1h-10.3v-20.8h51.5v5.3c0 9.7-3.6 18.4-10.7 26-2.8 3-9.4 8.2-19.9 15.9-7.1 5.2-10.7 9.6-10.7 13.4 0 3.5 2 6.1 5.9 8.1 3.1 1.5 6.6 2.3 10.6 2.3 9.6 0 14.5-3.2 14.5-9.6 0-1.4-.4-2.9-1.1-4.5l9.6-4c1.1 3 1.7 5.9 1.7 8.5 0 6.7-2.5 11.8-7.5 15.4-4.5 3.2-10.2 4.8-17.2 4.8s-13-1.7-18-5.2c-5.9-3.9-8.8-9.2-8.8-15.8 0-6.1 3.1-11.9 9.3-17.3 6-4.6 12.1-9.2 18.1-13.8 7.1-5.9 11.4-12.2 12.8-18.8h-30z" fill="url(#SVGID_00000132799725846795706040000013184812816766800519_)"/><path d="m347.6 352.3 28.8-33.6 28.8 33.6-28.8 33.6z" fill="url(#SVGID_00000110441566945509289420000015701627935449108892_)"/><path d="m318.1 256-62.1 72.5-62.1-72.5 62.1-72.5z" fill="url(#SVGID_00000045582492514636953880000005872456061895977393_)"/><path d="m164.4 159.7-28.8 33.6-28.8-33.6 28.8-33.6z" fill="url(#SVGID_00000057117428245953197550000015591672489928848002_)"/></g></g></svg>