<svg id="Layer_2_00000067926198529632114350000003236680894737647514_" enable-background="new 0 0 512 512" viewBox="68 0 376 512" xmlns="http://www.w3.org/2000/svg" xmlns:xlink="http://www.w3.org/1999/xlink"><linearGradient id="SVGID_1_" gradientTransform="matrix(1 0 0 -1 0 512)" gradientUnits="userSpaceOnUse" x1="48.749" x2="463.231" y1="463.246" y2="48.754"><stop offset="0" stop-color="#454545"/><stop offset="1"/></linearGradient><linearGradient id="SVGID_00000038392088660920313900000010707522983141061821_" gradientTransform="matrix(1 0 0 -1 0 512)" gradientUnits="userSpaceOnUse" x1="55.818" x2="456.162" y1="456.172" y2="55.828"><stop offset="0" stop-color="#f2f2f2"/><stop offset="1" stop-color="#d9d9d9"/></linearGradient><linearGradient id="lg1"><stop offset="0" stop-color="#fe5b42"/><stop offset="1" stop-color="#ba0000"/></linearGradient><linearGradient id="SVGID_00000153690881691791614340000003311334422874090917_" gradientTransform="matrix(1 0 0 -1 0 512)" gradientUnits="userSpaceOnUse" x1="105.91" x2="164.875" xlink:href="#lg1" y1="478.355" y2="419.39"/><linearGradient id="SVGID_00000057128028265261044830000013607858233947646142_" gradientTransform="matrix(1 0 0 -1 0 512)" gradientUnits="userSpaceOnUse" x1="347.115" x2="406.08" xlink:href="#lg1" y1="92.61" y2="33.645"/><linearGradient id="SVGID_00000086686663037586280390000001908781439592248506_" gradientTransform="matrix(1 0 0 -1 0 512)" gradientUnits="userSpaceOnUse" x1="359.58" x2="393.21" xlink:href="#lg1" y1="176.51" y2="142.87"/><linearGradient id="SVGID_00000168820572491373585160000014734812081007591815_" gradientTransform="matrix(1 0 0 -1 0 512)" gradientUnits="userSpaceOnUse" x1="219.745" x2="292.245" xlink:href="#lg1" y1="292.255" y2="219.745"/><linearGradient id="SVGID_00000171678112184400722630000012407941612554570685_" gradientTransform="matrix(1 0 0 -1 0 512)" gradientUnits="userSpaceOnUse" x1="118.78" x2="152.41" xlink:href="#lg1" y1="369.13" y2="335.49"/><g id="Icon"><g id="_46"><path d="m443.8 50v412c0 27.6-22.4 50-50 50h-275.6c-27.6 0-50-22.4-50-50v-412c0-27.6 22.4-50 50-50h275.5c27.7 0 50.1 22.4 50.1 50z" fill="url(#SVGID_1_)"/><path d="m433.8 50v412c0 22.1-17.9 40-40 40h-275.6c-22.1 0-40-17.9-40-40v-412c0-22.1 17.9-40 40-40h275.5c22.2 0 40.1 17.9 40.1 40z" fill="url(#SVGID_00000038392088660920313900000010707522983141061821_)"/><path d="m134.6 111.8c-6.1 0-11.7-2.1-16.5-6.3-4.4-3.8-7.7-8.8-9.8-15l9.8-3.5c1.3 4 3.4 7.3 6.1 9.8 3.1 2.9 6.6 4.4 10.5 4.4 4.9 0 9.1-1.9 12.6-5.8 3.5-3.8 5.3-8.2 5.3-13s-1.5-8.7-4.5-11.7-7-4.5-11.9-4.5c-2.2 0-4 .3-5.3.9s-2.8 1.7-4.6 3.4l-7.4-7.3 23.9-22.5h-23.1v10.3h-10.3v-20.9h52.6v6.6l-20.5 19.4c6.5 1.2 11.7 4.2 15.5 9.1s5.8 10.6 5.8 17.3c0 7.8-2.8 14.6-8.4 20.5-5.4 5.8-12.1 8.8-19.8 8.8z" fill="url(#SVGID_00000153690881691791614340000003311334422874090917_)"/><path d="m377.4 400.2c6.1 0 11.7 2.1 16.5 6.3 4.4 3.8 7.7 8.8 9.8 15l-9.8 3.5c-1.4-4-3.4-7.3-6.1-9.8-3.1-2.9-6.6-4.4-10.5-4.4-4.9 0-9.1 1.9-12.6 5.8-3.5 3.8-5.3 8.2-5.3 13s1.5 8.7 4.5 11.7 7 4.5 11.9 4.5c2.2 0 4-.3 5.3-.9s2.8-1.7 4.6-3.4l7.4 7.3-23.9 22.5h23.1v-10.3h10.3v20.9h-52.6v-6.6l20.5-19.4c-6.5-1.2-11.7-4.2-15.5-9.1s-5.8-10.6-5.8-17.3c0-7.8 2.8-14.6 8.4-20.5 5.4-5.8 12-8.8 19.8-8.8z" fill="url(#SVGID_00000057128028265261044830000013607858233947646142_)"/><path d="m347.6 352.3 28.8-33.6 28.8 33.6-28.8 33.6z" fill="url(#SVGID_00000086686663037586280390000001908781439592248506_)"/><path d="m318.1 256-62.1 72.5-62.1-72.5 62.1-72.5z" fill="url(#SVGID_00000168820572491373585160000014734812081007591815_)"/><path d="m164.4 159.7-28.8 33.6-28.8-33.6 28.8-33.6z" fill="url(#SVGID_00000171678112184400722630000012407941612554570685_)"/></g></g></svg>