<svg id="Layer_2_00000023268721754022275020000003979491565389661875_" enable-background="new 0 0 512 512" viewBox="68 0 376 512" xmlns="http://www.w3.org/2000/svg" xmlns:xlink="http://www.w3.org/1999/xlink"><linearGradient id="SVGID_1_" gradientTransform="matrix(1 0 0 -1 0 512)" gradientUnits="userSpaceOnUse" x1="48.749" x2="463.231" y1="463.246" y2="48.754"><stop offset="0" stop-color="#454545"/><stop offset="1"/></linearGradient><linearGradient id="SVGID_00000000209909267334272180000016275457820049365660_" gradientTransform="matrix(1 0 0 -1 0 512)" gradientUnits="userSpaceOnUse" x1="55.818" x2="456.162" y1="456.172" y2="55.828"><stop offset="0" stop-color="#f2f2f2"/><stop offset="1" stop-color="#d9d9d9"/></linearGradient><linearGradient id="lg1"><stop offset="0" stop-color="#fe5b42"/><stop offset="1" stop-color="#ba0000"/></linearGradient><linearGradient id="SVGID_00000084530543834257790730000003956102647723296441_" gradientTransform="matrix(1 0 0 -1 0 512)" gradientUnits="userSpaceOnUse" x1="120.218" x2="167.208" xlink:href="#lg1" y1="459.773" y2="412.783"/><linearGradient id="SVGID_00000090274055121750681740000001932937452098600877_" gradientTransform="matrix(1 0 0 -1 0 512)" gradientUnits="userSpaceOnUse" x1="344.783" x2="391.773" xlink:href="#lg1" y1="99.218" y2="52.228"/><linearGradient id="SVGID_00000183227478176408059260000014924242355103859097_" gradientTransform="matrix(1 0 0 -1 0 512)" gradientUnits="userSpaceOnUse" x1="359.58" x2="393.21" xlink:href="#lg1" y1="176.51" y2="142.87"/><linearGradient id="SVGID_00000110443550925712342590000001502674879742159759_" gradientTransform="matrix(1 0 0 -1 0 512)" gradientUnits="userSpaceOnUse" x1="219.745" x2="292.245" xlink:href="#lg1" y1="292.255" y2="219.745"/><linearGradient id="SVGID_00000109729713590583620140000016437323721306372994_" gradientTransform="matrix(1 0 0 -1 0 512)" gradientUnits="userSpaceOnUse" x1="118.78" x2="152.41" xlink:href="#lg1" y1="369.13" y2="335.49"/><g id="Icon"><g id="_47"><path d="m443.8 50v412c0 27.6-22.4 50-50 50h-275.6c-27.6 0-50-22.4-50-50v-412c0-27.6 22.4-50 50-50h275.5c27.7 0 50.1 22.4 50.1 50z" fill="url(#SVGID_1_)"/><path d="m433.8 50v412c0 22.1-17.9 40-40 40h-275.6c-22.1 0-40-17.9-40-40v-412c0-22.1 17.9-40 40-40h275.5c22.2 0 40.1 17.9 40.1 40z" fill="url(#SVGID_00000000209909267334272180000016275457820049365660_)"/><path d="m133.7 100.5h6.5v-8.5h-31.9v-8.4l33.3-52.8h8.8v50.6h9.9v10.6h-9.9v8.5h4.9v10.5h-21.7zm-11.6-19.1h18.1v-28.7s-18.1 28.7-18.1 28.7z" fill="url(#SVGID_00000084530543834257790730000003956102647723296441_)"/><path d="m378.3 411.5h-6.5v8.5h31.9v8.4l-33.3 52.9h-8.8v-50.6h-9.9v-10.7h9.9v-8.5h-4.9v-10.5h21.7zm11.6 19.1h-18.1v28.7z" fill="url(#SVGID_00000090274055121750681740000001932937452098600877_)"/><path d="m347.6 352.3 28.8-33.6 28.8 33.6-28.8 33.6z" fill="url(#SVGID_00000183227478176408059260000014924242355103859097_)"/><path d="m318.1 256-62.1 72.5-62.1-72.5 62.1-72.5z" fill="url(#SVGID_00000110443550925712342590000001502674879742159759_)"/><path d="m164.4 159.7-28.8 33.6-28.8-33.6 28.8-33.6z" fill="url(#SVGID_00000109729713590583620140000016437323721306372994_)"/></g></g></svg>