<svg id="Layer_2_00000022534200884635957360000014121806273341434814_" enable-background="new 0 0 512 512" viewBox="68 0 376 512" xmlns="http://www.w3.org/2000/svg" xmlns:xlink="http://www.w3.org/1999/xlink"><linearGradient id="SVGID_1_" gradientTransform="matrix(1 0 0 -1 0 512)" gradientUnits="userSpaceOnUse" x1="48.749" x2="463.231" y1="463.246" y2="48.754"><stop offset="0" stop-color="#454545"/><stop offset="1"/></linearGradient><linearGradient id="SVGID_00000000216028876366963080000004654010193798661764_" gradientTransform="matrix(1 0 0 -1 0 512)" gradientUnits="userSpaceOnUse" x1="55.818" x2="456.162" y1="456.172" y2="55.828"><stop offset="0" stop-color="#f2f2f2"/><stop offset="1" stop-color="#d9d9d9"/></linearGradient><linearGradient id="lg1"><stop offset="0" stop-color="#fe5b42"/><stop offset="1" stop-color="#ba0000"/></linearGradient><linearGradient id="SVGID_00000015332867858734812040000014136232033994350002_" gradientTransform="matrix(1 0 0 -1 0 512)" gradientUnits="userSpaceOnUse" x1="105.298" x2="161.838" xlink:href="#lg1" y1="474.014" y2="417.464"/><linearGradient id="SVGID_00000112593700408330241110000002172446015090865812_" gradientTransform="matrix(1 0 0 -1 0 512)" gradientUnits="userSpaceOnUse" x1="350.162" x2="406.702" xlink:href="#lg1" y1="94.536" y2="37.986"/><linearGradient id="SVGID_00000066491429826054987760000003076488127230133420_" gradientTransform="matrix(1 0 0 -1 0 512)" gradientUnits="userSpaceOnUse" x1="359.58" x2="393.21" xlink:href="#lg1" y1="176.51" y2="142.87"/><linearGradient id="SVGID_00000143599062333838019460000006988754155360728985_" gradientTransform="matrix(1 0 0 -1 0 512)" gradientUnits="userSpaceOnUse" x1="219.745" x2="292.245" xlink:href="#lg1" y1="292.255" y2="219.745"/><linearGradient id="SVGID_00000127007152755287379060000008612331459194233277_" gradientTransform="matrix(1 0 0 -1 0 512)" gradientUnits="userSpaceOnUse" x1="118.78" x2="152.41" xlink:href="#lg1" y1="369.13" y2="335.49"/><g id="Icon"><g id="_48"><path d="m443.8 50v412c0 27.6-22.4 50-50 50h-275.6c-27.6 0-50-22.4-50-50v-412c0-27.6 22.4-50 50-50h275.5c27.7 0 50.1 22.4 50.1 50z" fill="url(#SVGID_1_)"/><path d="m433.8 50v412c0 22.1-17.9 40-40 40h-275.6c-22.1 0-40-17.9-40-40v-412c0-22.1 17.9-40 40-40h275.5c22.2 0 40.1 17.9 40.1 40z" fill="url(#SVGID_00000000216028876366963080000004654010193798661764_)"/><path d="m134.1 112c-5.8 0-11.1-2-15.9-6-4.2-3.7-7.5-8.4-9.9-14.1l9.6-4c1.5 3.8 3.6 6.8 6.2 9.2 3 2.9 6.4 4.3 10 4.3 5.1 0 9.4-2.4 12.8-7.2 3.1-4.3 4.6-9 4.6-14.2s-1.5-10-4.6-14.2c-3.3-4.5-7.6-6.8-12.8-6.8-4.4 0-8.8 2.4-13.2 7.1l-7.5-4.4v-31.8h39v10.6h-28.7v10.3c3.3-1.5 6.8-2.3 10.3-2.3 8.1 0 14.8 3.3 20.2 9.9 5.1 6.2 7.6 13.4 7.6 21.6s-2.5 15.5-7.5 21.8c-5.4 6.7-12.2 10.1-20.2 10.2z" fill="url(#SVGID_00000015332867858734812040000014136232033994350002_)"/><path d="m377.9 400c5.8 0 11 2 15.9 6 4.2 3.6 7.5 8.4 9.9 14.1l-9.6 4c-1.5-3.8-3.6-6.8-6.2-9.2-3-2.9-6.4-4.3-10-4.3-5.1 0-9.4 2.4-12.8 7.2-3.1 4.3-4.6 9-4.6 14.2s1.5 10 4.6 14.2c3.3 4.5 7.6 6.8 12.8 6.8 4.4 0 8.8-2.4 13.2-7.1l7.5 4.4v31.8h-39v-10.6h28.7v-10.3c-3.3 1.5-6.8 2.3-10.3 2.3-8.1 0-14.8-3.3-20.2-9.9-5.1-6.1-7.6-13.4-7.6-21.6s2.5-15.5 7.5-21.8c5.4-6.7 12.2-10.1 20.2-10.2z" fill="url(#SVGID_00000112593700408330241110000002172446015090865812_)"/><path d="m347.6 352.3 28.8-33.6 28.8 33.6-28.8 33.6z" fill="url(#SVGID_00000066491429826054987760000003076488127230133420_)"/><path d="m318.1 256-62.1 72.5-62.1-72.5 62.1-72.5z" fill="url(#SVGID_00000143599062333838019460000006988754155360728985_)"/><path d="m164.4 159.7-28.8 33.6-28.8-33.6 28.8-33.6z" fill="url(#SVGID_00000127007152755287379060000008612331459194233277_)"/></g></g></svg>