<svg id="Layer_2_00000067210026609070293490000011433721030209553306_" enable-background="new 0 0 512 512" viewBox="68 0 376 512" xmlns="http://www.w3.org/2000/svg" xmlns:xlink="http://www.w3.org/1999/xlink"><linearGradient id="SVGID_1_" gradientTransform="matrix(1 0 0 -1 0 512)" gradientUnits="userSpaceOnUse" x1="48.749" x2="463.231" y1="463.246" y2="48.754"><stop offset="0" stop-color="#454545"/><stop offset="1"/></linearGradient><linearGradient id="SVGID_00000168118438894917878680000017005985821324390317_" gradientTransform="matrix(1 0 0 -1 0 512)" gradientUnits="userSpaceOnUse" x1="55.818" x2="456.162" y1="456.172" y2="55.828"><stop offset="0" stop-color="#f2f2f2"/><stop offset="1" stop-color="#d9d9d9"/></linearGradient><linearGradient id="lg1"><stop offset="0" stop-color="#fe5b42"/><stop offset="1" stop-color="#ba0000"/></linearGradient><linearGradient id="SVGID_00000137827600117922939540000016367307900907961222_" gradientTransform="matrix(1 0 0 -1 0 512)" gradientUnits="userSpaceOnUse" x1="103.478" x2="155.898" xlink:href="#lg1" y1="476.223" y2="423.803"/><linearGradient id="SVGID_00000155112994742246059690000016474484569973492155_" gradientTransform="matrix(1 0 0 -1 0 512)" gradientUnits="userSpaceOnUse" x1="356.093" x2="408.513" xlink:href="#lg1" y1="88.198" y2="35.778"/><linearGradient id="SVGID_00000135678733961229116800000005866251743761877674_" gradientTransform="matrix(1 0 0 -1 0 512)" gradientUnits="userSpaceOnUse" x1="359.58" x2="393.21" xlink:href="#lg1" y1="176.51" y2="142.87"/><linearGradient id="SVGID_00000029767035646953106410000007123666992724837823_" gradientTransform="matrix(1 0 0 -1 0 512)" gradientUnits="userSpaceOnUse" x1="219.745" x2="292.245" xlink:href="#lg1" y1="292.255" y2="219.745"/><linearGradient id="SVGID_00000004525717264898977350000011340938407771897489_" gradientTransform="matrix(1 0 0 -1 0 512)" gradientUnits="userSpaceOnUse" x1="118.78" x2="152.41" xlink:href="#lg1" y1="369.13" y2="335.49"/><g id="Icon"><g id="_50"><path d="m443.8 50v412c0 27.6-22.4 50-50 50h-275.6c-27.6 0-50-22.4-50-50v-412c0-27.6 22.4-50 50-50h275.5c27.7 0 50.1 22.4 50.1 50z" fill="url(#SVGID_1_)"/><path d="m433.8 50v412c0 22.1-17.9 40-40 40h-275.6c-22.1 0-40-17.9-40-40v-412c0-22.1 17.9-40 40-40h275.5c22.2 0 40.1 17.9 40.1 40z" fill="url(#SVGID_00000168118438894917878680000017005985821324390317_)"/><path d="m108.3 52.4v-21.4h47l5.3 9.2c-13.1 18.8-22.3 42.4-27.4 70.7h-11.2c4.6-25.9 12.5-48.8 23.9-68.6h-26.5v10.1z" fill="url(#SVGID_00000137827600117922939540000016367307900907961222_)"/><path d="m403.7 459.6v21.4h-47l-5.3-9.2c13.1-18.8 22.3-42.4 27.4-70.7h11.2c-4.5 26-12.5 48.8-23.9 68.6h26.5v-10.1z" fill="url(#SVGID_00000155112994742246059690000016474484569973492155_)"/><path d="m347.6 352.3 28.8-33.6 28.8 33.6-28.8 33.6z" fill="url(#SVGID_00000135678733961229116800000005866251743761877674_)"/><path d="m318.1 256-62.1 72.5-62.1-72.5 62.1-72.5z" fill="url(#SVGID_00000029767035646953106410000007123666992724837823_)"/><path d="m164.4 159.7-28.8 33.6-28.8-33.6 28.8-33.6z" fill="url(#SVGID_00000004525717264898977350000011340938407771897489_)"/></g></g></svg>