<svg id="Layer_2_00000088855894776245823410000012727817089183774635_" enable-background="new 0 0 512 512" viewBox="68 0 376 512" xmlns="http://www.w3.org/2000/svg" xmlns:xlink="http://www.w3.org/1999/xlink"><linearGradient id="SVGID_1_" gradientTransform="matrix(1 0 0 -1 0 512)" gradientUnits="userSpaceOnUse" x1="48.749" x2="463.231" y1="463.246" y2="48.754"><stop offset="0" stop-color="#454545"/><stop offset="1"/></linearGradient><linearGradient id="SVGID_00000145758403927256068890000001778512675609313689_" gradientTransform="matrix(1 0 0 -1 0 512)" gradientUnits="userSpaceOnUse" x1="55.818" x2="456.162" y1="456.172" y2="55.828"><stop offset="0" stop-color="#f2f2f2"/><stop offset="1" stop-color="#d9d9d9"/></linearGradient><linearGradient id="lg1"><stop offset="0" stop-color="#fe5b42"/><stop offset="1" stop-color="#ba0000"/></linearGradient><linearGradient id="SVGID_00000116199755069157529860000000133929597201375161_" gradientTransform="matrix(1 0 0 -1 0 512)" gradientUnits="userSpaceOnUse" x1="108.854" x2="160.852" xlink:href="#lg1" y1="466.431" y2="414.434"/><linearGradient id="SVGID_00000068638858639064886770000014693023525395840908_" gradientTransform="matrix(1 0 0 -1 0 512)" gradientUnits="userSpaceOnUse" x1="351.148" x2="403.146" xlink:href="#lg1" y1="97.566" y2="45.569"/><linearGradient id="SVGID_00000021103937826511975210000004981733562566369711_" gradientTransform="matrix(1 0 0 -1 0 512)" gradientUnits="userSpaceOnUse" x1="359.58" x2="393.21" xlink:href="#lg1" y1="176.51" y2="142.87"/><linearGradient id="SVGID_00000050628179841623708800000003405996029556717971_" gradientTransform="matrix(1 0 0 -1 0 512)" gradientUnits="userSpaceOnUse" x1="219.745" x2="292.245" xlink:href="#lg1" y1="292.255" y2="219.745"/><linearGradient id="SVGID_00000167360423823850665620000000070848278094625467_" gradientTransform="matrix(1 0 0 -1 0 512)" gradientUnits="userSpaceOnUse" x1="118.78" x2="152.41" xlink:href="#lg1" y1="369.13" y2="335.49"/><g id="Icon"><g id="_51"><path d="m443.8 50v412c0 27.6-22.4 50-50 50h-275.6c-27.6 0-50-22.4-50-50v-412c0-27.6 22.4-50 50-50h275.5c27.7 0 50.1 22.4 50.1 50z" fill="url(#SVGID_1_)"/><path d="m433.8 50v412c0 22.1-17.9 40-40 40h-275.6c-22.1 0-40-17.9-40-40v-412c0-22.1 17.9-40 40-40h275.5c22.2 0 40.1 17.9 40.1 40z" fill="url(#SVGID_00000145758403927256068890000001778512675609313689_)"/><path d="m134.8 111.9c-7.1 0-13.3-2.3-18.4-6.9-5.4-4.7-8.1-10.6-8.1-17.6 0-8.2 3.6-14.8 10.7-19.7-5.1-4.2-7.7-9.6-7.7-16s2.4-11.4 7.2-15.7c4.6-4 10.1-6 16.3-6s11.7 2 16.3 6c4.8 4.2 7.2 9.5 7.2 15.7s-2.6 11.8-7.7 16c7.1 4.9 10.7 11.4 10.7 19.7 0 7-2.6 12.8-7.9 17.5s-11.4 7-18.6 7zm0-38.4c-4.2 0-7.8 1.3-11.1 3.8-3.5 2.7-5.2 6.1-5.2 10.2s1.7 7.4 5.2 10.2c3.2 2.5 6.9 3.7 11.1 3.7s7.8-1.2 11.1-3.7c3.5-2.7 5.2-6.1 5.2-10.2s-1.7-7.5-5.2-10.2c-3.2-2.5-6.9-3.8-11.1-3.8zm0-33c-3.4 0-6.4 1-8.9 3.1-2.9 2.2-4.3 4.9-4.3 8.1s1.4 6 4.3 8.1c2.6 2 5.5 3.1 8.9 3.1s6.4-1 8.9-3.1c2.9-2.2 4.3-4.9 4.3-8.1s-1.4-6-4.3-8.1c-2.5-2.1-5.5-3.1-8.9-3.1z" fill="url(#SVGID_00000116199755069157529860000000133929597201375161_)"/><path d="m377.2 400.1c7.1 0 13.3 2.3 18.5 6.9 5.4 4.7 8.1 10.6 8.1 17.6 0 8.2-3.6 14.8-10.7 19.7 5.1 4.2 7.7 9.6 7.7 16s-2.4 11.4-7.2 15.7c-4.6 4-10.1 6-16.3 6s-11.7-2-16.3-6c-4.8-4.2-7.2-9.5-7.2-15.7s2.6-11.8 7.7-16c-7.1-4.9-10.7-11.4-10.7-19.7 0-7 2.6-12.8 7.9-17.5 5.1-4.7 11.3-7 18.5-7zm0 38.4c4.2 0 7.9-1.3 11-3.8 3.5-2.7 5.2-6.1 5.2-10.1s-1.7-7.4-5.2-10.1c-3.2-2.5-6.9-3.7-11-3.7s-7.9 1.2-11 3.7c-3.5 2.7-5.2 6.1-5.2 10.1s1.7 7.5 5.2 10.1c3.1 2.5 6.8 3.8 11 3.8zm0 33c3.4 0 6.4-1 8.9-3.1 2.9-2.2 4.3-4.9 4.3-8.1s-1.4-6-4.3-8.1c-2.6-2-5.5-3.1-8.9-3.1s-6.4 1-8.9 3.1c-2.9 2.2-4.3 4.9-4.3 8.1s1.4 6 4.3 8.1c2.5 2.1 5.5 3.1 8.9 3.1z" fill="url(#SVGID_00000068638858639064886770000014693023525395840908_)"/><path d="m347.6 352.3 28.8-33.6 28.8 33.6-28.8 33.6z" fill="url(#SVGID_00000021103937826511975210000004981733562566369711_)"/><path d="m318.1 256-62.1 72.5-62.1-72.5 62.1-72.5z" fill="url(#SVGID_00000050628179841623708800000003405996029556717971_)"/><path d="m164.4 159.7-28.8 33.6-28.8-33.6 28.8-33.6z" fill="url(#SVGID_00000167360423823850665620000000070848278094625467_)"/></g></g></svg>