<svg id="Layer_2_00000111156380694598805000000009731468529899733379_" enable-background="new 0 0 512 512" viewBox="68 0 376 512" xmlns="http://www.w3.org/2000/svg" xmlns:xlink="http://www.w3.org/1999/xlink"><linearGradient id="SVGID_1_" gradientTransform="matrix(1 0 0 -1 0 512)" gradientUnits="userSpaceOnUse" x1="48.749" x2="463.231" y1="463.246" y2="48.754"><stop offset="0" stop-color="#454545"/><stop offset="1"/></linearGradient><linearGradient id="SVGID_00000034806544082602257340000009494013299336586932_" gradientTransform="matrix(1 0 0 -1 0 512)" gradientUnits="userSpaceOnUse" x1="55.818" x2="456.162" y1="456.172" y2="55.828"><stop offset="0" stop-color="#f2f2f2"/><stop offset="1" stop-color="#d9d9d9"/></linearGradient><linearGradient id="lg1"><stop offset="0" stop-color="#fe5b42"/><stop offset="1" stop-color="#ba0000"/></linearGradient><linearGradient id="SVGID_00000134961021494405602220000017622490701188210602_" gradientTransform="matrix(1 0 0 -1 0 512)" gradientUnits="userSpaceOnUse" x1="106.378" x2="162.836" xlink:href="#lg1" y1="459.139" y2="402.691"/><linearGradient id="SVGID_00000063630396356826006050000014335593030376755635_" gradientTransform="matrix(1 0 0 -1 0 512)" gradientUnits="userSpaceOnUse" x1="349.154" x2="405.612" xlink:href="#lg1" y1="109.309" y2="52.861"/><linearGradient id="SVGID_00000045619731459740580200000011923456331648043965_" gradientTransform="matrix(1 0 0 -1 0 512)" gradientUnits="userSpaceOnUse" x1="359.58" x2="393.21" xlink:href="#lg1" y1="176.51" y2="142.87"/><linearGradient id="SVGID_00000160893415353384582630000011051297217141044381_" gradientTransform="matrix(1 0 0 -1 0 512)" gradientUnits="userSpaceOnUse" x1="219.745" x2="292.245" xlink:href="#lg1" y1="292.255" y2="219.745"/><linearGradient id="SVGID_00000069369589319731778970000011782342797810573748_" gradientTransform="matrix(1 0 0 -1 0 512)" gradientUnits="userSpaceOnUse" x1="118.78" x2="152.41" xlink:href="#lg1" y1="369.13" y2="335.49"/><g id="Icon"><g id="_44"><path d="m443.8 50v412c0 27.6-22.4 50-50 50h-275.6c-27.6 0-50-22.4-50-50v-412c0-27.6 22.4-50 50-50h275.5c27.7 0 50.1 22.4 50.1 50z" fill="url(#SVGID_1_)"/><path d="m433.8 50v412c0 22.1-17.9 40-40 40h-275.6c-22.1 0-40-17.9-40-40v-412c0-22.1 17.9-40 40-40h275.5c22.2 0 40.1 17.9 40.1 40z" fill="url(#SVGID_00000034806544082602257340000009494013299336586932_)"/><path d="m129.7 101.5v9.7h-21.4v-9.7h7l13.3-70.8h12l13.4 70.8h7v9.7h-21.4v-9.7h4.6l-1.5-8.5h-16l-1.6 8.4zm-1.3-18.2h12.5l-6.2-33.1z" fill="url(#SVGID_00000134961021494405602220000017622490701188210602_)"/><path d="m382.3 410.5v-9.7h21.4v9.7h-7l-13.3 70.8h-12l-13.4-70.8h-7v-9.7h21.4v9.7h-4.6l1.5 8.5h16l1.6-8.5zm1.3 18.2h-12.5l6.2 33.1z" fill="url(#SVGID_00000063630396356826006050000014335593030376755635_)"/><path d="m347.6 352.3 28.8-33.6 28.8 33.6-28.8 33.6z" fill="url(#SVGID_00000045619731459740580200000011923456331648043965_)"/><path d="m318.1 256-62.1 72.5-62.1-72.5 62.1-72.5z" fill="url(#SVGID_00000160893415353384582630000011051297217141044381_)"/><path d="m164.4 159.7-28.8 33.6-28.8-33.6 28.8-33.6z" fill="url(#SVGID_00000069369589319731778970000011782342797810573748_)"/></g></g></svg>