<svg id="Layer_2_00000103235812241816722920000002954776011401406603_" enable-background="new 0 0 512 512" viewBox="68 0 376 512" xmlns="http://www.w3.org/2000/svg" xmlns:xlink="http://www.w3.org/1999/xlink"><linearGradient id="SVGID_1_" gradientTransform="matrix(1 0 0 -1 0 512)" gradientUnits="userSpaceOnUse" x1="48.749" x2="463.231" y1="463.246" y2="48.754"><stop offset="0" stop-color="#454545"/><stop offset="1"/></linearGradient><linearGradient id="SVGID_00000075133651199290735560000017729922476652217758_" gradientTransform="matrix(1 0 0 -1 0 512)" gradientUnits="userSpaceOnUse" x1="55.818" x2="456.162" y1="456.172" y2="55.828"><stop offset="0" stop-color="#f2f2f2"/><stop offset="1" stop-color="#d9d9d9"/></linearGradient><linearGradient id="lg1"><stop offset="0" stop-color="#fe5b42"/><stop offset="1" stop-color="#ba0000"/></linearGradient><linearGradient id="SVGID_00000164476574080354643210000008602922546977884327_" gradientTransform="matrix(1 0 0 -1 0 512)" gradientUnits="userSpaceOnUse" x1="116.002" x2="160.619" xlink:href="#lg1" y1="465.877" y2="421.26"/><linearGradient id="SVGID_00000067957198484587861280000003411225215451615873_" gradientTransform="matrix(1 0 0 -1 0 512)" gradientUnits="userSpaceOnUse" x1="351.381" x2="395.998" xlink:href="#lg1" y1="90.741" y2="46.123"/><linearGradient id="SVGID_00000128458130591333246660000012590766830490645137_" gradientTransform="matrix(1 0 0 -1 0 512)" gradientUnits="userSpaceOnUse" x1="359.58" x2="393.21" xlink:href="#lg1" y1="176.51" y2="142.87"/><linearGradient id="SVGID_00000176037682039685531550000014951765096347094688_" gradientTransform="matrix(1 0 0 -1 0 512)" gradientUnits="userSpaceOnUse" x1="219.745" x2="292.245" xlink:href="#lg1" y1="292.255" y2="219.745"/><linearGradient id="SVGID_00000014631623629162067620000000719242532201418636_" gradientTransform="matrix(1 0 0 -1 0 512)" gradientUnits="userSpaceOnUse" x1="118.78" x2="152.41" xlink:href="#lg1" y1="369.13" y2="335.49"/><g id="Icon"><g id="_54"><path d="m443.8 50v412c0 27.6-22.4 50-50 50h-275.6c-27.6 0-50-22.4-50-50v-412c0-27.6 22.4-50 50-50h275.5c27.7 0 50.1 22.4 50.1 50z" fill="url(#SVGID_1_)"/><path d="m433.8 50v412c0 22.1-17.9 40-40 40h-275.6c-22.1 0-40-17.9-40-40v-412c0-22.1 17.9-40 40-40h275.5c22.2 0 40.1 17.9 40.1 40z" fill="url(#SVGID_00000075133651199290735560000017729922476652217758_)"/><path d="m119.4 82.4c0 3.9 0 5.5 0 4.9 0 3.8.8 6.9 2.4 9.2 1.9 2.8 4.8 4.1 8.7 4.1 3.3 0 5.9-1.2 7.9-3.6 1.8-2.2 2.7-4.9 2.7-8.2v-47.5h-8.7v-11.4h28.2v11.4h-8.6v47.6c0 6.5-1.9 11.9-5.9 16.2-4.1 4.6-9.3 6.8-15.8 6.8-6.4 0-11.8-2.2-16-6.7s-6.2-10-6.1-16.4v-6.4z" fill="url(#SVGID_00000164476574080354643210000008602922546977884327_)"/><path d="m392.6 429.6c0-3.9 0-5.5 0-4.9 0-3.8-.8-6.9-2.4-9.2-1.9-2.8-4.8-4.1-8.6-4.1-3.3 0-5.9 1.2-7.9 3.6-1.8 2.2-2.7 4.9-2.7 8.2v47.6h8.7v11.4h-28.2v-11.4h8.4v-47.6c0-6.5 2-11.9 5.9-16.2 4.1-4.5 9.4-6.8 15.8-6.8s11.8 2.2 16 6.7 6.2 10 6.1 16.4v6.4z" fill="url(#SVGID_00000067957198484587861280000003411225215451615873_)"/><path d="m347.6 352.3 28.8-33.6 28.8 33.6-28.8 33.6z" fill="url(#SVGID_00000128458130591333246660000012590766830490645137_)"/><path d="m318.1 256-62.1 72.5-62.1-72.5 62.1-72.5z" fill="url(#SVGID_00000176037682039685531550000014951765096347094688_)"/><path d="m164.4 159.7-28.8 33.6-28.8-33.6 28.8-33.6z" fill="url(#SVGID_00000014631623629162067620000000719242532201418636_)"/></g></g></svg>