<svg id="Layer_2_00000044876542681997750770000002089746939515088048_" enable-background="new 0 0 512 512" viewBox="68 0 376 512" xmlns="http://www.w3.org/2000/svg" xmlns:xlink="http://www.w3.org/1999/xlink"><linearGradient id="SVGID_1_" gradientTransform="matrix(1 0 0 -1 0 512)" gradientUnits="userSpaceOnUse" x1="48.749" x2="463.231" y1="463.246" y2="48.754"><stop offset="0" stop-color="#454545"/><stop offset="1"/></linearGradient><linearGradient id="SVGID_00000138543751365256295330000016716329588093116838_" gradientTransform="matrix(1 0 0 -1 0 512)" gradientUnits="userSpaceOnUse" x1="55.818" x2="456.162" y1="456.172" y2="55.828"><stop offset="0" stop-color="#f2f2f2"/><stop offset="1" stop-color="#d9d9d9"/></linearGradient><linearGradient id="lg1"><stop offset="0" stop-color="#fe5b42"/><stop offset="1" stop-color="#ba0000"/></linearGradient><linearGradient id="SVGID_00000060721123495492401240000012879432188568242832_" gradientTransform="matrix(1 0 0 -1 0 512)" gradientUnits="userSpaceOnUse" x1="101.342" x2="168.128" xlink:href="#lg1" y1="474.478" y2="407.682"/><linearGradient id="SVGID_00000101084272562137550020000016059132536079669675_" gradientTransform="matrix(1 0 0 -1 0 512)" gradientUnits="userSpaceOnUse" x1="343.862" x2="410.648" xlink:href="#lg1" y1="104.318" y2="37.522"/><linearGradient id="SVGID_00000129172913623835487510000001455751646642916773_" gradientTransform="matrix(1 0 0 -1 0 512)" gradientUnits="userSpaceOnUse" x1="359.58" x2="393.21" xlink:href="#lg1" y1="176.51" y2="142.87"/><linearGradient id="SVGID_00000145036426978524118890000008150832805658822530_" gradientTransform="matrix(1 0 0 -1 0 512)" gradientUnits="userSpaceOnUse" x1="219.745" x2="292.245" xlink:href="#lg1" y1="292.255" y2="219.745"/><linearGradient id="SVGID_00000090254827306786190210000017175230030055120264_" gradientTransform="matrix(1 0 0 -1 0 512)" gradientUnits="userSpaceOnUse" x1="118.78" x2="152.41" xlink:href="#lg1" y1="369.13" y2="335.49"/><g id="Icon"><g id="_56"><path d="m443.8 50v412c0 27.6-22.4 50-50 50h-275.6c-27.6 0-50-22.4-50-50v-412c0-27.6 22.4-50 50-50h275.5c27.7 0 50.1 22.4 50.1 50z" fill="url(#SVGID_1_)"/><path d="m433.8 50v412c0 22.1-17.9 40-40 40h-275.6c-22.1 0-40-17.9-40-40v-412c0-22.1 17.9-40 40-40h275.5c22.2 0 40.1 17.9 40.1 40z" fill="url(#SVGID_00000138543751365256295330000016716329588093116838_)"/><path d="m108.3 102.4h7.4v-63h-7.4v-8.8h22.4v8.8h-6.2v30.7l19.7-30.7h-7.6v-8.8h24.6v8.8h-7.1l-16 24.9 16.3 38.2h6.7v8.8h-24.6v-8.8h7.9l-12.4-28.9-7.7 12v16.9h6.2v8.8h-22.4z" fill="url(#SVGID_00000060721123495492401240000012879432188568242832_)"/><path d="m403.7 409.6h-7.4v63h7.4v8.8h-22.4v-8.8h6.2v-30.6l-19.7 30.6h7.6v8.8h-24.6v-8.8h7.1l16-24.9-16.3-38.1h-6.7v-8.8h24.6v8.8h-7.9l12.4 28.9 7.7-12v-16.9h-6.2v-8.8h22.4z" fill="url(#SVGID_00000101084272562137550020000016059132536079669675_)"/><path d="m347.6 352.3 28.8-33.6 28.8 33.6-28.8 33.6z" fill="url(#SVGID_00000129172913623835487510000001455751646642916773_)"/><path d="m318.1 256-62.1 72.5-62.1-72.5 62.1-72.5z" fill="url(#SVGID_00000145036426978524118890000008150832805658822530_)"/><path d="m164.4 159.7-28.8 33.6-28.8-33.6 28.8-33.6z" fill="url(#SVGID_00000090254827306786190210000017175230030055120264_)"/></g></g></svg>