<?xml version="1.0" encoding="UTF-8" standalone="no"?>
<svg
   id="Layer_2_00000031190433043291956670000004740309322585105541_"
   enable-background="new 0 0 512 512"
   viewBox="0 0 512 512"
   version="1.1"
   sodipodi:docname="2h.svg"
   inkscape:version="1.4.2 (f4327f4, 2025-05-13)"
   xmlns:inkscape="http://www.inkscape.org/namespaces/inkscape"
   xmlns:sodipodi="http://sodipodi.sourceforge.net/DTD/sodipodi-0.dtd"
   xmlns:xlink="http://www.w3.org/1999/xlink"
   xmlns="http://www.w3.org/2000/svg"
   xmlns:svg="http://www.w3.org/2000/svg">
  <defs
     id="defs12" />
  <sodipodi:namedview
     id="namedview12"
     pagecolor="#ffffff"
     bordercolor="#000000"
     borderopacity="0.25"
     inkscape:showpageshadow="2"
     inkscape:pageopacity="0.0"
     inkscape:pagecheckerboard="0"
     inkscape:deskcolor="#d1d1d1"
     inkscape:zoom="1.6699219"
     inkscape:cx="291.03157"
     inkscape:cy="241.02924"
     inkscape:window-width="1920"
     inkscape:window-height="1057"
     inkscape:window-x="-8"
     inkscape:window-y="-8"
     inkscape:window-maximized="1"
     inkscape:current-layer="_19" />
  <linearGradient
     id="SVGID_1_"
     gradientTransform="matrix(1.3631523,0,0,-1,-24.766986,512)"
     gradientUnits="userSpaceOnUse"
     x1="48.749"
     x2="463.231"
     y1="463.246"
     y2="48.754">
    <stop
       offset="0"
       stop-color="#454545"
       id="stop1" />
    <stop
       offset="1"
       id="stop2" />
  </linearGradient>
  <linearGradient
     id="SVGID_00000151541432943788332730000012600907586578928014_"
     gradientTransform="matrix(1.3835771,0,0,-1,-29.995726,512)"
     gradientUnits="userSpaceOnUse"
     x1="55.818"
     x2="456.162"
     y1="456.172"
     y2="55.828">
    <stop
       offset="0"
       stop-color="#f2f2f2"
       id="stop3" />
    <stop
       offset="1"
       stop-color="#d9d9d9"
       id="stop4" />
  </linearGradient>
  <linearGradient
     id="lg1">
    <stop
       offset="0"
       stop-color="#fe5b42"
       id="stop5" />
    <stop
       offset="1"
       stop-color="#ba0000"
       id="stop6" />
  </linearGradient>
  <linearGradient
     id="SVGID_00000088832174770631763150000012591090869995036293_"
     gradientTransform="matrix(1.8396752,0,0,-1.8396752,-81.868337,916.63949)"
     gradientUnits="userSpaceOnUse"
     x1="103.463"
     x2="163.986"
     xlink:href="#lg1"
     y1="465.023"
     y2="404.501" />
  <linearGradient
     id="SVGID_00000130612583481161752580000003426788427877154972_"
     gradientTransform="matrix(-1.8273555,0,0,1.8273555,1168.9573,278.88442)"
     gradientUnits="userSpaceOnUse"
     x1="348.014"
     x2="408.537"
     xlink:href="#lg1"
     y1="107.499"
     y2="46.977" />
  <linearGradient
     id="SVGID_00000147184453047842632080000012389302524209782704_"
     gradientTransform="matrix(1.8396752,0,0,-1.8396752,-81.868337,916.63949)"
     gradientUnits="userSpaceOnUse"
     x1="112.253"
     x2="158.938"
     xlink:href="#lg1"
     y1="388.698"
     y2="342.013" />
  <linearGradient
     id="SVGID_00000050621660575353466440000008326383872684377757_"
     gradientTransform="matrix(-1.8273555,0,0,1.8273555,1168.9573,-47.664011)"
     gradientUnits="userSpaceOnUse"
     x1="353.062"
     x2="399.747"
     xlink:href="#lg1"
     y1="169.988"
     y2="123.303" />
  <linearGradient
     id="SVGID_00000164513340627556612470000000087011363954900108_"
     gradientTransform="matrix(1 0 0 -1 0 512)"
     gradientUnits="userSpaceOnUse"
     x1="205.683"
     x2="306.308"
     xlink:href="#lg1"
     y1="334.438"
     y2="233.813" />
  <g
     id="Icon"
     transform="translate(-68.2)">
    <g
       id="_19">
      <path
         d="m 580.2,68.158 v 375.617 c 0,27.6 -30.53461,68.225 -68.15761,68.225 H 136.35761 C 98.734611,512 68.2,471.375 68.2,443.775 V 68.158 C 68.2,40.558 98.735001,0 136.358,0 H 511.906 C 549.66532,0 580.2,40.558 580.2,68.158 Z"
         fill="url(#SVGID_1_)"
         id="path6"
         style="fill:url(#SVGID_1_);stroke-width:1.16754"
         sodipodi:nodetypes="sssssssss" />
      <path
         d="m 570.2,68.158 v 375.617 c 0,22.1 -27.64795,58.225 -58.225,58.225 H 136.358 C 105.78095,502 78.2,465.875 78.2,443.775 V 68.158 C 78.2,46.058 105.78095,10 136.358,10 H 511.83682 C 542.55223,10 570.2,46.058 570.2,68.158 Z"
         fill="url(#SVGID_00000151541432943788332730000012600907586578928014_)"
         id="path7"
         style="fill:url(#SVGID_00000151541432943788332730000012600907586578928014_);stroke-width:1.17625"
         sodipodi:nodetypes="sssssssss" />
      <path
         d="m 193.16312,141.95225 h 18.94865 v 38.26525 h -94.74328 v -9.75027 c 0,-17.84486 6.62283,-33.66607 19.68453,-47.83156 5.15108,-5.33506 17.29295,-15.08534 36.60954,-29.250842 13.06169,-9.566311 19.68452,-17.660883 19.68452,-24.651647 0,-6.438865 -3.67936,-11.405988 -10.85408,-14.90137 -5.70301,-2.759513 -12.14186,-4.231253 -19.50056,-4.231253 -17.66088,0 -26.67529,5.886961 -26.67529,17.660881 0,2.391579 0.73587,5.151092 2.02363,8.278539 l -17.66087,7.358702 c -2.20762,-5.519026 -3.12744,-10.854085 -3.12744,-15.637241 0,-12.325823 4.59918,-21.708167 13.79755,-28.330999 8.27855,-5.88696 18.76469,-8.83044 31.64242,-8.83044 12.87773,0 23.91577,3.127447 33.11416,9.566312 10.67011,7.174733 16.18913,16.925011 16.18913,29.066869 0,11.405986 -5.70299,21.892134 -17.10898,31.826379 -11.22202,8.46251 -22.26006,16.92501 -33.48208,25.38752 -13.06169,10.85408 -20.9723,22.44404 -23.54785,34.58589 h 55.19026 z"
         fill="url(#SVGID_00000088832174770631763150000012591090869995036293_)"
         id="path8"
         style="fill:url(#SVGID_00000088832174770631763150000012591090869995036293_);stroke-width:1.83967" />
      <path
         d="m 506.54095,444.99101 h 18.82176 V 483 H 431.2539 v -9.68498 c 0,-17.72535 6.57848,-33.62334 19.55271,-47.51125 5.11659,-5.48206 17.17714,-14.98431 36.36437,-29.05495 12.97422,-9.50225 19.5527,-17.54261 19.5527,-24.48656 0,-6.39574 -3.65471,-11.14687 -10.7814,-14.80158 -5.6648,-2.74103 -12.06054,-4.20292 -19.36996,-4.20292 -17.54262,0 -26.49666,5.84754 -26.49666,17.54262 0,2.55829 0.73095,5.29933 2.01009,8.22309 l -17.54261,7.30943 c -2.01009,-5.48207 -3.1065,-10.7814 -3.1065,-15.53252 0,-12.24329 4.56839,-21.5628 13.70516,-28.14128 8.2231,-5.84754 18.63903,-8.7713 31.43052,-8.7713 12.79149,0 23.75562,3.1065 32.8924,9.50224 10.78139,7.12669 16.08072,16.81167 16.08072,28.87222 0,11.14687 -5.6648,21.74553 -16.9944,31.61325 -10.96414,8.40583 -22.111,16.81167 -33.07514,25.2175 -12.97422,10.7814 -20.83185,22.29374 -23.39015,34.35429 h 54.82067 z"
         fill="url(#SVGID_00000130612583481161752580000003426788427877154972_)"
         id="path9"
         style="fill:url(#SVGID_00000130612583481161752580000003426788427877154972_);stroke-width:1.82736" />
      <path
         d="m 226.6452,217.74688 c -14.7174,-14.71741 -38.81715,-14.71741 -53.53455,0 l -5.51903,5.51902 -5.51903,-5.51902 c -14.7174,-14.71741 -38.81713,-14.71741 -53.53453,0 -14.717411,14.7174 -14.717411,38.81714 0,53.53454 l 5.51901,5.51903 53.53455,53.53455 59.05358,-59.05358 c 14.90137,-14.7174 14.90137,-38.81714 0,-53.53454 z"
         fill="url(#SVGID_00000147184453047842632080000012389302524209782704_)"
         id="path10"
         style="fill:url(#SVGID_00000147184453047842632080000012389302524209782704_);stroke-width:1.83967" />
      <path
         d="m 539.79882,193.72963 c -14.61885,-14.61884 -38.5572,-14.61884 -53.17605,0 l -5.48206,5.48207 -5.48207,-5.48207 c -14.61884,-14.61884 -38.5572,-14.61884 -53.17604,0 -14.61885,14.61885 -14.61885,38.5572 0,53.17605 l 5.48206,5.48206 53.17605,53.17605 58.65811,-58.65811 c 14.80157,-14.61885 14.80157,-38.5572 0,-53.17605 z"
         fill="url(#SVGID_00000050621660575353466440000008326383872684377757_)"
         id="path11"
         style="fill:url(#SVGID_00000050621660575353466440000008326383872684377757_);stroke-width:1.82736" />
    </g>
  </g>
</svg>
