<?xml version="1.0" encoding="UTF-8" standalone="no"?>
<svg
   id="Layer_2_00000176733173450595175280000011606045421883347101_"
   enable-background="new 0 0 512 512"
   viewBox="0 0 512 512"
   version="1.1"
   sodipodi:docname="3h.svg"
   inkscape:version="1.4.2 (f4327f4, 2025-05-13)"
   xmlns:inkscape="http://www.inkscape.org/namespaces/inkscape"
   xmlns:sodipodi="http://sodipodi.sourceforge.net/DTD/sodipodi-0.dtd"
   xmlns:xlink="http://www.w3.org/1999/xlink"
   xmlns="http://www.w3.org/2000/svg"
   xmlns:svg="http://www.w3.org/2000/svg">
  <defs
     id="defs12" />
  <sodipodi:namedview
     id="namedview12"
     pagecolor="#ffffff"
     bordercolor="#000000"
     borderopacity="0.25"
     inkscape:showpageshadow="2"
     inkscape:pageopacity="0.0"
     inkscape:pagecheckerboard="0"
     inkscape:deskcolor="#d1d1d1"
     inkscape:zoom="1.6699219"
     inkscape:cx="256.29941"
     inkscape:cy="257.79649"
     inkscape:window-width="1920"
     inkscape:window-height="1057"
     inkscape:window-x="-8"
     inkscape:window-y="-8"
     inkscape:window-maximized="1"
     inkscape:current-layer="Icon" />
  <linearGradient
     id="SVGID_1_"
     gradientTransform="matrix(1.3631523,0,0,-1,-24.766986,512)"
     gradientUnits="userSpaceOnUse"
     x1="48.749"
     x2="463.231"
     y1="463.246"
     y2="48.754">
    <stop
       offset="0"
       stop-color="#454545"
       id="stop1" />
    <stop
       offset="1"
       id="stop2" />
  </linearGradient>
  <linearGradient
     id="SVGID_00000153705234203908711090000016627714895618878381_"
     gradientTransform="matrix(1.3835771,0,0,-1,-29.995726,512)"
     gradientUnits="userSpaceOnUse"
     x1="55.818"
     x2="456.162"
     y1="456.172"
     y2="55.828">
    <stop
       offset="0"
       stop-color="#f2f2f2"
       id="stop3" />
    <stop
       offset="1"
       stop-color="#d9d9d9"
       id="stop4" />
  </linearGradient>
  <linearGradient
     id="lg1">
    <stop
       offset="0"
       stop-color="#fe5b42"
       id="stop5" />
    <stop
       offset="1"
       stop-color="#ba0000"
       id="stop6" />
  </linearGradient>
  <linearGradient
     id="SVGID_00000140705962742631301960000001371101613654867129_"
     gradientTransform="matrix(1.8396752,0,0,-1.8396752,-81.868336,916.63948)"
     gradientUnits="userSpaceOnUse"
     x1="105.91"
     x2="164.875"
     xlink:href="#lg1"
     y1="478.355"
     y2="419.39" />
  <linearGradient
     id="SVGID_00000009589442765740182620000002503768019586491799_"
     gradientTransform="matrix(-1.8273555,0,0,1.8273555,1168.9573,278.70168)"
     gradientUnits="userSpaceOnUse"
     x1="347.115"
     x2="406.08"
     xlink:href="#lg1"
     y1="92.61"
     y2="33.645" />
  <linearGradient
     id="SVGID_00000060719954976583729140000017851576134292267407_"
     gradientTransform="matrix(1.8396752,0,0,-1.8396752,-81.868336,916.63948)"
     gradientUnits="userSpaceOnUse"
     x1="112.253"
     x2="158.938"
     xlink:href="#lg1"
     y1="388.698"
     y2="342.013" />
  <linearGradient
     id="SVGID_00000018214223296898129840000005504877726667629240_"
     gradientTransform="matrix(-1.8273555,0,0,1.8273555,1168.9573,-47.664011)"
     gradientUnits="userSpaceOnUse"
     x1="353.062"
     x2="399.747"
     xlink:href="#lg1"
     y1="169.988"
     y2="123.303" />
  <linearGradient
     id="SVGID_00000119090145769507866410000016134263228131334798_"
     gradientTransform="matrix(1 0 0 -1 0 512)"
     gradientUnits="userSpaceOnUse"
     x1="205.683"
     x2="306.308"
     xlink:href="#lg1"
     y1="334.438"
     y2="233.813" />
  <g
     id="Icon"
     transform="translate(-68.2)">
    <g
       id="_20">
      <path
         d="m 580.2,68.158 v 375.548 c 0,27.6 -30.53461,68.294 -68.15761,68.294 H 136.35761 C 98.734611,512 68.2,471.306 68.2,443.706 V 68.158 C 68.2,40.558 98.735001,0 136.358,0 H 511.906 C 549.66532,0 580.2,40.558 580.2,68.158 Z"
         fill="url(#SVGID_1_)"
         id="path6"
         style="fill:url(#SVGID_1_);stroke-width:1.16754"
         sodipodi:nodetypes="sssssssss" />
      <path
         d="m 570.2,68.158 v 375.548 c 0,22.1 -27.64777,58.294 -58.22482,58.294 H 136.358 C 105.78095,502 78.2,465.806 78.2,443.706 V 68.158 C 78.2,46.058 105.78095,10 136.358,10 H 511.83682 C 542.55223,10 570.2,46.058 570.2,68.158 Z"
         fill="url(#SVGID_00000153705234203908711090000016627714895618878381_)"
         id="path7"
         style="fill:url(#SVGID_00000153705234203908711090000016627714895618878381_);stroke-width:1.17625"
         sodipodi:nodetypes="sssssssss" />
      <path
         d="m 165.75195,180.40147 c -11.22202,0 -21.5242,-3.86332 -30.35464,-11.58996 -8.09457,-6.99076 -14.1655,-16.18914 -18.02882,-27.59513 l 18.02882,-6.43886 c 2.39158,7.3587 6.2549,13.42963 11.22202,18.02882 5.70299,5.33506 12.14186,8.09457 19.31659,8.09457 9.01441,0 16.74104,-3.49538 23.17991,-10.67012 6.43886,-6.99076 9.75028,-15.08533 9.75028,-23.91577 0,-8.83045 -2.75952,-16.00518 -8.27854,-21.52421 -5.51903,-5.519021 -12.87773,-8.278534 -21.89214,-8.278534 -4.04728,0 -7.3587,0.551903 -9.75028,1.655708 -2.39157,1.103805 -5.15109,3.127446 -8.4625,6.254896 l -13.6136,-13.429629 43.96824,-41.392693 h -42.4965 V 68.549213 H 119.39214 V 30.1 h 96.76691 v 12.141857 l -37.71334,35.689699 c 11.95789,2.207611 21.5242,7.726636 28.51497,16.741045 6.99076,9.014409 10.67011,19.500559 10.67011,31.826379 0,14.34947 -5.15109,26.85926 -15.45327,37.71335 -9.93424,10.67011 -22.26007,16.18914 -36.42557,16.18914 z"
         fill="url(#SVGID_00000140705962742631301960000001371101613654867129_)"
         id="path8"
         style="fill:url(#SVGID_00000140705962742631301960000001371101613654867129_);stroke-width:1.83968" />
      <path
         d="m 479.31335,483 c -11.14687,0 -21.38006,-3.83745 -30.15136,-11.51234 -8.04037,-6.94395 -14.07064,-16.08073 -17.90809,-27.41033 l 17.90809,-6.39575 c 2.55829,7.30943 6.213,13.3397 11.14686,17.90809 5.66481,5.29933 12.06055,8.04036 19.18724,8.04036 8.95404,0 16.62893,-3.47197 23.02467,-10.59866 6.39575,-6.94395 9.68499,-14.98431 9.68499,-23.75562 0,-8.77131 -2.74103,-15.89799 -8.2231,-21.38006 -5.48207,-5.48207 -12.79149,-8.2231 -21.74553,-8.2231 -4.02018,0 -7.30942,0.54821 -9.68499,1.64462 -2.37556,1.09641 -5.11659,3.10651 -8.40583,6.21301 l -13.52243,-13.3397 43.67379,-41.11549 h -42.21191 v 18.82176 h -18.82176 v -38.19173 h 96.1189 v 12.06055 L 491.9221,381.2163 c 11.87781,2.19283 21.38006,7.67489 28.32401,16.62894 6.94395,8.95404 10.59866,19.36996 10.59866,31.61325 0,14.25337 -5.11659,26.67938 -15.34978,37.46078 C 505.62727,477.51793 493.56672,483 479.31335,483 Z"
         fill="url(#SVGID_00000009589442765740182620000002503768019586491799_)"
         id="path9"
         style="fill:url(#SVGID_00000009589442765740182620000002503768019586491799_);stroke-width:1.82736" />
      <path
         d="m 226.6452,217.74687 c -14.7174,-14.7174 -38.81715,-14.7174 -53.53455,0 l -5.51902,5.51903 -5.51903,-5.51903 c -14.7174,-14.7174 -38.81715,-14.7174 -53.53455,0 -14.7174,14.71741 -14.7174,38.81715 0,53.53455 l 5.51903,5.51903 53.53455,53.53455 59.05357,-59.05358 c 14.90137,-14.7174 14.90137,-38.81714 0,-53.53455 z"
         fill="url(#SVGID_00000060719954976583729140000017851576134292267407_)"
         id="path10"
         style="fill:url(#SVGID_00000060719954976583729140000017851576134292267407_);stroke-width:1.83968" />
      <path
         d="m 539.79882,193.72963 c -14.61885,-14.61884 -38.5572,-14.61884 -53.17605,0 l -5.48206,5.48207 -5.48207,-5.48207 c -14.61884,-14.61884 -38.5572,-14.61884 -53.17604,0 -14.61885,14.61885 -14.61885,38.5572 0,53.17605 l 5.48206,5.48206 53.17605,53.17605 58.65811,-58.65811 c 14.80157,-14.61885 14.80157,-38.5572 0,-53.17605 z"
         fill="url(#SVGID_00000018214223296898129840000005504877726667629240_)"
         id="path11"
         style="fill:url(#SVGID_00000018214223296898129840000005504877726667629240_);stroke-width:1.82736" />
    </g>
  </g>
</svg>
