<?xml version="1.0" encoding="UTF-8" standalone="no"?>
<svg
   id="Layer_2_00000135691588162134317060000009553919941162954626_"
   enable-background="new 0 0 512 512"
   viewBox="0 0 512 512"
   version="1.1"
   sodipodi:docname="4h.svg"
   inkscape:version="1.4.2 (f4327f4, 2025-05-13)"
   xmlns:inkscape="http://www.inkscape.org/namespaces/inkscape"
   xmlns:sodipodi="http://sodipodi.sourceforge.net/DTD/sodipodi-0.dtd"
   xmlns:xlink="http://www.w3.org/1999/xlink"
   xmlns="http://www.w3.org/2000/svg"
   xmlns:svg="http://www.w3.org/2000/svg">
  <defs
     id="defs12" />
  <sodipodi:namedview
     id="namedview12"
     pagecolor="#ffffff"
     bordercolor="#000000"
     borderopacity="0.25"
     inkscape:showpageshadow="2"
     inkscape:pageopacity="0.0"
     inkscape:pagecheckerboard="0"
     inkscape:deskcolor="#d1d1d1"
     inkscape:zoom="1.6699219"
     inkscape:cx="256.29941"
     inkscape:cy="257.79649"
     inkscape:window-width="1920"
     inkscape:window-height="1057"
     inkscape:window-x="-8"
     inkscape:window-y="-8"
     inkscape:window-maximized="1"
     inkscape:current-layer="Layer_2_00000135691588162134317060000009553919941162954626_" />
  <linearGradient
     id="SVGID_1_"
     gradientTransform="matrix(1.3631523,0,0,-1,-24.766986,512)"
     gradientUnits="userSpaceOnUse"
     x1="48.749"
     x2="463.231"
     y1="463.246"
     y2="48.754">
    <stop
       offset="0"
       stop-color="#454545"
       id="stop1" />
    <stop
       offset="1"
       id="stop2" />
  </linearGradient>
  <linearGradient
     id="SVGID_00000075135288413454326300000014260871438868543142_"
     gradientTransform="matrix(1.3835771,0,0,-1,-29.995726,512)"
     gradientUnits="userSpaceOnUse"
     x1="55.818"
     x2="456.162"
     y1="456.172"
     y2="55.828">
    <stop
       offset="0"
       stop-color="#f2f2f2"
       id="stop3" />
    <stop
       offset="1"
       stop-color="#d9d9d9"
       id="stop4" />
  </linearGradient>
  <linearGradient
     id="lg1">
    <stop
       offset="0"
       stop-color="#fe5b42"
       id="stop5" />
    <stop
       offset="1"
       stop-color="#ba0000"
       id="stop6" />
  </linearGradient>
  <linearGradient
     id="SVGID_00000073712099892350769190000000730979944666846137_"
     gradientTransform="matrix(1.8476,0,0,-1.8476,-82.641,919.86512)"
     gradientUnits="userSpaceOnUse"
     x1="120.218"
     x2="167.208"
     xlink:href="#lg1"
     y1="459.773"
     y2="412.783" />
  <linearGradient
     id="SVGID_00000143575355441309270820000017617762757725443761_"
     gradientTransform="matrix(-1.8273555,0,0,1.8273555,1168.9573,280.16357)"
     gradientUnits="userSpaceOnUse"
     x1="344.783"
     x2="391.773"
     xlink:href="#lg1"
     y1="99.218"
     y2="52.228" />
  <linearGradient
     id="SVGID_00000014633108120342030200000011327673996527161992_"
     gradientTransform="matrix(1.8476,0,0,-1.8476,-82.641,919.86512)"
     gradientUnits="userSpaceOnUse"
     x1="112.253"
     x2="158.938"
     xlink:href="#lg1"
     y1="388.698"
     y2="342.013" />
  <linearGradient
     id="SVGID_00000096036911437107070110000006491385228030041519_"
     gradientTransform="matrix(-1.8273555,0,0,1.8273555,1168.9573,-47.664011)"
     gradientUnits="userSpaceOnUse"
     x1="353.062"
     x2="399.747"
     xlink:href="#lg1"
     y1="169.988"
     y2="123.303" />
  <linearGradient
     id="SVGID_00000048503341611153697440000006746962300655908764_"
     gradientTransform="matrix(1,0,0,-1,0,512)"
     gradientUnits="userSpaceOnUse"
     x1="205.683"
     x2="306.308"
     xlink:href="#lg1"
     y1="334.438"
     y2="233.813" />
  <g
     id="Icon"
     transform="translate(-68.2)">
    <g
       id="_21">
      <path
         d="m 580.2,68.158 v 375.548 c 0,27.6 -30.53461,68.294 -68.15761,68.294 H 136.35761 C 98.734611,512 68.2,471.306 68.2,443.706 V 68.158 C 68.2,40.558 98.735001,0 136.358,0 H 511.906 C 549.66532,0 580.2,40.558 580.2,68.158 Z"
         fill="url(#SVGID_1_)"
         id="path6"
         style="fill:url(#SVGID_1_);stroke-width:1.16754"
         sodipodi:nodetypes="sssssssss" />
      <path
         d="m 570.2,68.158 v 375.548 c 0,22.1 -27.64777,58.294 -58.22482,58.294 H 136.358 C 105.78095,502 78.2,465.806 78.2,443.706 V 68.158 C 78.2,46.058 105.78095,10 136.358,10 H 511.83682 C 542.55223,10 570.2,46.058 570.2,68.158 Z"
         fill="url(#SVGID_00000075135288413454326300000014260871438868543142_)"
         id="path7"
         style="fill:url(#SVGID_00000075135288413454326300000014260871438868543142_);stroke-width:1.17625"
         sodipodi:nodetypes="sssssssss" />
      <path
         d="m 164.38312,159.57772 h 12.0094 v -15.7046 H 117.45408 V 128.35328 L 178.97916,30.8 h 16.25888 v 93.48856 h 18.29124 v 19.58456 h -18.29124 v 15.7046 h 9.05324 v 19.3998 h -40.09292 z m -21.43216,-35.28916 h 33.44156 V 71.26244 Z"
         fill="url(#SVGID_00000073712099892350769190000000730979944666846137_)"
         id="path8"
         style="fill:url(#SVGID_00000073712099892350769190000000730979944666846137_);stroke-width:1.8476" />
      <path
         d="m 477.66873,463.81277 h 11.87781 V 448.28025 H 431.2539 v -15.34979 l 60.85094,-96.6671 h 16.08073 v 92.46418 h 18.09082 v 19.55271 h -18.09082 v 15.53252 h 8.95404 V 483 h -39.65362 z m -21.19732,-34.90249 h 33.07513 v -52.4451 z"
         fill="url(#SVGID_00000143575355441309270820000017617762757725443761_)"
         id="path9"
         style="fill:url(#SVGID_00000143575355441309270820000017617762757725443761_);stroke-width:1.82736" />
      <path
         d="m 227.20152,217.96188 c -14.7808,-14.7808 -38.98436,-14.7808 -53.76516,0 l -5.5428,5.5428 -5.5428,-5.5428 c -14.7808,-14.7808 -38.98436,-14.7808 -53.76516,0 -14.7808,14.7808 -14.7808,38.98436 0,53.76516 l 5.5428,5.5428 53.76516,53.76516 59.30796,-59.30796 c 14.96556,-14.7808 14.96556,-38.98436 0,-53.76516 z"
         fill="url(#SVGID_00000014633108120342030200000011327673996527161992_)"
         id="path10"
         style="fill:url(#SVGID_00000014633108120342030200000011327673996527161992_);stroke-width:1.8476" />
      <path
         d="m 539.79882,193.72963 c -14.61885,-14.61884 -38.5572,-14.61884 -53.17605,0 l -5.48206,5.48207 -5.48207,-5.48207 c -14.61884,-14.61884 -38.5572,-14.61884 -53.17604,0 -14.61885,14.61885 -14.61885,38.5572 0,53.17605 l 5.48206,5.48206 53.17605,53.17605 58.65811,-58.65811 c 14.80157,-14.61885 14.80157,-38.5572 0,-53.17605 z"
         fill="url(#SVGID_00000096036911437107070110000006491385228030041519_)"
         id="path11"
         style="fill:url(#SVGID_00000096036911437107070110000006491385228030041519_);stroke-width:1.82736" />
    </g>
  </g>
</svg>
