<?xml version="1.0" encoding="UTF-8" standalone="no"?>
<svg
   id="Layer_2_00000076571930009981259230000011422408101917945985_"
   enable-background="new 0 0 512 512"
   viewBox="0 0 512 512"
   version="1.1"
   sodipodi:docname="5h.svg"
   inkscape:version="1.4.2 (f4327f4, 2025-05-13)"
   xmlns:inkscape="http://www.inkscape.org/namespaces/inkscape"
   xmlns:sodipodi="http://sodipodi.sourceforge.net/DTD/sodipodi-0.dtd"
   xmlns:xlink="http://www.w3.org/1999/xlink"
   xmlns="http://www.w3.org/2000/svg"
   xmlns:svg="http://www.w3.org/2000/svg">
  <defs
     id="defs12" />
  <sodipodi:namedview
     id="namedview12"
     pagecolor="#ffffff"
     bordercolor="#000000"
     borderopacity="0.25"
     inkscape:showpageshadow="2"
     inkscape:pageopacity="0.0"
     inkscape:pagecheckerboard="0"
     inkscape:deskcolor="#d1d1d1"
     inkscape:zoom="1.6699219"
     inkscape:cx="256.29941"
     inkscape:cy="257.79649"
     inkscape:window-width="1920"
     inkscape:window-height="1057"
     inkscape:window-x="-8"
     inkscape:window-y="-8"
     inkscape:window-maximized="1"
     inkscape:current-layer="_22" />
  <linearGradient
     id="SVGID_1_"
     gradientTransform="matrix(1.3631523,0,0,-1,-24.766986,512)"
     gradientUnits="userSpaceOnUse"
     x1="48.749"
     x2="463.231"
     y1="463.246"
     y2="48.754">
    <stop
       offset="0"
       stop-color="#454545"
       id="stop1" />
    <stop
       offset="1"
       id="stop2" />
  </linearGradient>
  <linearGradient
     id="SVGID_00000180343943653552926150000009598200184989413305_"
     gradientTransform="matrix(1.3835771,0,0,-1,-29.995726,512)"
     gradientUnits="userSpaceOnUse"
     x1="55.818"
     x2="456.162"
     y1="456.172"
     y2="55.828">
    <stop
       offset="0"
       stop-color="#f2f2f2"
       id="stop3" />
    <stop
       offset="1"
       stop-color="#d9d9d9"
       id="stop4" />
  </linearGradient>
  <linearGradient
     id="lg1">
    <stop
       offset="0"
       stop-color="#fe5b42"
       id="stop5" />
    <stop
       offset="1"
       stop-color="#ba0000"
       id="stop6" />
  </linearGradient>
  <linearGradient
     id="SVGID_00000170264485001997754260000011894835707560545181_"
     gradientTransform="matrix(1.8374235,0,0,-1.8374235,-81.648791,915.72187)"
     gradientUnits="userSpaceOnUse"
     x1="105.298"
     x2="161.838"
     xlink:href="#lg1"
     y1="474.014"
     y2="417.464" />
  <linearGradient
     id="SVGID_00000176724786780421285330000000609537845227353483_"
     gradientTransform="matrix(-1.8273555,0,0,1.8273555,1168.9573,278.33621)"
     gradientUnits="userSpaceOnUse"
     x1="350.162"
     x2="406.702"
     xlink:href="#lg1"
     y1="94.536"
     y2="37.986" />
  <linearGradient
     id="SVGID_00000041284239062495810610000012060083442878490010_"
     gradientTransform="matrix(1.8374235,0,0,-1.8374235,-81.648791,915.72187)"
     gradientUnits="userSpaceOnUse"
     x1="112.253"
     x2="158.938"
     xlink:href="#lg1"
     y1="388.698"
     y2="342.013" />
  <linearGradient
     id="SVGID_00000055682967673213467980000013187749460151661197_"
     gradientTransform="matrix(-1.8273555,0,0,1.8273555,1168.9573,-47.664011)"
     gradientUnits="userSpaceOnUse"
     x1="353.062"
     x2="399.747"
     xlink:href="#lg1"
     y1="169.988"
     y2="123.303" />
  <linearGradient
     id="SVGID_00000020360143801710616190000015342009397993157309_"
     gradientTransform="matrix(1,0,0,-1,0,512)"
     gradientUnits="userSpaceOnUse"
     x1="205.683"
     x2="306.308"
     xlink:href="#lg1"
     y1="334.438"
     y2="233.813" />
  <g
     id="Icon"
     transform="translate(-68.2)">
    <g
       id="_22">
      <path
         d="m 580.2,68.158 v 375.548 c 0,27.6 -30.53461,68.294 -68.15761,68.294 H 136.35761 C 98.734611,512 68.2,471.306 68.2,443.706 V 68.158 C 68.2,40.558 98.735001,0 136.358,0 H 511.906 C 549.66532,0 580.2,40.558 580.2,68.158 Z"
         fill="url(#SVGID_1_)"
         id="path6"
         style="fill:url(#SVGID_1_);stroke-width:1.16754"
         sodipodi:nodetypes="sssssssss" />
      <path
         d="m 570.2,68.158 v 375.548 c 0,22.1 -27.64777,58.294 -58.22482,58.294 H 136.358 C 105.78095,502 78.2,465.806 78.2,443.706 V 68.158 C 78.2,46.058 105.78095,10 136.358,10 H 511.83682 C 542.55223,10 570.2,46.058 570.2,68.158 Z"
         fill="url(#SVGID_00000180343943653552926150000009598200184989413305_)"
         id="path7"
         style="fill:url(#SVGID_00000180343943653552926150000009598200184989413305_);stroke-width:1.17625"
         sodipodi:nodetypes="sssssssss" />
      <path
         d="m 164.7497,180.75247 c -10.65706,0 -20.3954,-3.67485 -29.21503,-11.02454 -7.71718,-6.79847 -13.78068,-15.43436 -18.1905,-25.90767 l 17.63927,-7.3497 c 2.75613,6.98221 6.61472,12.49448 11.39203,16.9043 5.51227,5.32853 11.75951,7.90092 18.37423,7.90092 9.37086,0 17.27178,-4.40982 23.51902,-13.22945 5.69601,-7.90092 8.45215,-16.53681 8.45215,-26.09141 0,-9.5546 -2.75614,-18.37424 -8.45215,-26.091416 -6.0635,-8.268406 -13.96442,-12.49448 -23.51902,-12.49448 -8.08466,0 -16.16933,4.409816 -24.25399,13.045707 L 126.71503,88.330067 V 29.9 h 71.65952 V 49.376689 H 145.6405 v 18.925462 c 6.06349,-2.756135 12.49448,-4.226074 18.92546,-4.226074 14.88313,0 27.19387,6.063498 37.11595,18.190493 9.37086,11.392025 13.96442,24.62147 13.96442,39.68835 0,15.06687 -4.59356,28.48006 -13.78068,40.05583 -9.92208,12.31074 -22.41656,18.55798 -37.11595,18.74172 z"
         fill="url(#SVGID_00000170264485001997754260000011894835707560545181_)"
         id="path8"
         style="fill:url(#SVGID_00000170264485001997754260000011894835707560545181_);stroke-width:1.83742" />
      <path
         d="m 478.39967,483 c -10.59866,0 -20.10091,-3.65471 -29.05495,-10.96413 -7.67489,-6.57848 -13.70517,-15.34979 -18.09082,-25.76571 l 17.54261,-7.30943 c 2.74104,6.94395 6.57848,12.42602 11.32961,16.81167 5.48206,5.29933 11.69507,7.85763 18.27355,7.85763 9.31952,0 17.17714,-4.38565 23.39015,-13.15696 5.6648,-7.85763 8.40584,-16.4462 8.40584,-25.94844 0,-9.50225 -2.74104,-18.27356 -8.40584,-25.94845 -6.03027,-8.2231 -13.8879,-12.42602 -23.39015,-12.42602 -8.04036,0 -16.08073,4.38565 -24.12109,12.97422 l -13.70517,-8.04036 v -58.1099 h 71.26687 v 19.36997 h -52.4451 v 18.82176 c 6.03027,-2.74104 12.42601,-4.20292 18.82176,-4.20292 14.80158,0 27.04486,6.03027 36.91258,18.09082 9.31951,11.14687 13.8879,24.48656 13.8879,39.47088 0,14.98431 -4.56839,28.32401 -13.70517,39.83634 -9.86772,12.24329 -22.29373,18.45629 -36.91258,18.63903 z"
         fill="url(#SVGID_00000176724786780421285330000000609537845227353483_)"
         id="path9"
         style="fill:url(#SVGID_00000176724786780421285330000000609537845227353483_);stroke-width:1.82736" />
      <path
         d="m 226.48713,217.68468 c -14.69939,-14.69939 -38.76964,-14.69939 -53.46902,0 l -5.51227,5.51227 -5.51228,-5.51227 c -14.69938,-14.69939 -38.76963,-14.69939 -53.46902,0 -14.699387,14.69939 -14.699387,38.76964 0,53.46903 l 5.51227,5.51227 53.46903,53.46902 58.98129,-58.98129 c 14.88313,-14.69939 14.88313,-38.76964 0,-53.46903 z"
         fill="url(#SVGID_00000041284239062495810610000012060083442878490010_)"
         id="path10"
         style="fill:url(#SVGID_00000041284239062495810610000012060083442878490010_);stroke-width:1.83742" />
      <path
         d="m 539.79882,193.72963 c -14.61885,-14.61884 -38.5572,-14.61884 -53.17605,0 l -5.48206,5.48207 -5.48207,-5.48207 c -14.61884,-14.61884 -38.5572,-14.61884 -53.17604,0 -14.61885,14.61885 -14.61885,38.5572 0,53.17605 l 5.48206,5.48206 53.17605,53.17605 58.65811,-58.65811 c 14.80157,-14.61885 14.80157,-38.5572 0,-53.17605 z"
         fill="url(#SVGID_00000055682967673213467980000013187749460151661197_)"
         id="path11"
         style="fill:url(#SVGID_00000055682967673213467980000013187749460151661197_);stroke-width:1.82736" />
    </g>
  </g>
</svg>
