<?xml version="1.0" encoding="UTF-8" standalone="no"?>
<svg
   id="Layer_2_00000099642083011372390190000008850561928151130507_"
   enable-background="new 0 0 512 512"
   viewBox="0 0 512 512"
   version="1.1"
   sodipodi:docname="6h.svg"
   inkscape:version="1.4.2 (f4327f4, 2025-05-13)"
   xmlns:inkscape="http://www.inkscape.org/namespaces/inkscape"
   xmlns:sodipodi="http://sodipodi.sourceforge.net/DTD/sodipodi-0.dtd"
   xmlns:xlink="http://www.w3.org/1999/xlink"
   xmlns="http://www.w3.org/2000/svg"
   xmlns:svg="http://www.w3.org/2000/svg">
  <defs
     id="defs12" />
  <sodipodi:namedview
     id="namedview12"
     pagecolor="#ffffff"
     bordercolor="#000000"
     borderopacity="0.25"
     inkscape:showpageshadow="2"
     inkscape:pageopacity="0.0"
     inkscape:pagecheckerboard="0"
     inkscape:deskcolor="#d1d1d1"
     inkscape:zoom="1.6699219"
     inkscape:cx="256.29941"
     inkscape:cy="257.79649"
     inkscape:window-width="1920"
     inkscape:window-height="1057"
     inkscape:window-x="-8"
     inkscape:window-y="-8"
     inkscape:window-maximized="1"
     inkscape:current-layer="Layer_2_00000099642083011372390190000008850561928151130507_" />
  <linearGradient
     id="SVGID_1_"
     gradientTransform="matrix(1.3631523,0,0,-1,-24.766986,512)"
     gradientUnits="userSpaceOnUse"
     x1="48.749"
     x2="463.231"
     y1="463.246"
     y2="48.754">
    <stop
       offset="0"
       stop-color="#454545"
       id="stop1" />
    <stop
       offset="1"
       id="stop2" />
  </linearGradient>
  <linearGradient
     id="SVGID_00000118395109826383212320000011870106711177814962_"
     gradientTransform="matrix(1.383577,0,0,-1,-29.995725,512)"
     gradientUnits="userSpaceOnUse"
     x1="55.818"
     x2="456.162"
     y1="456.172"
     y2="55.828">
    <stop
       offset="0"
       stop-color="#f2f2f2"
       id="stop3" />
    <stop
       offset="1"
       stop-color="#d9d9d9"
       id="stop4" />
  </linearGradient>
  <linearGradient
     id="lg1">
    <stop
       offset="0"
       stop-color="#fe5b42"
       id="stop5" />
    <stop
       offset="1"
       stop-color="#ba0000"
       id="stop6" />
  </linearGradient>
  <linearGradient
     id="SVGID_00000130640073165509091280000001926316006697376440_"
     gradientTransform="matrix(1.8307012,0,0,-1.8307012,-80.993369,912.97947)"
     gradientUnits="userSpaceOnUse"
     x1="108.987"
     x2="160.478"
     xlink:href="#lg1"
     y1="467.287"
     y2="415.787" />
  <linearGradient
     id="SVGID_00000071522115950220522280000000849311728782627993_"
     gradientTransform="matrix(-1.8273555,0,0,1.8273555,1168.9573,277.05706)"
     gradientUnits="userSpaceOnUse"
     x1="351.511"
     x2="403.005"
     xlink:href="#lg1"
     y1="96.21"
     y2="44.716" />
  <linearGradient
     id="SVGID_00000025410912077878923820000002579137147260395415_"
     gradientTransform="matrix(1.8307012,0,0,-1.8307012,-80.993369,912.97947)"
     gradientUnits="userSpaceOnUse"
     x1="112.253"
     x2="158.938"
     xlink:href="#lg1"
     y1="388.698"
     y2="342.013" />
  <linearGradient
     id="SVGID_00000154422537060845065220000005140217351165894077_"
     gradientTransform="matrix(-1.8273555,0,0,1.8273555,1168.9573,-47.664011)"
     gradientUnits="userSpaceOnUse"
     x1="353.062"
     x2="399.747"
     xlink:href="#lg1"
     y1="169.988"
     y2="123.303" />
  <linearGradient
     id="SVGID_00000155850667890731213510000012791635327361925787_"
     gradientTransform="matrix(1,0,0,-1,0,512)"
     gradientUnits="userSpaceOnUse"
     x1="205.683"
     x2="306.308"
     xlink:href="#lg1"
     y1="334.438"
     y2="233.813" />
  <g
     id="Icon"
     transform="translate(-68.2)">
    <g
       id="_23">
      <path
         d="m 580.2,68.158 v 375.548 c 0,27.6 -30.53461,68.294 -68.15761,68.294 H 136.35761 C 98.734611,512 68.2,471.306 68.2,443.706 V 68.158 C 68.2,40.558 98.735001,0 136.358,0 H 511.906 C 549.66532,0 580.2,40.558 580.2,68.158 Z"
         fill="url(#SVGID_1_)"
         id="path6"
         style="fill:url(#SVGID_1_);stroke-width:1.16754"
         sodipodi:nodetypes="sssssssss" />
      <path
         d="m 570.2,68.158 v 375.548 c 0,22.1 -27.64777,58.294 -58.22482,58.294 H 136.358 C 105.78095,502 78.2,465.806 78.2,443.706 V 68.158 C 78.2,46.058 105.78095,10 136.358,10 H 511.83681 C 542.55223,10 570.2,46.058 570.2,68.158 Z"
         fill="url(#SVGID_00000118395109826383212320000011870106711177814962_)"
         id="path7"
         style="fill:url(#SVGID_00000118395109826383212320000011870106711177814962_);stroke-width:1.17625"
         sodipodi:nodetypes="sssssssss" />
      <path
         d="m 117.82078,117.35673 c -0.36614,0.54921 -0.54921,-3.6614 -0.54921,-12.44877 0,-20.686923 2.74605,-37.163234 8.42123,-49.795073 C 133.74788,37.904296 146.74586,29.3 164.8698,29.3 c 8.97044,0 17.2086,2.379912 24.89754,7.139735 7.32281,4.759823 13.18105,10.984207 17.7578,19.039292 l -16.29324,9.885787 c -6.40745,-11.167277 -15.01175,-16.659381 -26.17903,-16.659381 -14.46253,0 -23.61604,10.801137 -27.09437,32.586482 8.05508,-7.139735 17.02552,-10.801138 26.9113,-10.801138 14.46254,0 26.3621,6.041314 35.51561,18.123943 8.23815,10.984207 12.2657,23.98219 12.2657,38.99394 0,14.09639 -4.39369,26.54516 -13.18105,37.3463 -9.33658,11.35035 -20.87,17.02552 -34.60026,17.02552 -6.77359,0 -13.91332,-2.19684 -21.23613,-6.77359 -7.87201,-4.75983 -14.0964,-13.36412 -18.85622,-25.81289 -3.84447,-9.88579 -6.04132,-20.50385 -6.95667,-32.03727 z m 47.04902,45.21832 c 8.42123,0 15.56097,-3.84447 21.05307,-11.53342 5.30903,-6.95666 7.87201,-14.82868 7.87201,-23.43297 0,-9.70272 -2.37991,-18.12395 -7.13973,-25.26368 -5.4921,-8.238157 -12.63184,-12.44877 -21.78535,-12.44877 -6.59052,0 -12.63183,3.295263 -18.12394,9.702717 -4.39368,5.309033 -7.68894,11.716483 -9.88578,18.856223 1.09842,10.80114 3.47833,19.95464 6.95666,27.82666 5.12596,10.61807 12.08263,16.11017 21.05306,16.29324 z"
         fill="url(#SVGID_00000130640073165509091280000001926316006697376440_)"
         id="path8"
         style="fill:url(#SVGID_00000130640073165509091280000001926316006697376440_);stroke-width:1.8307" />
      <path
         d="m 431.80211,418.49435 h -0.18274 c -0.18273,0.54821 -0.36547,-3.65471 -0.36547,-12.42601 0,-20.64912 2.74103,-37.09532 8.40584,-49.70407 8.04036,-17.17714 21.01458,-25.76571 39.1054,-25.76571 8.95405,0 17.17714,2.37556 24.6693,7.12668 7.30942,4.75113 13.15696,10.96413 17.72535,19.0045 l -16.26346,9.86772 c -6.39575,-11.14687 -14.98432,-16.62894 -26.13119,-16.62894 -14.4361,0 -23.57288,10.7814 -27.04486,32.52693 8.04037,-7.12669 16.99441,-10.7814 26.86213,-10.7814 14.43611,0 26.31392,6.03028 35.45069,18.09082 8.2231,10.96413 12.24329,23.93836 12.24329,38.92267 0,14.07064 -4.38566,26.49666 -13.15696,37.27805 C 503.79991,477.3352 492.28757,483 478.58241,483 c -6.76122,0 -13.8879,-2.19283 -21.19733,-6.57848 -7.85762,-4.75112 -14.07063,-13.33969 -18.82176,-25.76571 -3.47197,-10.05046 -5.84753,-20.64912 -6.76121,-32.16146 z m 46.96303,45.13568 c 8.40584,0 15.53252,-3.83744 21.01459,-11.51234 5.29933,-6.94395 7.85763,-14.80158 7.85763,-23.57288 0,-9.68499 -2.37556,-18.09082 -7.12669,-25.21751 -5.48206,-8.2231 -12.60875,-12.42601 -21.74553,-12.42601 -6.57848,0 -12.79148,3.28923 -18.09082,9.68498 -4.38565,5.29933 -7.67489,11.69507 -9.86771,19.0045 1.09641,10.78139 3.47197,19.91817 6.94395,27.59306 5.11659,10.96414 12.06054,16.4462 21.01458,16.4462 z"
         fill="url(#SVGID_00000071522115950220522280000000849311728782627993_)"
         id="path9"
         style="fill:url(#SVGID_00000071522115950220522280000000849311728782627993_);stroke-width:1.82736" />
      <path
         d="m 226.01523,217.49609 c -14.64561,-14.64561 -38.6278,-14.64561 -53.27341,0 l -5.4921,5.4921 -5.49211,-5.4921 c -14.64561,-14.64561 -38.62779,-14.64561 -53.2734,0 -14.645612,14.64561 -14.645612,38.62779 0,53.2734 l 5.4921,5.4921 53.27341,53.27341 58.76551,-58.76551 c 14.82868,-14.64561 14.82868,-38.62779 0,-53.2734 z"
         fill="url(#SVGID_00000025410912077878923820000002579137147260395415_)"
         id="path10"
         style="fill:url(#SVGID_00000025410912077878923820000002579137147260395415_);stroke-width:1.8307" />
      <path
         d="m 539.79882,193.72963 c -14.61885,-14.61884 -38.5572,-14.61884 -53.17605,0 l -5.48206,5.48207 -5.48207,-5.48207 c -14.61884,-14.61884 -38.5572,-14.61884 -53.17604,0 -14.61885,14.61885 -14.61885,38.5572 0,53.17605 l 5.48206,5.48206 53.17605,53.17605 58.65811,-58.65811 c 14.80157,-14.61885 14.80157,-38.5572 0,-53.17605 z"
         fill="url(#SVGID_00000154422537060845065220000005140217351165894077_)"
         id="path11"
         style="fill:url(#SVGID_00000154422537060845065220000005140217351165894077_);stroke-width:1.82736" />
    </g>
  </g>
</svg>
