<?xml version="1.0" encoding="UTF-8" standalone="no"?>
<svg
   id="Layer_2_00000175304692480789493450000017442095155452921783_"
   enable-background="new 0 0 512 512"
   viewBox="0 0 512 512"
   version="1.1"
   sodipodi:docname="8h.svg"
   inkscape:version="1.4.2 (f4327f4, 2025-05-13)"
   xmlns:inkscape="http://www.inkscape.org/namespaces/inkscape"
   xmlns:sodipodi="http://sodipodi.sourceforge.net/DTD/sodipodi-0.dtd"
   xmlns:xlink="http://www.w3.org/1999/xlink"
   xmlns="http://www.w3.org/2000/svg"
   xmlns:svg="http://www.w3.org/2000/svg">
  <defs
     id="defs12" />
  <sodipodi:namedview
     id="namedview12"
     pagecolor="#ffffff"
     bordercolor="#000000"
     borderopacity="0.25"
     inkscape:showpageshadow="2"
     inkscape:pageopacity="0.0"
     inkscape:pagecheckerboard="0"
     inkscape:deskcolor="#d1d1d1"
     inkscape:zoom="1.6699219"
     inkscape:cx="216.7766"
     inkscape:cy="257.79649"
     inkscape:window-width="1920"
     inkscape:window-height="1057"
     inkscape:window-x="-8"
     inkscape:window-y="-8"
     inkscape:window-maximized="1"
     inkscape:current-layer="Layer_2_00000175304692480789493450000017442095155452921783_" />
  <linearGradient
     id="SVGID_1_"
     gradientTransform="matrix(1.3631523,0,0,-1,-24.766986,512)"
     gradientUnits="userSpaceOnUse"
     x1="48.749"
     x2="463.231"
     y1="463.246"
     y2="48.754">
    <stop
       offset="0"
       stop-color="#454545"
       id="stop1" />
    <stop
       offset="1"
       id="stop2" />
  </linearGradient>
  <linearGradient
     id="SVGID_00000049944230859425314630000014415643167641251975_"
     gradientTransform="matrix(1.3835771,0,0,-1,-29.995726,512)"
     gradientUnits="userSpaceOnUse"
     x1="55.818"
     x2="456.162"
     y1="456.172"
     y2="55.828">
    <stop
       offset="0"
       stop-color="#f2f2f2"
       id="stop3" />
    <stop
       offset="1"
       stop-color="#d9d9d9"
       id="stop4" />
  </linearGradient>
  <linearGradient
     id="lg1">
    <stop
       offset="0"
       stop-color="#fe5b42"
       id="stop5" />
    <stop
       offset="1"
       stop-color="#ba0000"
       id="stop6" />
  </linearGradient>
  <linearGradient
     id="SVGID_00000109751189957070293490000011445967804195258524_"
     gradientTransform="matrix(1.8385487,0,0,-1.8385487,-81.758497,916.18047)"
     gradientUnits="userSpaceOnUse"
     x1="108.854"
     x2="160.852"
     xlink:href="#lg1"
     y1="466.431"
     y2="414.434" />
  <linearGradient
     id="SVGID_00000138567052228819186520000001240599161145606786_"
     gradientTransform="matrix(-1.8273555,0,0,1.8273555,1168.9573,278.51895)"
     gradientUnits="userSpaceOnUse"
     x1="351.148"
     x2="403.146"
     xlink:href="#lg1"
     y1="97.566"
     y2="45.569" />
  <linearGradient
     id="SVGID_00000023240081004008808800000018328834626602179756_"
     gradientTransform="matrix(1.8385487,0,0,-1.8385487,-81.758497,916.18047)"
     gradientUnits="userSpaceOnUse"
     x1="112.253"
     x2="158.938"
     xlink:href="#lg1"
     y1="388.698"
     y2="342.013" />
  <linearGradient
     id="SVGID_00000065064405067814692190000014168225099556701864_"
     gradientTransform="matrix(-1.8273555,0,0,1.8273555,1168.9573,-47.664011)"
     gradientUnits="userSpaceOnUse"
     x1="353.062"
     x2="399.747"
     xlink:href="#lg1"
     y1="169.988"
     y2="123.303" />
  <linearGradient
     id="SVGID_00000156576216713180992330000000835075527385524915_"
     gradientTransform="matrix(1,0,0,-1,0,512)"
     gradientUnits="userSpaceOnUse"
     x1="205.683"
     x2="306.308"
     xlink:href="#lg1"
     y1="334.438"
     y2="233.813" />
  <g
     id="Icon"
     transform="translate(-68.2)">
    <g
       id="_25">
      <path
         d="m 580.2,68.158 v 375.548 c 0,27.6 -30.53461,68.294 -68.15761,68.294 H 136.35761 C 98.734611,512 68.2,471.306 68.2,443.706 V 68.158 C 68.2,40.558 98.735001,0 136.358,0 H 511.906 C 549.66532,0 580.2,40.558 580.2,68.158 Z"
         fill="url(#SVGID_1_)"
         id="path6"
         style="fill:url(#SVGID_1_);stroke-width:1.16754"
         sodipodi:nodetypes="sssssssss" />
      <path
         d="m 570.2,68.158 v 375.548 c 0,22.1 -27.64777,58.294 -58.22482,58.294 H 136.358 C 105.78095,502 78.2,465.806 78.2,443.706 V 68.158 C 78.2,46.058 105.78095,10 136.358,10 H 511.83682 C 542.55223,10 570.2,46.058 570.2,68.158 Z"
         fill="url(#SVGID_00000049944230859425314630000014415643167641251975_)"
         id="path7"
         style="fill:url(#SVGID_00000049944230859425314630000014415643167641251975_);stroke-width:1.17625"
         sodipodi:nodetypes="sssssssss" />
      <path
         d="m 166.07787,180.57714 c -13.0537,0 -24.4527,-4.22866 -33.8293,-12.68599 -9.92816,-8.64118 -14.89224,-19.48861 -14.89224,-32.35846 0,-15.07609 6.61877,-27.21052 19.67247,-36.219405 -9.3766,-7.721904 -14.15683,-17.650067 -14.15683,-29.416779 0,-11.766711 4.41252,-20.959455 13.23755,-28.865214 C 144.56685,33.677097 154.67886,30 166.07787,30 c 11.399,0 21.51102,3.677097 29.96834,11.031292 8.82503,7.721905 13.23755,17.466213 13.23755,28.865214 0,11.399002 -4.78023,21.694875 -14.15682,29.416779 13.05369,9.008885 19.67247,20.959455 19.67247,36.219405 0,12.86985 -4.78023,23.53343 -14.52454,32.17461 -9.74431,8.64118 -20.95945,12.86984 -34.197,12.86984 z m 0,-70.60027 c -7.72191,0 -14.34068,2.39011 -20.40789,6.98648 -6.43492,4.96408 -9.56046,11.21515 -9.56046,18.7532 0,7.53805 3.12554,13.60526 9.56046,18.7532 5.88335,4.59637 12.68598,6.80263 20.40789,6.80263 7.7219,0 14.34068,-2.20626 20.40789,-6.80263 6.43492,-4.96409 9.56045,-11.21515 9.56045,-18.7532 0,-7.53805 -3.12553,-13.78912 -9.56045,-18.7532 -5.88336,-4.59637 -12.68599,-6.98648 -20.40789,-6.98648 z m 0,-60.672109 c -6.25107,0 -11.76672,1.838549 -16.36309,5.699501 -5.33179,4.044807 -7.90576,9.008889 -7.90576,14.892244 0,5.883356 2.57397,11.031293 7.90576,14.892245 4.78023,3.677097 10.11202,5.699501 16.36309,5.699501 6.25106,0 11.76671,-1.838549 16.36308,-5.699501 5.33179,-4.044807 7.90576,-9.008889 7.90576,-14.892245 0,-5.883355 -2.57397,-11.031292 -7.90576,-14.892244 -4.59637,-3.860952 -10.11202,-5.699501 -16.36308,-5.699501 z"
         fill="url(#SVGID_00000109751189957070293490000011445967804195258524_)"
         id="path8"
         style="fill:url(#SVGID_00000109751189957070293490000011445967804195258524_);stroke-width:1.83855" />
      <path
         d="m 479.67882,483 c -12.97422,0 -24.30383,-4.20292 -33.80607,-12.60875 -9.86772,-8.58857 -14.80158,-19.36997 -14.80158,-32.16146 0,-14.98431 6.57848,-27.04486 19.5527,-35.9989 -9.31951,-7.67489 -14.07064,-17.54261 -14.07064,-29.23769 0,-11.69507 4.38566,-20.83185 13.15696,-28.68948 8.40584,-7.30942 18.45629,-10.96413 29.7859,-10.96413 11.3296,0 21.38005,3.65471 29.78589,10.96413 8.77131,7.67489 13.15696,17.35988 13.15696,28.68948 0,11.32961 -4.75113,21.5628 -14.07064,29.23769 12.97423,8.95404 19.55271,20.83185 19.55271,35.9989 0,12.79149 -4.75113,23.39015 -14.43611,31.97872 C 504.16538,478.79708 492.83578,483 479.67882,483 Z m 0,-70.17045 c -7.67489,0 -14.43611,2.37556 -20.10091,6.94395 -6.39574,4.93386 -9.50225,11.14687 -9.50225,18.45629 0,7.30942 3.10651,13.52243 9.50225,18.45629 5.84754,4.56839 12.60875,6.76122 20.10091,6.76122 7.49216,0 14.43611,-2.19283 20.10091,-6.76122 6.39575,-4.93386 9.50225,-11.14687 9.50225,-18.45629 0,-7.30942 -3.1065,-13.70516 -9.50225,-18.45629 -5.6648,-4.56839 -12.42602,-6.94395 -20.10091,-6.94395 z m 0,-60.30273 c -6.21301,0 -11.69507,1.82736 -16.26346,5.6648 -5.29933,4.02018 -7.85763,8.95404 -7.85763,14.80158 0,5.84754 2.5583,10.96413 7.85763,14.80158 4.75112,3.65471 10.05045,5.6648 16.26346,5.6648 6.21301,0 11.69508,-1.82735 16.26346,-5.6648 5.29934,-4.02018 7.85763,-8.95404 7.85763,-14.80158 0,-5.84754 -2.55829,-10.96413 -7.85763,-14.80158 -4.56838,-3.83744 -10.05045,-5.6648 -16.26346,-5.6648 z"
         fill="url(#SVGID_00000138567052228819186520000001240599161145606786_)"
         id="path9"
         style="fill:url(#SVGID_00000138567052228819186520000001240599161145606786_);stroke-width:1.82736" />
      <path
         d="m 226.56612,217.71582 c -14.70839,-14.70839 -38.79338,-14.70839 -53.50177,0 l -5.51565,5.51565 -5.51564,-5.51565 c -14.70839,-14.70839 -38.79338,-14.70839 -53.50177,0 -14.708387,14.70839 -14.708387,38.79338 0,53.50177 l 5.51565,5.51564 53.50176,53.50177 59.01742,-59.01741 c 14.89224,-14.70839 14.89224,-38.79338 0,-53.50177 z"
         fill="url(#SVGID_00000023240081004008808800000018328834626602179756_)"
         id="path10"
         style="fill:url(#SVGID_00000023240081004008808800000018328834626602179756_);stroke-width:1.83855" />
      <path
         d="m 539.79882,193.72963 c -14.61885,-14.61884 -38.5572,-14.61884 -53.17605,0 l -5.48206,5.48207 -5.48207,-5.48207 c -14.61884,-14.61884 -38.5572,-14.61884 -53.17604,0 -14.61885,14.61885 -14.61885,38.5572 0,53.17605 l 5.48206,5.48206 53.17605,53.17605 58.65811,-58.65811 c 14.80157,-14.61885 14.80157,-38.5572 0,-53.17605 z"
         fill="url(#SVGID_00000065064405067814692190000014168225099556701864_)"
         id="path11"
         style="fill:url(#SVGID_00000065064405067814692190000014168225099556701864_);stroke-width:1.82736" />
    </g>
  </g>
</svg>
