<?xml version="1.0" encoding="UTF-8" standalone="no"?>
<svg
   id="Layer_2_00000135653794262669226060000004719197448873101485_"
   enable-background="new 0 0 512 512"
   viewBox="0 0 512 512"
   version="1.1"
   sodipodi:docname="9h.svg"
   inkscape:version="1.4.2 (f4327f4, 2025-05-13)"
   xmlns:inkscape="http://www.inkscape.org/namespaces/inkscape"
   xmlns:sodipodi="http://sodipodi.sourceforge.net/DTD/sodipodi-0.dtd"
   xmlns:xlink="http://www.w3.org/1999/xlink"
   xmlns="http://www.w3.org/2000/svg"
   xmlns:svg="http://www.w3.org/2000/svg">
  <defs
     id="defs12" />
  <sodipodi:namedview
     id="namedview12"
     pagecolor="#ffffff"
     bordercolor="#000000"
     borderopacity="0.25"
     inkscape:showpageshadow="2"
     inkscape:pageopacity="0.0"
     inkscape:pagecheckerboard="0"
     inkscape:deskcolor="#d1d1d1"
     inkscape:zoom="1.6699219"
     inkscape:cx="256.29941"
     inkscape:cy="257.79649"
     inkscape:window-width="1920"
     inkscape:window-height="1057"
     inkscape:window-x="-8"
     inkscape:window-y="-8"
     inkscape:window-maximized="1"
     inkscape:current-layer="_26" />
  <linearGradient
     id="SVGID_1_"
     gradientTransform="matrix(1.3631523,0,0,-1,-24.766986,512)"
     gradientUnits="userSpaceOnUse"
     x1="48.749"
     x2="463.231"
     y1="463.246"
     y2="48.754">
    <stop
       offset="0"
       stop-color="#454545"
       id="stop1" />
    <stop
       offset="1"
       id="stop2" />
  </linearGradient>
  <linearGradient
     id="SVGID_00000098917194855705563790000002747592378595518363_"
     gradientTransform="matrix(1.3835771,0,0,-1,-29.995726,512)"
     gradientUnits="userSpaceOnUse"
     x1="55.818"
     x2="456.162"
     y1="456.172"
     y2="55.828">
    <stop
       offset="0"
       stop-color="#f2f2f2"
       id="stop3" />
    <stop
       offset="1"
       stop-color="#d9d9d9"
       id="stop4" />
  </linearGradient>
  <linearGradient
     id="lg1">
    <stop
       offset="0"
       stop-color="#fe5b42"
       id="stop5" />
    <stop
       offset="1"
       stop-color="#ba0000"
       id="stop6" />
  </linearGradient>
  <linearGradient
     id="SVGID_00000076581697809641746990000016723021732177845410_"
     gradientTransform="matrix(1.8318182,0,0,-1.8318182,-81.102273,913.43546)"
     gradientUnits="userSpaceOnUse"
     x1="108.332"
     x2="159.613"
     xlink:href="#lg1"
     y1="466.529"
     y2="415.248" />
  <linearGradient
     id="SVGID_00000137122039639739748350000011611470700084751805_"
     gradientTransform="matrix(-1.8273555,0,0,1.8273555,1168.9573,277.2398)"
     gradientUnits="userSpaceOnUse"
     x1="352.385"
     x2="403.67"
     xlink:href="#lg1"
     y1="96.749"
     y2="45.474" />
  <linearGradient
     id="SVGID_00000166662333721483020960000006380720736735662215_"
     gradientTransform="matrix(1.8318182,0,0,-1.8318182,-81.102273,913.43546)"
     gradientUnits="userSpaceOnUse"
     x1="112.253"
     x2="158.938"
     xlink:href="#lg1"
     y1="388.698"
     y2="342.013" />
  <linearGradient
     id="SVGID_00000024696830531710980740000010134526202442023343_"
     gradientTransform="matrix(-1.8273555,0,0,1.8273555,1168.9573,-47.664011)"
     gradientUnits="userSpaceOnUse"
     x1="353.062"
     x2="399.747"
     xlink:href="#lg1"
     y1="169.988"
     y2="123.303" />
  <linearGradient
     id="SVGID_00000150811949783174799530000015336535140733579963_"
     gradientTransform="matrix(1,0,0,-1,0,512)"
     gradientUnits="userSpaceOnUse"
     x1="205.683"
     x2="306.308"
     xlink:href="#lg1"
     y1="334.438"
     y2="233.813" />
  <g
     id="Icon"
     transform="translate(-68.2)">
    <g
       id="_26">
      <path
         d="m 580.2,68.158 v 375.548 c 0,27.6 -30.53461,68.294 -68.15761,68.294 H 136.35761 C 98.734611,512 68.2,471.306 68.2,443.706 V 68.158 C 68.2,40.558 98.735001,0 136.358,0 H 511.906 C 549.66532,0 580.2,40.558 580.2,68.158 Z"
         fill="url(#SVGID_1_)"
         id="path6"
         style="fill:url(#SVGID_1_);stroke-width:1.16754"
         sodipodi:nodetypes="sssssssss" />
      <path
         d="m 570.2,68.158 v 375.548 c 0,22.1 -27.64777,58.294 -58.22482,58.294 H 136.358 C 105.78095,502 78.2,465.806 78.2,443.706 V 68.158 C 78.2,46.058 105.78095,10 136.358,10 H 511.83682 C 542.55223,10 570.2,46.058 570.2,68.158 Z"
         fill="url(#SVGID_00000098917194855705563790000002747592378595518363_)"
         id="path7"
         style="fill:url(#SVGID_00000098917194855705563790000002747592378595518363_);stroke-width:1.17625"
         sodipodi:nodetypes="sssssssss" />
      <path
         d="m 193.12091,125.93682 c -8.24318,6.59454 -17.58546,9.89182 -27.84364,9.89182 -13.92182,0 -25.46227,-5.49546 -34.62136,-16.30319 -8.97591,-10.62454 -13.37227,-22.897723 -13.37227,-36.819541 0,-13.921818 4.39636,-26.378182 13.37227,-36.819545 C 139.99818,34.895455 151.53864,29.4 165.27727,29.4 c 17.03591,0 30.04182,8.792727 38.46818,26.561364 6.59455,13.738636 9.89182,30.225 9.89182,49.459086 0,20.15 -3.29727,37.00273 -9.70863,50.19182 -8.42637,17.58546 -21.61546,26.195 -39.75046,26.195 -18.135,0 -31.50727,-8.97591 -41.94863,-27.11091 l 16.48636,-9.70863 c 6.59454,11.54045 15.02091,17.40227 25.27909,17.40227 15.57045,0 25.27909,-12.27318 29.12591,-36.45318 z M 165.27727,48.634091 c -8.42636,0 -15.57045,3.663636 -21.24909,10.807727 -5.31227,6.594546 -7.87682,14.288182 -7.87682,23.080909 0,8.792728 2.74773,16.303182 7.87682,23.080913 5.67864,7.32727 12.63955,10.80772 21.24909,10.80772 7.14409,0 13.37228,-2.74772 18.68455,-8.24318 4.76273,-4.94591 7.87682,-10.990907 9.70863,-18.501362 -3.29727,-27.294091 -12.82272,-41.032727 -28.39318,-41.032727 z"
         fill="url(#SVGID_00000076581697809641746990000016723021732177845410_)"
         id="path8"
         style="fill:url(#SVGID_00000076581697809641746990000016723021732177845410_);stroke-width:1.83182" />
      <path
         d="m 506.90642,427.26566 c -8.2231,6.57848 -17.35988,9.86772 -27.77581,9.86772 -13.8879,0 -25.40024,-5.48207 -34.53701,-16.26347 -8.95405,-10.59866 -13.3397,-22.84194 -13.3397,-36.72984 0,-13.8879 4.38565,-26.31392 13.3397,-36.72984 9.31951,-10.96414 20.83185,-16.4462 34.53701,-16.4462 17.17715,0 29.96863,8.7713 38.37447,26.49665 6.57848,13.70517 9.86772,30.15137 9.86772,49.3386 0,20.10091 -3.28924,36.72984 -9.68499,50.06954 C 509.28198,474.22869 495.94228,483 478.0342,483 c -17.90808,0 -31.43051,-8.95404 -41.84644,-27.04486 l 16.4462,-9.68498 c 6.57848,11.51233 14.98432,17.35987 25.21751,17.35987 15.53252,0 25.2175,-12.24328 29.05495,-36.36437 z m -27.77581,-77.1144 c -8.40583,0 -15.53252,3.65471 -21.19732,10.7814 -5.29933,6.57848 -7.85763,14.25337 -7.85763,23.02467 0,8.77131 2.74104,16.26347 7.85763,23.02468 5.6648,7.30942 12.60875,10.7814 21.19732,10.7814 7.12669,0 13.3397,-2.74103 18.63903,-8.2231 4.75112,-4.93386 7.85763,-10.96413 9.68498,-18.45629 -3.28924,-27.2276 -12.79148,-40.93276 -28.32401,-40.93276 z"
         fill="url(#SVGID_00000137122039639739748350000011611470700084751805_)"
         id="path9"
         style="fill:url(#SVGID_00000137122039639739748350000011611470700084751805_);stroke-width:1.82736" />
      <path
         d="m 226.09364,217.52773 c -14.65455,-14.65455 -38.65137,-14.65455 -53.30591,0 l -5.49546,5.49545 -5.49545,-5.49545 c -14.65455,-14.65455 -38.65137,-14.65455 -53.30591,0 -14.654546,14.65454 -14.654546,38.65136 0,53.30591 l 5.49545,5.49545 53.30591,53.30591 58.80137,-58.80136 c 14.83772,-14.65455 14.83772,-38.65137 0,-53.30591 z"
         fill="url(#SVGID_00000166662333721483020960000006380720736735662215_)"
         id="path10"
         style="fill:url(#SVGID_00000166662333721483020960000006380720736735662215_);stroke-width:1.83182" />
      <path
         d="m 539.79882,193.72963 c -14.61885,-14.61884 -38.5572,-14.61884 -53.17605,0 l -5.48206,5.48207 -5.48207,-5.48207 c -14.61884,-14.61884 -38.5572,-14.61884 -53.17604,0 -14.61885,14.61885 -14.61885,38.5572 0,53.17605 l 5.48206,5.48206 53.17605,53.17605 58.65811,-58.65811 c 14.80157,-14.61885 14.80157,-38.5572 0,-53.17605 z"
         fill="url(#SVGID_00000024696830531710980740000010134526202442023343_)"
         id="path11"
         style="fill:url(#SVGID_00000024696830531710980740000010134526202442023343_);stroke-width:1.82736" />
    </g>
  </g>
</svg>
