<?xml version="1.0" encoding="UTF-8" standalone="no"?>
<svg
   id="Layer_2_00000018925650316699801410000006847697176377420674_"
   enable-background="new 0 0 512 512"
   viewBox="0 0 512 512"
   version="1.1"
   sodipodi:docname="Jh.svg"
   inkscape:version="1.4.2 (f4327f4, 2025-05-13)"
   xmlns:inkscape="http://www.inkscape.org/namespaces/inkscape"
   xmlns:sodipodi="http://sodipodi.sourceforge.net/DTD/sodipodi-0.dtd"
   xmlns:xlink="http://www.w3.org/1999/xlink"
   xmlns="http://www.w3.org/2000/svg"
   xmlns:svg="http://www.w3.org/2000/svg">
  <defs
     id="defs12" />
  <sodipodi:namedview
     id="namedview12"
     pagecolor="#ffffff"
     bordercolor="#000000"
     borderopacity="0.25"
     inkscape:showpageshadow="2"
     inkscape:pageopacity="0.0"
     inkscape:pagecheckerboard="0"
     inkscape:deskcolor="#d1d1d1"
     inkscape:zoom="1.6699219"
     inkscape:cx="256.29941"
     inkscape:cy="257.79649"
     inkscape:window-width="1920"
     inkscape:window-height="1057"
     inkscape:window-x="-8"
     inkscape:window-y="-8"
     inkscape:window-maximized="1"
     inkscape:current-layer="Layer_2_00000018925650316699801410000006847697176377420674_" />
  <linearGradient
     id="SVGID_1_"
     gradientTransform="matrix(1.3631523,0,0,-1,-24.766986,512)"
     gradientUnits="userSpaceOnUse"
     x1="48.749"
     x2="463.231"
     y1="463.246"
     y2="48.754">
    <stop
       offset="0"
       stop-color="#454545"
       id="stop1" />
    <stop
       offset="1"
       id="stop2" />
  </linearGradient>
  <linearGradient
     id="SVGID_00000131360732570492813470000006900271757933185664_"
     gradientTransform="matrix(1.3835771,0,0,-1,-29.995726,512)"
     gradientUnits="userSpaceOnUse"
     x1="55.818"
     x2="456.162"
     y1="456.172"
     y2="55.828">
    <stop
       offset="0"
       stop-color="#f2f2f2"
       id="stop3" />
    <stop
       offset="1"
       stop-color="#d9d9d9"
       id="stop4" />
  </linearGradient>
  <linearGradient
     id="lg1">
    <stop
       offset="0"
       stop-color="#fe5b42"
       id="stop5" />
    <stop
       offset="1"
       stop-color="#ba0000"
       id="stop6" />
  </linearGradient>
  <linearGradient
     id="SVGID_00000003799486009257403520000002764248309177769657_"
     gradientTransform="matrix(1.8374235,0,0,-1.8374235,-81.648791,915.72187)"
     gradientUnits="userSpaceOnUse"
     x1="116.002"
     x2="160.619"
     xlink:href="#lg1"
     y1="465.877"
     y2="421.26" />
  <linearGradient
     id="SVGID_00000035488762899795474060000016957559635141456556_"
     gradientTransform="matrix(-1.8273555,0,0,1.8273555,1168.9573,278.70168)"
     gradientUnits="userSpaceOnUse"
     x1="351.381"
     x2="395.998"
     xlink:href="#lg1"
     y1="90.741"
     y2="46.123" />
  <linearGradient
     id="SVGID_00000098933206998103015900000007715245078443477677_"
     gradientTransform="matrix(1.8374235,0,0,-1.8374235,-81.648791,915.72187)"
     gradientUnits="userSpaceOnUse"
     x1="112.253"
     x2="158.938"
     xlink:href="#lg1"
     y1="388.698"
     y2="342.013" />
  <linearGradient
     id="SVGID_00000011743666184869977460000003070518980995876796_"
     gradientTransform="matrix(-1.8273555,0,0,1.8273555,1168.9573,-47.664011)"
     gradientUnits="userSpaceOnUse"
     x1="353.062"
     x2="399.747"
     xlink:href="#lg1"
     y1="169.988"
     y2="123.303" />
  <linearGradient
     id="SVGID_00000151513964536562937450000006960725945446658725_"
     gradientTransform="matrix(1,0,0,-1,0,512)"
     gradientUnits="userSpaceOnUse"
     x1="205.683"
     x2="306.308"
     xlink:href="#lg1"
     y1="334.438"
     y2="233.813" />
  <g
     id="Icon"
     transform="translate(-68.2)">
    <g
       id="_28">
      <path
         d="m 580.2,68.158 v 375.548 c 0,27.6 -30.53461,68.294 -68.15761,68.294 H 136.35761 C 98.734611,512 68.2,471.306 68.2,443.706 V 68.158 C 68.2,40.558 98.735001,0 136.358,0 H 511.906 C 549.66532,0 580.2,40.558 580.2,68.158 Z"
         fill="url(#SVGID_1_)"
         id="path6"
         style="fill:url(#SVGID_1_);stroke-width:1.16754"
         sodipodi:nodetypes="sssssssss" />
      <path
         d="m 570.2,68.158 v 375.548 c 0,22.1 -27.64777,58.294 -58.22482,58.294 H 136.358 C 105.78095,502 78.2,465.806 78.2,443.706 V 68.158 C 78.2,46.058 105.78095,10 136.358,10 H 511.83682 C 542.55223,10 570.2,46.058 570.2,68.158 Z"
         fill="url(#SVGID_00000131360732570492813470000006900271757933185664_)"
         id="path7"
         style="fill:url(#SVGID_00000131360732570492813470000006900271757933185664_);stroke-width:1.17625"
         sodipodi:nodetypes="sssssssss" />
      <path
         d="m 137.73957,126.36473 c 0,7.16596 0,10.10583 0,9.00338 0,6.98221 1.46994,12.67822 4.40982,16.9043 3.49111,5.14478 8.81963,7.53343 15.98559,7.53343 6.06349,0 10.84079,-2.20491 14.51564,-6.61472 3.30736,-4.04233 4.96104,-9.00338 4.96104,-15.06688 V 50.846628 H 161.62608 V 29.9 h 51.81534 v 20.946628 h -15.80184 v 87.461362 c 0,11.94325 -3.4911,21.86534 -10.8408,29.76626 -7.53343,8.45215 -17.08804,12.49448 -29.03129,12.49448 -11.75951,0 -21.6816,-4.04233 -29.39878,-12.31074 -7.71717,-8.26841 -11.39202,-18.37424 -11.20828,-30.13375 v -11.75951 z"
         fill="url(#SVGID_00000003799486009257403520000002764248309177769657_)"
         id="path8"
         style="fill:url(#SVGID_00000003799486009257403520000002764248309177769657_);stroke-width:1.83742" />
      <path
         d="m 451.53755,429.27575 c 0,7.12669 0,10.05045 0,8.95404 0,6.94395 1.46188,12.60875 4.38565,16.81167 3.47198,5.1166 8.77131,7.49216 15.71526,7.49216 6.03027,0 10.78139,-2.19283 14.43611,-6.57848 3.28924,-4.02018 4.93386,-8.95404 4.93386,-14.98432 v -86.98211 h -15.898 v -20.83186 h 51.53143 v 20.83186 h -15.34979 v 86.98211 c 0,11.87782 -3.65471,21.74553 -10.7814,29.60316 C 493.01852,478.79708 483.33353,483 471.63846,483 c -11.69508,0 -21.5628,-4.02018 -29.23769,-12.24328 -7.67489,-8.2231 -11.3296,-18.27356 -11.14687,-29.96863 v -11.69508 z"
         fill="url(#SVGID_00000035488762899795474060000016957559635141456556_)"
         id="path9"
         style="fill:url(#SVGID_00000035488762899795474060000016957559635141456556_);stroke-width:1.82736" />
      <path
         d="m 226.48713,217.68468 c -14.69939,-14.69939 -38.76964,-14.69939 -53.46902,0 l -5.51227,5.51227 -5.51228,-5.51227 c -14.69938,-14.69939 -38.76963,-14.69939 -53.46902,0 -14.699387,14.69939 -14.699387,38.76964 0,53.46903 l 5.51227,5.51227 53.46903,53.46902 58.98129,-58.98129 c 14.88313,-14.69939 14.88313,-38.76964 0,-53.46903 z"
         fill="url(#SVGID_00000098933206998103015900000007715245078443477677_)"
         id="path10"
         style="fill:url(#SVGID_00000098933206998103015900000007715245078443477677_);stroke-width:1.83742" />
      <path
         d="m 539.79882,193.72963 c -14.61885,-14.61884 -38.5572,-14.61884 -53.17605,0 l -5.48206,5.48207 -5.48207,-5.48207 c -14.61884,-14.61884 -38.5572,-14.61884 -53.17604,0 -14.61885,14.61885 -14.61885,38.5572 0,53.17605 l 5.48206,5.48206 53.17605,53.17605 58.65811,-58.65811 c 14.80157,-14.61885 14.80157,-38.5572 0,-53.17605 z"
         fill="url(#SVGID_00000011743666184869977460000003070518980995876796_)"
         id="path11"
         style="fill:url(#SVGID_00000011743666184869977460000003070518980995876796_);stroke-width:1.82736" />
    </g>
  </g>
</svg>
