<?xml version="1.0" encoding="UTF-8" standalone="no"?>
<svg
   id="Layer_2_00000065051284506543371020000004632032509670405806_"
   enable-background="new 0 0 512 512"
   viewBox="0 0 512 512"
   version="1.1"
   sodipodi:docname="Kh.svg"
   inkscape:version="1.4.2 (f4327f4, 2025-05-13)"
   xmlns:inkscape="http://www.inkscape.org/namespaces/inkscape"
   xmlns:sodipodi="http://sodipodi.sourceforge.net/DTD/sodipodi-0.dtd"
   xmlns:xlink="http://www.w3.org/1999/xlink"
   xmlns="http://www.w3.org/2000/svg"
   xmlns:svg="http://www.w3.org/2000/svg">
  <defs
     id="defs12" />
  <sodipodi:namedview
     id="namedview12"
     pagecolor="#ffffff"
     bordercolor="#000000"
     borderopacity="0.25"
     inkscape:showpageshadow="2"
     inkscape:pageopacity="0.0"
     inkscape:pagecheckerboard="0"
     inkscape:deskcolor="#d1d1d1"
     inkscape:zoom="1.6699219"
     inkscape:cx="256.29941"
     inkscape:cy="257.79649"
     inkscape:window-width="1920"
     inkscape:window-height="1057"
     inkscape:window-x="-8"
     inkscape:window-y="-8"
     inkscape:window-maximized="1"
     inkscape:current-layer="Layer_2_00000065051284506543371020000004632032509670405806_" />
  <linearGradient
     id="SVGID_1_"
     gradientTransform="matrix(1.3631523,0,0,-1,-24.766986,512)"
     gradientUnits="userSpaceOnUse"
     x1="48.749"
     x2="463.231"
     y1="463.246"
     y2="48.754">
    <stop
       offset="0"
       stop-color="#454545"
       id="stop1" />
    <stop
       offset="1"
       id="stop2" />
  </linearGradient>
  <linearGradient
     id="SVGID_00000083793133722048564610000015692294671172912796_"
     gradientTransform="matrix(1.3835771,0,0,-1,-29.995726,512)"
     gradientUnits="userSpaceOnUse"
     x1="55.818"
     x2="456.162"
     y1="456.172"
     y2="55.828">
    <stop
       offset="0"
       stop-color="#f2f2f2"
       id="stop3" />
    <stop
       offset="1"
       stop-color="#d9d9d9"
       id="stop4" />
  </linearGradient>
  <linearGradient
     id="lg1">
    <stop
       offset="0"
       stop-color="#fe5b42"
       id="stop5" />
    <stop
       offset="1"
       stop-color="#ba0000"
       id="stop6" />
  </linearGradient>
  <linearGradient
     id="SVGID_00000124867399507149919770000010162979155126749370_"
     gradientTransform="matrix(1.8453288,0,0,-1.8453288,-82.419561,918.94128)"
     gradientUnits="userSpaceOnUse"
     x1="101.342"
     x2="168.128"
     xlink:href="#lg1"
     y1="474.478"
     y2="407.682" />
  <linearGradient
     id="SVGID_00000179634632025946532730000012101588313642294427_"
     gradientTransform="matrix(-1.8273555,0,0,1.8273555,1168.9573,279.79809)"
     gradientUnits="userSpaceOnUse"
     x1="343.862"
     x2="410.648"
     xlink:href="#lg1"
     y1="104.318"
     y2="37.522" />
  <linearGradient
     id="SVGID_00000098916441553335509940000013000624144177648025_"
     gradientTransform="matrix(1.8453288,0,0,-1.8453288,-82.419561,918.94128)"
     gradientUnits="userSpaceOnUse"
     x1="112.253"
     x2="158.938"
     xlink:href="#lg1"
     y1="388.698"
     y2="342.013" />
  <linearGradient
     id="SVGID_00000172435439547554970380000015269622761078928544_"
     gradientTransform="matrix(-1.8273555,0,0,1.8273555,1168.9573,-47.664011)"
     gradientUnits="userSpaceOnUse"
     x1="353.062"
     x2="399.747"
     xlink:href="#lg1"
     y1="169.988"
     y2="123.303" />
  <linearGradient
     id="SVGID_00000023276760300838359550000018013352165278566552_"
     gradientTransform="matrix(1,0,0,-1,0,512)"
     gradientUnits="userSpaceOnUse"
     x1="205.683"
     x2="306.308"
     xlink:href="#lg1"
     y1="334.438"
     y2="233.813" />
  <g
     id="Icon"
     transform="translate(-68.2)">
    <g
       id="_30">
      <path
         d="m 580.2,68.158 v 375.548 c 0,27.6 -30.53461,68.294 -68.15761,68.294 H 136.35761 C 98.734611,512 68.2,471.306 68.2,443.706 V 68.158 C 68.2,40.558 98.735001,0 136.358,0 H 511.906 C 549.66532,0 580.2,40.558 580.2,68.158 Z"
         fill="url(#SVGID_1_)"
         id="path6"
         style="fill:url(#SVGID_1_);stroke-width:1.16754"
         sodipodi:nodetypes="sssssssss" />
      <path
         d="m 570.2,68.158 v 375.548 c 0,22.1 -27.64777,58.294 -58.22482,58.294 H 136.358 C 105.78095,502 78.2,465.806 78.2,443.706 V 68.158 C 78.2,46.058 105.78095,10 136.358,10 H 511.83682 C 542.55223,10 570.2,46.058 570.2,68.158 Z"
         fill="url(#SVGID_00000083793133722048564610000015692294671172912796_)"
         id="path7"
         style="fill:url(#SVGID_00000083793133722048564610000015692294671172912796_);stroke-width:1.17625"
         sodipodi:nodetypes="sssssssss" />
      <path
         d="m 117.42955,163.09461 h 13.65543 V 46.838894 H 117.42955 V 30.6 h 41.33537 v 16.238894 h -11.44104 v 56.651596 l 36.35298,-56.651596 h -14.0245 V 30.6 h 45.39509 v 16.238894 h -13.10184 l -29.52526,45.948687 30.07886,70.491559 h 12.3637 v 16.2389 h -45.39509 v -16.2389 h 14.5781 l -22.88208,-53.33 -14.20903,22.14395 v 31.18605 h 11.44104 v 16.2389 h -41.33536 z"
         fill="url(#SVGID_00000124867399507149919770000010162979155126749370_)"
         id="path8"
         style="fill:url(#SVGID_00000124867399507149919770000010162979155126749370_);stroke-width:1.84533" />
      <path
         d="m 431.2539,466.91927 h 13.52243 V 351.79588 H 431.2539 v -16.08073 h 40.93276 v 16.08073 h -11.3296 v 55.91708 l 35.9989,-55.91708 h -13.8879 v -16.08073 h 44.95295 v 16.08073 h -12.97423 l -29.23769,45.50115 29.7859,69.62224 h 12.24328 V 483 h -44.95294 v -16.08073 h 14.4361 l -22.6592,-52.81057 -14.07064,21.92826 v 30.88231 h 11.3296 V 483 h -40.93276 z"
         fill="url(#SVGID_00000179634632025946532730000012101588313642294427_)"
         id="path9"
         style="fill:url(#SVGID_00000179634632025946532730000012101588313642294427_);stroke-width:1.82736" />
      <path
         d="m 227.04208,217.90088 c -14.76263,-14.76263 -38.93643,-14.76263 -53.69907,0 l -5.53598,5.53598 -5.53599,-5.53598 c -14.76263,-14.76263 -38.93644,-14.76263 -53.69907,0 -14.762628,14.76263 -14.762628,38.93643 0,53.69906 l 5.53599,5.53599 53.69907,53.69907 59.23505,-59.23506 c 14.94717,-14.76263 14.94717,-38.93643 0,-53.69906 z"
         fill="url(#SVGID_00000098916441553335509940000013000624144177648025_)"
         id="path10"
         style="fill:url(#SVGID_00000098916441553335509940000013000624144177648025_);stroke-width:1.84533" />
      <path
         d="m 539.79882,193.72963 c -14.61885,-14.61884 -38.5572,-14.61884 -53.17605,0 l -5.48206,5.48207 -5.48207,-5.48207 c -14.61884,-14.61884 -38.5572,-14.61884 -53.17604,0 -14.61885,14.61885 -14.61885,38.5572 0,53.17605 l 5.48206,5.48206 53.17605,53.17605 58.65811,-58.65811 c 14.80157,-14.61885 14.80157,-38.5572 0,-53.17605 z"
         fill="url(#SVGID_00000172435439547554970380000015269622761078928544_)"
         id="path11"
         style="fill:url(#SVGID_00000172435439547554970380000015269622761078928544_);stroke-width:1.82736" />
    </g>
  </g>
</svg>
