<?xml version="1.0" encoding="UTF-8" standalone="no"?>
<svg
   id="Layer_2_00000173129008358280934570000006141044097681905851_"
   enable-background="new 0 0 512 512"
   viewBox="0 0 512 512"
   version="1.1"
   sodipodi:docname="Th.svg"
   inkscape:version="1.4.2 (f4327f4, 2025-05-13)"
   xmlns:inkscape="http://www.inkscape.org/namespaces/inkscape"
   xmlns:sodipodi="http://sodipodi.sourceforge.net/DTD/sodipodi-0.dtd"
   xmlns:xlink="http://www.w3.org/1999/xlink"
   xmlns="http://www.w3.org/2000/svg"
   xmlns:svg="http://www.w3.org/2000/svg">
  <defs
     id="defs12" />
  <sodipodi:namedview
     id="namedview12"
     pagecolor="#ffffff"
     bordercolor="#000000"
     borderopacity="0.25"
     inkscape:showpageshadow="2"
     inkscape:pageopacity="0.0"
     inkscape:pagecheckerboard="0"
     inkscape:deskcolor="#d1d1d1"
     inkscape:zoom="1.6699219"
     inkscape:cx="255.70058"
     inkscape:cy="258.39532"
     inkscape:window-width="1920"
     inkscape:window-height="1057"
     inkscape:window-x="-8"
     inkscape:window-y="-8"
     inkscape:window-maximized="1"
     inkscape:current-layer="Layer_2_00000173129008358280934570000006141044097681905851_" />
  <linearGradient
     id="SVGID_1_"
     gradientTransform="matrix(1.3631523,0,0,-1,-24.766986,512)"
     gradientUnits="userSpaceOnUse"
     x1="48.749"
     x2="463.231"
     y1="463.246"
     y2="48.754">
    <stop
       offset="0"
       stop-color="#454545"
       id="stop1" />
    <stop
       offset="1"
       id="stop2" />
  </linearGradient>
  <linearGradient
     id="SVGID_00000093891899395641090730000005628397534937311376_"
     gradientTransform="matrix(1.3835771,0,0,-1,-29.995726,512)"
     gradientUnits="userSpaceOnUse"
     x1="55.818"
     x2="456.162"
     y1="456.172"
     y2="55.828">
    <stop
       offset="0"
       stop-color="#f2f2f2"
       id="stop3" />
    <stop
       offset="1"
       stop-color="#d9d9d9"
       id="stop4" />
  </linearGradient>
  <linearGradient
     id="lg1">
    <stop
       offset="0"
       stop-color="#fe5b42"
       id="stop5" />
    <stop
       offset="1"
       stop-color="#ba0000"
       id="stop6" />
  </linearGradient>
  <linearGradient
     id="SVGID_00000011745382883554437410000000755723229280634287_"
     gradientTransform="matrix(1.8295856,0,0,-1.8295856,-80.884598,912.52393)"
     gradientUnits="userSpaceOnUse"
     x1="109.486"
     x2="192.408"
     xlink:href="#lg1"
     y1="482.621"
     y2="399.699" />
  <linearGradient
     id="SVGID_00000147186941876302569700000009355102504336945035_"
     gradientTransform="matrix(-1.8273555,0,0,1.8273555,1086.8634,277.2398)"
     gradientUnits="userSpaceOnUse"
     x1="319.595"
     x2="402.512"
     xlink:href="#lg1"
     y1="112.303"
     y2="29.377" />
  <linearGradient
     id="SVGID_00000153664893847692672660000013377203305316356793_"
     gradientTransform="matrix(1.8295856,0,0,-1.8295856,-80.884598,912.52393)"
     gradientUnits="userSpaceOnUse"
     x1="112.253"
     x2="158.938"
     xlink:href="#lg1"
     y1="388.698"
     y2="342.013" />
  <linearGradient
     id="SVGID_00000052076755244389894960000010203172737274183074_"
     gradientTransform="matrix(-1.8273555,0,0,1.8273555,1168.9573,-47.664011)"
     gradientUnits="userSpaceOnUse"
     x1="353.062"
     x2="399.747"
     xlink:href="#lg1"
     y1="169.988"
     y2="123.303" />
  <linearGradient
     id="SVGID_00000010285715320437946270000017445999660819453317_"
     gradientTransform="matrix(1 0 0 -1 0 512)"
     gradientUnits="userSpaceOnUse"
     x1="205.683"
     x2="306.308"
     xlink:href="#lg1"
     y1="334.438"
     y2="233.813" />
  <g
     id="Icon"
     transform="translate(-68.2)">
    <g
       id="_27">
      <path
         d="m 580.2,68.158 v 375.548 c 0,27.6 -30.53461,68.294 -68.15761,68.294 H 136.35761 C 98.734611,512 68.2,471.306 68.2,443.706 V 68.158 C 68.2,40.558 98.735001,0 136.358,0 H 511.906 C 549.66532,0 580.2,40.558 580.2,68.158 Z"
         fill="url(#SVGID_1_)"
         id="path6"
         style="fill:url(#SVGID_1_);stroke-width:1.16754"
         sodipodi:nodetypes="sssssssss" />
      <path
         d="m 570.2,68.158 v 375.548 c 0,22.1 -27.64777,58.294 -58.22482,58.294 H 136.358 C 105.78095,502 78.2,465.806 78.2,443.706 V 68.158 C 78.2,46.058 105.78095,10 136.358,10 H 511.83682 C 542.55223,10 570.2,46.058 570.2,68.158 Z"
         fill="url(#SVGID_00000093891899395641090730000005628397534937311376_)"
         id="path7"
         style="fill:url(#SVGID_00000093891899395641090730000005628397534937311376_);stroke-width:1.17625"
         sodipodi:nodetypes="sssssssss" />
      <path
         d="m 198.85904,179.04306 h -81.59952 v -20.67432 h 31.10296 V 52.435737 H 117.25952 V 31.76142 h 51.2284 v 126.60732 h 30.37112 z m 4.02509,-47.75218 V 79.147687 c 0,-13.538933 4.75692,-25.248281 14.08781,-35.128043 C 226.30283,34.139881 237.82922,29.2 251.18519,29.2 c 13.35598,0 24.88237,4.939881 34.21325,14.819644 9.33089,9.879762 14.08781,21.58911 14.08781,35.128043 v 52.143193 c 0,13.53893 -4.75692,25.43124 -14.08781,35.49396 -9.33088,10.06272 -20.85727,15.0026 -34.21325,15.0026 -13.35597,0 -24.88236,-4.93988 -34.21325,-15.0026 -9.33089,-10.06272 -14.08781,-21.77207 -14.08781,-35.49396 z m 20.49136,-52.143193 v 52.143193 c 0,8.05017 2.74438,15.0026 8.23314,20.85727 5.48875,5.85468 12.07526,8.78201 19.75952,8.78201 7.68426,0 14.27077,-2.92733 19.75953,-8.96496 5.48875,-6.03764 8.23313,-12.99006 8.23313,-20.67432 V 79.147687 c 0,-7.867218 -2.74438,-14.636685 -8.23313,-20.491359 -5.48876,-5.854674 -12.07527,-8.599052 -19.75953,-8.599052 -7.68426,0 -14.27077,2.927337 -19.75952,8.599052 -5.67172,5.854674 -8.23314,12.624141 -8.23314,20.491359 z"
         fill="url(#SVGID_00000011745382883554437410000000755723229280634287_)"
         id="path8"
         style="fill:url(#SVGID_00000011745382883554437410000000755723229280634287_);stroke-width:1.82959" />
      <path
         d="M 430.66001,480.25897 H 349.15996 V 459.60985 H 380.225 V 353.80597 h -31.06504 v -20.64912 h 51.16595 v 126.453 h 30.3341 z m 4.02018,-47.69398 v -52.07963 c 0,-13.52243 4.75113,-25.21751 14.07064,-35.08523 9.31951,-9.86772 20.83185,-14.80157 34.17155,-14.80157 13.33969,0 24.85203,4.93385 34.17154,14.80157 9.31952,9.86772 14.07064,21.5628 14.07064,35.08523 v 52.07963 c 0,13.52243 -4.75112,25.40024 -14.07064,35.4507 C 507.77441,478.06614 496.26207,483 482.92238,483 c -13.52243,0 -24.85204,-4.93386 -34.17155,-14.98431 -9.31951,-10.05046 -14.07064,-21.74553 -14.07064,-35.4507 z m 20.46638,-52.07963 v 52.07963 c 0,8.04036 2.74104,14.80158 8.2231,20.83185 5.48207,5.84754 12.06055,8.95404 19.73544,8.95404 7.6749,0 14.25338,-2.92377 19.73544,-8.95404 5.48207,-6.03027 8.2231,-12.79149 8.2231,-20.64911 v -52.07964 c 0,-7.85762 -2.74103,-14.61884 -8.2231,-20.28364 -5.48206,-5.6648 -12.06054,-8.58857 -19.73544,-8.58857 -7.67489,0 -14.25337,2.92377 -19.73544,8.58857 -5.6648,5.48207 -8.2231,12.24328 -8.2231,20.10091 z"
         fill="url(#SVGID_00000147186941876302569700000009355102504336945035_)"
         id="path9"
         style="fill:url(#SVGID_00000147186941876302569700000009355102504336945035_);stroke-width:1.82736" />
      <path
         d="m 225.93691,217.46436 c -14.63668,-14.63668 -38.60426,-14.63668 -53.24094,0 l -5.48876,5.48876 -5.48875,-5.48876 c -14.63669,-14.63668 -38.60426,-14.63668 -53.24095,0 -14.636681,14.63669 -14.636681,38.60426 0,53.24094 l 5.48876,5.48876 53.24094,53.24094 58.7297,-58.7297 c 14.81964,-14.63668 14.81964,-38.60425 0,-53.24094 z"
         fill="url(#SVGID_00000153664893847692672660000013377203305316356793_)"
         id="path10"
         style="fill:url(#SVGID_00000153664893847692672660000013377203305316356793_);stroke-width:1.82959" />
      <path
         d="m 539.79882,193.72963 c -14.61885,-14.61884 -38.5572,-14.61884 -53.17605,0 l -5.48206,5.48207 -5.48207,-5.48207 c -14.61884,-14.61884 -38.5572,-14.61884 -53.17604,0 -14.61885,14.61885 -14.61885,38.5572 0,53.17605 l 5.48206,5.48206 53.17605,53.17605 58.65811,-58.65811 c 14.80157,-14.61885 14.80157,-38.5572 0,-53.17605 z"
         fill="url(#SVGID_00000052076755244389894960000010203172737274183074_)"
         id="path11"
         style="fill:url(#SVGID_00000052076755244389894960000010203172737274183074_);stroke-width:1.82736" />
    </g>
  </g>
</svg>
