<svg height="512" viewBox="0 0 64 64" width="512" xmlns="http://www.w3.org/2000/svg"><g id="Layer_36" data-name="Layer 36"><path d="m58.585 32c0 2.018 4.736 4 4.371 5.907a31.456 31.456 0 0 1 -10.367 17.937c-1.152 1-5.515-2.024-6.8-1.2-2.037 1.3-1.095 6.31-3.417 7.118a31.7 31.7 0 0 1 -20.734 0c-2.252-.784-1.432-5.87-3.417-7.118-1.356-.853-5.6 2.248-6.8 1.2a31.458 31.458 0 0 1 -10.374-17.939c-.364-1.91 4.372-3.889 4.372-5.905s-4.736-4-4.372-5.909a31.458 31.458 0 0 1 10.368-17.939c1.5-1.3 3.849 3.17 7.788 1.2 3.175-1.587.548-6.462 2.432-7.118a31.7 31.7 0 0 1 20.734 0c1.884.656 1.716 6.134 3.417 7.118 1.721 1 5.307-2.5 6.8-1.2a31.456 31.456 0 0 1 10.37 17.939c.365 1.909-4.371 3.889-4.371 5.909z" fill="#ed1c24"/><path d="m32 64a31.891 31.891 0 0 1 -10.53-1.768c-1.447-.5-1.819-2.266-2.18-3.973-.282-1.333-.573-2.711-1.338-3.194-.451-.277-1.873.275-2.912.679-1.6.623-3.107 1.208-3.953.478a32.084 32.084 0 0 1 -10.531-18.222c-.241-1.261 1.049-2.377 2.3-3.456.965-.844 2.063-1.79 2.063-2.544s-1.1-1.706-2.066-2.544c-1.248-1.081-2.538-2.197-2.297-3.456a32.086 32.086 0 0 1 10.532-18.227c.9-.773 1.938-.156 2.947.445 1.354.8 2.888 1.716 4.944.688 1.51-.755 1.459-2.418 1.409-4.027-.041-1.332-.083-2.71 1.082-3.116a32.336 32.336 0 0 1 21.064 0c1.235.428 1.678 2.156 2.149 3.984.338 1.315.721 2.807 1.353 3.173.615.357 1.843-.2 2.926-.69 1.446-.655 2.943-1.334 3.955-.457a32.084 32.084 0 0 1 10.531 18.227c.24 1.261-1.05 2.377-2.3 3.456-.968.838-2.066 1.788-2.066 2.544s1.1 1.706 2.066 2.544c1.247 1.079 2.537 2.2 2.3 3.457a32.086 32.086 0 0 1 -10.532 18.222c-.814.7-2.337.129-3.951-.482-1.051-.4-2.492-.948-2.91-.677-.79.5-1.067 1.874-1.335 3.2-.344 1.7-.7 3.453-2.187 3.97a31.906 31.906 0 0 1 -10.533 1.766zm-14.4-10.007a1.625 1.625 0 0 1 .887.227c1.124.707 1.46 2.3 1.785 3.833.3 1.434.616 2.918 1.529 3.235a31.349 31.349 0 0 0 20.407 0c.949-.331 1.233-1.736 1.535-3.226.309-1.528.63-3.109 1.777-3.841.839-.54 2.279.007 3.8.584 1.027.388 2.579.98 2.942.66a31.081 31.081 0 0 0 10.2-17.653c.133-.7-.983-1.663-1.968-2.515-1.186-1.026-2.412-2.087-2.412-3.3s1.226-2.274 2.412-3.3c.985-.852 2.1-1.818 1.968-2.513a31.078 31.078 0 0 0 -10.2-17.654c-.528-.459-1.727.085-2.888.612-1.366.618-2.777 1.255-3.839.643-.995-.576-1.4-2.137-1.821-3.79-.366-1.422-.78-3.035-1.509-3.288a31.346 31.346 0 0 0 -20.406 0c-.441.153-.449.911-.411 2.142.05 1.65.12 3.911-1.962 4.952-2.541 1.272-4.484.119-5.9-.724-1-.593-1.465-.822-1.781-.547a31.08 31.08 0 0 0 -10.2 17.654c-.133.7.983 1.662 1.968 2.514 1.186 1.026 2.412 2.087 2.412 3.3s-1.226 2.274-2.412 3.3c-.985.852-2.1 1.818-1.968 2.514a31.079 31.079 0 0 0 10.2 17.653c.391.339 1.862-.234 2.935-.652a9.158 9.158 0 0 1 2.92-.82z"/><path d="m58.585 32c0 2.018 4.736 4 4.371 5.907a31.456 31.456 0 0 1 -10.367 17.937c-1.152 1-5.515-2.024-6.8-1.2-2.037 1.3-1.095 6.31-3.417 7.118a31.7 31.7 0 0 1 -20.734 0c-2.252-.784-1.432-5.87-3.417-7.118-1.356-.853-5.6 2.248-6.8 1.2a31.458 31.458 0 0 1 -10.374-17.939c-.364-1.91 4.372-3.889 4.372-5.905s-4.736-4-4.372-5.909a31.458 31.458 0 0 1 10.368-17.939c1.5-1.3 3.849 3.17 7.788 1.2 3.175-1.587.548-6.462 2.432-7.118a31.7 31.7 0 0 1 20.734 0c1.884.656 1.716 6.134 3.417 7.118 1.721 1 5.307-2.5 6.8-1.2a31.456 31.456 0 0 1 10.37 17.939c.365 1.909-4.371 3.889-4.371 5.909z" fill="#ed1c24"/><path d="m32 64a31.891 31.891 0 0 1 -10.53-1.768c-1.447-.5-1.819-2.266-2.18-3.973-.282-1.333-.573-2.711-1.338-3.194-.451-.277-1.873.275-2.912.679-1.6.623-3.107 1.208-3.953.478a32.084 32.084 0 0 1 -10.531-18.222c-.241-1.261 1.049-2.377 2.3-3.456.965-.844 2.063-1.79 2.063-2.544s-1.1-1.706-2.066-2.544c-1.248-1.081-2.538-2.197-2.297-3.456a32.086 32.086 0 0 1 10.532-18.227c.9-.773 1.938-.156 2.947.445 1.354.8 2.888 1.716 4.944.688 1.51-.755 1.459-2.418 1.409-4.027-.041-1.332-.083-2.71 1.082-3.116a32.336 32.336 0 0 1 21.064 0c1.235.428 1.678 2.156 2.149 3.984.338 1.315.721 2.807 1.353 3.173.615.357 1.843-.2 2.926-.69 1.446-.655 2.943-1.334 3.955-.457a32.084 32.084 0 0 1 10.531 18.227c.24 1.261-1.05 2.377-2.3 3.456-.968.838-2.066 1.788-2.066 2.544s1.1 1.706 2.066 2.544c1.247 1.079 2.537 2.2 2.3 3.457a32.086 32.086 0 0 1 -10.532 18.222c-.814.7-2.337.129-3.951-.482-1.051-.4-2.492-.948-2.91-.677-.79.5-1.067 1.874-1.335 3.2-.344 1.7-.7 3.453-2.187 3.97a31.906 31.906 0 0 1 -10.533 1.766zm-14.4-10.007a1.625 1.625 0 0 1 .887.227c1.124.707 1.46 2.3 1.785 3.833.3 1.434.616 2.918 1.529 3.235a31.349 31.349 0 0 0 20.407 0c.949-.331 1.233-1.736 1.535-3.226.309-1.528.63-3.109 1.777-3.841.839-.54 2.279.007 3.8.584 1.027.388 2.579.98 2.942.66a31.081 31.081 0 0 0 10.2-17.653c.133-.7-.983-1.663-1.968-2.515-1.186-1.026-2.412-2.087-2.412-3.3s1.226-2.274 2.412-3.3c.985-.852 2.1-1.818 1.968-2.513a31.078 31.078 0 0 0 -10.2-17.654c-.528-.459-1.727.085-2.888.612-1.366.618-2.777 1.255-3.839.643-.995-.576-1.4-2.137-1.821-3.79-.366-1.422-.78-3.035-1.509-3.288a31.346 31.346 0 0 0 -20.406 0c-.441.153-.449.911-.411 2.142.05 1.65.12 3.911-1.962 4.952-2.541 1.272-4.484.119-5.9-.724-1-.593-1.465-.822-1.781-.547a31.08 31.08 0 0 0 -10.2 17.654c-.133.7.983 1.662 1.968 2.514 1.186 1.026 2.412 2.087 2.412 3.3s-1.226 2.274-2.412 3.3c-.985.852-2.1 1.818-1.968 2.514a31.079 31.079 0 0 0 10.2 17.653c.391.339 1.862-.234 2.935-.652a9.158 9.158 0 0 1 2.92-.82z"/><path d="m50.709 35.936h4.591a23.414 23.414 0 0 1 -4.037 9.747l-3.249-3.239-5.563 5.563 3.239 3.249a23.414 23.414 0 0 1 -9.747 4.037v-4.588h-7.879v4.588a23.414 23.414 0 0 1 -9.747-4.037l3.239-3.249-5.563-5.563-3.249 3.239a23.414 23.414 0 0 1 -4.037-9.747h4.593v-7.876h-4.593a23.414 23.414 0 0 1 4.037-9.747l3.249 3.239 5.563-5.563-3.239-3.249a23.414 23.414 0 0 1 9.747-4.04v4.588h7.876v-4.588a23.414 23.414 0 0 1 9.747 4.037l-3.239 3.249 5.563 5.563 3.249-3.239a23.414 23.414 0 0 1 4.04 9.75h-4.591z" fill="#f4eee9"/><path d="m28.563 55.884-.582-.1a23.757 23.757 0 0 1 -9.955-4.123l-.48-.343 3.3-3.312-4.856-4.857-3.314 3.3-.342-.48a23.77 23.77 0 0 1 -4.123-9.955l-.1-.582h4.689v-6.872h-4.683l.1-.582a23.769 23.769 0 0 1 4.123-9.956l.342-.48 3.314 3.3 4.856-4.857-3.3-3.312.48-.343a23.757 23.757 0 0 1 9.949-4.12l.582-.1v4.679h6.877v-4.677l.582.1a23.761 23.761 0 0 1 9.956 4.123l.48.343-3.3 3.312 4.856 4.857 3.314-3.3.342.48a23.769 23.769 0 0 1 4.123 9.956l.1.582h-4.685v6.877h4.679l-.1.582a23.77 23.77 0 0 1 -4.123 9.955l-.342.48-3.314-3.3-4.856 4.857 3.3 3.312-.48.343a23.761 23.761 0 0 1 -9.956 4.123l-.582.1v-4.689h-6.871zm-1-5.679h8.877v4.495a22.745 22.745 0 0 0 8.472-3.509l-3.17-3.18 6.268-6.269 3.18 3.171a22.722 22.722 0 0 0 3.51-8.476h-4.49v-8.877h4.49a22.72 22.72 0 0 0 -3.508-8.472l-3.18 3.171-6.27-6.269 3.17-3.179a22.731 22.731 0 0 0 -8.472-3.511v4.49h-8.877v-4.49a22.726 22.726 0 0 0 -8.471 3.51l3.17 3.179-6.268 6.269-3.18-3.171a22.72 22.72 0 0 0 -3.508 8.473h4.494v8.877h-4.494a22.722 22.722 0 0 0 3.508 8.471l3.18-3.171 6.268 6.269-3.17 3.18a22.741 22.741 0 0 0 8.471 3.514z"/><path d="m63.508 32a31.482 31.482 0 0 1 -.552 5.907h-3.386a1.976 1.976 0 0 1 -1.97-1.969v-7.878a1.976 1.976 0 0 1 1.97-1.969h3.386a31.482 31.482 0 0 1 .552 5.909z" fill="#f4eee9"/><path d="m63.37 38.405h-3.8a2.471 2.471 0 0 1 -2.47-2.468v-7.877a2.471 2.471 0 0 1 2.468-2.469h3.8l.078.406a32.434 32.434 0 0 1 0 12zm-3.8-11.814a1.47 1.47 0 0 0 -1.47 1.469v7.877a1.47 1.47 0 0 0 1.468 1.468h2.972a31.469 31.469 0 0 0 0-10.814z"/><path d="m35.94 8.7v4.588h-7.876v-4.588a.293.293 0 0 1 .088-.009 5.829 5.829 0 0 1 .581-.089 5.092 5.092 0 0 1 .552-.079c.167-.019.334-.039.5-.049.266-.03.541-.049.817-.069.463-.029.925-.039 1.4-.039s.935.01 1.4.039c.276.02.551.039.817.069.168.01.335.03.5.049a5.164 5.164 0 0 1 .552.079 5.829 5.829 0 0 1 .581.089.293.293 0 0 1 .088.009z" fill="#c1272d"/><path d="m36.44 13.791h-8.877v-5.45l.589-.148a3.618 3.618 0 0 1 .532-.086 4.579 4.579 0 0 1 .547-.078c.171-.02.348-.04.523-.051.25-.029.532-.048.815-.069a22.791 22.791 0 0 1 2.863 0c.286.021.568.04.84.07.152.01.327.03.5.05a5.25 5.25 0 0 1 .607.089 4.83 4.83 0 0 1 .568.085l.491.14zm-7.877-1h6.877v-3.661c-.072-.011-.145-.02-.219-.026a5.153 5.153 0 0 0 -.554-.081c-.167-.019-.324-.038-.482-.047-.282-.031-.551-.05-.82-.069a22.186 22.186 0 0 0 -2.729 0c-.266.019-.535.038-.795.067-.181.011-.34.031-.5.049a4.378 4.378 0 0 0 -.5.07c-.105.012-.2.024-.281.037z"/><path d="m21.556 15.989-5.563 5.563-3.249-3.239a1.87 1.87 0 0 1 .128-.168c.108-.157.217-.315.335-.462.187-.256.384-.5.6-.749.2-.246.4-.492.621-.728.275-.315.571-.621.866-.916s.6-.591.916-.866c.236-.217.482-.424.728-.621.246-.216.492-.413.748-.6.148-.118.306-.227.463-.335a1.916 1.916 0 0 1 .168-.128z" fill="#c1272d"/><path d="m15.994 22.259-3.894-3.882.227-.342a2.134 2.134 0 0 1 .162-.212c.085-.129.2-.3.326-.453.183-.25.389-.508.616-.766.189-.237.4-.492.627-.736.275-.314.578-.628.881-.931s.617-.607.94-.889c.236-.217.491-.432.746-.635.24-.212.5-.419.766-.614.139-.111.306-.228.474-.343a1.718 1.718 0 0 1 .175-.133l.341-.225 3.88 3.892zm-2.594-4 2.593 2.584 4.856-4.857-2.585-2.586c-.095.068-.182.13-.265.2-.262.191-.5.379-.731.586-.255.2-.493.4-.721.612-.315.276-.612.564-.9.852s-.575.584-.843.891c-.217.237-.416.475-.607.712-.22.252-.408.486-.587.731-.077.09-.145.184-.21.277z"/><path d="m13.3 28.06v7.876h-4.593a.265.265 0 0 1 -.01-.088c-.039-.2-.068-.384-.088-.581a4.857 4.857 0 0 1 -.079-.552c-.02-.167-.039-.334-.049-.5-.03-.266-.049-.541-.069-.817-.03-.463-.039-.925-.039-1.4s.009-.935.039-1.4c.02-.276.039-.551.069-.817.01-.168.029-.335.049-.5a4.922 4.922 0 0 1 .079-.552c.02-.2.049-.384.088-.581a.265.265 0 0 1 .01-.088z" fill="#c1272d"/><path d="m13.8 36.437h-5.447l-.153-.589a3.635 3.635 0 0 1 -.086-.533 4.73 4.73 0 0 1 -.078-.544c-.02-.174-.041-.351-.051-.529-.028-.246-.048-.528-.068-.81-.031-.477-.041-.951-.041-1.434s.01-.957.04-1.431c.021-.285.041-.567.071-.839.008-.152.029-.329.05-.507a5.435 5.435 0 0 1 .087-.6 5.046 5.046 0 0 1 .086-.568l.028-.157.118-.335h5.444zm-4.662-1h3.662v-6.877h-3.668c-.009.073-.018.145-.026.218a5.261 5.261 0 0 0 -.078.552c-.02.167-.039.324-.048.483-.031.285-.05.553-.069.822-.029.449-.038.9-.038 1.363s.009.914.038 1.366c.019.266.038.534.067.793.011.185.03.342.049.5a4.352 4.352 0 0 0 .07.5c.012.105.024.196.036.28z"/><path d="m21.556 48.007-3.239 3.249a1.738 1.738 0 0 1 -.168-.128c-.157-.108-.315-.217-.463-.335-.256-.187-.5-.384-.748-.6-.246-.2-.492-.4-.728-.621-.315-.275-.621-.571-.916-.866s-.591-.6-.866-.916c-.217-.236-.424-.482-.621-.728-.216-.246-.413-.492-.6-.748-.118-.148-.227-.306-.335-.463a1.87 1.87 0 0 1 -.128-.168l3.249-3.239z" fill="#c1272d"/><path d="m18.382 51.9-.341-.225c-.074-.049-.136-.1-.21-.159-.133-.089-.3-.205-.457-.33-.25-.182-.508-.389-.766-.616-.237-.188-.492-.4-.736-.628-.315-.274-.628-.578-.931-.88s-.607-.618-.89-.941c-.216-.235-.43-.49-.634-.745s-.418-.5-.614-.766c-.113-.139-.228-.306-.344-.475a1.426 1.426 0 0 1 -.131-.172l-.227-.342 3.893-3.882 6.268 6.269zm-4.982-6.164c.068.1.13.182.2.265.192.262.38.5.586.73.205.255.4.493.613.721.276.317.564.612.852.9s.584.575.891.843c.236.217.474.416.711.606.253.221.487.409.731.587.1.077.191.145.284.211l2.584-2.592-4.856-4.857z"/><path d="m35.94 50.705v4.588a.265.265 0 0 1 -.088.01c-.2.039-.384.068-.581.088a4.922 4.922 0 0 1 -.552.079c-.167.02-.334.039-.5.049-.266.03-.541.049-.817.069-.463.03-.926.039-1.4.039s-.935-.009-1.4-.039c-.276-.02-.551-.039-.817-.069-.168-.01-.335-.029-.5-.049a4.857 4.857 0 0 1 -.552-.079c-.2-.02-.384-.049-.581-.088a.265.265 0 0 1 -.088-.01v-4.588z" fill="#c1272d"/><path d="m32 56.128c-.483 0-.957-.011-1.43-.041-.286-.021-.568-.04-.84-.07-.138-.008-.3-.027-.466-.046a6.024 6.024 0 0 1 -.641-.091 5.452 5.452 0 0 1 -.57-.087l-.492-.138v-5.45h8.879v5.448l-.588.15a3.7 3.7 0 0 1 -.53.086 4.82 4.82 0 0 1 -.551.078c-.2.023-.362.042-.524.052-.247.028-.529.047-.812.068-.477.03-.95.041-1.435.041zm-3.439-1.261c.075.011.148.02.222.028.215.043.382.06.55.078.192.022.336.039.481.048.285.03.554.049.823.068a21.8 21.8 0 0 0 2.729 0c.266-.019.535-.038.795-.067.169-.01.311-.027.454-.043a5.335 5.335 0 0 0 .546-.076c.1-.011.193-.024.277-.036v-3.662h-6.875z"/><path d="m51.26 45.683a2.078 2.078 0 0 1 -.128.168c-.108.157-.217.315-.335.463-.187.256-.384.5-.6.748-.2.246-.4.492-.621.728-.275.315-.571.621-.866.916s-.6.591-.916.866c-.236.217-.482.424-.728.621-.247.216-.493.413-.749.6-.147.118-.3.227-.462.335a1.87 1.87 0 0 1 -.168.128l-3.239-3.249 5.563-5.563z" fill="#c1272d"/><path d="m45.622 51.9-3.88-3.892 6.268-6.269 3.89 3.88-.227.342a2.3 2.3 0 0 1 -.162.212c-.085.129-.2.3-.326.453-.184.251-.39.509-.617.766-.188.237-.4.492-.626.736-.275.314-.578.628-.881.932s-.617.606-.94.888c-.236.217-.492.432-.747.636-.239.211-.5.418-.765.613-.139.112-.306.228-.474.343a1.718 1.718 0 0 1 -.175.133zm-2.467-3.89 2.585 2.59c.095-.068.182-.13.265-.2.262-.191.495-.379.73-.585.257-.2.494-.4.722-.613.315-.276.612-.564.9-.851s.575-.584.843-.892c.217-.237.416-.475.606-.712.222-.253.409-.487.588-.731.077-.1.145-.19.21-.283l-2.593-2.584z"/><path d="m55.631 32c0 .473-.01.935-.039 1.4-.02.276-.039.551-.069.817-.01.168-.03.335-.049.5a5.092 5.092 0 0 1 -.079.552 5.829 5.829 0 0 1 -.089.581.293.293 0 0 1 -.009.088h-4.588v-7.878h4.591a.293.293 0 0 1 .009.088 5.829 5.829 0 0 1 .089.581 5.164 5.164 0 0 1 .079.552c.019.167.039.334.049.5.03.266.049.541.069.817.026.465.036.927.036 1.402z" fill="#c6053c"/><path d="m55.657 36.437h-5.449v-8.877h5.449l.149.588a3.463 3.463 0 0 1 .087.533 4.752 4.752 0 0 1 .078.545c.02.173.041.35.051.528.028.246.048.528.068.81.031.477.041.951.041 1.434s-.01.957-.04 1.431c-.021.285-.041.567-.071.84-.008.151-.029.328-.05.506a5.4 5.4 0 0 1 -.087.6 4.91 4.91 0 0 1 -.087.57zm-4.449-1h3.663c.01-.074.019-.146.026-.219a5.29 5.29 0 0 0 .079-.552c.02-.167.039-.324.048-.482.031-.286.05-.554.069-.823.029-.449.038-.9.038-1.363s-.009-.914-.038-1.366c-.019-.266-.038-.534-.067-.793-.011-.185-.03-.342-.049-.5a4.583 4.583 0 0 0 -.07-.5c-.012-.1-.024-.2-.036-.279h-3.663z"/><path d="m51.26 18.313-3.249 3.239-5.563-5.563 3.239-3.249a2.078 2.078 0 0 1 .168.128c.157.108.315.217.462.335.256.187.5.384.749.6.246.2.492.4.728.621.315.275.62.571.916.866s.591.6.866.916c.217.236.424.482.621.728.216.247.413.493.6.749.118.147.227.3.335.462a2.078 2.078 0 0 1 .128.168z" fill="#c1272d"/><path d="m48.01 22.259-6.268-6.269 3.88-3.892.341.225c.074.049.136.1.21.159.133.089.3.206.457.331.25.181.508.388.766.616.236.187.492.4.736.627.315.274.628.578.931.881s.607.617.89.94c.216.235.43.49.634.745.211.239.417.5.614.765.112.14.228.307.343.476a1.414 1.414 0 0 1 .132.172l.227.342zm-4.855-6.271 4.856 4.857 2.589-2.585c-.068-.1-.13-.182-.2-.265-.192-.261-.379-.5-.586-.73-.2-.255-.4-.493-.613-.721-.276-.316-.564-.612-.852-.9s-.584-.576-.891-.844c-.236-.217-.473-.416-.711-.605-.254-.222-.487-.41-.731-.588-.1-.077-.191-.145-.284-.211z"/><circle cx="32.002" cy="31.998" fill="#c1272d" r="20.676"/><path d="m32 53.174a21.176 21.176 0 1 1 21.178-21.174 21.2 21.2 0 0 1 -21.178 21.174zm0-41.352a20.176 20.176 0 1 0 20.178 20.178 20.2 20.2 0 0 0 -20.178-20.178z"/><path d="m32 52.189a20.191 20.191 0 1 1 20.193-20.189 20.213 20.213 0 0 1 -20.193 20.189z" fill="#f4eee9"/><path d="m32 12.307a19.691 19.691 0 1 1 -19.689 19.693 19.691 19.691 0 0 1 19.689-19.693m0-1a20.691 20.691 0 1 0 20.693 20.693 20.715 20.715 0 0 0 -20.693-20.693z"/><path d="m52.589 8.152-1.684 2.924a1.969 1.969 0 0 1 -2.7.719l-6.805-3.938a1.967 1.967 0 0 1 -.729-2.688l1.7-2.934a31.266 31.266 0 0 1 10.218 5.917z" fill="#f4eee9"/><path d="m49.194 12.564a2.452 2.452 0 0 1 -1.238-.337l-6.811-3.938a2.465 2.465 0 0 1 -.913-3.368l1.912-3.293.39.135a31.671 31.671 0 0 1 10.383 6.011l.311.271-1.89 3.28a2.484 2.484 0 0 1 -2.144 1.239zm-6.6-9.718-1.494 2.574a1.468 1.468 0 0 0 .544 2l6.815 3.939a1.446 1.446 0 0 0 1.117.152 1.48 1.48 0 0 0 .9-.69l1.476-2.561a30.611 30.611 0 0 0 -9.359-5.414z"/><path d="m22.609 7.857-6.809 3.943a1.97 1.97 0 0 1 -2.7-.719l-1.685-2.929a31.266 31.266 0 0 1 10.22-5.917l1.7 2.934a1.968 1.968 0 0 1 -.726 2.688z" fill="#f4eee9"/><path d="m14.81 12.564a2.483 2.483 0 0 1 -2.143-1.236l-1.891-3.283.311-.271a31.661 31.661 0 0 1 10.383-6.011l.389-.135 1.912 3.29a2.466 2.466 0 0 1 -.913 3.372l-6.812 3.938a2.451 2.451 0 0 1 -1.236.336zm-2.755-4.3 1.477 2.564a1.479 1.479 0 0 0 .9.687 1.439 1.439 0 0 0 1.115-.151l6.817-3.94a1.469 1.469 0 0 0 .536-2.007l-1.489-2.571a30.591 30.591 0 0 0 -9.356 5.417z"/><path d="m6.4 28.06v7.876a1.975 1.975 0 0 1 -1.969 1.969h-3.384a31.939 31.939 0 0 1 0-11.814h3.387a1.975 1.975 0 0 1 1.966 1.969z" fill="#f4eee9"/><path d="m4.434 38.405h-3.8l-.078-.405a32.434 32.434 0 0 1 0-12l.078-.406h3.8a2.472 2.472 0 0 1 2.466 2.466v7.877a2.471 2.471 0 0 1 -2.466 2.468zm-2.97-1h2.97a1.47 1.47 0 0 0 1.466-1.468v-7.877a1.471 1.471 0 0 0 -1.469-1.469h-2.967a31.469 31.469 0 0 0 0 10.814z"/><path d="m23.338 58.827-1.7 2.934a31.248 31.248 0 0 1 -10.22-5.917l1.682-2.924a1.97 1.97 0 0 1 2.7-.719l6.813 3.938a1.968 1.968 0 0 1 .725 2.688z" fill="#f4eee9"/><path d="m21.859 62.368-.389-.135a31.632 31.632 0 0 1 -10.383-6.011l-.311-.271 1.89-3.28a2.469 2.469 0 0 1 1.5-1.154 2.438 2.438 0 0 1 1.878.253l6.811 3.937a2.465 2.465 0 0 1 .913 3.368zm-9.8-6.635a30.593 30.593 0 0 0 9.351 5.417l1.49-2.572a1.468 1.468 0 0 0 -.543-2.005l-6.815-3.939a1.445 1.445 0 0 0 -1.117-.152 1.478 1.478 0 0 0 -.9.69z"/><path d="m52.589 55.844a31.248 31.248 0 0 1 -10.22 5.917l-1.7-2.934a1.967 1.967 0 0 1 .729-2.688l6.81-3.939a1.969 1.969 0 0 1 2.7.719z" fill="#f4eee9"/><path d="m42.144 62.368-1.911-3.29a2.466 2.466 0 0 1 .913-3.372l6.812-3.937a2.436 2.436 0 0 1 1.875-.252 2.472 2.472 0 0 1 1.5 1.151l1.891 3.283-.311.271a31.626 31.626 0 0 1 -10.384 6.011zm7.056-9.936a1.462 1.462 0 0 0 -.737.2l-6.814 3.939a1.469 1.469 0 0 0 -.545 2.007l1.493 2.571a30.586 30.586 0 0 0 9.356-5.417l-1.477-2.564a1.482 1.482 0 0 0 -.9-.687 1.446 1.446 0 0 0 -.376-.049z"/><path d="m25.448 40.705h.308l.923 2.615h-2.154z" fill="#171717"/><path d="m27.385 43.82h-3.567l1.276-3.615h1.015zm-2.154-1h.741l-.37-1.049z"/><path d="m27.909 37.167c-.062 0-.122 0-.183.009a2.462 2.462 0 1 0 -4.248 0c-.061 0-.122-.009-.184-.009a2.466 2.466 0 1 0 0 4.923 2.639 2.639 0 0 0 2.308-1.3 2.639 2.639 0 0 0 2.307 1.3 2.466 2.466 0 1 0 0-4.923z" fill="#171717"/><path d="m27.909 42.59a3.188 3.188 0 0 1 -2.307-.972 3.188 3.188 0 0 1 -2.308.972 3.045 3.045 0 0 1 -3.115-2.962 3.012 3.012 0 0 1 2.566-2.915 2.962 2.962 0 1 1 5.713 0 3.013 3.013 0 0 1 2.566 2.915 3.045 3.045 0 0 1 -3.115 2.962zm-2.309-2.817.434.766a2.138 2.138 0 0 0 1.873 1.051 1.967 1.967 0 1 0 0-3.923l-1.061.068.446-.812a1.961 1.961 0 1 0 -3.385 0l.474.81-1.089-.067a1.967 1.967 0 1 0 0 3.923 2.137 2.137 0 0 0 1.873-1.051z"/><path d="m42.625 29.127a2.226 2.226 0 0 1 -3.383 0l-.42-.466-.42-.467-.42.467-.42.466a2.223 2.223 0 0 1 -2.417.653 2.359 2.359 0 0 1 -.964-.653 2.867 2.867 0 0 1 0-3.759l.84-.934 3.379-3.758 1.16 1.289 2.223 2.469.84.934a2.874 2.874 0 0 1 .002 3.759z" fill="#171717"/><path d="m35.88 30.407a2.678 2.678 0 0 1 -.9-.157 2.86 2.86 0 0 1 -1.168-.787 3.368 3.368 0 0 1 0-4.43l4.592-5.1 4.596 5.101a3.39 3.39 0 0 1 0 4.428 2.785 2.785 0 0 1 -4.126 0l-.468-.521-.468.521a2.76 2.76 0 0 1 -2.058.945zm2.52-2.962 1.211 1.349a1.768 1.768 0 0 0 2.64 0 2.366 2.366 0 0 0 0-3.091l-3.851-4.28-3.848 4.277a2.371 2.371 0 0 0 0 3.092 1.84 1.84 0 0 0 .759.514 1.725 1.725 0 0 0 1.878-.515z"/><path d="m38.248 27.906h.308l.923 2.615h-2.154z" fill="#171717"/><path d="m40.186 31.021h-3.567l1.275-3.615h1.015zm-2.154-1h.74l-.37-1.048z"/><path d="m38.4 43.32a20.144 20.144 0 0 0 -4.921-4.92 20.172 20.172 0 0 0 4.921-4.925 20.218 20.218 0 0 0 4.925 4.925 20.191 20.191 0 0 0 -4.925 4.92z" fill="#ed1c24"/><path d="m38.4 44.19-.409-.583a19.709 19.709 0 0 0 -4.8-4.8l-.583-.41.583-.409a19.484 19.484 0 0 0 2.609-2.188 19.86 19.86 0 0 0 2.192-2.609l.408-.591.41.584a19.828 19.828 0 0 0 2.19 2.616 19.586 19.586 0 0 0 2.609 2.191l.583.409-.583.41a19.682 19.682 0 0 0 -4.8 4.8zm-4.07-5.79a20.753 20.753 0 0 1 4.07 4.071 20.58 20.58 0 0 1 1.9-2.179 21.012 21.012 0 0 1 2.179-1.9 20.609 20.609 0 0 1 -4.079-4.068 20.64 20.64 0 0 1 -4.07 4.076z"/><path d="m30.524 23.511a3.113 3.113 0 0 1 -.7 2.006l-.84 1-3.384 4.004-3.382-4.008-.84-1a3.22 3.22 0 0 1 0-4.01 2.137 2.137 0 0 1 3.383 0l.839 1 .84-1a2.137 2.137 0 0 1 3.383 0 3.114 3.114 0 0 1 .701 2.008z" fill="#ed1c24"/><path d="m25.6 31.3-4.6-5.461a3.742 3.742 0 0 1 0-4.654 2.689 2.689 0 0 1 4.148 0l.457.542.457-.543a2.691 2.691 0 0 1 4.147 0 3.72 3.72 0 0 1 0 4.655zm-2.53-10.124a1.714 1.714 0 0 0 -1.308.653 2.7 2.7 0 0 0 0 3.365l3.84 4.552 3.839-4.552a2.719 2.719 0 0 0 0-3.365 1.671 1.671 0 0 0 -2.617 0l-1.224 1.449-1.223-1.449a1.708 1.708 0 0 0 -1.307-.653z"/><g opacity=".2"><path d="m63.508 32a31.511 31.511 0 0 1 -50.429 25.193 31.516 31.516 0 0 0 30.954-54.328 31.539 31.539 0 0 1 19.475 29.135z"/></g></g></svg>