<svg id="Layer_2_00000099644752274563725540000002097304343186717630_" enable-background="new 0 0 512 512" viewBox="68 0 376 512" xmlns="http://www.w3.org/2000/svg" xmlns:xlink="http://www.w3.org/1999/xlink"><linearGradient id="lg1"><stop offset="0" stop-color="#454545"/><stop offset="1"/></linearGradient><linearGradient id="SVGID_1_" gradientTransform="matrix(1 0 0 -1 0 512)" gradientUnits="userSpaceOnUse" x1="48.749" x2="463.231" xlink:href="#lg1" y1="463.246" y2="48.754"/><linearGradient id="SVGID_00000155861802149249903110000003079446665533831074_" gradientTransform="matrix(1 0 0 -1 0 512)" gradientUnits="userSpaceOnUse" x1="55.818" x2="456.162" y1="456.172" y2="55.828"><stop offset="0" stop-color="#f2f2f2"/><stop offset="1" stop-color="#d9d9d9"/></linearGradient><linearGradient id="SVGID_00000049906136391850269480000009311081220957756303_" gradientTransform="matrix(1 0 0 -1 0 512)" gradientUnits="userSpaceOnUse" x1="103.463" x2="163.986" xlink:href="#lg1" y1="465.023" y2="404.501"/><linearGradient id="SVGID_00000098941925584883408990000002797556750934927501_" gradientTransform="matrix(1 0 0 -1 0 512)" gradientUnits="userSpaceOnUse" x1="348.014" x2="408.537" xlink:href="#lg1" y1="107.499" y2="46.977"/><linearGradient id="SVGID_00000050641765515780119510000006959201309794416056_" gradientTransform="matrix(1 0 0 -1 0 512)" gradientUnits="userSpaceOnUse" x1="114.196" x2="157.018" xlink:href="#lg1" y1="371.166" y2="328.354"/><linearGradient id="SVGID_00000097484899790250393020000004872776114025239227_" gradientTransform="matrix(1 0 0 -1 0 512)" gradientUnits="userSpaceOnUse" x1="354.982" x2="397.804" xlink:href="#lg1" y1="183.646" y2="140.834"/><linearGradient id="SVGID_00000035499813058780720830000013606602413099709886_" gradientTransform="matrix(1 0 0 -1 0 512)" gradientUnits="userSpaceOnUse" x1="209.839" x2="302.142" xlink:href="#lg1" y1="296.654" y2="204.341"/><g id="Icon"><g id="_32"><path d="m443.8 50v412c0 27.6-22.4 50-50 50h-275.6c-27.6 0-50-22.4-50-50v-412c0-27.6 22.4-50 50-50h275.5c27.7 0 50.1 22.4 50.1 50z" fill="url(#SVGID_1_)"/><path d="m433.8 50v412c0 22.1-17.9 40-40 40h-275.6c-22.1 0-40-17.9-40-40v-412c0-22.1 17.9-40 40-40h275.5c22.2 0 40.1 17.9 40.1 40z" fill="url(#SVGID_00000155861802149249903110000003079446665533831074_)"/><path d="m149.5 90.9h10.3v20.8h-51.5v-5.3c0-9.7 3.6-18.3 10.7-26 2.8-2.9 9.4-8.2 19.9-15.9 7.1-5.2 10.7-9.6 10.7-13.4 0-3.5-2-6.2-5.9-8.1-3.1-1.5-6.6-2.3-10.6-2.3-9.6 0-14.5 3.2-14.5 9.6 0 1.3.4 2.8 1.1 4.5l-9.6 4c-1.2-3-1.7-5.9-1.7-8.5 0-6.7 2.5-11.8 7.5-15.4 4.5-3.2 10.2-4.8 17.2-4.8s13 1.7 18 5.2c5.8 3.9 8.8 9.2 8.8 15.8 0 6.2-3.1 11.9-9.3 17.3-6.1 4.6-12.1 9.2-18.2 13.8-7.1 5.9-11.4 12.2-12.8 18.8h30z" fill="url(#SVGID_00000049906136391850269480000009311081220957756303_)"/><path d="m362.5 421.1h-10.3v-20.8h51.5v5.3c0 9.7-3.6 18.4-10.7 26-2.8 3-9.4 8.2-19.9 15.9-7.1 5.2-10.7 9.6-10.7 13.4 0 3.5 2 6.1 5.9 8.1 3.1 1.5 6.6 2.3 10.6 2.3 9.6 0 14.5-3.2 14.5-9.6 0-1.4-.4-2.9-1.1-4.5l9.6-4c1.1 3 1.7 5.9 1.7 8.5 0 6.7-2.5 11.8-7.5 15.4-4.5 3.2-10.2 4.8-17.2 4.8s-13-1.7-18-5.2c-5.9-3.9-8.8-9.2-8.8-15.8 0-6.1 3.1-11.9 9.3-17.3 6-4.6 12.1-9.2 18.1-13.8 7.1-5.9 11.4-12.2 12.8-18.8h-30z" fill="url(#SVGID_00000098941925584883408990000002797556750934927501_)"/><path d="m151.6 150.3c-.8 0-1.6.1-2.4.2 1.5-2.4 2.4-5.3 2.4-8.4 0-8.9-7.2-16-16-16s-16 7.2-16 16c0 3.1.9 6 2.4 8.4-.8-.1-1.6-.2-2.4-.2-8.8 0-16 7.2-16 16s7.2 16 16 16c5.4 0 10.2-2.7 13.1-6.8.2 7.4-2.2 13.3-6.6 17.8h19.1c-4.5-4.5-6.8-10.4-6.6-17.8 2.9 4.1 7.7 6.8 13.1 6.8 8.9 0 16-7.2 16-16s-7.2-16-16.1-16z" fill="url(#SVGID_00000050641765515780119510000006959201309794416056_)"/><path d="m360.4 361.7c.8 0 1.6-.1 2.4-.2-1.5 2.5-2.4 5.3-2.4 8.4 0 8.9 7.2 16 16 16s16-7.2 16-16c0-3.1-.9-6-2.4-8.4.8.1 1.6.2 2.4.2 8.9 0 16-7.2 16-16s-7.2-16-16-16c-5.4 0-10.2 2.7-13.1 6.8-.2-7.4 2.2-13.3 6.6-17.8h-19.1c4.5 4.5 6.8 10.4 6.6 17.8-2.9-4.1-7.7-6.8-13.1-6.8-8.9 0-16 7.2-16 16s7.2 16 16.1 16z" fill="url(#SVGID_00000097484899790250393020000004872776114025239227_)"/><path d="m290.6 235.8c-1.8 0-3.5.2-5.2.4 3.3-5.3 5.2-11.5 5.2-18.2 0-19.1-15.5-34.6-34.6-34.6s-34.6 15.5-34.6 34.6c0 6.7 1.9 12.9 5.2 18.2-1.7-.3-3.4-.4-5.2-.4-19.1 0-34.6 15.5-34.6 34.6s15.5 34.6 34.6 34.6c11.7 0 22-5.8 28.3-14.7.3 16-4.6 28.6-14.3 38.3h41.2c-9.6-9.7-14.6-22.3-14.3-38.3 6.2 8.9 16.6 14.7 28.3 14.7 19.1 0 34.6-15.5 34.6-34.6s-15.6-34.6-34.6-34.6z" fill="url(#SVGID_00000035499813058780720830000013606602413099709886_)"/></g></g></svg>