<svg id="Layer_2_00000010294474267345277390000001857115553807879809_" enable-background="new 0 0 512 512" viewBox="68 0 376 512" xmlns="http://www.w3.org/2000/svg" xmlns:xlink="http://www.w3.org/1999/xlink"><linearGradient id="lg1"><stop offset="0" stop-color="#454545"/><stop offset="1"/></linearGradient><linearGradient id="SVGID_1_" gradientTransform="matrix(1 0 0 -1 0 512)" gradientUnits="userSpaceOnUse" x1="48.749" x2="463.231" xlink:href="#lg1" y1="463.246" y2="48.754"/><linearGradient id="SVGID_00000088121817759254369000000004356837136535706522_" gradientTransform="matrix(1 0 0 -1 0 512)" gradientUnits="userSpaceOnUse" x1="55.818" x2="456.162" y1="456.172" y2="55.828"><stop offset="0" stop-color="#f2f2f2"/><stop offset="1" stop-color="#d9d9d9"/></linearGradient><linearGradient id="SVGID_00000036230508427669598630000018258935107862852747_" gradientTransform="matrix(1 0 0 -1 0 512)" gradientUnits="userSpaceOnUse" x1="105.91" x2="164.875" xlink:href="#lg1" y1="478.355" y2="419.39"/><linearGradient id="SVGID_00000097465833441361444460000015012798003440798366_" gradientTransform="matrix(1 0 0 -1 0 512)" gradientUnits="userSpaceOnUse" x1="347.115" x2="406.08" xlink:href="#lg1" y1="92.61" y2="33.645"/><linearGradient id="SVGID_00000050640583653142287780000015251414920878769039_" gradientTransform="matrix(1 0 0 -1 0 512)" gradientUnits="userSpaceOnUse" x1="114.196" x2="157.018" xlink:href="#lg1" y1="371.166" y2="328.354"/><linearGradient id="SVGID_00000002360347896487879810000015904425554421512633_" gradientTransform="matrix(1 0 0 -1 0 512)" gradientUnits="userSpaceOnUse" x1="354.982" x2="397.804" xlink:href="#lg1" y1="183.646" y2="140.834"/><linearGradient id="SVGID_00000111172291335055049070000017554289515160955055_" gradientTransform="matrix(1 0 0 -1 0 512)" gradientUnits="userSpaceOnUse" x1="209.839" x2="302.142" xlink:href="#lg1" y1="296.654" y2="204.341"/><g id="Icon"><g id="_33"><path d="m443.8 50v412c0 27.6-22.4 50-50 50h-275.6c-27.6 0-50-22.4-50-50v-412c0-27.6 22.4-50 50-50h275.5c27.7 0 50.1 22.4 50.1 50z" fill="url(#SVGID_1_)"/><path d="m433.8 50v412c0 22.1-17.9 40-40 40h-275.6c-22.1 0-40-17.9-40-40v-412c0-22.1 17.9-40 40-40h275.5c22.2 0 40.1 17.9 40.1 40z" fill="url(#SVGID_00000088121817759254369000000004356837136535706522_)"/><path d="m134.6 111.8c-6.1 0-11.7-2.1-16.5-6.3-4.4-3.8-7.7-8.8-9.8-15l9.8-3.5c1.3 4 3.4 7.3 6.1 9.8 3.1 2.9 6.6 4.4 10.5 4.4 4.9 0 9.1-1.9 12.6-5.8 3.5-3.8 5.3-8.2 5.3-13s-1.5-8.7-4.5-11.7-7-4.5-11.9-4.5c-2.2 0-4 .3-5.3.9s-2.8 1.7-4.6 3.4l-7.4-7.3 23.9-22.5h-23.1v10.3h-10.3v-20.9h52.6v6.6l-20.5 19.4c6.5 1.2 11.7 4.2 15.5 9.1s5.8 10.6 5.8 17.3c0 7.8-2.8 14.6-8.4 20.5-5.4 5.8-12.1 8.8-19.8 8.8z" fill="url(#SVGID_00000036230508427669598630000018258935107862852747_)"/><path d="m377.4 400.2c6.1 0 11.7 2.1 16.5 6.3 4.4 3.8 7.7 8.8 9.8 15l-9.8 3.5c-1.4-4-3.4-7.3-6.1-9.8-3.1-2.9-6.6-4.4-10.5-4.4-4.9 0-9.1 1.9-12.6 5.8-3.5 3.8-5.3 8.2-5.3 13s1.5 8.7 4.5 11.7 7 4.5 11.9 4.5c2.2 0 4-.3 5.3-.9s2.8-1.7 4.6-3.4l7.4 7.3-23.9 22.5h23.1v-10.3h10.3v20.9h-52.6v-6.6l20.5-19.4c-6.5-1.2-11.7-4.2-15.5-9.1s-5.8-10.6-5.8-17.3c0-7.8 2.8-14.6 8.4-20.5 5.4-5.8 12-8.8 19.8-8.8z" fill="url(#SVGID_00000097465833441361444460000015012798003440798366_)"/><path d="m151.6 150.3c-.8 0-1.6.1-2.4.2 1.5-2.4 2.4-5.3 2.4-8.4 0-8.9-7.2-16-16-16s-16 7.2-16 16c0 3.1.9 6 2.4 8.4-.8-.1-1.6-.2-2.4-.2-8.8 0-16 7.2-16 16s7.2 16 16 16c5.4 0 10.2-2.7 13.1-6.8.2 7.4-2.2 13.3-6.6 17.8h19.1c-4.5-4.5-6.8-10.4-6.6-17.8 2.9 4.1 7.7 6.8 13.1 6.8 8.9 0 16-7.2 16-16s-7.2-16-16.1-16z" fill="url(#SVGID_00000050640583653142287780000015251414920878769039_)"/><path d="m360.4 361.7c.8 0 1.6-.1 2.4-.2-1.5 2.5-2.4 5.3-2.4 8.4 0 8.9 7.2 16 16 16s16-7.2 16-16c0-3.1-.9-6-2.4-8.4.8.1 1.6.2 2.4.2 8.9 0 16-7.2 16-16s-7.2-16-16-16c-5.4 0-10.2 2.7-13.1 6.8-.2-7.4 2.2-13.3 6.6-17.8h-19.1c4.5 4.5 6.8 10.4 6.6 17.8-2.9-4.1-7.7-6.8-13.1-6.8-8.9 0-16 7.2-16 16s7.2 16 16.1 16z" fill="url(#SVGID_00000002360347896487879810000015904425554421512633_)"/><path d="m290.6 235.8c-1.8 0-3.5.2-5.2.4 3.3-5.3 5.2-11.5 5.2-18.2 0-19.1-15.5-34.6-34.6-34.6s-34.6 15.5-34.6 34.6c0 6.7 1.9 12.9 5.2 18.2-1.7-.3-3.4-.4-5.2-.4-19.1 0-34.6 15.5-34.6 34.6s15.5 34.6 34.6 34.6c11.7 0 22-5.8 28.3-14.7.3 16-4.6 28.6-14.3 38.3h41.2c-9.6-9.7-14.6-22.3-14.3-38.3 6.2 8.9 16.6 14.7 28.3 14.7 19.1 0 34.6-15.5 34.6-34.6s-15.6-34.6-34.6-34.6z" fill="url(#SVGID_00000111172291335055049070000017554289515160955055_)"/></g></g></svg>