<svg id="Layer_2_00000067214030564965175650000013769194126206296755_" enable-background="new 0 0 512 512" viewBox="68 0 376 512" xmlns="http://www.w3.org/2000/svg" xmlns:xlink="http://www.w3.org/1999/xlink"><linearGradient id="lg1"><stop offset="0" stop-color="#454545"/><stop offset="1"/></linearGradient><linearGradient id="SVGID_1_" gradientTransform="matrix(1 0 0 -1 0 512)" gradientUnits="userSpaceOnUse" x1="48.749" x2="463.231" xlink:href="#lg1" y1="463.246" y2="48.754"/><linearGradient id="SVGID_00000116955361999894642080000003575299163300475016_" gradientTransform="matrix(1 0 0 -1 0 512)" gradientUnits="userSpaceOnUse" x1="55.818" x2="456.162" y1="456.172" y2="55.828"><stop offset="0" stop-color="#f2f2f2"/><stop offset="1" stop-color="#d9d9d9"/></linearGradient><linearGradient id="SVGID_00000034806679390882631270000010572762110778636985_" gradientTransform="matrix(1 0 0 -1 0 512)" gradientUnits="userSpaceOnUse" x1="105.298" x2="161.838" xlink:href="#lg1" y1="474.014" y2="417.464"/><linearGradient id="SVGID_00000105418763220786414920000007467135691978582932_" gradientTransform="matrix(1 0 0 -1 0 512)" gradientUnits="userSpaceOnUse" x1="350.162" x2="406.702" xlink:href="#lg1" y1="94.536" y2="37.986"/><linearGradient id="SVGID_00000085933073678348441210000010384639363567997883_" gradientTransform="matrix(1 0 0 -1 0 512)" gradientUnits="userSpaceOnUse" x1="114.196" x2="157.018" xlink:href="#lg1" y1="371.166" y2="328.354"/><linearGradient id="SVGID_00000146475098762092988970000016840601932044992385_" gradientTransform="matrix(1 0 0 -1 0 512)" gradientUnits="userSpaceOnUse" x1="354.982" x2="397.804" xlink:href="#lg1" y1="183.646" y2="140.834"/><linearGradient id="SVGID_00000150819195609775413420000002090756323193838246_" gradientTransform="matrix(1 0 0 -1 0 512)" gradientUnits="userSpaceOnUse" x1="209.839" x2="302.142" xlink:href="#lg1" y1="296.654" y2="204.341"/><g id="Icon"><g id="_35"><path d="m443.8 50v412c0 27.6-22.4 50-50 50h-275.6c-27.6 0-50-22.4-50-50v-412c0-27.6 22.4-50 50-50h275.5c27.7 0 50.1 22.4 50.1 50z" fill="url(#SVGID_1_)"/><path d="m433.8 50v412c0 22.1-17.9 40-40 40h-275.6c-22.1 0-40-17.9-40-40v-412c0-22.1 17.9-40 40-40h275.5c22.2 0 40.1 17.9 40.1 40z" fill="url(#SVGID_00000116955361999894642080000003575299163300475016_)"/><path d="m134.1 112c-5.8 0-11.1-2-15.9-6-4.2-3.7-7.5-8.4-9.9-14.1l9.6-4c1.5 3.8 3.6 6.8 6.2 9.2 3 2.9 6.4 4.3 10 4.3 5.1 0 9.4-2.4 12.8-7.2 3.1-4.3 4.6-9 4.6-14.2s-1.5-10-4.6-14.2c-3.3-4.5-7.6-6.8-12.8-6.8-4.4 0-8.8 2.4-13.2 7.1l-7.5-4.4v-31.8h39v10.6h-28.7v10.3c3.3-1.5 6.8-2.3 10.3-2.3 8.1 0 14.8 3.3 20.2 9.9 5.1 6.2 7.6 13.4 7.6 21.6s-2.5 15.5-7.5 21.8c-5.4 6.7-12.2 10.1-20.2 10.2z" fill="url(#SVGID_00000034806679390882631270000010572762110778636985_)"/><path d="m377.9 400c5.8 0 11 2 15.9 6 4.2 3.6 7.5 8.4 9.9 14.1l-9.6 4c-1.5-3.8-3.6-6.8-6.2-9.2-3-2.9-6.4-4.3-10-4.3-5.1 0-9.4 2.4-12.8 7.2-3.1 4.3-4.6 9-4.6 14.2s1.5 10 4.6 14.2c3.3 4.5 7.6 6.8 12.8 6.8 4.4 0 8.8-2.4 13.2-7.1l7.5 4.4v31.8h-39v-10.6h28.7v-10.3c-3.3 1.5-6.8 2.3-10.3 2.3-8.1 0-14.8-3.3-20.2-9.9-5.1-6.1-7.6-13.4-7.6-21.6s2.5-15.5 7.5-21.8c5.4-6.7 12.2-10.1 20.2-10.2z" fill="url(#SVGID_00000105418763220786414920000007467135691978582932_)"/><path d="m151.6 150.3c-.8 0-1.6.1-2.4.2 1.5-2.4 2.4-5.3 2.4-8.4 0-8.9-7.2-16-16-16s-16 7.2-16 16c0 3.1.9 6 2.4 8.4-.8-.1-1.6-.2-2.4-.2-8.8 0-16 7.2-16 16s7.2 16 16 16c5.4 0 10.2-2.7 13.1-6.8.2 7.4-2.2 13.3-6.6 17.8h19.1c-4.5-4.5-6.8-10.4-6.6-17.8 2.9 4.1 7.7 6.8 13.1 6.8 8.9 0 16-7.2 16-16s-7.2-16-16.1-16z" fill="url(#SVGID_00000085933073678348441210000010384639363567997883_)"/><path d="m360.4 361.7c.8 0 1.6-.1 2.4-.2-1.5 2.5-2.4 5.3-2.4 8.4 0 8.9 7.2 16 16 16s16-7.2 16-16c0-3.1-.9-6-2.4-8.4.8.1 1.6.2 2.4.2 8.9 0 16-7.2 16-16s-7.2-16-16-16c-5.4 0-10.2 2.7-13.1 6.8-.2-7.4 2.2-13.3 6.6-17.8h-19.1c4.5 4.5 6.8 10.4 6.6 17.8-2.9-4.1-7.7-6.8-13.1-6.8-8.9 0-16 7.2-16 16s7.2 16 16.1 16z" fill="url(#SVGID_00000146475098762092988970000016840601932044992385_)"/><path d="m290.6 235.8c-1.8 0-3.5.2-5.2.4 3.3-5.3 5.2-11.5 5.2-18.2 0-19.1-15.5-34.6-34.6-34.6s-34.6 15.5-34.6 34.6c0 6.7 1.9 12.9 5.2 18.2-1.7-.3-3.4-.4-5.2-.4-19.1 0-34.6 15.5-34.6 34.6s15.5 34.6 34.6 34.6c11.7 0 22-5.8 28.3-14.7.3 16-4.6 28.6-14.3 38.3h41.2c-9.6-9.7-14.6-22.3-14.3-38.3 6.2 8.9 16.6 14.7 28.3 14.7 19.1 0 34.6-15.5 34.6-34.6s-15.6-34.6-34.6-34.6z" fill="url(#SVGID_00000150819195609775413420000002090756323193838246_)"/></g></g></svg>