<svg id="Layer_2_00000039115464265423477820000002620065503455551912_" enable-background="new 0 0 512 512" viewBox="68 0 376 512" xmlns="http://www.w3.org/2000/svg" xmlns:xlink="http://www.w3.org/1999/xlink"><linearGradient id="lg1"><stop offset="0" stop-color="#454545"/><stop offset="1"/></linearGradient><linearGradient id="SVGID_1_" gradientTransform="matrix(1 0 0 -1 0 512)" gradientUnits="userSpaceOnUse" x1="48.749" x2="463.231" xlink:href="#lg1" y1="463.246" y2="48.754"/><linearGradient id="SVGID_00000178168094597219536990000014294620986728713396_" gradientTransform="matrix(1 0 0 -1 0 512)" gradientUnits="userSpaceOnUse" x1="55.818" x2="456.162" y1="456.172" y2="55.828"><stop offset="0" stop-color="#f2f2f2"/><stop offset="1" stop-color="#d9d9d9"/></linearGradient><linearGradient id="SVGID_00000139971939711153043510000011620597726972507029_" gradientTransform="matrix(1 0 0 -1 0 512)" gradientUnits="userSpaceOnUse" x1="108.987" x2="160.478" xlink:href="#lg1" y1="467.287" y2="415.787"/><linearGradient id="SVGID_00000106854035120617220150000017190108425074030221_" gradientTransform="matrix(1 0 0 -1 0 512)" gradientUnits="userSpaceOnUse" x1="351.511" x2="403.005" xlink:href="#lg1" y1="96.21" y2="44.716"/><linearGradient id="SVGID_00000064342107657222629600000009762763796114830981_" gradientTransform="matrix(1 0 0 -1 0 512)" gradientUnits="userSpaceOnUse" x1="114.196" x2="157.018" xlink:href="#lg1" y1="371.166" y2="328.354"/><linearGradient id="SVGID_00000137837438961259376270000008370696005905239432_" gradientTransform="matrix(1 0 0 -1 0 512)" gradientUnits="userSpaceOnUse" x1="354.982" x2="397.804" xlink:href="#lg1" y1="183.646" y2="140.834"/><linearGradient id="SVGID_00000158725404879199451080000003394111972785079743_" gradientTransform="matrix(1 0 0 -1 0 512)" gradientUnits="userSpaceOnUse" x1="209.839" x2="302.142" xlink:href="#lg1" y1="296.654" y2="204.341"/><g id="Icon"><g id="_36"><path d="m443.8 50v412c0 27.6-22.4 50-50 50h-275.6c-27.6 0-50-22.4-50-50v-412c0-27.6 22.4-50 50-50h275.5c27.7 0 50.1 22.4 50.1 50z" fill="url(#SVGID_1_)"/><path d="m433.8 50v412c0 22.1-17.9 40-40 40h-275.6c-22.1 0-40-17.9-40-40v-412c0-22.1 17.9-40 40-40h275.5c22.2 0 40.1 17.9 40.1 40z" fill="url(#SVGID_00000178168094597219536990000014294620986728713396_)"/><path d="m108.6 77.4c-.2.3-.3-2-.3-6.8 0-11.3 1.5-20.3 4.6-27.2 4.4-9.4 11.5-14.1 21.4-14.1 4.9 0 9.4 1.3 13.6 3.9 4 2.6 7.2 6 9.7 10.4l-8.9 5.4c-3.5-6.1-8.2-9.1-14.3-9.1-7.9 0-12.9 5.9-14.8 17.8 4.4-3.9 9.3-5.9 14.7-5.9 7.9 0 14.4 3.3 19.4 9.9 4.5 6 6.7 13.1 6.7 21.3 0 7.7-2.4 14.5-7.2 20.4-5.1 6.2-11.4 9.3-18.9 9.3-3.7 0-7.6-1.2-11.6-3.7-4.3-2.6-7.7-7.3-10.3-14.1-2.1-5.4-3.3-11.2-3.8-17.5zm25.7 24.7c4.6 0 8.5-2.1 11.5-6.3 2.9-3.8 4.3-8.1 4.3-12.8 0-5.3-1.3-9.9-3.9-13.8-3-4.5-6.9-6.8-11.9-6.8-3.6 0-6.9 1.8-9.9 5.3-2.4 2.9-4.2 6.4-5.4 10.3.6 5.9 1.9 10.9 3.8 15.2 2.8 5.8 6.6 8.8 11.5 8.9z" fill="url(#SVGID_00000139971939711153043510000011620597726972507029_)"/><path d="m403.4 434.6h.1c.1-.3.2 2 .2 6.8 0 11.3-1.5 20.3-4.6 27.2-4.4 9.4-11.5 14.1-21.4 14.1-4.9 0-9.4-1.3-13.5-3.9-4-2.6-7.2-6-9.7-10.4l8.9-5.4c3.5 6.1 8.2 9.1 14.3 9.1 7.9 0 12.9-5.9 14.8-17.8-4.4 3.9-9.3 5.9-14.7 5.9-7.9 0-14.4-3.3-19.4-9.9-4.5-6-6.7-13.1-6.7-21.3 0-7.7 2.4-14.5 7.2-20.4 5.1-6.2 11.4-9.3 18.9-9.3 3.7 0 7.6 1.2 11.6 3.6 4.3 2.6 7.7 7.3 10.3 14.1 1.9 5.5 3.2 11.3 3.7 17.6zm-25.7-24.7c-4.6 0-8.5 2.1-11.5 6.3-2.9 3.8-4.3 8.1-4.3 12.9 0 5.3 1.3 9.9 3.9 13.8 3 4.5 6.9 6.8 11.9 6.8 3.6 0 7-1.8 9.9-5.3 2.4-2.9 4.2-6.4 5.4-10.4-.6-5.9-1.9-10.9-3.8-15.1-2.8-6-6.6-9-11.5-9z" fill="url(#SVGID_00000106854035120617220150000017190108425074030221_)"/><path d="m151.6 150.3c-.8 0-1.6.1-2.4.2 1.5-2.4 2.4-5.3 2.4-8.4 0-8.9-7.2-16-16-16s-16 7.2-16 16c0 3.1.9 6 2.4 8.4-.8-.1-1.6-.2-2.4-.2-8.8 0-16 7.2-16 16s7.2 16 16 16c5.4 0 10.2-2.7 13.1-6.8.2 7.4-2.2 13.3-6.6 17.8h19.1c-4.5-4.5-6.8-10.4-6.6-17.8 2.9 4.1 7.7 6.8 13.1 6.8 8.9 0 16-7.2 16-16s-7.2-16-16.1-16z" fill="url(#SVGID_00000064342107657222629600000009762763796114830981_)"/><path d="m360.4 361.7c.8 0 1.6-.1 2.4-.2-1.5 2.5-2.4 5.3-2.4 8.4 0 8.9 7.2 16 16 16s16-7.2 16-16c0-3.1-.9-6-2.4-8.4.8.1 1.6.2 2.4.2 8.9 0 16-7.2 16-16s-7.2-16-16-16c-5.4 0-10.2 2.7-13.1 6.8-.2-7.4 2.2-13.3 6.6-17.8h-19.1c4.5 4.5 6.8 10.4 6.6 17.8-2.9-4.1-7.7-6.8-13.1-6.8-8.9 0-16 7.2-16 16s7.2 16 16.1 16z" fill="url(#SVGID_00000137837438961259376270000008370696005905239432_)"/><path d="m290.6 235.8c-1.8 0-3.5.2-5.2.4 3.3-5.3 5.2-11.5 5.2-18.2 0-19.1-15.5-34.6-34.6-34.6s-34.6 15.5-34.6 34.6c0 6.7 1.9 12.9 5.2 18.2-1.7-.3-3.4-.4-5.2-.4-19.1 0-34.6 15.5-34.6 34.6s15.5 34.6 34.6 34.6c11.7 0 22-5.8 28.3-14.7.3 16-4.6 28.6-14.3 38.3h41.2c-9.6-9.7-14.6-22.3-14.3-38.3 6.2 8.9 16.6 14.7 28.3 14.7 19.1 0 34.6-15.5 34.6-34.6s-15.6-34.6-34.6-34.6z" fill="url(#SVGID_00000158725404879199451080000003394111972785079743_)"/></g></g></svg>