<svg id="Layer_2_00000171699805462634358010000006577621663794633403_" enable-background="new 0 0 512 512" viewBox="68 0 376 512" xmlns="http://www.w3.org/2000/svg" xmlns:xlink="http://www.w3.org/1999/xlink"><linearGradient id="lg1"><stop offset="0" stop-color="#454545"/><stop offset="1"/></linearGradient><linearGradient id="SVGID_1_" gradientTransform="matrix(1 0 0 -1 0 512)" gradientUnits="userSpaceOnUse" x1="48.749" x2="463.231" xlink:href="#lg1" y1="463.246" y2="48.754"/><linearGradient id="SVGID_00000148618980678713772710000004793019487942516100_" gradientTransform="matrix(1 0 0 -1 0 512)" gradientUnits="userSpaceOnUse" x1="55.818" x2="456.162" y1="456.172" y2="55.828"><stop offset="0" stop-color="#f2f2f2"/><stop offset="1" stop-color="#d9d9d9"/></linearGradient><linearGradient id="SVGID_00000183242234943684500870000015344226274387922608_" gradientTransform="matrix(1 0 0 -1 0 512)" gradientUnits="userSpaceOnUse" x1="108.854" x2="160.852" xlink:href="#lg1" y1="466.431" y2="414.434"/><linearGradient id="SVGID_00000169537543939081197810000009363708269240533164_" gradientTransform="matrix(1 0 0 -1 0 512)" gradientUnits="userSpaceOnUse" x1="351.148" x2="403.146" xlink:href="#lg1" y1="97.566" y2="45.569"/><linearGradient id="SVGID_00000088832313928884165210000013997328797848650374_" gradientTransform="matrix(1 0 0 -1 0 512)" gradientUnits="userSpaceOnUse" x1="114.196" x2="157.018" xlink:href="#lg1" y1="371.166" y2="328.354"/><linearGradient id="SVGID_00000080893756510001899890000014229665468922736524_" gradientTransform="matrix(1 0 0 -1 0 512)" gradientUnits="userSpaceOnUse" x1="354.982" x2="397.804" xlink:href="#lg1" y1="183.646" y2="140.834"/><linearGradient id="SVGID_00000181783267006566567430000016737814048171301819_" gradientTransform="matrix(1 0 0 -1 0 512)" gradientUnits="userSpaceOnUse" x1="209.839" x2="302.142" xlink:href="#lg1" y1="296.654" y2="204.341"/><g id="Icon"><g id="_38"><path d="m443.8 50v412c0 27.6-22.4 50-50 50h-275.6c-27.6 0-50-22.4-50-50v-412c0-27.6 22.4-50 50-50h275.5c27.7 0 50.1 22.4 50.1 50z" fill="url(#SVGID_1_)"/><path d="m433.8 50v412c0 22.1-17.9 40-40 40h-275.6c-22.1 0-40-17.9-40-40v-412c0-22.1 17.9-40 40-40h275.5c22.2 0 40.1 17.9 40.1 40z" fill="url(#SVGID_00000148618980678713772710000004793019487942516100_)"/><path d="m134.8 111.9c-7.1 0-13.3-2.3-18.4-6.9-5.4-4.7-8.1-10.6-8.1-17.6 0-8.2 3.6-14.8 10.7-19.7-5.1-4.2-7.7-9.6-7.7-16s2.4-11.4 7.2-15.7c4.6-4 10.1-6 16.3-6s11.7 2 16.3 6c4.8 4.2 7.2 9.5 7.2 15.7s-2.6 11.8-7.7 16c7.1 4.9 10.7 11.4 10.7 19.7 0 7-2.6 12.8-7.9 17.5s-11.4 7-18.6 7zm0-38.4c-4.2 0-7.8 1.3-11.1 3.8-3.5 2.7-5.2 6.1-5.2 10.2s1.7 7.4 5.2 10.2c3.2 2.5 6.9 3.7 11.1 3.7s7.8-1.2 11.1-3.7c3.5-2.7 5.2-6.1 5.2-10.2s-1.7-7.5-5.2-10.2c-3.2-2.5-6.9-3.8-11.1-3.8zm0-33c-3.4 0-6.4 1-8.9 3.1-2.9 2.2-4.3 4.9-4.3 8.1s1.4 6 4.3 8.1c2.6 2 5.5 3.1 8.9 3.1s6.4-1 8.9-3.1c2.9-2.2 4.3-4.9 4.3-8.1s-1.4-6-4.3-8.1c-2.5-2.1-5.5-3.1-8.9-3.1z" fill="url(#SVGID_00000183242234943684500870000015344226274387922608_)"/><path d="m377.2 400.1c7.1 0 13.3 2.3 18.5 6.9 5.4 4.7 8.1 10.6 8.1 17.6 0 8.2-3.6 14.8-10.7 19.7 5.1 4.2 7.7 9.6 7.7 16s-2.4 11.4-7.2 15.7c-4.6 4-10.1 6-16.3 6s-11.7-2-16.3-6c-4.8-4.2-7.2-9.5-7.2-15.7s2.6-11.8 7.7-16c-7.1-4.9-10.7-11.4-10.7-19.7 0-7 2.6-12.8 7.9-17.5 5.1-4.7 11.3-7 18.5-7zm0 38.4c4.2 0 7.9-1.3 11-3.8 3.5-2.7 5.2-6.1 5.2-10.1s-1.7-7.4-5.2-10.1c-3.2-2.5-6.9-3.7-11-3.7s-7.9 1.2-11 3.7c-3.5 2.7-5.2 6.1-5.2 10.1s1.7 7.5 5.2 10.1c3.1 2.5 6.8 3.8 11 3.8zm0 33c3.4 0 6.4-1 8.9-3.1 2.9-2.2 4.3-4.9 4.3-8.1s-1.4-6-4.3-8.1c-2.6-2-5.5-3.1-8.9-3.1s-6.4 1-8.9 3.1c-2.9 2.2-4.3 4.9-4.3 8.1s1.4 6 4.3 8.1c2.5 2.1 5.5 3.1 8.9 3.1z" fill="url(#SVGID_00000169537543939081197810000009363708269240533164_)"/><path d="m151.6 150.3c-.8 0-1.6.1-2.4.2 1.5-2.4 2.4-5.3 2.4-8.4 0-8.9-7.2-16-16-16s-16 7.2-16 16c0 3.1.9 6 2.4 8.4-.8-.1-1.6-.2-2.4-.2-8.8 0-16 7.2-16 16s7.2 16 16 16c5.4 0 10.2-2.7 13.1-6.8.2 7.4-2.2 13.3-6.6 17.8h19.1c-4.5-4.5-6.8-10.4-6.6-17.8 2.9 4.1 7.7 6.8 13.1 6.8 8.9 0 16-7.2 16-16s-7.2-16-16.1-16z" fill="url(#SVGID_00000088832313928884165210000013997328797848650374_)"/><path d="m360.4 361.7c.8 0 1.6-.1 2.4-.2-1.5 2.5-2.4 5.3-2.4 8.4 0 8.9 7.2 16 16 16s16-7.2 16-16c0-3.1-.9-6-2.4-8.4.8.1 1.6.2 2.4.2 8.9 0 16-7.2 16-16s-7.2-16-16-16c-5.4 0-10.2 2.7-13.1 6.8-.2-7.4 2.2-13.3 6.6-17.8h-19.1c4.5 4.5 6.8 10.4 6.6 17.8-2.9-4.1-7.7-6.8-13.1-6.8-8.9 0-16 7.2-16 16s7.2 16 16.1 16z" fill="url(#SVGID_00000080893756510001899890000014229665468922736524_)"/><path d="m290.6 235.8c-1.8 0-3.5.2-5.2.4 3.3-5.3 5.2-11.5 5.2-18.2 0-19.1-15.5-34.6-34.6-34.6s-34.6 15.5-34.6 34.6c0 6.7 1.9 12.9 5.2 18.2-1.7-.3-3.4-.4-5.2-.4-19.1 0-34.6 15.5-34.6 34.6s15.5 34.6 34.6 34.6c11.7 0 22-5.8 28.3-14.7.3 16-4.6 28.6-14.3 38.3h41.2c-9.6-9.7-14.6-22.3-14.3-38.3 6.2 8.9 16.6 14.7 28.3 14.7 19.1 0 34.6-15.5 34.6-34.6s-15.6-34.6-34.6-34.6z" fill="url(#SVGID_00000181783267006566567430000016737814048171301819_)"/></g></g></svg>