<svg id="Layer_2_00000174578565203164651060000002737867143891884734_" enable-background="new 0 0 512 512" viewBox="68 0 376 512" xmlns="http://www.w3.org/2000/svg" xmlns:xlink="http://www.w3.org/1999/xlink"><linearGradient id="lg1"><stop offset="0" stop-color="#454545"/><stop offset="1"/></linearGradient><linearGradient id="SVGID_1_" gradientTransform="matrix(1 0 0 -1 0 512)" gradientUnits="userSpaceOnUse" x1="48.749" x2="463.231" xlink:href="#lg1" y1="463.246" y2="48.754"/><linearGradient id="SVGID_00000116236692787757538110000003401254305034335141_" gradientTransform="matrix(1 0 0 -1 0 512)" gradientUnits="userSpaceOnUse" x1="55.818" x2="456.162" y1="456.172" y2="55.828"><stop offset="0" stop-color="#f2f2f2"/><stop offset="1" stop-color="#d9d9d9"/></linearGradient><linearGradient id="SVGID_00000104706977287825731340000000711657690174325131_" gradientTransform="matrix(1 0 0 -1 0 512)" gradientUnits="userSpaceOnUse" x1="108.332" x2="159.613" xlink:href="#lg1" y1="466.529" y2="415.248"/><linearGradient id="SVGID_00000045619621424466554110000013325658040280881333_" gradientTransform="matrix(1 0 0 -1 0 512)" gradientUnits="userSpaceOnUse" x1="351.511" x2="403.005" xlink:href="#lg1" y1="96.21" y2="44.716"/><linearGradient id="SVGID_00000041990408391683382890000015598651704898685312_" gradientTransform="matrix(1 0 0 -1 0 512)" gradientUnits="userSpaceOnUse" x1="114.196" x2="157.018" xlink:href="#lg1" y1="371.166" y2="328.354"/><linearGradient id="SVGID_00000013159447361326284800000004715225800046022548_" gradientTransform="matrix(1 0 0 -1 0 512)" gradientUnits="userSpaceOnUse" x1="354.982" x2="397.804" xlink:href="#lg1" y1="183.646" y2="140.834"/><linearGradient id="SVGID_00000163794353917121466280000016661004653878455175_" gradientTransform="matrix(1 0 0 -1 0 512)" gradientUnits="userSpaceOnUse" x1="209.839" x2="302.142" xlink:href="#lg1" y1="296.654" y2="204.341"/><g id="Icon"><g id="_39"><path d="m443.8 50v412c0 27.6-22.4 50-50 50h-275.6c-27.6 0-50-22.4-50-50v-412c0-27.6 22.4-50 50-50h275.5c27.7 0 50.1 22.4 50.1 50z" fill="url(#SVGID_1_)"/><path d="m433.8 50v412c0 22.1-17.9 40-40 40h-275.6c-22.1 0-40-17.9-40-40v-412c0-22.1 17.9-40 40-40h275.5c22.2 0 40.1 17.9 40.1 40z" fill="url(#SVGID_00000116236692787757538110000003401254305034335141_)"/><path d="m149.7 82.1c-4.5 3.6-9.6 5.4-15.2 5.4-7.6 0-13.9-3-18.9-8.9-4.9-5.8-7.3-12.5-7.3-20.1s2.4-14.4 7.3-20.1c5.1-6 11.4-9 18.9-9 9.3 0 16.4 4.8 21 14.5 3.6 7.5 5.4 16.5 5.4 27 0 11-1.8 20.2-5.3 27.4-4.6 9.6-11.8 14.3-21.7 14.3s-17.2-4.9-22.9-14.8l9-5.3c3.6 6.3 8.2 9.5 13.8 9.5 8.5 0 13.8-6.7 15.9-19.9zm-15.2-42.2c-4.6 0-8.5 2-11.6 5.9-2.9 3.6-4.3 7.8-4.3 12.6s1.5 8.9 4.3 12.6c3.1 4 6.9 5.9 11.6 5.9 3.9 0 7.3-1.5 10.2-4.5 2.6-2.7 4.3-6 5.3-10.1-1.8-14.9-7-22.4-15.5-22.4z" fill="url(#SVGID_00000104706977287825731340000000711657690174325131_)"/><path d="m403.4 434.6h.1c.1-.3.2 2 .2 6.8 0 11.3-1.5 20.3-4.6 27.2-4.4 9.4-11.5 14.1-21.4 14.1-4.9 0-9.4-1.3-13.5-3.9-4-2.6-7.2-6-9.7-10.4l8.9-5.4c3.5 6.1 8.2 9.1 14.3 9.1 7.9 0 12.9-5.9 14.8-17.8-4.4 3.9-9.3 5.9-14.7 5.9-7.9 0-14.4-3.3-19.4-9.9-4.5-6-6.7-13.1-6.7-21.3 0-7.7 2.4-14.5 7.2-20.4 5.1-6.2 11.4-9.3 18.9-9.3 3.7 0 7.6 1.2 11.6 3.6 4.3 2.6 7.7 7.3 10.3 14.1 1.9 5.5 3.2 11.3 3.7 17.6zm-25.7-24.7c-4.6 0-8.5 2.1-11.5 6.3-2.9 3.8-4.3 8.1-4.3 12.9 0 5.3 1.3 9.9 3.9 13.8 3 4.5 6.9 6.8 11.9 6.8 3.6 0 7-1.8 9.9-5.3 2.4-2.9 4.2-6.4 5.4-10.4-.6-5.9-1.9-10.9-3.8-15.1-2.8-6-6.6-9-11.5-9z" fill="url(#SVGID_00000045619621424466554110000013325658040280881333_)"/><path d="m151.6 150.3c-.8 0-1.6.1-2.4.2 1.5-2.4 2.4-5.3 2.4-8.4 0-8.9-7.2-16-16-16s-16 7.2-16 16c0 3.1.9 6 2.4 8.4-.8-.1-1.6-.2-2.4-.2-8.8 0-16 7.2-16 16s7.2 16 16 16c5.4 0 10.2-2.7 13.1-6.8.2 7.4-2.2 13.3-6.6 17.8h19.1c-4.5-4.5-6.8-10.4-6.6-17.8 2.9 4.1 7.7 6.8 13.1 6.8 8.9 0 16-7.2 16-16s-7.2-16-16.1-16z" fill="url(#SVGID_00000041990408391683382890000015598651704898685312_)"/><path d="m360.4 361.7c.8 0 1.6-.1 2.4-.2-1.5 2.5-2.4 5.3-2.4 8.4 0 8.9 7.2 16 16 16s16-7.2 16-16c0-3.1-.9-6-2.4-8.4.8.1 1.6.2 2.4.2 8.9 0 16-7.2 16-16s-7.2-16-16-16c-5.4 0-10.2 2.7-13.1 6.8-.2-7.4 2.2-13.3 6.6-17.8h-19.1c4.5 4.5 6.8 10.4 6.6 17.8-2.9-4.1-7.7-6.8-13.1-6.8-8.9 0-16 7.2-16 16s7.2 16 16.1 16z" fill="url(#SVGID_00000013159447361326284800000004715225800046022548_)"/><path d="m290.6 235.8c-1.8 0-3.5.2-5.2.4 3.3-5.3 5.2-11.5 5.2-18.2 0-19.1-15.5-34.6-34.6-34.6s-34.6 15.5-34.6 34.6c0 6.7 1.9 12.9 5.2 18.2-1.7-.3-3.4-.4-5.2-.4-19.1 0-34.6 15.5-34.6 34.6s15.5 34.6 34.6 34.6c11.7 0 22-5.8 28.3-14.7.3 16-4.6 28.6-14.3 38.3h41.2c-9.6-9.7-14.6-22.3-14.3-38.3 6.2 8.9 16.6 14.7 28.3 14.7 19.1 0 34.6-15.5 34.6-34.6s-15.6-34.6-34.6-34.6z" fill="url(#SVGID_00000163794353917121466280000016661004653878455175_)"/></g></g></svg>