<svg id="Layer_2_00000049916287787529814880000000358484225840550577_" enable-background="new 0 0 512 512" viewBox="68 0 376 512" xmlns="http://www.w3.org/2000/svg" xmlns:xlink="http://www.w3.org/1999/xlink"><linearGradient id="lg1"><stop offset="0" stop-color="#454545"/><stop offset="1"/></linearGradient><linearGradient id="SVGID_1_" gradientTransform="matrix(1 0 0 -1 0 512)" gradientUnits="userSpaceOnUse" x1="48.749" x2="463.231" xlink:href="#lg1" y1="463.246" y2="48.754"/><linearGradient id="SVGID_00000151517395002083669650000003573609319394482059_" gradientTransform="matrix(1 0 0 -1 0 512)" gradientUnits="userSpaceOnUse" x1="55.818" x2="456.162" y1="456.172" y2="55.828"><stop offset="0" stop-color="#f2f2f2"/><stop offset="1" stop-color="#d9d9d9"/></linearGradient><linearGradient id="SVGID_00000121978454716224496560000014127852777365636019_" gradientTransform="matrix(1 0 0 -1 0 512)" gradientUnits="userSpaceOnUse" x1="116.002" x2="160.619" xlink:href="#lg1" y1="465.877" y2="421.26"/><linearGradient id="SVGID_00000062161376560611341490000000099794515597203355_" gradientTransform="matrix(1 0 0 -1 0 512)" gradientUnits="userSpaceOnUse" x1="351.381" x2="395.998" xlink:href="#lg1" y1="90.741" y2="46.123"/><linearGradient id="SVGID_00000096030438565642049660000008842677715267796149_" gradientTransform="matrix(1 0 0 -1 0 512)" gradientUnits="userSpaceOnUse" x1="114.196" x2="157.018" xlink:href="#lg1" y1="371.166" y2="328.354"/><linearGradient id="SVGID_00000115505572428619070640000002203753477055280826_" gradientTransform="matrix(1 0 0 -1 0 512)" gradientUnits="userSpaceOnUse" x1="354.982" x2="397.804" xlink:href="#lg1" y1="183.646" y2="140.834"/><linearGradient id="SVGID_00000087380119886960562290000012464865207497528995_" gradientTransform="matrix(1 0 0 -1 0 512)" gradientUnits="userSpaceOnUse" x1="209.839" x2="302.142" xlink:href="#lg1" y1="296.654" y2="204.341"/><g id="Icon"><g id="_41"><path d="m443.8 50v412c0 27.6-22.4 50-50 50h-275.6c-27.6 0-50-22.4-50-50v-412c0-27.6 22.4-50 50-50h275.5c27.7 0 50.1 22.4 50.1 50z" fill="url(#SVGID_1_)"/><path d="m433.8 50v412c0 22.1-17.9 40-40 40h-275.6c-22.1 0-40-17.9-40-40v-412c0-22.1 17.9-40 40-40h275.5c22.2 0 40.1 17.9 40.1 40z" fill="url(#SVGID_00000151517395002083669650000003573609319394482059_)"/><path d="m119.4 82.4c0 3.9 0 5.5 0 4.9 0 3.8.8 6.9 2.4 9.2 1.9 2.8 4.8 4.1 8.7 4.1 3.3 0 5.9-1.2 7.9-3.6 1.8-2.2 2.7-4.9 2.7-8.2v-47.5h-8.7v-11.4h28.2v11.4h-8.6v47.6c0 6.5-1.9 11.9-5.9 16.2-4.1 4.6-9.3 6.8-15.8 6.8-6.4 0-11.8-2.2-16-6.7s-6.2-10-6.1-16.4v-6.4z" fill="url(#SVGID_00000121978454716224496560000014127852777365636019_)"/><path d="m392.6 429.6c0-3.9 0-5.5 0-4.9 0-3.8-.8-6.9-2.4-9.2-1.9-2.8-4.8-4.1-8.6-4.1-3.3 0-5.9 1.2-7.9 3.6-1.8 2.2-2.7 4.9-2.7 8.2v47.6h8.7v11.4h-28.2v-11.4h8.4v-47.6c0-6.5 2-11.9 5.9-16.2 4.1-4.5 9.4-6.8 15.8-6.8s11.8 2.2 16 6.7 6.2 10 6.1 16.4v6.4z" fill="url(#SVGID_00000062161376560611341490000000099794515597203355_)"/><path d="m151.6 150.3c-.8 0-1.6.1-2.4.2 1.5-2.4 2.4-5.3 2.4-8.4 0-8.9-7.2-16-16-16s-16 7.2-16 16c0 3.1.9 6 2.4 8.4-.8-.1-1.6-.2-2.4-.2-8.8 0-16 7.2-16 16s7.2 16 16 16c5.4 0 10.2-2.7 13.1-6.8.2 7.4-2.2 13.3-6.6 17.8h19.1c-4.5-4.5-6.8-10.4-6.6-17.8 2.9 4.1 7.7 6.8 13.1 6.8 8.9 0 16-7.2 16-16s-7.2-16-16.1-16z" fill="url(#SVGID_00000096030438565642049660000008842677715267796149_)"/><path d="m360.4 361.7c.8 0 1.6-.1 2.4-.2-1.5 2.5-2.4 5.3-2.4 8.4 0 8.9 7.2 16 16 16s16-7.2 16-16c0-3.1-.9-6-2.4-8.4.8.1 1.6.2 2.4.2 8.9 0 16-7.2 16-16s-7.2-16-16-16c-5.4 0-10.2 2.7-13.1 6.8-.2-7.4 2.2-13.3 6.6-17.8h-19.1c4.5 4.5 6.8 10.4 6.6 17.8-2.9-4.1-7.7-6.8-13.1-6.8-8.9 0-16 7.2-16 16s7.2 16 16.1 16z" fill="url(#SVGID_00000115505572428619070640000002203753477055280826_)"/><path d="m290.6 235.8c-1.8 0-3.5.2-5.2.4 3.3-5.3 5.2-11.5 5.2-18.2 0-19.1-15.5-34.6-34.6-34.6s-34.6 15.5-34.6 34.6c0 6.7 1.9 12.9 5.2 18.2-1.7-.3-3.4-.4-5.2-.4-19.1 0-34.6 15.5-34.6 34.6s15.5 34.6 34.6 34.6c11.7 0 22-5.8 28.3-14.7.3 16-4.6 28.6-14.3 38.3h41.2c-9.6-9.7-14.6-22.3-14.3-38.3 6.2 8.9 16.6 14.7 28.3 14.7 19.1 0 34.6-15.5 34.6-34.6s-15.6-34.6-34.6-34.6z" fill="url(#SVGID_00000087380119886960562290000012464865207497528995_)"/></g></g></svg>