<svg id="Layer_2_00000056403413673290482730000003090601204518848644_" enable-background="new 0 0 512 512" viewBox="68 0 376 512" xmlns="http://www.w3.org/2000/svg" xmlns:xlink="http://www.w3.org/1999/xlink"><linearGradient id="lg1"><stop offset="0" stop-color="#454545"/><stop offset="1"/></linearGradient><linearGradient id="SVGID_1_" gradientTransform="matrix(1 0 0 -1 0 512)" gradientUnits="userSpaceOnUse" x1="48.749" x2="463.231" xlink:href="#lg1" y1="463.246" y2="48.754"/><linearGradient id="SVGID_00000031165859678026736300000013983975305570589851_" gradientTransform="matrix(1 0 0 -1 0 512)" gradientUnits="userSpaceOnUse" x1="55.818" x2="456.162" y1="456.172" y2="55.828"><stop offset="0" stop-color="#f2f2f2"/><stop offset="1" stop-color="#d9d9d9"/></linearGradient><linearGradient id="SVGID_00000065785385835314059070000002977918763916342431_" gradientTransform="matrix(1 0 0 -1 0 512)" gradientUnits="userSpaceOnUse" x1="108.921" x2="167.468" xlink:href="#lg1" y1="466.13" y2="407.583"/><linearGradient id="SVGID_00000008864417418283726420000018337275927958269366_" gradientTransform="matrix(1 0 0 -1 0 512)" gradientUnits="userSpaceOnUse" x1="344.522" x2="403.069" xlink:href="#lg1" y1="104.417" y2="45.87"/><linearGradient id="SVGID_00000129204207527072699960000012866998168706432411_" gradientTransform="matrix(1 0 0 -1 0 512)" gradientUnits="userSpaceOnUse" x1="114.196" x2="157.018" xlink:href="#lg1" y1="371.166" y2="328.354"/><linearGradient id="SVGID_00000178188135242947075120000004623991517749317038_" gradientTransform="matrix(1 0 0 -1 0 512)" gradientUnits="userSpaceOnUse" x1="354.982" x2="397.804" xlink:href="#lg1" y1="183.646" y2="140.834"/><linearGradient id="SVGID_00000163033383454475869270000001302639369680292003_" gradientTransform="matrix(1 0 0 -1 0 512)" gradientUnits="userSpaceOnUse" x1="209.839" x2="302.142" xlink:href="#lg1" y1="296.654" y2="204.341"/><g id="Icon"><g id="_42"><path d="m443.8 50v412c0 27.6-22.4 50-50 50h-275.6c-27.6 0-50-22.4-50-50v-412c0-27.6 22.4-50 50-50h275.5c27.7 0 50.1 22.4 50.1 50z" fill="url(#SVGID_1_)"/><path d="m433.8 50v412c0 22.1-17.9 40-40 40h-275.6c-22.1 0-40-17.9-40-40v-412c0-22.1 17.9-40 40-40h275.5c22.2 0 40.1 17.9 40.1 40z" fill="url(#SVGID_00000031165859678026736300000013983975305570589851_)"/><path d="m161 110.9c-3.8 0-6.5-.2-8.2-.5-1.9-.4-3.8-1.3-5.6-2.7-4 3.3-8.5 4.9-13.3 4.9-5.2 0-9.8-1.9-13.9-5.6-4.3-3.8-6.4-8.3-6.4-13.4v-7.1h-5.3v-9.2c.2-.1 1.9-.2 5.3-.4v-28.5c0-5.2 2.2-9.7 6.4-13.5 4.1-3.7 8.7-5.6 13.9-5.6s9.9 1.9 14.1 5.7 6.3 8.3 6.3 13.5v45.3c0 2.2-.4 4.3-1.3 6.4.9.6 1.7 1 2.5 1.2h5.5zm-37.6-34c3.9.4 7.8 2.2 11.7 5.4 2.4 1.9 5.5 5 9.3 9.2v-43.2c0-2.3-1.1-4.4-3.3-6.2s-4.6-2.8-7.2-2.8-5 .9-7.2 2.8-3.4 3.9-3.4 6.2zm16.3 23.8-12.4-12.2c-1-1-2.3-1.7-3.9-1.9v7c0 2.3 1.1 4.3 3.4 6.2 2.2 1.9 4.6 2.8 7.2 2.8 2-.1 3.9-.7 5.7-1.9z" fill="url(#SVGID_00000065785385835314059070000002977918763916342431_)"/><path d="m351 401.1c3.8 0 6.5.2 8.2.5 1.9.5 3.8 1.4 5.6 2.7 4-3.3 8.5-4.9 13.3-4.9 5.2 0 9.8 1.9 13.9 5.6 4.3 3.8 6.4 8.3 6.4 13.5v7.1h5.3v9.2c-.2.1-2 .2-5.3.4v28.5c0 5.2-2.1 9.7-6.4 13.5-4.1 3.7-8.7 5.6-13.9 5.6s-9.9-1.9-14.1-5.7-6.3-8.3-6.3-13.5v-45.3c0-2.2.5-4.3 1.4-6.4-.9-.6-1.7-1-2.5-1.1h-5.6zm37.6 34c-3.9-.5-7.8-2.2-11.7-5.4-2.4-1.9-5.5-5-9.3-9.2v43.1c0 2.3 1.1 4.4 3.3 6.2 2.2 1.9 4.6 2.8 7.2 2.8s5-.9 7.2-2.8 3.4-3.9 3.4-6.2zm-16.3-23.8 12.4 12.2c1 1 2.3 1.7 3.9 2v-7c0-2.3-1.1-4.4-3.4-6.2-2.2-1.9-4.6-2.8-7.2-2.8-2 0-3.9.6-5.7 1.8z" fill="url(#SVGID_00000008864417418283726420000018337275927958269366_)"/><path d="m151.6 150.3c-.8 0-1.6.1-2.4.2 1.5-2.4 2.4-5.3 2.4-8.4 0-8.9-7.2-16-16-16s-16 7.2-16 16c0 3.1.9 6 2.4 8.4-.8-.1-1.6-.2-2.4-.2-8.8 0-16 7.2-16 16s7.2 16 16 16c5.4 0 10.2-2.7 13.1-6.8.2 7.4-2.2 13.3-6.6 17.8h19.1c-4.5-4.5-6.8-10.4-6.6-17.8 2.9 4.1 7.7 6.8 13.1 6.8 8.9 0 16-7.2 16-16s-7.2-16-16.1-16z" fill="url(#SVGID_00000129204207527072699960000012866998168706432411_)"/><path d="m360.4 361.7c.8 0 1.6-.1 2.4-.2-1.5 2.5-2.4 5.3-2.4 8.4 0 8.9 7.2 16 16 16s16-7.2 16-16c0-3.1-.9-6-2.4-8.4.8.1 1.6.2 2.4.2 8.9 0 16-7.2 16-16s-7.2-16-16-16c-5.4 0-10.2 2.7-13.1 6.8-.2-7.4 2.2-13.3 6.6-17.8h-19.1c4.5 4.5 6.8 10.4 6.6 17.8-2.9-4.1-7.7-6.8-13.1-6.8-8.9 0-16 7.2-16 16s7.2 16 16.1 16z" fill="url(#SVGID_00000178188135242947075120000004623991517749317038_)"/><path d="m290.6 235.8c-1.8 0-3.5.2-5.2.4 3.3-5.3 5.2-11.5 5.2-18.2 0-19.1-15.5-34.6-34.6-34.6s-34.6 15.5-34.6 34.6c0 6.7 1.9 12.9 5.2 18.2-1.7-.3-3.4-.4-5.2-.4-19.1 0-34.6 15.5-34.6 34.6s15.5 34.6 34.6 34.6c11.7 0 22-5.8 28.3-14.7.3 16-4.6 28.6-14.3 38.3h41.2c-9.6-9.7-14.6-22.3-14.3-38.3 6.2 8.9 16.6 14.7 28.3 14.7 19.1 0 34.6-15.5 34.6-34.6s-15.6-34.6-34.6-34.6z" fill="url(#SVGID_00000163033383454475869270000001302639369680292003_)"/></g></g></svg>