<svg id="Layer_2_00000151518545450746225230000006202392486297358776_" enable-background="new 0 0 512 512" viewBox="68 0 376 512" xmlns="http://www.w3.org/2000/svg" xmlns:xlink="http://www.w3.org/1999/xlink"><linearGradient id="lg1"><stop offset="0" stop-color="#454545"/><stop offset="1"/></linearGradient><linearGradient id="SVGID_1_" gradientTransform="matrix(1 0 0 -1 0 512)" gradientUnits="userSpaceOnUse" x1="48.749" x2="463.231" xlink:href="#lg1" y1="463.246" y2="48.754"/><linearGradient id="SVGID_00000057125114714301236460000012025011398958822818_" gradientTransform="matrix(1 0 0 -1 0 512)" gradientUnits="userSpaceOnUse" x1="55.818" x2="456.162" y1="456.172" y2="55.828"><stop offset="0" stop-color="#f2f2f2"/><stop offset="1" stop-color="#d9d9d9"/></linearGradient><linearGradient id="SVGID_00000017505500325736377560000012791645756854639508_" gradientTransform="matrix(1 0 0 -1 0 512)" gradientUnits="userSpaceOnUse" x1="109.486" x2="192.408" xlink:href="#lg1" y1="482.621" y2="399.699"/><linearGradient id="SVGID_00000018922342357353980930000006931928028484654758_" gradientTransform="matrix(1 0 0 -1 0 512)" gradientUnits="userSpaceOnUse" x1="319.595" x2="402.512" xlink:href="#lg1" y1="112.303" y2="29.377"/><linearGradient id="SVGID_00000016051701340979140900000017884614055182611864_" gradientTransform="matrix(1 0 0 -1 0 512)" gradientUnits="userSpaceOnUse" x1="114.196" x2="157.018" xlink:href="#lg1" y1="371.166" y2="328.354"/><linearGradient id="SVGID_00000040560744653161869610000004826199188759002018_" gradientTransform="matrix(1 0 0 -1 0 512)" gradientUnits="userSpaceOnUse" x1="354.982" x2="397.804" xlink:href="#lg1" y1="183.646" y2="140.834"/><linearGradient id="SVGID_00000016040007501257167930000009466141185635506869_" gradientTransform="matrix(1 0 0 -1 0 512)" gradientUnits="userSpaceOnUse" x1="209.839" x2="302.142" xlink:href="#lg1" y1="296.654" y2="204.341"/><g id="Icon"><g id="_40"><path d="m443.8 50v412c0 27.6-22.4 50-50 50h-275.6c-27.6 0-50-22.4-50-50v-412c0-27.6 22.4-50 50-50h275.5c27.7 0 50.1 22.4 50.1 50z" fill="url(#SVGID_1_)"/><path d="m433.8 50v412c0 22.1-17.9 40-40 40h-275.6c-22.1 0-40-17.9-40-40v-412c0-22.1 17.9-40 40-40h275.5c22.2 0 40.1 17.9 40.1 40z" fill="url(#SVGID_00000057125114714301236460000012025011398958822818_)"/><path d="m152.9 111.1h-44.6v-11.3h17v-57.9h-17v-11.3h28v69.2h16.6zm2.2-26.1v-28.5c0-7.4 2.6-13.8 7.7-19.2s11.4-8.1 18.7-8.1 13.6 2.7 18.7 8.1 7.7 11.8 7.7 19.2v28.5c0 7.4-2.6 13.9-7.7 19.4s-11.4 8.2-18.7 8.2-13.6-2.7-18.7-8.2-7.7-11.9-7.7-19.4zm11.2-28.5v28.5c0 4.4 1.5 8.2 4.5 11.4s6.6 4.8 10.8 4.8 7.8-1.6 10.8-4.9 4.5-7.1 4.5-11.3v-28.5c0-4.3-1.5-8-4.5-11.2s-6.6-4.7-10.8-4.7-7.8 1.6-10.8 4.7c-3.1 3.2-4.5 6.9-4.5 11.2z" fill="url(#SVGID_00000017505500325736377560000012791645756854639508_)"/><path d="m359.1 400.9h44.6v11.3h-17v57.9h17v11.3h-28v-69.2h-16.6zm-2.2 26.1v28.5c0 7.4-2.6 13.8-7.7 19.2s-11.4 8.1-18.7 8.1-13.6-2.7-18.7-8.1-7.7-11.8-7.7-19.2v-28.5c0-7.4 2.6-13.9 7.7-19.4s11.4-8.2 18.7-8.2c7.4 0 13.6 2.7 18.7 8.2s7.7 11.9 7.7 19.4zm-11.2 28.5v-28.5c0-4.4-1.5-8.1-4.5-11.4-3-3.2-6.6-4.9-10.8-4.9s-7.8 1.6-10.8 4.9-4.5 7-4.5 11.3v28.5c0 4.3 1.5 8 4.5 11.1s6.6 4.7 10.8 4.7 7.8-1.6 10.8-4.7c3.1-3 4.5-6.7 4.5-11z" fill="url(#SVGID_00000018922342357353980930000006931928028484654758_)"/><path d="m151.6 150.3c-.8 0-1.6.1-2.4.2 1.5-2.4 2.4-5.3 2.4-8.4 0-8.9-7.2-16-16-16s-16 7.2-16 16c0 3.1.9 6 2.4 8.4-.8-.1-1.6-.2-2.4-.2-8.8 0-16 7.2-16 16s7.2 16 16 16c5.4 0 10.2-2.7 13.1-6.8.2 7.4-2.2 13.3-6.6 17.8h19.1c-4.5-4.5-6.8-10.4-6.6-17.8 2.9 4.1 7.7 6.8 13.1 6.8 8.9 0 16-7.2 16-16s-7.2-16-16.1-16z" fill="url(#SVGID_00000016051701340979140900000017884614055182611864_)"/><path d="m360.4 361.7c.8 0 1.6-.1 2.4-.2-1.5 2.5-2.4 5.3-2.4 8.4 0 8.9 7.2 16 16 16s16-7.2 16-16c0-3.1-.9-6-2.4-8.4.8.1 1.6.2 2.4.2 8.9 0 16-7.2 16-16s-7.2-16-16-16c-5.4 0-10.2 2.7-13.1 6.8-.2-7.4 2.2-13.3 6.6-17.8h-19.1c4.5 4.5 6.8 10.4 6.6 17.8-2.9-4.1-7.7-6.8-13.1-6.8-8.9 0-16 7.2-16 16s7.2 16 16.1 16z" fill="url(#SVGID_00000040560744653161869610000004826199188759002018_)"/><path d="m290.6 235.8c-1.8 0-3.5.2-5.2.4 3.3-5.3 5.2-11.5 5.2-18.2 0-19.1-15.5-34.6-34.6-34.6s-34.6 15.5-34.6 34.6c0 6.7 1.9 12.9 5.2 18.2-1.7-.3-3.4-.4-5.2-.4-19.1 0-34.6 15.5-34.6 34.6s15.5 34.6 34.6 34.6c11.7 0 22-5.8 28.3-14.7.3 16-4.6 28.6-14.3 38.3h41.2c-9.6-9.7-14.6-22.3-14.3-38.3 6.2 8.9 16.6 14.7 28.3 14.7 19.1 0 34.6-15.5 34.6-34.6s-15.6-34.6-34.6-34.6z" fill="url(#SVGID_00000016040007501257167930000009466141185635506869_)"/></g></g></svg>