<?xml version="1.0" encoding="UTF-8" standalone="no"?>
<svg
   id="Layer_2_00000099644752274563725540000002097304343186717630_"
   enable-background="new 0 0 512 512"
   viewBox="0 0 512 512"
   version="1.1"
   sodipodi:docname="2c.svg"
   inkscape:version="1.4.2 (f4327f4, 2025-05-13)"
   xmlns:inkscape="http://www.inkscape.org/namespaces/inkscape"
   xmlns:sodipodi="http://sodipodi.sourceforge.net/DTD/sodipodi-0.dtd"
   xmlns:xlink="http://www.w3.org/1999/xlink"
   xmlns="http://www.w3.org/2000/svg"
   xmlns:svg="http://www.w3.org/2000/svg">
  <defs
     id="defs10" />
  <sodipodi:namedview
     id="namedview10"
     pagecolor="#ffffff"
     bordercolor="#000000"
     borderopacity="0.25"
     inkscape:showpageshadow="2"
     inkscape:pageopacity="0.0"
     inkscape:pagecheckerboard="0"
     inkscape:deskcolor="#d1d1d1"
     inkscape:zoom="1.6699219"
     inkscape:cx="256.29941"
     inkscape:cy="257.79649"
     inkscape:window-width="1920"
     inkscape:window-height="1057"
     inkscape:window-x="-8"
     inkscape:window-y="-8"
     inkscape:window-maximized="1"
     inkscape:current-layer="_32" />
  <linearGradient
     id="lg1">
    <stop
       offset="0"
       stop-color="#454545"
       id="stop1" />
    <stop
       offset="1"
       id="stop2" />
  </linearGradient>
  <linearGradient
     id="SVGID_1_"
     gradientTransform="matrix(1.3631523,0,0,-1,-24.766986,512)"
     gradientUnits="userSpaceOnUse"
     x1="48.749"
     x2="463.231"
     xlink:href="#lg1"
     y1="463.246"
     y2="48.754" />
  <linearGradient
     id="SVGID_00000155861802149249903110000003079446665533831074_"
     gradientTransform="matrix(1.3835771,0,0,-1,-29.995726,512)"
     gradientUnits="userSpaceOnUse"
     x1="55.818"
     x2="456.162"
     y1="456.172"
     y2="55.828">
    <stop
       offset="0"
       stop-color="#f2f2f2"
       id="stop3" />
    <stop
       offset="1"
       stop-color="#d9d9d9"
       id="stop4" />
  </linearGradient>
  <linearGradient
     id="SVGID_00000049906136391850269480000009311081220957756303_"
     gradientTransform="matrix(1.8396752,0,0,-1.8396752,-81.868825,916.63948)"
     gradientUnits="userSpaceOnUse"
     x1="103.463"
     x2="163.986"
     xlink:href="#lg1"
     y1="465.023"
     y2="404.501" />
  <linearGradient
     id="SVGID_00000098941925584883408990000002797556750934927501_"
     gradientTransform="matrix(-1.8273554,0,0,1.8273554,1168.9573,278.88437)"
     gradientUnits="userSpaceOnUse"
     x1="348.014"
     x2="408.537"
     xlink:href="#lg1"
     y1="107.499"
     y2="46.977" />
  <linearGradient
     id="SVGID_00000050641765515780119510000006959201309794416056_"
     gradientTransform="matrix(1.8396752,0,0,-1.8396752,-86.990355,916.63948)"
     gradientUnits="userSpaceOnUse"
     x1="114.196"
     x2="157.018"
     xlink:href="#lg1"
     y1="371.166"
     y2="328.354" />
  <linearGradient
     id="SVGID_00000097484899790250393020000004872776114025239227_"
     gradientTransform="matrix(-1.8273554,0,0,1.8273554,1173.9584,-47.66403)"
     gradientUnits="userSpaceOnUse"
     x1="354.982"
     x2="397.804"
     xlink:href="#lg1"
     y1="183.646"
     y2="140.834" />
  <linearGradient
     id="SVGID_00000035499813058780720830000013606602413099709886_"
     gradientTransform="matrix(1 0 0 -1 0 512)"
     gradientUnits="userSpaceOnUse"
     x1="209.839"
     x2="302.142"
     xlink:href="#lg1"
     y1="296.654"
     y2="204.341" />
  <g
     id="Icon"
     transform="translate(-68.2)">
    <g
       id="_32">
      <path
         d="m 580.2,68.158 v 375.617 c 0,27.6 -30.53461,68.225 -68.15761,68.225 H 136.35761 C 98.734611,512 68.2,471.375 68.2,443.775 V 68.158 C 68.2,40.558 98.735001,0 136.358,0 H 511.90607 C 549.66539,0 580.2,40.558 580.2,68.158 Z"
         fill="url(#SVGID_1_)"
         id="path4"
         style="fill:url(#SVGID_1_);stroke-width:1.16754"
         sodipodi:nodetypes="sssssssss" />
      <path
         d="m 570.2,68.158 v 375.617 c 0,22.1 -27.64795,58.225 -58.225,58.225 H 136.358 C 105.78095,502 78.2,465.875 78.2,443.775 V 68.158 C 78.2,46.058 105.78095,10 136.358,10 H 511.83682 C 542.55223,10 570.2,46.058 570.2,68.158 Z"
         fill="url(#SVGID_00000155861802149249903110000003079446665533831074_)"
         id="path5"
         style="fill:url(#SVGID_00000155861802149249903110000003079446665533831074_);stroke-width:1.17625"
         sodipodi:nodetypes="sssssssss" />
      <path
         d="m 193.16262,141.95225 h 18.94866 V 180.2175 H 117.368 v -9.75028 c 0,-17.84485 6.62283,-33.66606 19.68453,-47.83156 5.15109,-5.33505 17.29295,-15.08533 36.60954,-29.250832 13.06169,-9.566311 19.68452,-17.660882 19.68452,-24.651648 0,-6.438863 -3.67935,-11.405986 -10.85408,-14.901369 -5.703,-2.759513 -12.14186,-4.231253 -19.50056,-4.231253 -17.66088,0 -26.67529,5.88696 -26.67529,17.660882 0,2.391578 0.73587,5.151091 2.02364,8.278539 l -17.66088,7.358701 c -2.20761,-5.519026 -3.12745,-10.854084 -3.12745,-15.63724 0,-12.325824 4.59919,-21.708168 13.79757,-28.330999 C 139.62807,33.04348 150.11422,30.1 162.99195,30.1 c 12.87773,0 23.91578,3.127448 33.11415,9.566311 10.67012,7.174734 16.18915,16.925013 16.18915,29.066869 0,11.405987 -5.703,21.892136 -17.10898,31.82638 -11.22202,8.46251 -22.26007,16.92501 -33.48209,25.38752 -13.0617,10.85408 -20.9723,22.44404 -23.54785,34.58589 h 55.19026 z"
         fill="url(#SVGID_00000049906136391850269480000009311081220957756303_)"
         id="path6"
         style="fill:url(#SVGID_00000049906136391850269480000009311081220957756303_);stroke-width:1.83968" />
      <path
         d="m 506.54105,444.99101 h 18.82177 V 483 H 431.254 v -9.68499 c 0,-17.72534 6.57848,-33.62333 19.55271,-47.51124 5.1166,-5.48206 17.17714,-14.98431 36.36437,-29.05495 12.97423,-9.50224 19.55271,-17.54261 19.55271,-24.48656 0,-6.39575 -3.65472,-11.14686 -10.7814,-14.80158 -5.6648,-2.74103 -12.06055,-4.20292 -19.36997,-4.20292 -17.54261,0 -26.49666,5.84754 -26.49666,17.54261 0,2.55831 0.73095,5.29933 2.0101,8.2231 l -17.54262,7.30942 c -2.01009,-5.48206 -3.1065,-10.78139 -3.1065,-15.53252 0,-12.24328 4.56839,-21.56278 13.70516,-28.14127 8.2231,-5.84754 18.63903,-8.7713 31.43052,-8.7713 12.79149,0 23.75562,3.1065 32.8924,9.50224 10.7814,7.12669 16.08073,16.81167 16.08073,28.87222 0,11.14687 -5.66481,21.74553 -16.99441,31.61325 -10.96413,8.40584 -22.111,16.81166 -33.07513,25.2175 -12.97422,10.7814 -20.83185,22.29374 -23.39015,34.35429 h 54.82066 z"
         fill="url(#SVGID_00000098941925584883408990000002797556750934927501_)"
         id="path7"
         style="fill:url(#SVGID_00000098941925584883408990000002797556750934927501_);stroke-width:1.82735" />
      <path
         d="m 191.90441,251.22896 c -1.47174,0 -2.94348,0.18397 -4.41522,0.36794 2.75951,-4.41522 4.41522,-9.75028 4.41522,-15.45327 0,-16.37311 -13.24566,-29.43481 -29.4348,-29.43481 -16.18914,0 -29.43481,13.24567 -29.43481,29.43481 0,5.70299 1.65571,11.03805 4.41522,15.45327 -1.47174,-0.18397 -2.94348,-0.36794 -4.41522,-0.36794 -16.18914,0 -29.4348,13.24567 -29.4348,29.43481 0,16.18914 13.24566,29.4348 29.4348,29.4348 9.93425,0 18.76469,-4.96712 24.09975,-12.50979 0.36793,13.6136 -4.04729,24.46768 -12.14186,32.74622 h 35.1378 c -8.27854,-8.27854 -12.50979,-19.13262 -12.14186,-32.74622 5.33506,7.54267 14.1655,12.50979 24.09975,12.50979 16.37311,0 29.4348,-13.24566 29.4348,-29.4348 0,-16.18914 -13.24566,-29.43481 -29.61877,-29.43481 z"
         fill="url(#SVGID_00000050641765515780119510000006959201309794416056_)"
         id="path8"
         style="fill:url(#SVGID_00000050641765515780119510000006959201309794416056_);stroke-width:1.83968" />
      <path
         d="m 515.37958,226.9875 c -1.46189,0 -2.92377,0.18274 -4.38566,0.36547 2.74104,-4.56839 4.38566,-9.68499 4.38566,-15.34978 0,-16.26346 -13.15696,-29.23769 -29.23769,-29.23769 -16.08073,0 -29.23769,13.15696 -29.23769,29.23769 0,5.66479 1.64462,10.96413 4.38566,15.34978 -1.46189,-0.18273 -2.92378,-0.36547 -4.38566,-0.36547 -16.26346,0 -29.23769,13.15696 -29.23769,29.23769 0,16.08072 13.15696,29.23768 29.23769,29.23768 9.86772,0 18.63902,-4.93386 23.93835,-12.42601 0.36548,13.52243 -4.02017,24.30382 -12.06054,32.52693 h 34.90249 c -8.2231,-8.22311 -12.42601,-19.0045 -12.06054,-32.52693 5.29933,7.49215 14.07063,12.42601 23.93835,12.42601 16.26346,0 29.23769,-13.15696 29.23769,-29.23768 0,-16.08073 -13.15696,-29.23769 -29.42042,-29.23769 z"
         fill="url(#SVGID_00000097484899790250393020000004872776114025239227_)"
         id="path9"
         style="fill:url(#SVGID_00000097484899790250393020000004872776114025239227_);stroke-width:1.82735" />
    </g>
  </g>
</svg>
