<?xml version="1.0" encoding="UTF-8" standalone="no"?>
<svg
   id="Layer_2_00000010294474267345277390000001857115553807879809_"
   enable-background="new 0 0 512 512"
   viewBox="0 0 512 512"
   version="1.1"
   sodipodi:docname="3c.svg"
   inkscape:version="1.4.2 (f4327f4, 2025-05-13)"
   xmlns:inkscape="http://www.inkscape.org/namespaces/inkscape"
   xmlns:sodipodi="http://sodipodi.sourceforge.net/DTD/sodipodi-0.dtd"
   xmlns:xlink="http://www.w3.org/1999/xlink"
   xmlns="http://www.w3.org/2000/svg"
   xmlns:svg="http://www.w3.org/2000/svg">
  <defs
     id="defs10" />
  <sodipodi:namedview
     id="namedview10"
     pagecolor="#ffffff"
     bordercolor="#000000"
     borderopacity="0.25"
     inkscape:showpageshadow="2"
     inkscape:pageopacity="0.0"
     inkscape:pagecheckerboard="0"
     inkscape:deskcolor="#d1d1d1"
     inkscape:zoom="1.6699219"
     inkscape:cx="256.29941"
     inkscape:cy="257.79649"
     inkscape:window-width="1920"
     inkscape:window-height="1057"
     inkscape:window-x="-8"
     inkscape:window-y="-8"
     inkscape:window-maximized="1"
     inkscape:current-layer="_33" />
  <linearGradient
     id="lg1">
    <stop
       offset="0"
       stop-color="#454545"
       id="stop1" />
    <stop
       offset="1"
       id="stop2" />
  </linearGradient>
  <linearGradient
     id="SVGID_1_"
     gradientTransform="matrix(1.3631523,0,0,-1,-24.766986,512)"
     gradientUnits="userSpaceOnUse"
     x1="48.749"
     x2="463.231"
     xlink:href="#lg1"
     y1="463.246"
     y2="48.754" />
  <linearGradient
     id="SVGID_00000088121817759254369000000004356837136535706522_"
     gradientTransform="matrix(1.3835771,0,0,-1,-29.995726,512)"
     gradientUnits="userSpaceOnUse"
     x1="55.818"
     x2="456.162"
     y1="456.172"
     y2="55.828">
    <stop
       offset="0"
       stop-color="#f2f2f2"
       id="stop3" />
    <stop
       offset="1"
       stop-color="#d9d9d9"
       id="stop4" />
  </linearGradient>
  <linearGradient
     id="SVGID_00000036230508427669598630000018258935107862852747_"
     gradientTransform="matrix(1.8396752,0,0,-1.8396752,-81.868825,916.63948)"
     gradientUnits="userSpaceOnUse"
     x1="105.91"
     x2="164.875"
     xlink:href="#lg1"
     y1="478.355"
     y2="419.39" />
  <linearGradient
     id="SVGID_00000097465833441361444460000015012798003440798366_"
     gradientTransform="matrix(-1.8273555,0,0,1.8273555,1168.9574,278.70168)"
     gradientUnits="userSpaceOnUse"
     x1="347.115"
     x2="406.08"
     xlink:href="#lg1"
     y1="92.61"
     y2="33.645" />
  <linearGradient
     id="SVGID_00000050640583653142287780000015251414920878769039_"
     gradientTransform="matrix(1.8396752,0,0,-1.8396752,-86.990355,916.63948)"
     gradientUnits="userSpaceOnUse"
     x1="114.196"
     x2="157.018"
     xlink:href="#lg1"
     y1="371.166"
     y2="328.354" />
  <linearGradient
     id="SVGID_00000002360347896487879810000015904425554421512633_"
     gradientTransform="matrix(-1.8273555,0,0,1.8273555,1173.9585,-47.664011)"
     gradientUnits="userSpaceOnUse"
     x1="354.982"
     x2="397.804"
     xlink:href="#lg1"
     y1="183.646"
     y2="140.834" />
  <linearGradient
     id="SVGID_00000111172291335055049070000017554289515160955055_"
     gradientTransform="matrix(1 0 0 -1 0 512)"
     gradientUnits="userSpaceOnUse"
     x1="209.839"
     x2="302.142"
     xlink:href="#lg1"
     y1="296.654"
     y2="204.341" />
  <g
     id="Icon"
     transform="translate(-68.2)">
    <g
       id="_33">
      <path
         d="m 580.2,68.158 v 375.548 c 0,27.6 -30.53461,68.294 -68.15761,68.294 H 136.35761 C 98.734611,512 68.2,471.306 68.2,443.706 V 68.158 C 68.2,40.558 98.735001,0 136.358,0 H 511.906 C 549.66532,0 580.2,40.558 580.2,68.158 Z"
         fill="url(#SVGID_1_)"
         id="path4"
         style="fill:url(#SVGID_1_);stroke-width:1.16754"
         sodipodi:nodetypes="sssssssss" />
      <path
         d="m 570.2,68.158 v 375.548 c 0,22.1 -27.64777,58.294 -58.22482,58.294 H 136.358 C 105.78095,502 78.2,465.806 78.2,443.706 V 68.158 C 78.2,46.058 105.78095,10 136.358,10 H 511.83682 C 542.55223,10 570.2,46.058 570.2,68.158 Z"
         fill="url(#SVGID_00000088121817759254369000000004356837136535706522_)"
         id="path5"
         style="fill:url(#SVGID_00000088121817759254369000000004356837136535706522_);stroke-width:1.17625"
         sodipodi:nodetypes="sssssssss" />
      <path
         d="m 165.75146,180.40147 c -11.22202,0 -21.5242,-3.86332 -30.35464,-11.58996 -8.09457,-6.99076 -14.1655,-16.18914 -18.02882,-27.59513 l 18.02882,-6.43886 c 2.39158,7.3587 6.2549,13.42963 11.22202,18.02882 5.70299,5.33506 12.14186,8.09457 19.31659,8.09457 9.01441,0 16.74104,-3.49538 23.17991,-10.67012 6.43886,-6.99076 9.75028,-15.08533 9.75028,-23.91577 0,-8.83045 -2.75952,-16.00518 -8.27854,-21.52421 -5.51903,-5.519021 -12.87773,-8.278534 -21.89214,-8.278534 -4.04728,0 -7.3587,0.551903 -9.75028,1.655708 -2.39157,1.103805 -5.15109,3.127446 -8.4625,6.254896 L 136.86856,90.993251 180.8368,49.600558 H 138.3403 V 68.549213 H 119.39165 V 30.1 h 96.76691 v 12.141857 l -37.71334,35.689699 c 11.95789,2.207611 21.5242,7.726636 28.51497,16.741045 6.99076,9.014409 10.67011,19.500559 10.67011,31.826379 0,14.34947 -5.15109,26.85926 -15.45327,37.71335 -9.93424,10.67011 -22.26007,16.18914 -36.42557,16.18914 z"
         fill="url(#SVGID_00000036230508427669598630000018258935107862852747_)"
         id="path6"
         style="fill:url(#SVGID_00000036230508427669598630000018258935107862852747_);stroke-width:1.83968" />
      <path
         d="m 479.31344,483 c -11.14686,0 -21.38005,-3.83745 -30.15136,-11.51234 -8.04036,-6.94395 -14.07064,-16.08073 -17.90808,-27.41033 l 17.90808,-6.39575 c 2.5583,7.30943 6.21301,13.3397 11.14687,17.90809 5.6648,5.29933 12.06054,8.04036 19.18723,8.04036 8.95404,0 16.62893,-3.47197 23.02468,-10.59866 6.39574,-6.94395 9.68498,-14.98431 9.68498,-23.75562 0,-8.77131 -2.74103,-15.89799 -8.2231,-21.38006 -5.48206,-5.48207 -12.79149,-8.2231 -21.74553,-8.2231 -4.02018,0 -7.30942,0.54821 -9.68498,1.64462 -2.37556,1.09641 -5.1166,3.10651 -8.40584,6.21301 l -13.52243,-13.3397 43.6738,-41.11549 h -42.21191 v 18.82176 h -18.82176 v -38.19173 h 96.11889 v 12.06055 L 491.9222,381.2163 c 11.87781,2.19283 21.38006,7.67489 28.32401,16.62894 6.94395,8.95404 10.59866,19.36996 10.59866,31.61325 0,14.25337 -5.1166,26.67938 -15.34979,37.46078 C 505.62736,477.51793 493.56682,483 479.31344,483 Z"
         fill="url(#SVGID_00000097465833441361444460000015012798003440798366_)"
         id="path7"
         style="fill:url(#SVGID_00000097465833441361444460000015012798003440798366_);stroke-width:1.82736" />
      <path
         d="m 191.90441,251.22896 c -1.47174,0 -2.94348,0.18397 -4.41522,0.36794 2.75951,-4.41522 4.41522,-9.75028 4.41522,-15.45327 0,-16.37311 -13.24566,-29.43481 -29.4348,-29.43481 -16.18914,0 -29.43481,13.24567 -29.43481,29.43481 0,5.70299 1.65571,11.03805 4.41522,15.45327 -1.47174,-0.18397 -2.94348,-0.36794 -4.41522,-0.36794 -16.18914,0 -29.4348,13.24567 -29.4348,29.43481 0,16.18914 13.24566,29.4348 29.4348,29.4348 9.93425,0 18.76469,-4.96712 24.09975,-12.50979 0.36793,13.6136 -4.04729,24.46768 -12.14186,32.74622 h 35.1378 c -8.27854,-8.27854 -12.50979,-19.13262 -12.14186,-32.74622 5.33506,7.54267 14.1655,12.50979 24.09975,12.50979 16.37311,0 29.4348,-13.24566 29.4348,-29.4348 0,-16.18914 -13.24566,-29.43481 -29.61877,-29.43481 z"
         fill="url(#SVGID_00000050640583653142287780000015251414920878769039_)"
         id="path8"
         style="fill:url(#SVGID_00000050640583653142287780000015251414920878769039_);stroke-width:1.83968" />
      <path
         d="m 515.37958,226.9875 c -1.46189,0 -2.92377,0.18274 -4.38566,0.36547 2.74104,-4.56839 4.38566,-9.68498 4.38566,-15.34978 0,-16.26347 -13.15696,-29.23769 -29.23769,-29.23769 -16.08073,0 -29.23769,13.15696 -29.23769,29.23769 0,5.6648 1.64462,10.96413 4.38566,15.34978 -1.46189,-0.18273 -2.92377,-0.36547 -4.38566,-0.36547 -16.26346,0 -29.23768,13.15696 -29.23768,29.23769 0,16.08073 13.15695,29.23769 29.23768,29.23769 9.86772,0 18.63903,-4.93386 23.93836,-12.42602 0.36547,13.52243 -4.02018,24.30383 -12.06055,32.52693 h 34.90249 c -8.2231,-8.2231 -12.42601,-19.0045 -12.06054,-32.52693 5.29933,7.49216 14.07063,12.42602 23.93835,12.42602 16.26347,0 29.23769,-13.15696 29.23769,-29.23769 0,-16.08073 -13.15696,-29.23769 -29.42042,-29.23769 z"
         fill="url(#SVGID_00000002360347896487879810000015904425554421512633_)"
         id="path9"
         style="fill:url(#SVGID_00000002360347896487879810000015904425554421512633_);stroke-width:1.82736" />
    </g>
  </g>
</svg>
