<?xml version="1.0" encoding="UTF-8" standalone="no"?>
<svg
   id="Layer_2_00000121279477732998479260000002958045739741302919_"
   enable-background="new 0 0 512 512"
   viewBox="0 0 512 512"
   version="1.1"
   sodipodi:docname="4c.svg"
   inkscape:version="1.4.2 (f4327f4, 2025-05-13)"
   xmlns:inkscape="http://www.inkscape.org/namespaces/inkscape"
   xmlns:sodipodi="http://sodipodi.sourceforge.net/DTD/sodipodi-0.dtd"
   xmlns:xlink="http://www.w3.org/1999/xlink"
   xmlns="http://www.w3.org/2000/svg"
   xmlns:svg="http://www.w3.org/2000/svg">
  <defs
     id="defs10" />
  <sodipodi:namedview
     id="namedview10"
     pagecolor="#ffffff"
     bordercolor="#000000"
     borderopacity="0.25"
     inkscape:showpageshadow="2"
     inkscape:pageopacity="0.0"
     inkscape:pagecheckerboard="0"
     inkscape:deskcolor="#d1d1d1"
     inkscape:zoom="1.6699219"
     inkscape:cx="256.29941"
     inkscape:cy="257.79649"
     inkscape:window-width="1920"
     inkscape:window-height="1057"
     inkscape:window-x="-8"
     inkscape:window-y="-8"
     inkscape:window-maximized="1"
     inkscape:current-layer="Layer_2_00000121279477732998479260000002958045739741302919_" />
  <linearGradient
     id="lg1">
    <stop
       offset="0"
       stop-color="#454545"
       id="stop1" />
    <stop
       offset="1"
       id="stop2" />
  </linearGradient>
  <linearGradient
     id="SVGID_1_"
     gradientTransform="matrix(1.3631523,0,0,-1,-24.766986,512)"
     gradientUnits="userSpaceOnUse"
     x1="48.749"
     x2="463.231"
     xlink:href="#lg1"
     y1="463.246"
     y2="48.754" />
  <linearGradient
     id="SVGID_00000124869110012523492810000015925863009516779442_"
     gradientTransform="matrix(1.3835771,0,0,-1,-29.995726,512)"
     gradientUnits="userSpaceOnUse"
     x1="55.818"
     x2="456.162"
     y1="456.172"
     y2="55.828">
    <stop
       offset="0"
       stop-color="#f2f2f2"
       id="stop3" />
    <stop
       offset="1"
       stop-color="#d9d9d9"
       id="stop4" />
  </linearGradient>
  <linearGradient
     id="SVGID_00000053507006138099697440000016600274423642073262_"
     gradientTransform="matrix(1.8476,0,0,-1.8476,-82.64108,919.86512)"
     gradientUnits="userSpaceOnUse"
     x1="120.218"
     x2="167.208"
     xlink:href="#lg1"
     y1="459.773"
     y2="412.783" />
  <linearGradient
     id="SVGID_00000075135214601632325470000012966161465774083465_"
     gradientTransform="matrix(-1.8273555,0,0,1.8273555,1168.9574,280.16357)"
     gradientUnits="userSpaceOnUse"
     x1="344.783"
     x2="391.773"
     xlink:href="#lg1"
     y1="99.218"
     y2="52.228" />
  <linearGradient
     id="SVGID_00000097482566348953491690000008325719302249842050_"
     gradientTransform="matrix(1.8476,0,0,-1.8476,-87.81136,919.86512)"
     gradientUnits="userSpaceOnUse"
     x1="114.196"
     x2="157.018"
     xlink:href="#lg1"
     y1="371.166"
     y2="328.354" />
  <linearGradient
     id="SVGID_00000176739762220807141310000000522620570653090196_"
     gradientTransform="matrix(-1.8273555,0,0,1.8273555,1173.9585,-47.664011)"
     gradientUnits="userSpaceOnUse"
     x1="354.982"
     x2="397.804"
     xlink:href="#lg1"
     y1="183.646"
     y2="140.834" />
  <linearGradient
     id="SVGID_00000080177339688318014710000009611652117919821237_"
     gradientTransform="matrix(1,0,0,-1,0,512)"
     gradientUnits="userSpaceOnUse"
     x1="209.839"
     x2="302.142"
     xlink:href="#lg1"
     y1="296.654"
     y2="204.341" />
  <g
     id="Icon"
     transform="translate(-68.2)">
    <g
       id="_34">
      <path
         d="m 580.2,68.158 v 375.548 c 0,27.6 -30.53461,68.294 -68.15761,68.294 H 136.35761 C 98.734611,512 68.2,471.306 68.2,443.706 V 68.158 C 68.2,40.558 98.735001,0 136.358,0 H 511.906 C 549.66532,0 580.2,40.558 580.2,68.158 Z"
         fill="url(#SVGID_1_)"
         id="path4"
         style="fill:url(#SVGID_1_);stroke-width:1.16754"
         sodipodi:nodetypes="sssssssss" />
      <path
         d="m 570.2,68.158 v 375.548 c 0,22.1 -27.64777,58.294 -58.22482,58.294 H 136.358 C 105.78095,502 78.2,465.806 78.2,443.706 V 68.158 C 78.2,46.058 105.78095,10 136.358,10 H 511.83682 C 542.55223,10 570.2,46.058 570.2,68.158 Z"
         fill="url(#SVGID_00000124869110012523492810000015925863009516779442_)"
         id="path5"
         style="fill:url(#SVGID_00000124869110012523492810000015925863009516779442_);stroke-width:1.17625"
         sodipodi:nodetypes="sssssssss" />
      <path
         d="m 164.38304,159.57772 h 12.0094 v -15.7046 H 117.454 V 128.35328 L 178.97908,30.8 h 16.25888 v 93.48856 h 18.29124 v 19.58456 h -18.29124 v 15.7046 h 9.05324 v 19.3998 h -40.09292 z m -21.43216,-35.28916 h 33.44156 V 71.26244 Z"
         fill="url(#SVGID_00000053507006138099697440000016600274423642073262_)"
         id="path6"
         style="fill:url(#SVGID_00000053507006138099697440000016600274423642073262_);stroke-width:1.8476" />
      <path
         d="m 477.66882,463.81277 h 11.87782 V 448.28025 H 431.254 v -15.34979 l 60.85093,-96.6671 h 16.08073 v 92.46418 h 18.09082 v 19.55271 h -18.09082 v 15.53252 h 8.95404 V 483 H 477.48609 Z M 456.4715,428.91028 h 33.07514 v -52.4451 z"
         fill="url(#SVGID_00000075135214601632325470000012966161465774083465_)"
         id="path7"
         style="fill:url(#SVGID_00000075135214601632325470000012966161465774083465_);stroke-width:1.82736" />
      <path
         d="m 192.2848,251.5882 c -1.47808,0 -2.95616,0.18476 -4.43424,0.36952 2.7714,-4.43424 4.43424,-9.79228 4.43424,-15.51984 0,-16.44364 -13.30272,-29.5616 -29.5616,-29.5616 -16.25888,0 -29.5616,13.30272 -29.5616,29.5616 0,5.72756 1.66284,11.0856 4.43424,15.51984 -1.47808,-0.18476 -2.95616,-0.36952 -4.43424,-0.36952 -16.25888,0 -29.5616,13.30272 -29.5616,29.5616 0,16.25888 13.30272,29.5616 29.5616,29.5616 9.97704,0 18.84552,-4.98852 24.20356,-12.56368 0.36952,13.67224 -4.06472,24.57308 -12.19416,32.88728 h 35.28916 c -8.3142,-8.3142 -12.56368,-19.21504 -12.19416,-32.88728 5.35804,7.57516 14.22652,12.56368 24.20356,12.56368 16.44364,0 29.5616,-13.30272 29.5616,-29.5616 0,-16.25888 -13.30272,-29.5616 -29.74636,-29.5616 z"
         fill="url(#SVGID_00000097482566348953491690000008325719302249842050_)"
         id="path8"
         style="fill:url(#SVGID_00000097482566348953491690000008325719302249842050_);stroke-width:1.8476" />
      <path
         d="m 515.37958,226.9875 c -1.46189,0 -2.92377,0.18274 -4.38566,0.36547 2.74104,-4.56839 4.38566,-9.68498 4.38566,-15.34978 0,-16.26347 -13.15696,-29.23769 -29.23769,-29.23769 -16.08073,0 -29.23769,13.15696 -29.23769,29.23769 0,5.6648 1.64462,10.96413 4.38566,15.34978 -1.46189,-0.18273 -2.92377,-0.36547 -4.38566,-0.36547 -16.26346,0 -29.23768,13.15696 -29.23768,29.23769 0,16.08073 13.15695,29.23769 29.23768,29.23769 9.86772,0 18.63903,-4.93386 23.93836,-12.42602 0.36547,13.52243 -4.02018,24.30383 -12.06055,32.52693 h 34.90249 c -8.2231,-8.2231 -12.42601,-19.0045 -12.06054,-32.52693 5.29933,7.49216 14.07063,12.42602 23.93835,12.42602 16.26347,0 29.23769,-13.15696 29.23769,-29.23769 0,-16.08073 -13.15696,-29.23769 -29.42042,-29.23769 z"
         fill="url(#SVGID_00000176739762220807141310000000522620570653090196_)"
         id="path9"
         style="fill:url(#SVGID_00000176739762220807141310000000522620570653090196_);stroke-width:1.82736" />
    </g>
  </g>
</svg>
