<?xml version="1.0" encoding="UTF-8" standalone="no"?>
<svg
   id="Layer_2_00000067214030564965175650000013769194126206296755_"
   enable-background="new 0 0 512 512"
   viewBox="0 0 512 512"
   version="1.1"
   sodipodi:docname="5c.svg"
   inkscape:version="1.4.2 (f4327f4, 2025-05-13)"
   xmlns:inkscape="http://www.inkscape.org/namespaces/inkscape"
   xmlns:sodipodi="http://sodipodi.sourceforge.net/DTD/sodipodi-0.dtd"
   xmlns:xlink="http://www.w3.org/1999/xlink"
   xmlns="http://www.w3.org/2000/svg"
   xmlns:svg="http://www.w3.org/2000/svg">
  <defs
     id="defs10" />
  <sodipodi:namedview
     id="namedview10"
     pagecolor="#ffffff"
     bordercolor="#000000"
     borderopacity="0.25"
     inkscape:showpageshadow="2"
     inkscape:pageopacity="0.0"
     inkscape:pagecheckerboard="0"
     inkscape:deskcolor="#d1d1d1"
     inkscape:zoom="1.6699219"
     inkscape:cx="256.29941"
     inkscape:cy="257.79649"
     inkscape:window-width="1920"
     inkscape:window-height="1057"
     inkscape:window-x="-8"
     inkscape:window-y="-8"
     inkscape:window-maximized="1"
     inkscape:current-layer="Layer_2_00000067214030564965175650000013769194126206296755_" />
  <linearGradient
     id="lg1">
    <stop
       offset="0"
       stop-color="#454545"
       id="stop1" />
    <stop
       offset="1"
       id="stop2" />
  </linearGradient>
  <linearGradient
     id="SVGID_1_"
     gradientTransform="matrix(1.3631523,0,0,-1,-24.766986,512)"
     gradientUnits="userSpaceOnUse"
     x1="48.749"
     x2="463.231"
     xlink:href="#lg1"
     y1="463.246"
     y2="48.754" />
  <linearGradient
     id="SVGID_00000116955361999894642080000003575299163300475016_"
     gradientTransform="matrix(1.3835771,0,0,-1,-29.995726,512)"
     gradientUnits="userSpaceOnUse"
     x1="55.818"
     x2="456.162"
     y1="456.172"
     y2="55.828">
    <stop
       offset="0"
       stop-color="#f2f2f2"
       id="stop3" />
    <stop
       offset="1"
       stop-color="#d9d9d9"
       id="stop4" />
  </linearGradient>
  <linearGradient
     id="SVGID_00000034806679390882631270000010572762110778636985_"
     gradientTransform="matrix(1.8374235,0,0,-1.8374235,-81.648965,915.72187)"
     gradientUnits="userSpaceOnUse"
     x1="105.298"
     x2="161.838"
     xlink:href="#lg1"
     y1="474.014"
     y2="417.464" />
  <linearGradient
     id="SVGID_00000105418763220786414920000007467135691978582932_"
     gradientTransform="matrix(-1.8273555,0,0,1.8273555,1168.9574,278.33621)"
     gradientUnits="userSpaceOnUse"
     x1="350.162"
     x2="406.702"
     xlink:href="#lg1"
     y1="94.536"
     y2="37.986" />
  <linearGradient
     id="SVGID_00000085933073678348441210000010384639363567997883_"
     gradientTransform="matrix(1.8374235,0,0,-1.8374235,-86.757075,915.72187)"
     gradientUnits="userSpaceOnUse"
     x1="114.196"
     x2="157.018"
     xlink:href="#lg1"
     y1="371.166"
     y2="328.354" />
  <linearGradient
     id="SVGID_00000146475098762092988970000016840601932044992385_"
     gradientTransform="matrix(-1.8273555,0,0,1.8273555,1173.9585,-47.664011)"
     gradientUnits="userSpaceOnUse"
     x1="354.982"
     x2="397.804"
     xlink:href="#lg1"
     y1="183.646"
     y2="140.834" />
  <linearGradient
     id="SVGID_00000150819195609775413420000002090756323193838246_"
     gradientTransform="matrix(1,0,0,-1,0,512)"
     gradientUnits="userSpaceOnUse"
     x1="209.839"
     x2="302.142"
     xlink:href="#lg1"
     y1="296.654"
     y2="204.341" />
  <g
     id="Icon"
     transform="translate(-68.2)">
    <g
       id="_35">
      <path
         d="m 580.2,68.158 v 375.548 c 0,27.6 -30.53461,68.294 -68.15761,68.294 H 136.35761 C 98.734611,512 68.2,471.306 68.2,443.706 V 68.158 C 68.2,40.558 98.735001,0 136.358,0 H 511.906 C 549.66532,0 580.2,40.558 580.2,68.158 Z"
         fill="url(#SVGID_1_)"
         id="path4"
         style="fill:url(#SVGID_1_);stroke-width:1.16754"
         sodipodi:nodetypes="sssssssss" />
      <path
         d="m 570.2,68.158 v 375.548 c 0,22.1 -27.64777,58.294 -58.22482,58.294 H 136.358 C 105.78095,502 78.2,465.806 78.2,443.706 V 68.158 C 78.2,46.058 105.78095,10 136.358,10 H 511.83682 C 542.55223,10 570.2,46.058 570.2,68.158 Z"
         fill="url(#SVGID_00000116955361999894642080000003575299163300475016_)"
         id="path5"
         style="fill:url(#SVGID_00000116955361999894642080000003575299163300475016_);stroke-width:1.17625"
         sodipodi:nodetypes="sssssssss" />
      <path
         d="m 164.74953,180.75247 c -10.65706,0 -20.3954,-3.67485 -29.21504,-11.02454 -7.71718,-6.79847 -13.78067,-15.43436 -18.19049,-25.90767 l 17.63927,-7.3497 c 2.75613,6.98221 6.61472,12.49448 11.39202,16.9043 5.51227,5.32853 11.75951,7.90092 18.37424,7.90092 9.37086,0 17.27178,-4.40982 23.51902,-13.22945 5.69601,-7.90092 8.45215,-16.53681 8.45215,-26.09141 0,-9.5546 -2.75614,-18.37424 -8.45215,-26.091416 -6.0635,-8.268406 -13.96442,-12.49448 -23.51902,-12.49448 -8.08467,0 -16.16933,4.409816 -24.25399,13.045707 L 126.71486,88.330067 V 29.9 h 71.65952 v 19.476689 h -52.73406 v 18.925462 c 6.0635,-2.756135 12.49448,-4.226074 18.92546,-4.226074 14.88313,0 27.19387,6.063498 37.11596,18.190493 9.37086,11.392025 13.96442,24.62147 13.96442,39.68835 0,15.06687 -4.59356,28.48006 -13.78068,40.05583 -9.92209,12.31074 -22.41657,18.55798 -37.11595,18.74172 z"
         fill="url(#SVGID_00000034806679390882631270000010572762110778636985_)"
         id="path6"
         style="fill:url(#SVGID_00000034806679390882631270000010572762110778636985_);stroke-width:1.83742" />
      <path
         d="m 478.39977,483 c -10.59866,0 -20.10091,-3.65471 -29.05495,-10.96413 -7.6749,-6.57848 -13.70517,-15.34979 -18.09082,-25.76571 l 17.54261,-7.30943 c 2.74103,6.94395 6.57848,12.42602 11.3296,16.81167 5.48207,5.29933 11.69508,7.85763 18.27356,7.85763 9.31951,0 17.17714,-4.38565 23.39015,-13.15696 5.6648,-7.85763 8.40583,-16.4462 8.40583,-25.94844 0,-9.50225 -2.74103,-18.27356 -8.40583,-25.94845 -6.03028,-8.2231 -13.8879,-12.42602 -23.39015,-12.42602 -8.04037,0 -16.08073,4.38565 -24.1211,12.97422 l -13.70516,-8.04036 v -58.1099 h 71.26686 v 19.36997 h -52.4451 v 18.82176 c 6.03027,-2.74104 12.42602,-4.20292 18.82176,-4.20292 14.80158,0 27.04486,6.03027 36.91258,18.09082 9.31951,11.14687 13.8879,24.48656 13.8879,39.47088 0,14.98431 -4.56839,28.32401 -13.70516,39.83634 -9.86772,12.24329 -22.29374,18.45629 -36.91258,18.63903 z"
         fill="url(#SVGID_00000105418763220786414920000007467135691978582932_)"
         id="path7"
         style="fill:url(#SVGID_00000105418763220786414920000007467135691978582932_);stroke-width:1.82736" />
      <path
         d="m 191.79633,251.12579 c -1.46994,0 -2.93988,0.18374 -4.40982,0.36748 2.75614,-4.40981 4.40982,-9.73834 4.40982,-15.43435 0,-16.35307 -13.22945,-29.39878 -29.39878,-29.39878 -16.16932,0 -29.39877,13.22945 -29.39877,29.39878 0,5.69601 1.65368,11.02454 4.40981,15.43435 -1.46994,-0.18374 -2.93988,-0.36748 -4.40981,-0.36748 -16.16933,0 -29.39878,13.22945 -29.39878,29.39878 0,16.16932 13.22945,29.39877 29.39878,29.39877 9.92208,0 18.74172,-4.96104 24.07024,-12.49448 0.36749,13.59694 -4.04233,24.43773 -12.12699,32.70614 h 35.09479 c -8.26841,-8.26841 -12.49448,-19.1092 -12.127,-32.70614 5.32853,7.53344 14.14816,12.49448 24.07025,12.49448 16.35307,0 29.39878,-13.22945 29.39878,-29.39877 0,-16.16933 -13.22945,-29.39878 -29.58252,-29.39878 z"
         fill="url(#SVGID_00000085933073678348441210000010384639363567997883_)"
         id="path8"
         style="fill:url(#SVGID_00000085933073678348441210000010384639363567997883_);stroke-width:1.83742" />
      <path
         d="m 515.37958,226.9875 c -1.46189,0 -2.92377,0.18274 -4.38566,0.36547 2.74104,-4.56839 4.38566,-9.68498 4.38566,-15.34978 0,-16.26347 -13.15696,-29.23769 -29.23769,-29.23769 -16.08073,0 -29.23769,13.15696 -29.23769,29.23769 0,5.6648 1.64462,10.96413 4.38566,15.34978 -1.46189,-0.18273 -2.92377,-0.36547 -4.38566,-0.36547 -16.26346,0 -29.23768,13.15696 -29.23768,29.23769 0,16.08073 13.15695,29.23769 29.23768,29.23769 9.86772,0 18.63903,-4.93386 23.93836,-12.42602 0.36547,13.52243 -4.02018,24.30383 -12.06055,32.52693 h 34.90249 c -8.2231,-8.2231 -12.42601,-19.0045 -12.06054,-32.52693 5.29933,7.49216 14.07063,12.42602 23.93835,12.42602 16.26347,0 29.23769,-13.15696 29.23769,-29.23769 0,-16.08073 -13.15696,-29.23769 -29.42042,-29.23769 z"
         fill="url(#SVGID_00000146475098762092988970000016840601932044992385_)"
         id="path9"
         style="fill:url(#SVGID_00000146475098762092988970000016840601932044992385_);stroke-width:1.82736" />
    </g>
  </g>
</svg>
