<?xml version="1.0" encoding="UTF-8" standalone="no"?>
<svg
   id="Layer_2_00000039115464265423477820000002620065503455551912_"
   enable-background="new 0 0 512 512"
   viewBox="0 0 512 512"
   version="1.1"
   sodipodi:docname="6c.svg"
   inkscape:version="1.4.2 (f4327f4, 2025-05-13)"
   xmlns:inkscape="http://www.inkscape.org/namespaces/inkscape"
   xmlns:sodipodi="http://sodipodi.sourceforge.net/DTD/sodipodi-0.dtd"
   xmlns:xlink="http://www.w3.org/1999/xlink"
   xmlns="http://www.w3.org/2000/svg"
   xmlns:svg="http://www.w3.org/2000/svg">
  <defs
     id="defs10" />
  <sodipodi:namedview
     id="namedview10"
     pagecolor="#ffffff"
     bordercolor="#000000"
     borderopacity="0.25"
     inkscape:showpageshadow="2"
     inkscape:pageopacity="0.0"
     inkscape:pagecheckerboard="0"
     inkscape:deskcolor="#d1d1d1"
     inkscape:zoom="1.6699219"
     inkscape:cx="256.29941"
     inkscape:cy="257.79649"
     inkscape:window-width="1920"
     inkscape:window-height="1057"
     inkscape:window-x="-8"
     inkscape:window-y="-8"
     inkscape:window-maximized="1"
     inkscape:current-layer="Layer_2_00000039115464265423477820000002620065503455551912_" />
  <linearGradient
     id="lg1">
    <stop
       offset="0"
       stop-color="#454545"
       id="stop1" />
    <stop
       offset="1"
       id="stop2" />
  </linearGradient>
  <linearGradient
     id="SVGID_1_"
     gradientTransform="matrix(1.3631523,0,0,-1.0000001,-24.766986,512.00003)"
     gradientUnits="userSpaceOnUse"
     x1="48.749"
     x2="463.231"
     xlink:href="#lg1"
     y1="463.246"
     y2="48.754" />
  <linearGradient
     id="SVGID_00000178168094597219536990000014294620986728713396_"
     gradientTransform="matrix(1.3835771,0,0,-1.0000001,-29.995726,512.00003)"
     gradientUnits="userSpaceOnUse"
     x1="55.818"
     x2="456.162"
     y1="456.172"
     y2="55.828">
    <stop
       offset="0"
       stop-color="#f2f2f2"
       id="stop3" />
    <stop
       offset="1"
       stop-color="#d9d9d9"
       id="stop4" />
  </linearGradient>
  <linearGradient
     id="SVGID_00000139971939711153043510000011620597726972507029_"
     gradientTransform="matrix(1.8307012,0,0,-1.8307012,-80.992946,912.97947)"
     gradientUnits="userSpaceOnUse"
     x1="108.987"
     x2="160.478"
     xlink:href="#lg1"
     y1="467.287"
     y2="415.787" />
  <linearGradient
     id="SVGID_00000106854035120617220150000017190108425074030221_"
     gradientTransform="matrix(-1.8273555,0,0,1.8273555,1168.9574,277.05706)"
     gradientUnits="userSpaceOnUse"
     x1="351.511"
     x2="403.005"
     xlink:href="#lg1"
     y1="96.21"
     y2="44.716" />
  <linearGradient
     id="SVGID_00000064342107657222629600000009762763796114830981_"
     gradientTransform="matrix(1.8307012,0,0,-1.8307012,-86.060646,912.97947)"
     gradientUnits="userSpaceOnUse"
     x1="114.196"
     x2="157.018"
     xlink:href="#lg1"
     y1="371.166"
     y2="328.354" />
  <linearGradient
     id="SVGID_00000137837438961259376270000008370696005905239432_"
     gradientTransform="matrix(-1.8273555,0,0,1.8273555,1173.9585,-47.664011)"
     gradientUnits="userSpaceOnUse"
     x1="354.982"
     x2="397.804"
     xlink:href="#lg1"
     y1="183.646"
     y2="140.834" />
  <linearGradient
     id="SVGID_00000158725404879199451080000003394111972785079743_"
     gradientTransform="matrix(1,0,0,-1,0,512)"
     gradientUnits="userSpaceOnUse"
     x1="209.839"
     x2="302.142"
     xlink:href="#lg1"
     y1="296.654"
     y2="204.341" />
  <g
     id="Icon"
     transform="translate(-68.2)">
    <g
       id="_36">
      <path
         d="M 580.2,68.158 V 443.706 C 580.2,471.30599 549.66539,512 512.04239,512 H 136.35761 C 98.734611,512 68.2,471.30599 68.2,443.706 V 68.158 C 68.2,40.558 98.735001,0 136.358,0 H 511.906 C 549.66532,0 580.2,40.558 580.2,68.158 Z"
         fill="url(#SVGID_1_)"
         id="path4"
         style="fill:url(#SVGID_1_);stroke-width:1.16754"
         sodipodi:nodetypes="sssssssss" />
      <path
         d="m 570.2,68.158 v 375.548 c 0,22.1 -27.64777,58.294 -58.22482,58.294 H 136.358 C 105.78095,502 78.2,465.806 78.2,443.706 V 68.158 C 78.2,46.058 105.78095,10 136.358,10 H 511.83682 C 542.55223,10 570.2,46.058 570.2,68.158 Z"
         fill="url(#SVGID_00000178168094597219536990000014294620986728713396_)"
         id="path5"
         style="fill:url(#SVGID_00000178168094597219536990000014294620986728713396_);stroke-width:1.17625"
         sodipodi:nodetypes="sssssssss" />
      <path
         d="m 117.82121,117.35673 c -0.36614,0.54921 -0.54921,-3.6614 -0.54921,-12.44877 0,-20.686923 2.74605,-37.163234 8.42122,-49.795073 C 133.74831,37.904296 146.74629,29.3 164.87023,29.3 c 8.97043,0 17.20859,2.379912 24.89753,7.139735 7.32281,4.759823 13.18105,10.984207 17.75781,19.039292 l -16.29325,9.885787 C 184.82487,54.197537 176.22057,48.705433 165.0533,48.705433 c -14.46254,0 -23.61605,10.801137 -27.09438,32.586482 8.05508,-7.139735 17.02552,-10.801138 26.91131,-10.801138 14.46254,0 26.36209,6.041314 35.5156,18.123943 8.23816,10.984207 12.2657,23.98219 12.2657,38.99394 0,14.09639 -4.39368,26.54516 -13.18105,37.3463 -9.33658,11.35035 -20.86999,17.02552 -34.60025,17.02552 -6.7736,0 -13.91333,-2.19684 -21.23614,-6.77359 -7.87201,-4.75983 -14.0964,-13.36412 -18.85622,-25.81289 -3.84447,-9.88579 -6.04131,-20.50385 -6.95666,-32.03727 z m 47.04902,45.21832 c 8.42122,0 15.56096,-3.84447 21.05306,-11.53342 5.30903,-6.95666 7.87202,-14.82868 7.87202,-23.43297 0,-9.70272 -2.37991,-18.12395 -7.13974,-25.26368 -5.4921,-8.238157 -12.63184,-12.44877 -21.78534,-12.44877 -6.59053,0 -12.63184,3.295263 -18.12394,9.702717 -4.39369,5.309033 -7.68895,11.716483 -9.88579,18.856223 1.09842,10.80114 3.47833,19.95464 6.95666,27.82666 5.12597,10.61807 12.08263,16.11017 21.05307,16.29324 z"
         fill="url(#SVGID_00000139971939711153043510000011620597726972507029_)"
         id="path6"
         style="fill:url(#SVGID_00000139971939711153043510000011620597726972507029_);stroke-width:1.8307" />
      <path
         d="m 431.8022,418.49435 h -0.18273 c -0.18274,0.54821 -0.36547,-3.65471 -0.36547,-12.42601 0,-20.64912 2.74103,-37.09532 8.40583,-49.70407 8.04037,-17.17714 21.01459,-25.76571 39.10541,-25.76571 8.95404,0 17.17714,2.37556 24.6693,7.12668 7.30942,4.75113 13.15696,10.96413 17.72534,19.0045 l -16.26346,9.86772 c -6.39574,-11.14687 -14.98431,-16.62894 -26.13118,-16.62894 -14.43611,0 -23.57289,10.7814 -27.04486,32.52693 8.04036,-7.12669 16.9944,-10.7814 26.86212,-10.7814 14.43611,0 26.31392,6.03028 35.4507,18.09082 8.2231,10.96413 12.24328,23.93836 12.24328,38.92267 0,14.07064 -4.38565,26.49666 -13.15696,37.27805 C 503.80001,477.3352 492.28767,483 478.5825,483 c -6.76121,0 -13.8879,-2.19283 -21.19732,-6.57848 -7.85763,-4.75112 -14.07064,-13.33969 -18.82176,-25.76571 -3.47198,-10.05046 -5.84754,-20.64912 -6.76122,-32.16146 z m 46.96304,45.13568 c 8.40583,0 15.53252,-3.83744 21.01459,-11.51234 5.29933,-6.94395 7.85762,-14.80158 7.85762,-23.57288 0,-9.68499 -2.37556,-18.09082 -7.12668,-25.21751 -5.48207,-8.2231 -12.60875,-12.42601 -21.74553,-12.42601 -6.57848,0 -12.79149,3.28923 -18.09082,9.68498 -4.38565,5.29933 -7.67489,11.69507 -9.86772,19.0045 1.09641,10.78139 3.47197,19.91817 6.94395,27.59306 5.1166,10.96414 12.06055,16.4462 21.01459,16.4462 z"
         fill="url(#SVGID_00000106854035120617220150000017190108425074030221_)"
         id="path7"
         style="fill:url(#SVGID_00000106854035120617220150000017190108425074030221_);stroke-width:1.82736" />
      <path
         d="m 191.47366,250.81485 c -1.46456,0 -2.92912,0.18307 -4.39368,0.36614 2.74605,-4.39369 4.39368,-9.70272 4.39368,-15.37789 0,-16.29324 -13.18105,-29.29122 -29.29122,-29.29122 -16.11017,0 -29.29122,13.18105 -29.29122,29.29122 0,5.67517 1.64763,10.9842 4.39368,15.37789 -1.46456,-0.18307 -2.92912,-0.36614 -4.39368,-0.36614 -16.11017,0 -29.29122,13.18105 -29.29122,29.29122 0,16.11017 13.18105,29.29122 29.29122,29.29122 9.88579,0 18.67315,-4.9429 23.98219,-12.44877 0.36614,13.54719 -4.02755,24.34832 -12.08263,32.58648 h 34.96639 c -8.23815,-8.23816 -12.44877,-19.03929 -12.08263,-32.58648 5.30904,7.50587 14.0964,12.44877 23.98219,12.44877 16.29324,0 29.29122,-13.18105 29.29122,-29.29122 0,-16.11017 -13.18105,-29.29122 -29.47429,-29.29122 z"
         fill="url(#SVGID_00000064342107657222629600000009762763796114830981_)"
         id="path8"
         style="fill:url(#SVGID_00000064342107657222629600000009762763796114830981_);stroke-width:1.8307" />
      <path
         d="m 515.37958,226.9875 c -1.46189,0 -2.92377,0.18274 -4.38566,0.36547 2.74104,-4.56839 4.38566,-9.68498 4.38566,-15.34978 0,-16.26347 -13.15696,-29.23769 -29.23769,-29.23769 -16.08073,0 -29.23769,13.15696 -29.23769,29.23769 0,5.6648 1.64462,10.96413 4.38566,15.34978 -1.46189,-0.18273 -2.92377,-0.36547 -4.38566,-0.36547 -16.26346,0 -29.23768,13.15696 -29.23768,29.23769 0,16.08073 13.15695,29.23769 29.23768,29.23769 9.86772,0 18.63903,-4.93386 23.93836,-12.42602 0.36547,13.52243 -4.02018,24.30383 -12.06055,32.52693 h 34.90249 c -8.2231,-8.2231 -12.42601,-19.0045 -12.06054,-32.52693 5.29933,7.49216 14.07063,12.42602 23.93835,12.42602 16.26347,0 29.23769,-13.15696 29.23769,-29.23769 0,-16.08073 -13.15696,-29.23769 -29.42042,-29.23769 z"
         fill="url(#SVGID_00000137837438961259376270000008370696005905239432_)"
         id="path9"
         style="fill:url(#SVGID_00000137837438961259376270000008370696005905239432_);stroke-width:1.82736" />
    </g>
  </g>
</svg>
