<?xml version="1.0" encoding="UTF-8" standalone="no"?>
<svg
   id="Layer_2_00000034061813961313693260000012313013070345749400_"
   enable-background="new 0 0 512 512"
   viewBox="0 0 512 512"
   version="1.1"
   sodipodi:docname="7c.svg"
   inkscape:version="1.4.2 (f4327f4, 2025-05-13)"
   xmlns:inkscape="http://www.inkscape.org/namespaces/inkscape"
   xmlns:sodipodi="http://sodipodi.sourceforge.net/DTD/sodipodi-0.dtd"
   xmlns:xlink="http://www.w3.org/1999/xlink"
   xmlns="http://www.w3.org/2000/svg"
   xmlns:svg="http://www.w3.org/2000/svg">
  <defs
     id="defs10" />
  <sodipodi:namedview
     id="namedview10"
     pagecolor="#ffffff"
     bordercolor="#000000"
     borderopacity="0.25"
     inkscape:showpageshadow="2"
     inkscape:pageopacity="0.0"
     inkscape:pagecheckerboard="0"
     inkscape:deskcolor="#d1d1d1"
     inkscape:zoom="1.6699219"
     inkscape:cx="256.29941"
     inkscape:cy="258.99415"
     inkscape:window-width="1920"
     inkscape:window-height="1057"
     inkscape:window-x="-8"
     inkscape:window-y="-8"
     inkscape:window-maximized="1"
     inkscape:current-layer="Layer_2_00000034061813961313693260000012313013070345749400_" />
  <linearGradient
     id="lg1">
    <stop
       offset="0"
       stop-color="#454545"
       id="stop1" />
    <stop
       offset="1"
       id="stop2" />
  </linearGradient>
  <linearGradient
     id="SVGID_1_"
     gradientTransform="matrix(1.3631523,0,0,-1,-24.766986,512)"
     gradientUnits="userSpaceOnUse"
     x1="48.749"
     x2="463.231"
     xlink:href="#lg1"
     y1="463.246"
     y2="48.754" />
  <linearGradient
     id="SVGID_00000075865628838040431750000009426633439200638641_"
     gradientTransform="matrix(1.3835771,0,0,-1,-29.99573,512)"
     gradientUnits="userSpaceOnUse"
     x1="55.818"
     x2="456.162"
     y1="456.172"
     y2="55.828">
    <stop
       offset="0"
       stop-color="#f2f2f2"
       id="stop3" />
    <stop
       offset="1"
       stop-color="#d9d9d9"
       id="stop4" />
  </linearGradient>
  <linearGradient
     id="SVGID_00000057145490591076370650000015241302870830026638_"
     gradientTransform="matrix(1.8498768,0,0,-1.8498768,-82.862654,920.79074)"
     gradientUnits="userSpaceOnUse"
     x1="103.478"
     x2="155.898"
     xlink:href="#lg1"
     y1="476.223"
     y2="423.803" />
  <linearGradient
     id="SVGID_00000124153217607546363730000009135307913982251191_"
     gradientTransform="matrix(-1.8273555,0,0,1.8273555,1168.9574,280.3463)"
     gradientUnits="userSpaceOnUse"
     x1="356.093"
     x2="408.513"
     xlink:href="#lg1"
     y1="88.198"
     y2="35.778" />
  <linearGradient
     id="SVGID_00000051379553425971691070000003523509747635321991_"
     gradientTransform="matrix(1.8498768,0,0,-1.8498768,-88.047234,920.79074)"
     gradientUnits="userSpaceOnUse"
     x1="114.196"
     x2="157.018"
     xlink:href="#lg1"
     y1="371.166"
     y2="328.354" />
  <linearGradient
     id="SVGID_00000111192106249896095800000008111148283172720779_"
     gradientTransform="matrix(-1.8273555,0,0,1.8273555,1173.9585,-47.664011)"
     gradientUnits="userSpaceOnUse"
     x1="354.982"
     x2="397.804"
     xlink:href="#lg1"
     y1="183.646"
     y2="140.834" />
  <linearGradient
     id="SVGID_00000146467059629583011630000009711537460954824842_"
     gradientTransform="matrix(1,0,0,-1,0,512)"
     gradientUnits="userSpaceOnUse"
     x1="209.839"
     x2="302.142"
     xlink:href="#lg1"
     y1="296.654"
     y2="204.341" />
  <g
     id="Icon"
     transform="translate(-68.2)">
    <g
       id="_37">
      <path
         d="m 580.2,68.158 v 375.548 c 0,27.6 -30.53461,68.294 -68.15761,68.294 H 136.35761 C 98.734611,512 68.2,471.306 68.2,443.706 V 68.158 C 68.2,40.558 98.735001,0 136.358,0 H 511.906 C 549.66532,0 580.2,40.558 580.2,68.158 Z"
         fill="url(#SVGID_1_)"
         id="path4"
         style="fill:url(#SVGID_1_);stroke-width:1.16754"
         sodipodi:nodetypes="sssssssss" />
      <path
         d="m 570.2,68.294 v 375.548 c 0,22.1 -27.51177,58.158 -58.08882,58.158 H 136.494 C 105.91695,502 78.2,465.942 78.2,443.842 V 68.294 C 78.2,46.194 105.91695,10 136.494,10 H 511.97282 C 542.68823,10 570.2,46.194 570.2,68.294 Z"
         fill="url(#SVGID_00000075865628838040431750000009426633439200638641_)"
         id="path5"
         style="fill:url(#SVGID_00000075865628838040431750000009426633439200638641_);stroke-width:1.17625"
         sodipodi:nodetypes="sssssssss" />
      <path
         d="M 117.479,70.587363 V 31 h 86.94421 l 9.80435,17.018866 C 189.99417,82.79655 172.9753,126.45364 163.54093,178.80515 h -20.71862 c 8.50944,-47.9118 23.12346,-90.273982 44.21206,-126.901542 h -49.02174 v 18.683755 z"
         fill="url(#SVGID_00000057145490591076370650000015241302870830026638_)"
         id="path6"
         style="fill:url(#SVGID_00000057145490591076370650000015241302870830026638_);stroke-width:1.84988" />
      <path
         d="M 431.254,376.09971 V 336.9943 h 85.8857 l 9.68499,16.81167 C 502.88633,388.16025 486.07466,431.28584 476.75515,483 h -20.46638 c 8.2231,-47.51124 22.84194,-89.17495 43.67379,-125.35658 h -48.42492 v 18.45629 z"
         fill="url(#SVGID_00000124153217607546363730000009135307913982251191_)"
         id="path7"
         style="fill:url(#SVGID_00000124153217607546363730000009135307913982251191_);stroke-width:1.82736" />
      <path
         d="m 192.39409,251.6903 c -1.47991,0 -2.95981,0.18499 -4.43971,0.36997 2.77482,-4.4397 4.43971,-9.80434 4.43971,-15.53896 0,-16.4639 -13.31912,-29.59803 -29.59803,-29.59803 -16.27892,0 -29.59803,13.31911 -29.59803,29.59803 0,5.73462 1.66489,11.09926 4.4397,15.53896 -1.4799,-0.18498 -2.9598,-0.36997 -4.4397,-0.36997 -16.27892,0 -29.59803,13.31911 -29.59803,29.59803 0,16.27891 13.31911,29.59803 29.59803,29.59803 9.98933,0 18.86874,-4.99467 24.23338,-12.57917 0.36998,13.68909 -4.06972,24.60336 -12.20918,32.92781 h 35.33264 c -8.32444,-8.32445 -12.57916,-19.23872 -12.20918,-32.92781 5.36464,7.5845 14.24405,12.57917 24.23338,12.57917 16.46391,0 29.59803,-13.31912 29.59803,-29.59803 0,-16.27892 -13.31911,-29.59803 -29.78301,-29.59803 z"
         fill="url(#SVGID_00000051379553425971691070000003523509747635321991_)"
         id="path8"
         style="fill:url(#SVGID_00000051379553425971691070000003523509747635321991_);stroke-width:1.84988" />
      <path
         d="m 515.37958,226.9875 c -1.46189,0 -2.92377,0.18274 -4.38566,0.36547 2.74104,-4.56839 4.38566,-9.68498 4.38566,-15.34978 0,-16.26347 -13.15696,-29.23769 -29.23769,-29.23769 -16.08073,0 -29.23769,13.15696 -29.23769,29.23769 0,5.6648 1.64462,10.96413 4.38566,15.34978 -1.46189,-0.18273 -2.92377,-0.36547 -4.38566,-0.36547 -16.26346,0 -29.23768,13.15696 -29.23768,29.23769 0,16.08073 13.15695,29.23769 29.23768,29.23769 9.86772,0 18.63903,-4.93386 23.93836,-12.42602 0.36547,13.52243 -4.02018,24.30383 -12.06055,32.52693 h 34.90249 c -8.2231,-8.2231 -12.42601,-19.0045 -12.06054,-32.52693 5.29933,7.49216 14.07063,12.42602 23.93835,12.42602 16.26347,0 29.23769,-13.15696 29.23769,-29.23769 0,-16.08073 -13.15696,-29.23769 -29.42042,-29.23769 z"
         fill="url(#SVGID_00000111192106249896095800000008111148283172720779_)"
         id="path9"
         style="fill:url(#SVGID_00000111192106249896095800000008111148283172720779_);stroke-width:1.82736" />
    </g>
  </g>
</svg>
