<?xml version="1.0" encoding="UTF-8" standalone="no"?>
<svg
   id="Layer_2_00000171699805462634358010000006577621663794633403_"
   enable-background="new 0 0 512 512"
   viewBox="0 0 512 512"
   version="1.1"
   sodipodi:docname="8c.svg"
   inkscape:version="1.4.2 (f4327f4, 2025-05-13)"
   xmlns:inkscape="http://www.inkscape.org/namespaces/inkscape"
   xmlns:sodipodi="http://sodipodi.sourceforge.net/DTD/sodipodi-0.dtd"
   xmlns:xlink="http://www.w3.org/1999/xlink"
   xmlns="http://www.w3.org/2000/svg"
   xmlns:svg="http://www.w3.org/2000/svg">
  <defs
     id="defs10" />
  <sodipodi:namedview
     id="namedview10"
     pagecolor="#ffffff"
     bordercolor="#000000"
     borderopacity="0.25"
     inkscape:showpageshadow="2"
     inkscape:pageopacity="0.0"
     inkscape:pagecheckerboard="0"
     inkscape:deskcolor="#d1d1d1"
     inkscape:zoom="1.6699219"
     inkscape:cx="256.29941"
     inkscape:cy="257.79649"
     inkscape:window-width="1920"
     inkscape:window-height="1057"
     inkscape:window-x="-8"
     inkscape:window-y="-8"
     inkscape:window-maximized="1"
     inkscape:current-layer="Layer_2_00000171699805462634358010000006577621663794633403_" />
  <linearGradient
     id="lg1">
    <stop
       offset="0"
       stop-color="#454545"
       id="stop1" />
    <stop
       offset="1"
       id="stop2" />
  </linearGradient>
  <linearGradient
     id="SVGID_1_"
     gradientTransform="matrix(1.3631523,0,0,-1,-24.766986,512)"
     gradientUnits="userSpaceOnUse"
     x1="48.749"
     x2="463.231"
     xlink:href="#lg1"
     y1="463.246"
     y2="48.754" />
  <linearGradient
     id="SVGID_00000148618980678713772710000004793019487942516100_"
     gradientTransform="matrix(1.3835771,0,0,-1,-29.995726,512)"
     gradientUnits="userSpaceOnUse"
     x1="55.818"
     x2="456.162"
     y1="456.172"
     y2="55.828">
    <stop
       offset="0"
       stop-color="#f2f2f2"
       id="stop3" />
    <stop
       offset="1"
       stop-color="#d9d9d9"
       id="stop4" />
  </linearGradient>
  <linearGradient
     id="SVGID_00000183242234943684500870000015344226274387922608_"
     gradientTransform="matrix(1.8385487,0,0,-1.8385487,-81.758824,916.18047)"
     gradientUnits="userSpaceOnUse"
     x1="108.854"
     x2="160.852"
     xlink:href="#lg1"
     y1="466.431"
     y2="414.434" />
  <linearGradient
     id="SVGID_00000169537543939081197810000009363708269240533164_"
     gradientTransform="matrix(-1.8273555,0,0,1.8273555,1168.9572,278.51895)"
     gradientUnits="userSpaceOnUse"
     x1="351.148"
     x2="403.146"
     xlink:href="#lg1"
     y1="97.566"
     y2="45.569" />
  <linearGradient
     id="SVGID_00000088832313928884165210000013997328797848650374_"
     gradientTransform="matrix(1.8385487,0,0,-1.8385487,-86.873644,916.18047)"
     gradientUnits="userSpaceOnUse"
     x1="114.196"
     x2="157.018"
     xlink:href="#lg1"
     y1="371.166"
     y2="328.354" />
  <linearGradient
     id="SVGID_00000080893756510001899890000014229665468922736524_"
     gradientTransform="matrix(-1.8273555,0,0,1.8273555,1173.9585,-47.664011)"
     gradientUnits="userSpaceOnUse"
     x1="354.982"
     x2="397.804"
     xlink:href="#lg1"
     y1="183.646"
     y2="140.834" />
  <linearGradient
     id="SVGID_00000181783267006566567430000016737814048171301819_"
     gradientTransform="matrix(1,0,0,-1,0,512)"
     gradientUnits="userSpaceOnUse"
     x1="209.839"
     x2="302.142"
     xlink:href="#lg1"
     y1="296.654"
     y2="204.341" />
  <g
     id="Icon"
     transform="translate(-68.2)">
    <g
       id="_38">
      <path
         d="m 580.2,68.158 v 375.548 c 0,27.6 -30.53461,68.294 -68.15761,68.294 H 136.35761 C 98.734611,512 68.2,471.306 68.2,443.706 V 68.158 C 68.2,40.558 98.735001,0 136.358,0 H 511.906 C 549.66532,0 580.2,40.558 580.2,68.158 Z"
         fill="url(#SVGID_1_)"
         id="path4"
         style="fill:url(#SVGID_1_);stroke-width:1.16754"
         sodipodi:nodetypes="sssssssss" />
      <path
         d="m 570.2,68.158 v 375.548 c 0,22.1 -27.64777,58.294 -58.22482,58.294 H 136.358 C 105.78095,502 78.2,465.806 78.2,443.706 V 68.158 C 78.2,46.058 105.78095,10 136.358,10 H 511.83682 C 542.55223,10 570.2,46.058 570.2,68.158 Z"
         fill="url(#SVGID_00000148618980678713772710000004793019487942516100_)"
         id="path5"
         style="fill:url(#SVGID_00000148618980678713772710000004793019487942516100_);stroke-width:1.17625"
         sodipodi:nodetypes="sssssssss" />
      <path
         d="m 166.07754,180.57714 c -13.0537,0 -24.4527,-4.22866 -33.8293,-12.68599 -9.92816,-8.64118 -14.89224,-19.48861 -14.89224,-32.35846 0,-15.07609 6.61877,-27.21052 19.67247,-36.219405 -9.3766,-7.721904 -14.15683,-17.650067 -14.15683,-29.416779 0,-11.766711 4.41252,-20.959455 13.23756,-28.865214 C 144.56652,33.677097 154.67854,30 166.07754,30 c 11.399,0 21.51102,3.677097 29.96834,11.031292 8.82504,7.721905 13.23755,17.466213 13.23755,28.865214 0,11.399002 -4.78022,21.694875 -14.15682,29.416779 13.05369,9.008885 19.67247,20.959455 19.67247,36.219405 0,12.86985 -4.78023,23.53343 -14.52454,32.17461 -9.7443,8.64118 -20.95945,12.86984 -34.197,12.86984 z m 0,-70.60027 c -7.72191,0 -14.34068,2.39011 -20.40789,6.98648 -6.43492,4.96408 -9.56045,11.21515 -9.56045,18.7532 0,7.53805 3.12553,13.60526 9.56045,18.7532 5.88335,4.59637 12.68598,6.80263 20.40789,6.80263 7.7219,0 14.34068,-2.20626 20.40789,-6.80263 6.43492,-4.96409 9.56045,-11.21515 9.56045,-18.7532 0,-7.53805 -3.12553,-13.78912 -9.56045,-18.7532 -5.88336,-4.59637 -12.68599,-6.98648 -20.40789,-6.98648 z m 0,-60.672109 c -6.25107,0 -11.76671,1.838549 -16.36308,5.699501 -5.3318,4.044807 -7.90576,9.008889 -7.90576,14.892244 0,5.883356 2.57396,11.031293 7.90576,14.892245 4.78022,3.677097 10.11201,5.699501 16.36308,5.699501 6.25106,0 11.76671,-1.838549 16.36308,-5.699501 5.33179,-4.044807 7.90576,-9.008889 7.90576,-14.892245 0,-5.883355 -2.57397,-11.031292 -7.90576,-14.892244 -4.59637,-3.860952 -10.11202,-5.699501 -16.36308,-5.699501 z"
         fill="url(#SVGID_00000183242234943684500870000015344226274387922608_)"
         id="path6"
         style="fill:url(#SVGID_00000183242234943684500870000015344226274387922608_);stroke-width:1.83855" />
      <path
         d="m 479.67866,483 c -12.97423,0 -24.30383,-4.20292 -33.80608,-12.60875 -9.86772,-8.58857 -14.80158,-19.36997 -14.80158,-32.16146 0,-14.98431 6.57848,-27.04486 19.5527,-35.9989 -9.31951,-7.67489 -14.07063,-17.54261 -14.07063,-29.23769 0,-11.69507 4.38565,-20.83185 13.15696,-28.68948 8.40583,-7.30942 18.45629,-10.96413 29.78589,-10.96413 11.3296,0 21.38006,3.65471 29.78589,10.96413 8.77131,7.67489 13.15696,17.35988 13.15696,28.68948 0,11.32961 -4.75112,21.5628 -14.07063,29.23769 12.97422,8.95404 19.5527,20.83185 19.5527,35.9989 0,12.79149 -4.75112,23.39015 -14.43611,31.97872 C 504.16522,478.79708 492.83561,483 479.67866,483 Z m 0,-70.17045 c -7.6749,0 -14.43611,2.37556 -20.10091,6.94395 -6.39575,4.93386 -9.50225,11.14687 -9.50225,18.45629 0,7.30942 3.1065,13.52243 9.50225,18.45629 5.84753,4.56839 12.60875,6.76122 20.10091,6.76122 7.49215,0 14.4361,-2.19283 20.10091,-6.76122 6.39574,-4.93386 9.50224,-11.14687 9.50224,-18.45629 0,-7.30942 -3.1065,-13.70516 -9.50224,-18.45629 -5.66481,-4.56839 -12.42602,-6.94395 -20.10091,-6.94395 z m 0,-60.30273 c -6.21301,0 -11.69508,1.82736 -16.26347,5.6648 -5.29933,4.02018 -7.85763,8.95404 -7.85763,14.80158 0,5.84754 2.5583,10.96413 7.85763,14.80158 4.75113,3.65471 10.05046,5.6648 16.26347,5.6648 6.213,0 11.69507,-1.82735 16.26346,-5.6648 5.29933,-4.02018 7.85763,-8.95404 7.85763,-14.80158 0,-5.84754 -2.5583,-10.96413 -7.85763,-14.80158 -4.56839,-3.83744 -10.05046,-5.6648 -16.26346,-5.6648 z"
         fill="url(#SVGID_00000169537543939081197810000009363708269240533164_)"
         id="path7"
         style="fill:url(#SVGID_00000169537543939081197810000009363708269240533164_);stroke-width:1.82736" />
      <path
         d="m 191.85034,251.17741 c -1.47084,0 -2.94168,0.18385 -4.41252,0.36771 2.75782,-4.41252 4.41252,-9.74431 4.41252,-15.44381 0,-16.36309 -13.23755,-29.41678 -29.41678,-29.41678 -16.17923,0 -29.41678,13.23755 -29.41678,29.41678 0,5.6995 1.65469,11.03129 4.41252,15.44381 -1.47084,-0.18386 -2.94168,-0.36771 -4.41252,-0.36771 -16.17923,0 -29.41678,13.23755 -29.41678,29.41678 0,16.17922 13.23755,29.41677 29.41678,29.41677 9.92816,0 18.7532,-4.96408 24.08499,-12.50213 0.36771,13.60526 -4.04481,24.4527 -12.13442,32.72617 h 35.11628 c -8.27347,-8.27347 -12.50214,-19.12091 -12.13443,-32.72617 5.3318,7.53805 14.15683,12.50213 24.08499,12.50213 16.36308,0 29.41678,-13.23755 29.41678,-29.41677 0,-16.17923 -13.23755,-29.41678 -29.60063,-29.41678 z"
         fill="url(#SVGID_00000088832313928884165210000013997328797848650374_)"
         id="path8"
         style="fill:url(#SVGID_00000088832313928884165210000013997328797848650374_);stroke-width:1.83855" />
      <path
         d="m 515.37958,226.9875 c -1.46189,0 -2.92377,0.18274 -4.38566,0.36547 2.74104,-4.56839 4.38566,-9.68498 4.38566,-15.34978 0,-16.26347 -13.15696,-29.23769 -29.23769,-29.23769 -16.08073,0 -29.23769,13.15696 -29.23769,29.23769 0,5.6648 1.64462,10.96413 4.38566,15.34978 -1.46189,-0.18273 -2.92377,-0.36547 -4.38566,-0.36547 -16.26346,0 -29.23768,13.15696 -29.23768,29.23769 0,16.08073 13.15695,29.23769 29.23768,29.23769 9.86772,0 18.63903,-4.93386 23.93836,-12.42602 0.36547,13.52243 -4.02018,24.30383 -12.06055,32.52693 h 34.90249 c -8.2231,-8.2231 -12.42601,-19.0045 -12.06054,-32.52693 5.29933,7.49216 14.07063,12.42602 23.93835,12.42602 16.26347,0 29.23769,-13.15696 29.23769,-29.23769 0,-16.08073 -13.15696,-29.23769 -29.42042,-29.23769 z"
         fill="url(#SVGID_00000080893756510001899890000014229665468922736524_)"
         id="path9"
         style="fill:url(#SVGID_00000080893756510001899890000014229665468922736524_);stroke-width:1.82736" />
    </g>
  </g>
</svg>
