<?xml version="1.0" encoding="UTF-8" standalone="no"?>
<svg
   id="Layer_2_00000174578565203164651060000002737867143891884734_"
   enable-background="new 0 0 512 512"
   viewBox="0 0 512 512"
   version="1.1"
   sodipodi:docname="9c.svg"
   inkscape:version="1.4.2 (f4327f4, 2025-05-13)"
   xmlns:inkscape="http://www.inkscape.org/namespaces/inkscape"
   xmlns:sodipodi="http://sodipodi.sourceforge.net/DTD/sodipodi-0.dtd"
   xmlns:xlink="http://www.w3.org/1999/xlink"
   xmlns="http://www.w3.org/2000/svg"
   xmlns:svg="http://www.w3.org/2000/svg">
  <defs
     id="defs10" />
  <sodipodi:namedview
     id="namedview10"
     pagecolor="#ffffff"
     bordercolor="#000000"
     borderopacity="0.25"
     inkscape:showpageshadow="2"
     inkscape:pageopacity="0.0"
     inkscape:pagecheckerboard="0"
     inkscape:deskcolor="#d1d1d1"
     inkscape:zoom="1.6699219"
     inkscape:cx="256.29941"
     inkscape:cy="257.79649"
     inkscape:window-width="1920"
     inkscape:window-height="1057"
     inkscape:window-x="-8"
     inkscape:window-y="-8"
     inkscape:window-maximized="1"
     inkscape:current-layer="Layer_2_00000174578565203164651060000002737867143891884734_" />
  <linearGradient
     id="lg1">
    <stop
       offset="0"
       stop-color="#454545"
       id="stop1" />
    <stop
       offset="1"
       id="stop2" />
  </linearGradient>
  <linearGradient
     id="SVGID_1_"
     gradientTransform="matrix(1.3631523,0,0,-1,-24.766986,512)"
     gradientUnits="userSpaceOnUse"
     x1="48.749"
     x2="463.231"
     xlink:href="#lg1"
     y1="463.246"
     y2="48.754" />
  <linearGradient
     id="SVGID_00000116236692787757538110000003401254305034335141_"
     gradientTransform="matrix(1.383577,0,0,-1,-29.995725,512)"
     gradientUnits="userSpaceOnUse"
     x1="55.818"
     x2="456.162"
     y1="456.172"
     y2="55.828">
    <stop
       offset="0"
       stop-color="#f2f2f2"
       id="stop3" />
    <stop
       offset="1"
       stop-color="#d9d9d9"
       id="stop4" />
  </linearGradient>
  <linearGradient
     id="SVGID_00000104706977287825731340000000711657690174325131_"
     gradientTransform="matrix(1.8318182,0,0,-1.8318182,-81.101914,913.43546)"
     gradientUnits="userSpaceOnUse"
     x1="108.332"
     x2="159.613"
     xlink:href="#lg1"
     y1="466.529"
     y2="415.248" />
  <linearGradient
     id="SVGID_00000045619621424466554110000013325658040280881333_"
     gradientTransform="matrix(1.8273555,0,0,-1.8273555,-211.42691,536.54154)"
     gradientUnits="userSpaceOnUse"
     x1="351.511"
     x2="403.005"
     xlink:href="#lg1"
     y1="96.21"
     y2="44.716" />
  <linearGradient
     id="SVGID_00000041990408391683382890000015598651704898685312_"
     gradientTransform="matrix(1.8318182,0,0,-1.8318182,-86.176364,913.43546)"
     gradientUnits="userSpaceOnUse"
     x1="114.196"
     x2="157.018"
     xlink:href="#lg1"
     y1="371.166"
     y2="328.354" />
  <linearGradient
     id="SVGID_00000013159447361326284800000004715225800046022548_"
     gradientTransform="matrix(-1.8273555,0,0,1.8273555,1173.9585,-47.664011)"
     gradientUnits="userSpaceOnUse"
     x1="354.982"
     x2="397.804"
     xlink:href="#lg1"
     y1="183.646"
     y2="140.834" />
  <linearGradient
     id="SVGID_00000163794353917121466280000016661004653878455175_"
     gradientTransform="matrix(1,0,0,-1,0,512)"
     gradientUnits="userSpaceOnUse"
     x1="209.839"
     x2="302.142"
     xlink:href="#lg1"
     y1="296.654"
     y2="204.341" />
  <g
     id="Icon"
     transform="translate(-68.2)">
    <g
       id="_39">
      <path
         d="m 580.2,68.158 v 375.548 c 0,27.6 -30.53461,68.294 -68.15761,68.294 H 136.35761 C 98.734611,512 68.2,471.306 68.2,443.706 V 68.158 C 68.2,40.558 98.735001,0 136.358,0 H 511.906 C 549.66532,0 580.2,40.558 580.2,68.158 Z"
         fill="url(#SVGID_1_)"
         id="path4"
         style="fill:url(#SVGID_1_);stroke-width:1.16754"
         sodipodi:nodetypes="sssssssss" />
      <path
         d="m 570.2,68.158 v 375.548 c 0,22.1 -27.64777,58.294 -58.22482,58.294 H 136.358 C 105.78095,502 78.2,465.806 78.2,443.706 V 68.158 C 78.2,46.058 105.78095,10 136.358,10 H 511.83681 C 542.55223,10 570.2,46.058 570.2,68.158 Z"
         fill="url(#SVGID_00000116236692787757538110000003401254305034335141_)"
         id="path5"
         style="fill:url(#SVGID_00000116236692787757538110000003401254305034335141_);stroke-width:1.17625"
         sodipodi:nodetypes="sssssssss" />
      <path
         d="m 193.12127,125.93682 c -8.24318,6.59454 -17.58546,9.89182 -27.84364,9.89182 -13.92182,0 -25.46227,-5.49546 -34.62136,-16.30319 C 121.68036,108.90091 117.284,96.627727 117.284,82.705909 c 0,-13.921818 4.39636,-26.378182 13.37227,-36.819545 C 139.99854,34.895455 151.539,29.4 165.27763,29.4 c 17.03591,0 30.04182,8.792727 38.46818,26.561364 6.59455,13.738636 9.89182,30.225 9.89182,49.459086 0,20.15 -3.29727,37.00273 -9.70863,50.19182 -8.42637,17.58546 -21.61546,26.195 -39.75046,26.195 -18.135,0 -31.50727,-8.97591 -41.94864,-27.11091 l 16.48637,-9.70863 c 6.59454,11.54045 15.02091,17.40227 25.27909,17.40227 15.57045,0 25.27909,-12.27318 29.12591,-36.45318 z M 165.27763,48.634091 c -8.42636,0 -15.57045,3.663636 -21.24909,10.807727 -5.31227,6.594546 -7.87682,14.288182 -7.87682,23.080909 0,8.792728 2.74773,16.303182 7.87682,23.080913 5.67864,7.32727 12.63955,10.80772 21.24909,10.80772 7.14409,0 13.37227,-2.74772 18.68455,-8.24318 4.76272,-4.94591 7.87682,-10.990907 9.70863,-18.501362 -3.29727,-27.294091 -12.82272,-41.032727 -28.39318,-41.032727 z"
         fill="url(#SVGID_00000104706977287825731340000000711657690174325131_)"
         id="path6"
         style="fill:url(#SVGID_00000104706977287825731340000000711657690174325131_);stroke-width:1.83182" />
      <path
         d="m 525.72827,395.1042 h 0.18274 c 0.18273,-0.5482 0.36547,3.65471 0.36547,12.42602 0,20.64912 -2.74103,37.09532 -8.40584,49.70407 C 509.83028,474.41143 496.85606,483 478.76524,483 c -8.95404,0 -17.17714,-2.37556 -24.6693,-7.12669 -7.30942,-4.75112 -13.15696,-10.96413 -17.72535,-19.00449 l 16.26346,-9.86772 c 6.39575,11.14687 14.98432,16.62893 26.13119,16.62893 14.43611,0 23.57288,-10.78139 27.04486,-32.52692 -8.04037,7.12668 -16.99441,10.78139 -26.86213,10.78139 -14.4361,0 -26.31392,-6.03027 -35.45069,-18.09082 -8.2231,-10.96413 -12.24328,-23.93835 -12.24328,-38.92267 0,-14.07063 4.38565,-26.49665 13.15696,-37.27805 9.31951,-11.3296 20.83185,-16.9944 34.53701,-16.9944 6.76122,0 13.8879,2.19282 21.19733,6.57847 7.85763,4.75113 14.07063,13.3397 18.82176,25.76572 3.47197,10.05045 5.84754,20.64911 6.76121,32.16145 z m -46.96303,-45.13568 c -8.40584,0 -15.53252,3.83745 -21.01459,11.51234 -5.29933,6.94395 -7.85763,14.80158 -7.85763,23.57289 0,9.68498 2.37556,18.09082 7.12669,25.2175 5.48206,8.2231 12.60875,12.42602 21.74553,12.42602 6.57848,0 12.79149,-3.28924 18.09082,-9.68498 4.38565,-5.29933 7.67489,-11.69508 9.86772,-19.0045 -1.09642,-10.7814 -3.47198,-19.91817 -6.94395,-27.59307 -5.1166,-10.96413 -12.06055,-16.4462 -21.01459,-16.4462 z"
         fill="url(#SVGID_00000045619621424466554110000013325658040280881333_)"
         id="path7"
         style="fill:url(#SVGID_00000045619621424466554110000013325658040280881333_);stroke-width:1.82736" />
      <path
         d="m 191.52727,250.86682 c -1.46545,0 -2.93091,0.18318 -4.39636,0.36636 2.74773,-4.39636 4.39636,-9.70863 4.39636,-15.38727 0,-16.30318 -13.18909,-29.30909 -29.30909,-29.30909 -16.12,0 -29.30909,13.18909 -29.30909,29.30909 0,5.67864 1.64864,10.99091 4.39636,15.38727 -1.46545,-0.18318 -2.9309,-0.36636 -4.39636,-0.36636 -16.12,0 -29.30909,13.18909 -29.30909,29.30909 0,16.12 13.18909,29.30909 29.30909,29.30909 9.89182,0 18.68455,-4.94591 23.99682,-12.45636 0.36636,13.55545 -4.03,24.36318 -12.09,32.60636 h 34.98773 c -8.24319,-8.24318 -12.45637,-19.05091 -12.09,-32.60636 5.31227,7.51045 14.105,12.45636 23.99681,12.45636 16.30319,0 29.3091,-13.18909 29.3091,-29.30909 0,-16.12 -13.1891,-29.30909 -29.49228,-29.30909 z"
         fill="url(#SVGID_00000041990408391683382890000015598651704898685312_)"
         id="path8"
         style="fill:url(#SVGID_00000041990408391683382890000015598651704898685312_);stroke-width:1.83182" />
      <path
         d="m 515.37958,226.9875 c -1.46189,0 -2.92377,0.18274 -4.38566,0.36547 2.74104,-4.56839 4.38566,-9.68498 4.38566,-15.34978 0,-16.26347 -13.15696,-29.23769 -29.23769,-29.23769 -16.08073,0 -29.23769,13.15696 -29.23769,29.23769 0,5.6648 1.64462,10.96413 4.38566,15.34978 -1.46189,-0.18273 -2.92377,-0.36547 -4.38566,-0.36547 -16.26346,0 -29.23768,13.15696 -29.23768,29.23769 0,16.08073 13.15695,29.23769 29.23768,29.23769 9.86772,0 18.63903,-4.93386 23.93836,-12.42602 0.36547,13.52243 -4.02018,24.30383 -12.06055,32.52693 h 34.90249 c -8.2231,-8.2231 -12.42601,-19.0045 -12.06054,-32.52693 5.29933,7.49216 14.07063,12.42602 23.93835,12.42602 16.26347,0 29.23769,-13.15696 29.23769,-29.23769 0,-16.08073 -13.15696,-29.23769 -29.42042,-29.23769 z"
         fill="url(#SVGID_00000013159447361326284800000004715225800046022548_)"
         id="path9"
         style="fill:url(#SVGID_00000013159447361326284800000004715225800046022548_);stroke-width:1.82736" />
    </g>
  </g>
</svg>
