<?xml version="1.0" encoding="UTF-8" standalone="no"?>
<svg
   id="Layer_2_00000011738524526777235350000016516152223643104431_"
   enable-background="new 0 0 512 512"
   viewBox="0 0 512 512"
   version="1.1"
   sodipodi:docname="Ac.svg"
   inkscape:version="1.4.2 (f4327f4, 2025-05-13)"
   xmlns:inkscape="http://www.inkscape.org/namespaces/inkscape"
   xmlns:sodipodi="http://sodipodi.sourceforge.net/DTD/sodipodi-0.dtd"
   xmlns:xlink="http://www.w3.org/1999/xlink"
   xmlns="http://www.w3.org/2000/svg"
   xmlns:svg="http://www.w3.org/2000/svg">
  <defs
     id="defs10" />
  <sodipodi:namedview
     id="namedview10"
     pagecolor="#ffffff"
     bordercolor="#000000"
     borderopacity="0.25"
     inkscape:showpageshadow="2"
     inkscape:pageopacity="0.0"
     inkscape:pagecheckerboard="0"
     inkscape:deskcolor="#d1d1d1"
     inkscape:zoom="1.6699219"
     inkscape:cx="256.29941"
     inkscape:cy="257.79649"
     inkscape:window-width="1920"
     inkscape:window-height="1057"
     inkscape:window-x="-8"
     inkscape:window-y="-8"
     inkscape:window-maximized="1"
     inkscape:current-layer="Layer_2_00000011738524526777235350000016516152223643104431_" />
  <linearGradient
     id="lg1">
    <stop
       offset="0"
       stop-color="#454545"
       id="stop1" />
    <stop
       offset="1"
       id="stop2" />
  </linearGradient>
  <linearGradient
     id="SVGID_1_"
     gradientTransform="matrix(1.3631523,0,0,-1,-24.766986,512)"
     gradientUnits="userSpaceOnUse"
     x1="48.749"
     x2="463.231"
     xlink:href="#lg1"
     y1="463.246"
     y2="48.754" />
  <linearGradient
     id="SVGID_00000034062025691879859290000008689925946280416925_"
     gradientTransform="matrix(1.3835771,0,0,-1,-29.995726,512)"
     gradientUnits="userSpaceOnUse"
     x1="55.818"
     x2="456.162"
     y1="456.172"
     y2="55.828">
    <stop
       offset="0"
       stop-color="#f2f2f2"
       id="stop3" />
    <stop
       offset="1"
       stop-color="#d9d9d9"
       id="stop4" />
  </linearGradient>
  <linearGradient
     id="SVGID_00000123433931774587382220000008874575196648592776_"
     gradientTransform="matrix(1.8464637,0,0,-1.8464637,-82.530021,919.40298)"
     gradientUnits="userSpaceOnUse"
     x1="106.378"
     x2="162.836"
     xlink:href="#lg1"
     y1="459.139"
     y2="402.691" />
  <linearGradient
     id="SVGID_00000139986179125212759700000000226895546871710644_"
     gradientTransform="matrix(-1.8273555,0,0,1.8273555,1168.9574,279.79809)"
     gradientUnits="userSpaceOnUse"
     x1="349.154"
     x2="405.612"
     xlink:href="#lg1"
     y1="109.309"
     y2="52.861" />
  <linearGradient
     id="SVGID_00000054267197072052038350000017627616337285279926_"
     gradientTransform="matrix(1.8464637,0,0,-1.8464637,-87.693641,919.40298)"
     gradientUnits="userSpaceOnUse"
     x1="114.196"
     x2="157.018"
     xlink:href="#lg1"
     y1="371.166"
     y2="328.354" />
  <linearGradient
     id="SVGID_00000128483067756361544400000017415999534665677459_"
     gradientTransform="matrix(-1.8273555,0,0,1.8273555,1173.9585,-47.664011)"
     gradientUnits="userSpaceOnUse"
     x1="354.982"
     x2="397.804"
     xlink:href="#lg1"
     y1="183.646"
     y2="140.834" />
  <linearGradient
     id="SVGID_00000090988771521956408210000016179654407195301304_"
     gradientTransform="matrix(1,0,0,-1,0,512)"
     gradientUnits="userSpaceOnUse"
     x1="209.839"
     x2="302.142"
     xlink:href="#lg1"
     y1="296.654"
     y2="204.341" />
  <g
     id="Icon"
     transform="translate(-68.2)">
    <g
       id="_31">
      <path
         d="m 580.2,68.158 v 375.548 c 0,27.6 -30.53461,68.294 -68.15761,68.294 H 136.35761 C 98.734611,512 68.2,471.306 68.2,443.706 V 68.158 C 68.2,40.558 98.735001,0 136.358,0 H 511.906 C 549.66532,0 580.2,40.558 580.2,68.158 Z"
         fill="url(#SVGID_1_)"
         id="path4"
         style="fill:url(#SVGID_1_);stroke-width:1.16754"
         sodipodi:nodetypes="sssssssss" />
      <path
         d="m 570.2,68.158 v 375.548 c 0,22.1 -27.64777,58.294 -58.22482,58.294 H 136.358 C 105.78095,502 78.2,465.806 78.2,443.706 V 68.158 C 78.2,46.058 105.78095,10 136.358,10 H 511.83682 C 542.55223,10 570.2,46.058 570.2,68.158 Z"
         fill="url(#SVGID_00000034062025691879859290000008689925946280416925_)"
         id="path5"
         style="fill:url(#SVGID_00000034062025691879859290000008689925946280416925_);stroke-width:1.17625"
         sodipodi:nodetypes="sssssssss" />
      <path
         d="m 156.95632,161.42963 v 17.9107 H 117.442 v -17.9107 h 12.92525 L 154.92521,30.7 h 22.15757 l 24.74261,130.72963 h 12.92525 v 17.9107 h -39.51433 v -17.9107 h 8.49374 l -2.7697,-15.69494 h -29.54342 l -2.95434,15.51029 z m -2.4004,-33.60564 h 23.0808 L 166.18864,66.706042 Z"
         fill="url(#SVGID_00000123433931774587382220000008874575196648592776_)"
         id="path6"
         style="fill:url(#SVGID_00000123433931774587382220000008874575196648592776_);stroke-width:1.84646" />
      <path
         d="M 470.3594,465.27465 V 483 H 431.254 v -17.72535 h 12.79148 l 24.30383,-129.37676 h 21.92827 l 24.48656,129.37676 h 12.79149 V 483 h -39.10541 v -17.72535 h 8.40584 l -2.74104,-15.53252 h -29.23768 l -2.92377,15.53252 z m -2.37556,-33.25787 h 22.84194 l -11.3296,-60.48546 z"
         fill="url(#SVGID_00000139986179125212759700000000226895546871710644_)"
         id="path7"
         style="fill:url(#SVGID_00000139986179125212759700000000226895546871710644_);stroke-width:1.82736" />
      <path
         d="m 192.23026,251.53706 c -1.47717,0 -2.95434,0.18465 -4.43151,0.36929 2.76969,-4.43151 4.43151,-9.78625 4.43151,-15.51029 0,-16.43353 -13.29454,-29.54342 -29.54342,-29.54342 -16.24888,0 -29.54342,13.29454 -29.54342,29.54342 0,5.72404 1.66182,11.07878 4.43151,15.51029 -1.47717,-0.18464 -2.95434,-0.36929 -4.43151,-0.36929 -16.24888,0 -29.54342,13.29454 -29.54342,29.54342 0,16.24888 13.29454,29.54342 29.54342,29.54342 9.9709,0 18.83393,-4.98545 24.18867,-12.55595 0.3693,13.66383 -4.06222,24.55796 -12.18666,32.86705 h 35.26746 c -8.30909,-8.30909 -12.55595,-19.20322 -12.18666,-32.86705 5.35474,7.5705 14.21777,12.55595 24.18867,12.55595 16.43353,0 29.54342,-13.29454 29.54342,-29.54342 0,-16.24888 -13.29453,-29.54342 -29.72806,-29.54342 z"
         fill="url(#SVGID_00000054267197072052038350000017627616337285279926_)"
         id="path8"
         style="fill:url(#SVGID_00000054267197072052038350000017627616337285279926_);stroke-width:1.84646" />
      <path
         d="m 515.37958,226.9875 c -1.46189,0 -2.92377,0.18274 -4.38566,0.36547 2.74104,-4.56839 4.38566,-9.68498 4.38566,-15.34978 0,-16.26347 -13.15696,-29.23769 -29.23769,-29.23769 -16.08073,0 -29.23769,13.15696 -29.23769,29.23769 0,5.6648 1.64462,10.96413 4.38566,15.34978 -1.46189,-0.18273 -2.92377,-0.36547 -4.38566,-0.36547 -16.26346,0 -29.23768,13.15696 -29.23768,29.23769 0,16.08073 13.15695,29.23769 29.23768,29.23769 9.86772,0 18.63903,-4.93386 23.93836,-12.42602 0.36547,13.52243 -4.02018,24.30383 -12.06055,32.52693 h 34.90249 c -8.2231,-8.2231 -12.42601,-19.0045 -12.06054,-32.52693 5.29933,7.49216 14.07063,12.42602 23.93835,12.42602 16.26347,0 29.23769,-13.15696 29.23769,-29.23769 0,-16.08073 -13.15696,-29.23769 -29.42042,-29.23769 z"
         fill="url(#SVGID_00000128483067756361544400000017415999534665677459_)"
         id="path9"
         style="fill:url(#SVGID_00000128483067756361544400000017415999534665677459_);stroke-width:1.82736" />
    </g>
  </g>
</svg>
