<?xml version="1.0" encoding="UTF-8" standalone="no"?>
<svg
   id="Layer_2_00000049916287787529814880000000358484225840550577_"
   enable-background="new 0 0 512 512"
   viewBox="0 0 512 512"
   version="1.1"
   sodipodi:docname="Jc.svg"
   inkscape:version="1.4.2 (f4327f4, 2025-05-13)"
   xmlns:inkscape="http://www.inkscape.org/namespaces/inkscape"
   xmlns:sodipodi="http://sodipodi.sourceforge.net/DTD/sodipodi-0.dtd"
   xmlns:xlink="http://www.w3.org/1999/xlink"
   xmlns="http://www.w3.org/2000/svg"
   xmlns:svg="http://www.w3.org/2000/svg">
  <defs
     id="defs10" />
  <sodipodi:namedview
     id="namedview10"
     pagecolor="#ffffff"
     bordercolor="#000000"
     borderopacity="0.25"
     inkscape:showpageshadow="2"
     inkscape:pageopacity="0.0"
     inkscape:pagecheckerboard="0"
     inkscape:deskcolor="#d1d1d1"
     inkscape:zoom="1.6699219"
     inkscape:cx="256.29941"
     inkscape:cy="257.79649"
     inkscape:window-width="1920"
     inkscape:window-height="1057"
     inkscape:window-x="-8"
     inkscape:window-y="-8"
     inkscape:window-maximized="1"
     inkscape:current-layer="Layer_2_00000049916287787529814880000000358484225840550577_" />
  <linearGradient
     id="lg1">
    <stop
       offset="0"
       stop-color="#454545"
       id="stop1" />
    <stop
       offset="1"
       id="stop2" />
  </linearGradient>
  <linearGradient
     id="SVGID_1_"
     gradientTransform="matrix(1.3631523,0,0,-1,-24.766986,512)"
     gradientUnits="userSpaceOnUse"
     x1="48.749"
     x2="463.231"
     xlink:href="#lg1"
     y1="463.246"
     y2="48.754" />
  <linearGradient
     id="SVGID_00000151517395002083669650000003573609319394482059_"
     gradientTransform="matrix(1.3835771,0,0,-1,-29.995726,512)"
     gradientUnits="userSpaceOnUse"
     x1="55.818"
     x2="456.162"
     y1="456.172"
     y2="55.828">
    <stop
       offset="0"
       stop-color="#f2f2f2"
       id="stop3" />
    <stop
       offset="1"
       stop-color="#d9d9d9"
       id="stop4" />
  </linearGradient>
  <linearGradient
     id="SVGID_00000121978454716224496560000014127852777365636019_"
     gradientTransform="matrix(1.8374235,0,0,-1.8374235,-81.648665,915.72187)"
     gradientUnits="userSpaceOnUse"
     x1="116.002"
     x2="160.619"
     xlink:href="#lg1"
     y1="465.877"
     y2="421.26" />
  <linearGradient
     id="SVGID_00000062161376560611341490000000099794515597203355_"
     gradientTransform="matrix(-1.8273555,0,0,1.8273555,1168.9569,278.70168)"
     gradientUnits="userSpaceOnUse"
     x1="351.381"
     x2="395.998"
     xlink:href="#lg1"
     y1="90.741"
     y2="46.123" />
  <linearGradient
     id="SVGID_00000096030438565642049660000008842677715267796149_"
     gradientTransform="matrix(1.8374235,0,0,-1.8374235,-86.757075,915.72187)"
     gradientUnits="userSpaceOnUse"
     x1="114.196"
     x2="157.018"
     xlink:href="#lg1"
     y1="371.166"
     y2="328.354" />
  <linearGradient
     id="SVGID_00000115505572428619070640000002203753477055280826_"
     gradientTransform="matrix(-1.8273555,0,0,1.8273555,1173.9585,-47.664011)"
     gradientUnits="userSpaceOnUse"
     x1="354.982"
     x2="397.804"
     xlink:href="#lg1"
     y1="183.646"
     y2="140.834" />
  <linearGradient
     id="SVGID_00000087380119886960562290000012464865207497528995_"
     gradientTransform="matrix(1,0,0,-1,0,512)"
     gradientUnits="userSpaceOnUse"
     x1="209.839"
     x2="302.142"
     xlink:href="#lg1"
     y1="296.654"
     y2="204.341" />
  <g
     id="Icon"
     transform="translate(-68.2)">
    <g
       id="_41">
      <path
         d="m 580.2,68.158 v 375.548 c 0,27.6 -30.53461,68.294 -68.15761,68.294 H 136.35761 C 98.734611,512 68.2,471.306 68.2,443.706 V 68.158 C 68.2,40.558 98.735001,0 136.358,0 H 511.906 C 549.66532,0 580.2,40.558 580.2,68.158 Z"
         fill="url(#SVGID_1_)"
         id="path4"
         style="fill:url(#SVGID_1_);stroke-width:1.16754"
         sodipodi:nodetypes="sssssssss" />
      <path
         d="m 570.2,68.158 v 375.548 c 0,22.1 -27.64777,58.294 -58.22482,58.294 H 136.358 C 105.78095,502 78.2,465.806 78.2,443.706 V 68.158 C 78.2,46.058 105.78095,10 136.358,10 H 511.83682 C 542.55223,10 570.2,46.058 570.2,68.158 Z"
         fill="url(#SVGID_00000151517395002083669650000003573609319394482059_)"
         id="path5"
         style="fill:url(#SVGID_00000151517395002083669650000003573609319394482059_);stroke-width:1.17625"
         sodipodi:nodetypes="sssssssss" />
      <path
         d="m 137.7397,126.36473 c 0,7.16596 0,10.10583 0,9.00338 0,6.98221 1.46994,12.67822 4.40982,16.9043 3.4911,5.14478 8.81963,7.53343 15.98558,7.53343 6.0635,0 10.8408,-2.20491 14.51565,-6.61472 3.30736,-4.04233 4.96104,-9.00338 4.96104,-15.06688 V 50.846628 H 161.62621 V 29.9 h 51.81534 v 20.946628 h -15.80184 v 87.461362 c 0,11.94325 -3.49111,21.86534 -10.8408,29.76626 -7.53344,8.45215 -17.08804,12.49448 -29.03129,12.49448 -11.75951,0 -21.6816,-4.04233 -29.39878,-12.31074 -7.71718,-8.26841 -11.39202,-18.37424 -11.20828,-30.13375 v -11.75951 z"
         fill="url(#SVGID_00000121978454716224496560000014127852777365636019_)"
         id="path6"
         style="fill:url(#SVGID_00000121978454716224496560000014127852777365636019_);stroke-width:1.83742" />
      <path
         d="m 451.53716,429.27575 c 0,7.12669 0,10.05045 0,8.95404 0,6.94395 1.46189,12.60875 4.38565,16.81167 3.47198,5.1166 8.77131,7.49216 15.71526,7.49216 6.03027,0 10.7814,-2.19283 14.43611,-6.57848 3.28924,-4.02018 4.93386,-8.95404 4.93386,-14.98432 v -86.98211 h -15.89799 v -20.83186 h 51.53142 v 20.83186 h -15.34979 v 86.98211 c 0,11.87782 -3.65471,21.74553 -10.78139,29.60316 C 493.01813,478.79708 483.33315,483 471.63807,483 c -11.69507,0 -21.56279,-4.02018 -29.23769,-12.24328 -7.67489,-8.2231 -11.3296,-18.27356 -11.14686,-29.96863 v -11.69508 z"
         fill="url(#SVGID_00000062161376560611341490000000099794515597203355_)"
         id="path7"
         style="fill:url(#SVGID_00000062161376560611341490000000099794515597203355_);stroke-width:1.82736" />
      <path
         d="m 191.79633,251.12579 c -1.46994,0 -2.93988,0.18374 -4.40982,0.36748 2.75614,-4.40981 4.40982,-9.73834 4.40982,-15.43435 0,-16.35307 -13.22945,-29.39878 -29.39878,-29.39878 -16.16932,0 -29.39877,13.22945 -29.39877,29.39878 0,5.69601 1.65368,11.02454 4.40981,15.43435 -1.46994,-0.18374 -2.93988,-0.36748 -4.40981,-0.36748 -16.16933,0 -29.39878,13.22945 -29.39878,29.39878 0,16.16932 13.22945,29.39877 29.39878,29.39877 9.92208,0 18.74172,-4.96104 24.07024,-12.49448 0.36749,13.59694 -4.04233,24.43773 -12.12699,32.70614 h 35.09479 c -8.26841,-8.26841 -12.49448,-19.1092 -12.127,-32.70614 5.32853,7.53344 14.14816,12.49448 24.07025,12.49448 16.35307,0 29.39878,-13.22945 29.39878,-29.39877 0,-16.16933 -13.22945,-29.39878 -29.58252,-29.39878 z"
         fill="url(#SVGID_00000096030438565642049660000008842677715267796149_)"
         id="path8"
         style="fill:url(#SVGID_00000096030438565642049660000008842677715267796149_);stroke-width:1.83742" />
      <path
         d="m 515.37958,226.9875 c -1.46189,0 -2.92377,0.18274 -4.38566,0.36547 2.74104,-4.56839 4.38566,-9.68498 4.38566,-15.34978 0,-16.26347 -13.15696,-29.23769 -29.23769,-29.23769 -16.08073,0 -29.23769,13.15696 -29.23769,29.23769 0,5.6648 1.64462,10.96413 4.38566,15.34978 -1.46189,-0.18273 -2.92377,-0.36547 -4.38566,-0.36547 -16.26346,0 -29.23768,13.15696 -29.23768,29.23769 0,16.08073 13.15695,29.23769 29.23768,29.23769 9.86772,0 18.63903,-4.93386 23.93836,-12.42602 0.36547,13.52243 -4.02018,24.30383 -12.06055,32.52693 h 34.90249 c -8.2231,-8.2231 -12.42601,-19.0045 -12.06054,-32.52693 5.29933,7.49216 14.07063,12.42602 23.93835,12.42602 16.26347,0 29.23769,-13.15696 29.23769,-29.23769 0,-16.08073 -13.15696,-29.23769 -29.42042,-29.23769 z"
         fill="url(#SVGID_00000115505572428619070640000002203753477055280826_)"
         id="path9"
         style="fill:url(#SVGID_00000115505572428619070640000002203753477055280826_);stroke-width:1.82736" />
    </g>
  </g>
</svg>
