<?xml version="1.0" encoding="UTF-8" standalone="no"?>
<svg
   id="Layer_2_00000067922841514312931180000018416666762363029129_"
   enable-background="new 0 0 512 512"
   viewBox="0 0 512 512"
   version="1.1"
   sodipodi:docname="Kc.svg"
   inkscape:version="1.4.2 (f4327f4, 2025-05-13)"
   xmlns:inkscape="http://www.inkscape.org/namespaces/inkscape"
   xmlns:sodipodi="http://sodipodi.sourceforge.net/DTD/sodipodi-0.dtd"
   xmlns:xlink="http://www.w3.org/1999/xlink"
   xmlns="http://www.w3.org/2000/svg"
   xmlns:svg="http://www.w3.org/2000/svg">
  <defs
     id="defs10" />
  <sodipodi:namedview
     id="namedview10"
     pagecolor="#ffffff"
     bordercolor="#000000"
     borderopacity="0.25"
     inkscape:showpageshadow="2"
     inkscape:pageopacity="0.0"
     inkscape:pagecheckerboard="0"
     inkscape:deskcolor="#d1d1d1"
     inkscape:zoom="1.6699219"
     inkscape:cx="256.29941"
     inkscape:cy="257.79649"
     inkscape:window-width="1920"
     inkscape:window-height="1057"
     inkscape:window-x="-8"
     inkscape:window-y="-8"
     inkscape:window-maximized="1"
     inkscape:current-layer="Layer_2_00000067922841514312931180000018416666762363029129_" />
  <linearGradient
     id="lg1">
    <stop
       offset="0"
       stop-color="#454545"
       id="stop1" />
    <stop
       offset="1"
       id="stop2" />
  </linearGradient>
  <linearGradient
     id="SVGID_1_"
     gradientTransform="matrix(1.3631523,0,0,-1,-24.766986,512)"
     gradientUnits="userSpaceOnUse"
     x1="48.749"
     x2="463.231"
     xlink:href="#lg1"
     y1="463.246"
     y2="48.754" />
  <linearGradient
     id="SVGID_00000059304437206046868660000014593409053921155461_"
     gradientTransform="matrix(1.3835771,0,0,-1,-29.995726,512)"
     gradientUnits="userSpaceOnUse"
     x1="55.818"
     x2="456.162"
     y1="456.172"
     y2="55.828">
    <stop
       offset="0"
       stop-color="#f2f2f2"
       id="stop3" />
    <stop
       offset="1"
       stop-color="#d9d9d9"
       id="stop4" />
  </linearGradient>
  <linearGradient
     id="SVGID_00000043418092739243555720000001234053507551541677_"
     gradientTransform="matrix(1.8453288,0,0,-1.8453288,-82.420046,918.94128)"
     gradientUnits="userSpaceOnUse"
     x1="101.342"
     x2="168.128"
     xlink:href="#lg1"
     y1="474.478"
     y2="407.682" />
  <linearGradient
     id="SVGID_00000181782876381583300920000014922466854989723321_"
     gradientTransform="matrix(-1.8273555,0,0,1.8273555,1168.9569,279.79809)"
     gradientUnits="userSpaceOnUse"
     x1="343.862"
     x2="410.648"
     xlink:href="#lg1"
     y1="104.318"
     y2="37.522" />
  <linearGradient
     id="SVGID_00000146471212132456779200000001996245107731333013_"
     gradientTransform="matrix(1.8453288,0,0,-1.8453288,-87.576066,918.94128)"
     gradientUnits="userSpaceOnUse"
     x1="114.196"
     x2="157.018"
     xlink:href="#lg1"
     y1="371.166"
     y2="328.354" />
  <linearGradient
     id="SVGID_00000054249167032716759700000017079042459391353520_"
     gradientTransform="matrix(-1.8273555,0,0,1.8273555,1173.9585,-47.664023)"
     gradientUnits="userSpaceOnUse"
     x1="354.982"
     x2="397.804"
     xlink:href="#lg1"
     y1="183.646"
     y2="140.834" />
  <linearGradient
     id="SVGID_00000133501484103244586300000002001793866230748817_"
     gradientTransform="matrix(1,0,0,-1,0,512)"
     gradientUnits="userSpaceOnUse"
     x1="209.839"
     x2="302.142"
     xlink:href="#lg1"
     y1="296.654"
     y2="204.341" />
  <g
     id="Icon"
     transform="translate(-68.2)">
    <g
       id="_43">
      <path
         d="m 580.2,68.158 v 375.548 c 0,27.6 -30.53461,68.294 -68.15761,68.294 H 136.35761 C 98.734611,512 68.2,471.306 68.2,443.706 V 68.158 C 68.2,40.558 98.735001,0 136.358,0 H 511.906 C 549.66532,0 580.2,40.558 580.2,68.158 Z"
         fill="url(#SVGID_1_)"
         id="path4"
         style="fill:url(#SVGID_1_);stroke-width:1.16754"
         sodipodi:nodetypes="sssssssss" />
      <path
         d="m 570.2,68.158 v 375.548 c 0,22.1 -27.64777,58.294 -58.22482,58.294 H 136.358 C 105.78095,502 78.2,465.806 78.2,443.706 V 68.158 C 78.2,46.058 105.78095,10 136.358,10 H 511.83682 C 542.55223,10 570.2,46.058 570.2,68.158 Z"
         fill="url(#SVGID_00000059304437206046868660000014593409053921155461_)"
         id="path5"
         style="fill:url(#SVGID_00000059304437206046868660000014593409053921155461_);stroke-width:1.17625"
         sodipodi:nodetypes="sssssssss" />
      <path
         d="M 117.42907,163.09461 H 131.0845 V 46.838894 H 117.42907 V 30.6 h 41.33536 v 16.238894 h -11.44104 v 56.651596 l 36.35298,-56.651596 h -14.0245 V 30.6 h 45.39509 v 16.238894 h -13.10183 l -29.52527,45.948687 30.07886,70.491559 h 12.36371 v 16.2389 h -45.39509 v -16.2389 h 14.5781 l -22.88208,-53.33 -14.20903,22.14395 v 31.18605 h 11.44104 v 16.2389 H 117.06 Z"
         fill="url(#SVGID_00000043418092739243555720000001234053507551541677_)"
         id="path6"
         style="fill:url(#SVGID_00000043418092739243555720000001234053507551541677_);stroke-width:1.84533" />
      <path
         d="M 431.25347,466.91927 H 444.7759 V 351.79588 h -13.52243 v -16.08073 h 40.93276 v 16.08073 h -11.32961 v 55.91707 l 35.99891,-55.91707 h -13.8879 v -16.08073 h 44.95294 v 16.08073 h -12.97423 l -29.23768,45.50115 29.78589,69.62224 h 12.24328 V 483 H 482.78489 V 466.91927 H 497.221 l -22.65921,-52.81057 -14.07063,21.92826 v 30.88231 h 11.3296 V 483 H 430.888 Z"
         fill="url(#SVGID_00000181782876381583300920000014922466854989723321_)"
         id="path7"
         style="fill:url(#SVGID_00000181782876381583300920000014922466854989723321_);stroke-width:1.82736" />
      <path
         d="m 192.17578,251.48586 c -1.47626,0 -2.95252,0.18453 -4.42879,0.36907 2.768,-4.42879 4.42879,-9.78025 4.42879,-15.50077 0,-16.42342 -13.28636,-29.52526 -29.52526,-29.52526 -16.23889,0 -29.52526,13.28637 -29.52526,29.52526 0,5.72052 1.6608,11.07198 4.42879,15.50077 -1.47626,-0.18454 -2.95253,-0.36907 -4.42879,-0.36907 -16.23889,0 -29.52526,13.28637 -29.52526,29.52526 0,16.2389 13.28637,29.52526 29.52526,29.52526 9.96478,0 18.82236,-4.98238 24.17381,-12.54823 0.36906,13.65543 -4.05972,24.54287 -12.17917,32.84685 h 35.24578 c -8.30398,-8.30398 -12.54824,-19.19142 -12.17917,-32.84685 5.35145,7.56585 14.20903,12.54823 24.17381,12.54823 16.42342,0 29.52526,-13.28636 29.52526,-29.52526 0,-16.23889 -13.28637,-29.52526 -29.7098,-29.52526 z"
         fill="url(#SVGID_00000146471212132456779200000001996245107731333013_)"
         id="path8"
         style="fill:url(#SVGID_00000146471212132456779200000001996245107731333013_);stroke-width:1.84533" />
      <path
         d="m 515.37958,226.9875 c -1.46189,0 -2.92377,0.18273 -4.38566,0.36547 2.74104,-4.56839 4.38566,-9.68498 4.38566,-15.34978 0,-16.26347 -13.15696,-29.23769 -29.23769,-29.23769 -16.08073,0 -29.23768,13.15695 -29.23768,29.23769 0,5.6648 1.64462,10.96413 4.38564,15.34978 -1.46188,-0.18274 -2.92376,-0.36547 -4.38564,-0.36547 -16.26347,0 -29.2377,13.15696 -29.2377,29.23769 0,16.08072 13.15697,29.23769 29.2377,29.23769 9.86771,0 18.63902,-4.93386 23.93835,-12.42602 0.36547,13.52243 -4.02018,24.30383 -12.06054,32.52692 h 34.90249 c -8.22311,-8.22309 -12.42602,-19.00449 -12.06055,-32.52692 5.29933,7.49216 14.07064,12.42602 23.93835,12.42602 16.26346,0 29.23769,-13.15697 29.23769,-29.23769 0,-16.08073 -13.15696,-29.23769 -29.42042,-29.23769 z"
         fill="url(#SVGID_00000054249167032716759700000017079042459391353520_)"
         id="path9"
         style="fill:url(#SVGID_00000054249167032716759700000017079042459391353520_);stroke-width:1.82736" />
    </g>
  </g>
</svg>
