<?xml version="1.0" encoding="UTF-8" standalone="no"?>
<svg
   id="Layer_2_00000056403413673290482730000003090601204518848644_"
   enable-background="new 0 0 512 512"
   viewBox="0 0 512 512"
   version="1.1"
   sodipodi:docname="Qc.svg"
   inkscape:version="1.4.2 (f4327f4, 2025-05-13)"
   xmlns:inkscape="http://www.inkscape.org/namespaces/inkscape"
   xmlns:sodipodi="http://sodipodi.sourceforge.net/DTD/sodipodi-0.dtd"
   xmlns:xlink="http://www.w3.org/1999/xlink"
   xmlns="http://www.w3.org/2000/svg"
   xmlns:svg="http://www.w3.org/2000/svg">
  <defs
     id="defs10" />
  <sodipodi:namedview
     id="namedview10"
     pagecolor="#ffffff"
     bordercolor="#000000"
     borderopacity="0.25"
     inkscape:showpageshadow="2"
     inkscape:pageopacity="0.0"
     inkscape:pagecheckerboard="0"
     inkscape:deskcolor="#d1d1d1"
     inkscape:zoom="1.6699219"
     inkscape:cx="256.29941"
     inkscape:cy="257.79649"
     inkscape:window-width="1920"
     inkscape:window-height="1057"
     inkscape:window-x="-8"
     inkscape:window-y="-8"
     inkscape:window-maximized="1"
     inkscape:current-layer="Layer_2_00000056403413673290482730000003090601204518848644_" />
  <linearGradient
     id="lg1">
    <stop
       offset="0"
       stop-color="#454545"
       id="stop1" />
    <stop
       offset="1"
       id="stop2" />
  </linearGradient>
  <linearGradient
     id="SVGID_1_"
     gradientTransform="matrix(1.3631523,0,0,-1,-24.766986,512)"
     gradientUnits="userSpaceOnUse"
     x1="48.749"
     x2="463.231"
     xlink:href="#lg1"
     y1="463.246"
     y2="48.754" />
  <linearGradient
     id="SVGID_00000031165859678026736300000013983975305570589851_"
     gradientTransform="matrix(1.3835771,0,0,-1,-29.995726,512)"
     gradientUnits="userSpaceOnUse"
     x1="55.818"
     x2="456.162"
     y1="456.172"
     y2="55.828">
    <stop
       offset="0"
       stop-color="#f2f2f2"
       id="stop3" />
    <stop
       offset="1"
       stop-color="#d9d9d9"
       id="stop4" />
  </linearGradient>
  <linearGradient
     id="SVGID_00000065785385835314059070000002977918763916342431_"
     gradientTransform="matrix(1.8307012,0,0,-1.8307012,-80.992946,912.97947)"
     gradientUnits="userSpaceOnUse"
     x1="108.921"
     x2="167.468"
     xlink:href="#lg1"
     y1="466.13"
     y2="407.583" />
  <linearGradient
     id="SVGID_00000008864417418283726420000018337275927958269366_"
     gradientTransform="matrix(-1.8273555,0,0,1.8273555,1168.9574,277.2398)"
     gradientUnits="userSpaceOnUse"
     x1="344.522"
     x2="403.069"
     xlink:href="#lg1"
     y1="104.417"
     y2="45.87" />
  <linearGradient
     id="SVGID_00000129204207527072699960000012866998168706432411_"
     gradientTransform="matrix(1.8307012,0,0,-1.8307012,-86.060646,912.97947)"
     gradientUnits="userSpaceOnUse"
     x1="114.196"
     x2="157.018"
     xlink:href="#lg1"
     y1="371.166"
     y2="328.354" />
  <linearGradient
     id="SVGID_00000178188135242947075120000004623991517749317038_"
     gradientTransform="matrix(-1.8273555,0,0,1.8273555,1173.9585,-47.664011)"
     gradientUnits="userSpaceOnUse"
     x1="354.982"
     x2="397.804"
     xlink:href="#lg1"
     y1="183.646"
     y2="140.834" />
  <linearGradient
     id="SVGID_00000163033383454475869270000001302639369680292003_"
     gradientTransform="matrix(1,0,0,-1,0,512)"
     gradientUnits="userSpaceOnUse"
     x1="209.839"
     x2="302.142"
     xlink:href="#lg1"
     y1="296.654"
     y2="204.341" />
  <g
     id="Icon"
     transform="translate(-68.2)">
    <g
       id="_42">
      <path
         d="m 580.2,68.158 v 375.548 c 0,27.6 -30.53461,68.294 -68.15761,68.294 H 136.35761 C 98.734611,512 68.2,471.306 68.2,443.706 V 68.158 C 68.2,40.558 98.735001,0 136.358,0 H 511.906 C 549.66532,0 580.2,40.558 580.2,68.158 Z"
         fill="url(#SVGID_1_)"
         id="path4"
         style="fill:url(#SVGID_1_);stroke-width:1.16754"
         sodipodi:nodetypes="sssssssss" />
      <path
         d="m 570.2,68.158 v 375.548 c 0,22.1 -27.64777,58.294 -58.22482,58.294 H 136.358 C 105.78095,502 78.2,465.806 78.2,443.706 V 68.158 C 78.2,46.058 105.78095,10 136.358,10 H 511.83682 C 542.55223,10 570.2,46.058 570.2,68.158 Z"
         fill="url(#SVGID_00000031165859678026736300000013983975305570589851_)"
         id="path5"
         style="fill:url(#SVGID_00000031165859678026736300000013983975305570589851_);stroke-width:1.17625"
         sodipodi:nodetypes="sssssssss" />
      <path
         d="m 213.74995,178.68522 c -6.95666,0 -11.89956,-0.36614 -15.01175,-0.91535 -3.47833,-0.73228 -6.95666,-2.37991 -10.25193,-4.94289 -7.3228,6.04131 -15.56096,8.97043 -24.34832,8.97043 -9.51965,0 -17.94087,-3.47833 -25.44675,-10.25193 -7.87202,-6.95666 -11.71649,-15.19482 -11.71649,-24.53139 V 134.01611 H 117.272 v -16.84245 c 0.36614,-0.18307 3.47833,-0.36614 9.70271,-0.73228 V 64.266393 c 0,-9.519646 4.02754,-17.757802 11.71649,-24.714466 C 146.19707,32.778332 154.6183,29.3 164.13795,29.3 c 9.51964,0 18.12394,3.478332 25.81288,10.434997 7.68895,6.956665 11.53342,15.19482 11.53342,24.714466 v 82.930767 c 0,4.02754 -0.73228,7.87201 -2.37991,11.71649 1.64763,1.09842 3.11219,1.8307 4.57675,2.19684 h 10.06886 z m -68.83437,-62.24384 c 7.13974,0.73228 14.27947,4.02754 21.41921,9.88578 4.39368,3.47834 10.06886,9.15351 17.02552,16.84246 V 64.083323 c 0,-4.210613 -2.01377,-8.055085 -6.04131,-11.350347 -4.02755,-3.295263 -8.42123,-5.125964 -13.18105,-5.125964 -4.75983,0 -9.15351,1.647631 -13.18105,5.125964 -4.02754,3.478332 -6.22439,7.139734 -6.22439,11.350347 z m 29.84043,43.57069 -22.70069,-22.33456 c -1.8307,-1.8307 -4.21061,-3.11219 -7.13974,-3.47833 v 12.81491 c 0,4.21061 2.01378,7.87201 6.22439,11.35035 4.02754,3.47833 8.42122,5.12596 13.18105,5.12596 3.6614,-0.18307 7.13973,-1.28149 10.43499,-3.47833 z"
         fill="url(#SVGID_00000065785385835314059070000002977918763916342431_)"
         id="path6"
         style="fill:url(#SVGID_00000065785385835314059070000002977918763916342431_);stroke-width:1.8307" />
      <path
         d="m 527.55563,479.8935 c -6.94395,0 -11.87781,-0.36548 -14.98432,-0.91368 -3.47197,-0.91368 -6.94395,-2.5583 -10.23319,-4.93386 C 495.0287,480.07623 486.8056,483 478.0343,483 c -9.50225,0 -17.90809,-3.47198 -25.40025,-10.23319 -7.85762,-6.94395 -11.69507,-15.16705 -11.69507,-24.6693 V 435.12329 H 431.254 v -16.81167 c 0.36547,-0.18274 3.65471,-0.36547 9.68498,-0.73095 v -52.07963 c 0,-9.50224 3.83745,-17.72534 11.69507,-24.66929 7.49216,-6.76122 15.898,-10.23319 25.40025,-10.23319 9.50224,0 18.09081,3.47197 25.76571,10.41592 7.67489,6.94395 11.51234,15.16705 11.51234,24.6693 v 82.7792 c 0,4.02018 -0.91368,7.85763 -2.5583,11.69508 1.64462,1.09641 3.1065,1.82735 4.56839,2.01009 h 10.23319 z m -68.70857,-62.13009 c 7.12669,0.91368 14.25338,4.02018 21.38006,9.86772 4.38566,3.47198 10.05046,9.13678 16.99441,16.81167 v -78.75902 c 0,-4.20292 -2.01009,-8.04036 -6.03028,-11.3296 -4.02018,-3.47198 -8.40583,-5.1166 -13.15695,-5.1166 -4.75113,0 -9.13678,1.64462 -13.15696,5.1166 -4.02019,3.47197 -6.21301,7.12668 -6.21301,11.3296 z m 29.7859,43.49106 -22.65921,-22.29374 c -1.82736,-1.82735 -4.20292,-3.1065 -7.12669,-3.65471 v 12.79149 c 0,4.20292 2.01009,8.04036 6.21301,11.3296 4.02018,3.47198 8.40584,5.1166 13.15696,5.1166 3.65471,0 7.12669,-1.09641 10.41593,-3.28924 z"
         fill="url(#SVGID_00000008864417418283726420000018337275927958269366_)"
         id="path7"
         style="fill:url(#SVGID_00000008864417418283726420000018337275927958269366_);stroke-width:1.82736" />
      <path
         d="m 191.47366,250.81485 c -1.46456,0 -2.92912,0.18307 -4.39368,0.36614 2.74605,-4.39369 4.39368,-9.70272 4.39368,-15.37789 0,-16.29324 -13.18105,-29.29122 -29.29122,-29.29122 -16.11017,0 -29.29122,13.18105 -29.29122,29.29122 0,5.67517 1.64763,10.9842 4.39368,15.37789 -1.46456,-0.18307 -2.92912,-0.36614 -4.39368,-0.36614 -16.11017,0 -29.29122,13.18105 -29.29122,29.29122 0,16.11017 13.18105,29.29122 29.29122,29.29122 9.88579,0 18.67315,-4.9429 23.98219,-12.44877 0.36614,13.54719 -4.02755,24.34832 -12.08263,32.58648 h 34.96639 c -8.23815,-8.23816 -12.44877,-19.03929 -12.08263,-32.58648 5.30904,7.50587 14.0964,12.44877 23.98219,12.44877 16.29324,0 29.29122,-13.18105 29.29122,-29.29122 0,-16.11017 -13.18105,-29.29122 -29.47429,-29.29122 z"
         fill="url(#SVGID_00000129204207527072699960000012866998168706432411_)"
         id="path8"
         style="fill:url(#SVGID_00000129204207527072699960000012866998168706432411_);stroke-width:1.8307" />
      <path
         d="m 515.37958,226.9875 c -1.46189,0 -2.92377,0.18274 -4.38566,0.36547 2.74104,-4.56839 4.38566,-9.68498 4.38566,-15.34978 0,-16.26347 -13.15696,-29.23769 -29.23769,-29.23769 -16.08073,0 -29.23769,13.15696 -29.23769,29.23769 0,5.6648 1.64462,10.96413 4.38566,15.34978 -1.46189,-0.18273 -2.92377,-0.36547 -4.38566,-0.36547 -16.26346,0 -29.23768,13.15696 -29.23768,29.23769 0,16.08073 13.15695,29.23769 29.23768,29.23769 9.86772,0 18.63903,-4.93386 23.93836,-12.42602 0.36547,13.52243 -4.02018,24.30383 -12.06055,32.52693 h 34.90249 c -8.2231,-8.2231 -12.42601,-19.0045 -12.06054,-32.52693 5.29933,7.49216 14.07063,12.42602 23.93835,12.42602 16.26347,0 29.23769,-13.15696 29.23769,-29.23769 0,-16.08073 -13.15696,-29.23769 -29.42042,-29.23769 z"
         fill="url(#SVGID_00000178188135242947075120000004623991517749317038_)"
         id="path9"
         style="fill:url(#SVGID_00000178188135242947075120000004623991517749317038_);stroke-width:1.82736" />
    </g>
  </g>
</svg>
