<?xml version="1.0" encoding="UTF-8" standalone="no"?>
<svg
   id="Layer_2_00000151518545450746225230000006202392486297358776_"
   enable-background="new 0 0 512 512"
   viewBox="0 0 512 512"
   version="1.1"
   sodipodi:docname="Tc.svg"
   inkscape:version="1.4.2 (f4327f4, 2025-05-13)"
   xmlns:inkscape="http://www.inkscape.org/namespaces/inkscape"
   xmlns:sodipodi="http://sodipodi.sourceforge.net/DTD/sodipodi-0.dtd"
   xmlns:xlink="http://www.w3.org/1999/xlink"
   xmlns="http://www.w3.org/2000/svg"
   xmlns:svg="http://www.w3.org/2000/svg">
  <defs
     id="defs10" />
  <sodipodi:namedview
     id="namedview10"
     pagecolor="#ffffff"
     bordercolor="#000000"
     borderopacity="0.25"
     inkscape:showpageshadow="2"
     inkscape:pageopacity="0.0"
     inkscape:pagecheckerboard="0"
     inkscape:deskcolor="#d1d1d1"
     inkscape:zoom="1.1808131"
     inkscape:cx="239.66536"
     inkscape:cy="345.10118"
     inkscape:window-width="1920"
     inkscape:window-height="1057"
     inkscape:window-x="-8"
     inkscape:window-y="-8"
     inkscape:window-maximized="1"
     inkscape:current-layer="Layer_2_00000151518545450746225230000006202392486297358776_" />
  <linearGradient
     id="lg1">
    <stop
       offset="0"
       stop-color="#454545"
       id="stop1" />
    <stop
       offset="1"
       id="stop2" />
  </linearGradient>
  <linearGradient
     id="SVGID_1_"
     gradientTransform="matrix(1.3631523,0,0,-1,-24.766986,512)"
     gradientUnits="userSpaceOnUse"
     x1="48.749"
     x2="463.231"
     xlink:href="#lg1"
     y1="463.246"
     y2="48.754" />
  <linearGradient
     id="SVGID_00000057125114714301236460000012025011398958822818_"
     gradientTransform="matrix(1.3835771,0,0,-1,-29.995726,512)"
     gradientUnits="userSpaceOnUse"
     x1="55.818"
     x2="456.162"
     y1="456.172"
     y2="55.828">
    <stop
       offset="0"
       stop-color="#f2f2f2"
       id="stop3" />
    <stop
       offset="1"
       stop-color="#d9d9d9"
       id="stop4" />
  </linearGradient>
  <linearGradient
     id="SVGID_00000017505500325736377560000012791645756854639508_"
     gradientTransform="matrix(1.8320963,0,0,-1.8320963,-81.156025,913.73609)"
     gradientUnits="userSpaceOnUse"
     x1="109.486"
     x2="192.408"
     xlink:href="#lg1"
     y1="482.621"
     y2="399.699" />
  <linearGradient
     id="SVGID_00000018922342357353980930000006931928028484654758_"
     gradientTransform="matrix(-1.8298644,0,0,1.8298644,1087.8763,276.95725)"
     gradientUnits="userSpaceOnUse"
     x1="319.595"
     x2="402.512"
     xlink:href="#lg1"
     y1="112.303"
     y2="29.377" />
  <linearGradient
     id="SVGID_00000016051701340979140900000017884614055182611864_"
     gradientTransform="matrix(1.8320963,0,0,-1.8320963,-86.205175,913.73609)"
     gradientUnits="userSpaceOnUse"
     x1="114.196"
     x2="157.018"
     xlink:href="#lg1"
     y1="371.166"
     y2="328.354" />
  <linearGradient
     id="SVGID_00000040560744653161869610000004826199188759002018_"
     gradientTransform="matrix(-1.8298644,0,0,1.8298644,1174.8223,-48.392637)"
     gradientUnits="userSpaceOnUse"
     x1="354.982"
     x2="397.804"
     xlink:href="#lg1"
     y1="183.646"
     y2="140.834" />
  <linearGradient
     id="SVGID_00000016040007501257167930000009466141185635506869_"
     gradientTransform="matrix(1 0 0 -1 0 512)"
     gradientUnits="userSpaceOnUse"
     x1="209.839"
     x2="302.142"
     xlink:href="#lg1"
     y1="296.654"
     y2="204.341" />
  <g
     id="Icon"
     transform="translate(-68.2)">
    <g
       id="_40">
      <path
         d="m 580.2,68.158 v 375.548 c 0,27.6 -30.53461,68.294 -68.15761,68.294 H 136.35761 C 98.734611,512 68.2,471.306 68.2,443.706 V 68.158 C 68.2,40.558 98.735001,0 136.358,0 H 511.906 C 549.66532,0 580.2,40.558 580.2,68.158 Z"
         fill="url(#SVGID_1_)"
         id="path4"
         style="fill:url(#SVGID_1_);stroke-width:1.16754"
         sodipodi:nodetypes="sssssssss" />
      <path
         d="m 570.2,68.158 v 375.548 c 0,22.1 -27.64777,58.294 -58.22482,58.294 H 136.358 C 105.78095,502 78.2,465.806 78.2,443.706 V 68.158 C 78.2,46.058 105.78095,10 136.358,10 H 511.83682 C 542.55223,10 570.2,46.058 570.2,68.158 Z"
         fill="url(#SVGID_00000057125114714301236460000012025011398958822818_)"
         id="path5"
         style="fill:url(#SVGID_00000057125114714301236460000012025011398958822818_);stroke-width:1.17625"
         sodipodi:nodetypes="sssssssss" />
      <path
         d="M 198.9715,179.24869 H 117.26 V 158.546 h 31.14564 V 52.467623 H 117.26 V 31.764935 h 51.2987 V 158.546 h 30.4128 z m 4.03061,-47.81772 V 79.216229 c 0,-13.557513 4.76345,-25.282929 14.10714,-35.176249 9.34369,-9.89332 20.8859,-14.83998 34.2602,-14.83998 13.3743,0 24.91651,4.94666 34.2602,14.83998 9.34369,9.89332 14.10714,21.618736 14.10714,35.176249 v 52.214741 c 0,13.55752 -4.76345,25.46614 -14.10714,35.54267 -9.34369,10.07653 -20.8859,15.02319 -34.2602,15.02319 -13.3743,0 -24.91651,-4.94666 -34.2602,-15.02319 -9.34369,-10.07653 -14.10714,-21.80195 -14.10714,-35.54267 z m 20.51948,-52.214741 v 52.214741 c 0,8.06123 2.74814,15.02319 8.24443,20.8859 5.49629,5.86271 12.09184,8.79406 19.78664,8.79406 7.6948,0 14.29035,-2.93135 19.78664,-8.97727 5.49629,-6.04592 8.24443,-13.00788 8.24443,-20.70269 V 79.216229 c 0,-7.878014 -2.74814,-14.656771 -8.24443,-20.519479 -5.49629,-5.862708 -12.09184,-8.610852 -19.78664,-8.610852 -7.6948,0 -14.29035,2.931354 -19.78664,8.610852 -5.6795,5.862708 -8.24443,12.641465 -8.24443,20.519479 z"
         fill="url(#SVGID_00000017505500325736377560000012791645756854639508_)"
         id="path6"
         style="fill:url(#SVGID_00000017505500325736377560000012791645756854639508_);stroke-width:1.8321" />
      <path
         d="M 430.77195,480.2552 H 349.16 v -20.67746 h 31.1077 V 353.62858 H 349.16 v -20.67746 h 51.2362 v 126.62662 h 30.37575 z m 4.02571,-47.75946 v -52.15113 c 0,-13.541 4.75764,-25.25213 14.08995,-35.1334 9.33231,-9.88127 20.86046,-14.8219 34.21847,-14.8219 13.35801,0 24.88615,4.94063 34.21846,14.8219 9.33231,9.88127 14.08996,21.5924 14.08996,35.1334 v 52.15113 c 0,13.541 -4.75765,25.43512 -14.08996,35.49937 C 507.99223,478.05937 496.46409,483 483.10608,483 c -13.541,0 -24.88616,-4.94063 -34.21847,-15.00489 -9.33231,-10.06425 -14.08995,-21.77539 -14.08995,-35.49937 z m 20.49448,-52.15113 v 52.15113 c 0,8.05141 2.74479,14.8219 8.23439,20.86046 5.48959,5.85556 12.0771,8.96633 19.76253,8.96633 7.68543,0 14.27295,-2.92778 19.76254,-8.96633 5.48959,-6.03856 8.23439,-12.80905 8.23439,-20.67747 v -52.15114 c 0,-7.86842 -2.7448,-14.63891 -8.23439,-20.31149 -5.48959,-5.67258 -12.07711,-8.60037 -19.76254,-8.60037 -7.68543,0 -14.27294,2.92779 -19.76253,8.60037 -5.67258,5.48959 -8.23439,12.26009 -8.23439,20.12851 z"
         fill="url(#SVGID_00000018922342357353980930000006931928028484654758_)"
         id="path7"
         style="fill:url(#SVGID_00000018922342357353980930000006931928028484654758_);stroke-width:1.82986" />
      <path
         d="m 191.54062,251.06686 c -1.46568,0 -2.93135,0.18321 -4.39703,0.36642 2.74814,-4.39703 4.39703,-9.71011 4.39703,-15.38961 0,-16.30566 -13.19109,-29.31354 -29.31354,-29.31354 -16.12245,0 -29.31354,13.19109 -29.31354,29.31354 0,5.6795 1.64889,10.99258 4.39703,15.38961 -1.46568,-0.18321 -2.93135,-0.36642 -4.39703,-0.36642 -16.12245,0 -29.31354,13.19109 -29.31354,29.31354 0,16.12245 13.19109,29.31354 29.31354,29.31354 9.89332,0 18.68738,-4.94666 24.00046,-12.45825 0.36642,13.55751 -4.03061,24.36688 -12.09183,32.61131 h 34.99304 c -8.24444,-8.24443 -12.45826,-19.0538 -12.09184,-32.61131 5.31308,7.51159 14.10714,12.45825 24.00046,12.45825 16.30566,0 29.31354,-13.19109 29.31354,-29.31354 0,-16.12245 -13.19109,-29.31354 -29.49675,-29.31354 z"
         fill="url(#SVGID_00000016051701340979140900000017884614055182611864_)"
         id="path8"
         style="fill:url(#SVGID_00000016051701340979140900000017884614055182611864_);stroke-width:1.8321" />
      <path
         d="m 515.33918,226.63599 c -1.46389,0 -2.92778,0.18299 -4.39167,0.36598 2.74479,-4.57466 4.39167,-9.69829 4.39167,-15.37086 0,-16.2858 -13.17502,-29.27784 -29.27783,-29.27784 -16.10281,0 -29.27783,13.17503 -29.27783,29.27784 0,5.67257 1.64688,10.97918 4.39168,15.37086 -1.4639,-0.18299 -2.92779,-0.36598 -4.39168,-0.36598 -16.28579,0 -29.27783,13.17503 -29.27783,29.27783 0,16.10281 13.17502,29.27784 29.27783,29.27784 9.88127,0 18.66462,-4.94064 23.97122,-12.44308 0.36598,13.54099 -4.0257,24.33719 -12.0771,32.57158 h 34.95041 c -8.23439,-8.23439 -12.44308,-19.03059 -12.0771,-32.57158 5.3066,7.50244 14.08995,12.44308 23.97122,12.44308 16.28579,0 29.27783,-13.17503 29.27783,-29.27784 0,-16.1028 -13.17502,-29.27783 -29.46082,-29.27783 z"
         fill="url(#SVGID_00000040560744653161869610000004826199188759002018_)"
         id="path9"
         style="fill:url(#SVGID_00000040560744653161869610000004826199188759002018_);stroke-width:1.82986" />
    </g>
  </g>
</svg>
