<svg id="Layer_2_00000054249716395761048210000011970452738156935043_" enable-background="new 0 0 512 512" viewBox="68 0 376 512" xmlns="http://www.w3.org/2000/svg" xmlns:xlink="http://www.w3.org/1999/xlink"><linearGradient id="lg1"><stop offset="0" stop-color="#454545"/><stop offset="1"/></linearGradient><linearGradient id="SVGID_1_" gradientTransform="matrix(1 0 0 -1 0 512)" gradientUnits="userSpaceOnUse" x1="48.749" x2="463.231" xlink:href="#lg1" y1="463.246" y2="48.754"/><linearGradient id="SVGID_00000021078869785715880850000002498662595224721056_" gradientTransform="matrix(1 0 0 -1 0 512)" gradientUnits="userSpaceOnUse" x1="55.818" x2="456.162" y1="456.172" y2="55.828"><stop offset="0" stop-color="#f2f2f2"/><stop offset="1" stop-color="#d9d9d9"/></linearGradient><linearGradient id="SVGID_00000001645937232809675100000012904585998845961884_" gradientTransform="matrix(1 0 0 -1 0 512)" gradientUnits="userSpaceOnUse" x1="194.813" x2="317.178" xlink:href="#lg1" y1="309.893" y2="187.528"/><g id="Icon"><g id="_03"><path d="m443.8 50v412c0 27.6-22.4 50-50 50h-275.6c-27.6 0-50-22.4-50-50v-412c0-27.6 22.4-50 50-50h275.5c27.7 0 50.1 22.4 50.1 50z" fill="url(#SVGID_1_)"/><path d="m433.8 50v412c0 22.1-17.9 40-40 40h-275.6c-22.1 0-40-17.9-40-40v-412c0-22.1 17.9-40 40-40h275.5c22.2 0 40.1 17.9 40.1 40z" fill="url(#SVGID_00000021078869785715880850000002498662595224721056_)"/><path d="m301.8 229.2c-2.4 0-4.6.2-6.9.6 4.4-7 6.9-15.3 6.9-24.1 0-25.3-20.5-45.8-45.8-45.8s-45.8 20.5-45.8 45.8c0 8.9 2.6 17.1 6.9 24.1-2.3-.3-4.6-.6-6.9-.6-25.3 0-45.8 20.5-45.8 45.8s20.5 45.8 45.8 45.8c15.5 0 29.2-7.7 37.5-19.5.4 21.2-6.2 37.9-18.9 50.7h54.6c-12.8-12.9-19.4-29.6-19-50.7 8.3 11.8 22 19.5 37.5 19.5 25.3 0 45.8-20.5 45.8-45.8s-20.6-45.8-45.9-45.8z" fill="url(#SVGID_00000001645937232809675100000012904585998845961884_)"/></g></g></svg>