<svg id="Layer_2_00000075850953935631396960000014828199325908037513_" enable-background="new 0 0 512 512" viewBox="68 0 376 512" xmlns="http://www.w3.org/2000/svg" xmlns:xlink="http://www.w3.org/1999/xlink"><linearGradient id="SVGID_1_" gradientTransform="matrix(1 0 0 -1 0 512)" gradientUnits="userSpaceOnUse" x1="48.749" x2="463.231" y1="463.246" y2="48.754"><stop offset="0" stop-color="#454545"/><stop offset="1"/></linearGradient><linearGradient id="SVGID_00000156567962207307438900000007902229127303809713_" gradientTransform="matrix(1 0 0 -1 0 512)" gradientUnits="userSpaceOnUse" x1="55.818" x2="456.162" y1="456.172" y2="55.828"><stop offset="0" stop-color="#f2f2f2"/><stop offset="1" stop-color="#d9d9d9"/></linearGradient><linearGradient id="SVGID_00000109011859758153618070000011225131203414311056_" gradientTransform="matrix(1 0 0 -1 0 512)" gradientUnits="userSpaceOnUse" x1="189.311" x2="322.683" y1="359.974" y2="226.593"><stop offset="0" stop-color="#fe5b42"/><stop offset="1" stop-color="#ba0000"/></linearGradient><g id="Icon"><g id="_02"><path d="m443.8 50v412c0 27.6-22.4 50-50 50h-275.6c-27.6 0-50-22.4-50-50v-412c0-27.6 22.4-50 50-50h275.5c27.7 0 50.1 22.4 50.1 50z" fill="url(#SVGID_1_)"/><path d="m433.8 50v412c0 22.1-17.9 40-40 40h-275.6c-22.1 0-40-17.9-40-40v-412c0-22.1 17.9-40 40-40h275.5c22.2 0 40.1 17.9 40.1 40z" fill="url(#SVGID_00000156567962207307438900000007902229127303809713_)"/><path d="m347.8 177.1c-23-23-60.2-23-83.2 0l-8.6 8.6-8.6-8.6c-23-23-60.2-23-83.2 0-23 23-23 60.2 0 83.2l8.6 8.6 83.2 83.2 91.8-91.8c23-23 23-60.2 0-83.2z" fill="url(#SVGID_00000109011859758153618070000011225131203414311056_)"/></g></g></svg>