<svg id="Layer_2_00000124874218473700583180000014947017391351973792_" enable-background="new 0 0 512 512" viewBox="68 0 376 512" xmlns="http://www.w3.org/2000/svg" xmlns:xlink="http://www.w3.org/1999/xlink"><linearGradient id="lg1"><stop offset="0" stop-color="#454545"/><stop offset="1"/></linearGradient><linearGradient id="SVGID_1_" gradientTransform="matrix(1 0 0 -1 0 512)" gradientUnits="userSpaceOnUse" x1="48.749" x2="463.231" xlink:href="#lg1" y1="463.246" y2="48.754"/><linearGradient id="SVGID_00000046341632081383992390000013278698760004329628_" gradientTransform="matrix(1 0 0 -1 0 512)" gradientUnits="userSpaceOnUse" x1="55.818" x2="456.162" y1="456.172" y2="55.828"><stop offset="0" stop-color="#f2f2f2"/><stop offset="1" stop-color="#d9d9d9"/></linearGradient><linearGradient id="SVGID_00000169546663333274906830000003577485090724208567_" gradientTransform="matrix(1 0 0 -1 0 512)" gradientUnits="userSpaceOnUse" x1="200.138" x2="311.855" xlink:href="#lg1" y1="296.245" y2="184.538"/><g id="Icon"><g id="_01"><path d="m443.8 50v412c0 27.6-22.4 50-50 50h-275.6c-27.6 0-50-22.4-50-50v-412c0-27.6 22.4-50 50-50h275.5c27.7 0 50.1 22.4 50.1 50z" fill="url(#SVGID_1_)"/><path d="m433.8 50v412c0 22.1-17.9 40-40 40h-275.6c-22.1 0-40-17.9-40-40v-412c0-22.1 17.9-40 40-40h275.5c22.2 0 40.1 17.9 40.1 40z" fill="url(#SVGID_00000046341632081383992390000013278698760004329628_)"/><path d="m332.9 236.8-7.2-7.2-69.7-69.7-76.9 76.9c-19.2 19.2-19.2 50.4 0 69.7 18.9 18.9 49.2 19.2 68.5 1.1-.9 18.3-7.4 33-18.9 44.6h54.6c-11.5-11.6-18-26.3-18.9-44.6 19.3 18.1 49.6 17.8 68.5-1.1 19.2-19.3 19.2-50.5 0-69.7z" fill="url(#SVGID_00000169546663333274906830000003577485090724208567_)"/></g></g></svg>