<svg id="Layer_2_00000110430657655549835340000006889356052892326069_" enable-background="new 0 0 512 512" viewBox="68 0 376 512" xmlns="http://www.w3.org/2000/svg" xmlns:xlink="http://www.w3.org/1999/xlink"><linearGradient id="lg1"><stop offset="0" stop-color="#454545"/><stop offset="1"/></linearGradient><linearGradient id="SVGID_1_" gradientTransform="matrix(1 0 0 -1 0 512)" gradientUnits="userSpaceOnUse" x1="48.749" x2="463.231" xlink:href="#lg1" y1="463.246" y2="48.754"/><linearGradient id="SVGID_00000097488490597124492340000014687828374337575568_" gradientTransform="matrix(1 0 0 -1 0 512)" gradientUnits="userSpaceOnUse" x1="55.818" x2="456.162" y1="456.172" y2="55.828"><stop offset="0" stop-color="#f2f2f2"/><stop offset="1" stop-color="#d9d9d9"/></linearGradient><linearGradient id="SVGID_00000010996727445233260510000008366115809750080922_" gradientTransform="matrix(1 0 0 -1 0 512)" gradientUnits="userSpaceOnUse" x1="209.839" x2="302.146" xlink:href="#lg1" y1="339.321" y2="247.014"/><linearGradient id="SVGID_00000047032190624402711260000003463542487643322795_" gradientTransform="matrix(1 0 0 -1 0 512)" gradientUnits="userSpaceOnUse" x1="201.135" x2="317.9" xlink:href="#lg1" y1="222.3" y2="105.535"/><g id="Icon"><g id="_59"><path d="m443.8 50v412c0 27.6-22.4 50-50 50h-275.6c-27.6 0-50-22.4-50-50v-412c0-27.6 22.4-50 50-50h275.5c27.7 0 50.1 22.4 50.1 50z" fill="url(#SVGID_1_)"/><path d="m433.8 50v412c0 22.1-17.9 40-40 40h-275.6c-22.1 0-40-17.9-40-40v-412c0-22.1 17.9-40 40-40h275.5c22.2 0 40.1 17.9 40.1 40z" fill="url(#SVGID_00000097488490597124492340000014687828374337575568_)"/><path d="m290.6 193.1c-1.8 0-3.5.2-5.2.4 3.3-5.3 5.2-11.5 5.2-18.2 0-19.1-15.5-34.6-34.6-34.6s-34.6 15.5-34.6 34.6c0 6.7 1.9 12.9 5.2 18.2-1.7-.3-3.4-.4-5.2-.4-19.1 0-34.6 15.5-34.6 34.6s15.5 34.6 34.6 34.6c11.7 0 22-5.8 28.3-14.7.3 16-4.6 28.6-14.3 38.3h41.2c-9.6-9.7-14.6-22.3-14.3-38.3 6.2 8.9 16.6 14.7 28.3 14.7 19.1 0 34.6-15.5 34.6-34.6s-15.6-34.6-34.6-34.6z" fill="url(#SVGID_00000010996727445233260510000008366115809750080922_)"/><path d="m164.8 351.9c0 2.5 0 3.6 0 3.2 0 2.5.5 4.5 1.6 6 1.2 1.8 3.1 2.7 5.6 2.7 2.1 0 3.8-.8 5.1-2.3 1.2-1.4 1.8-3.2 1.8-5.3v-31h-5.7v-7.5h18.3v7.5h-5.5v31c0 4.2-1.3 7.7-3.8 10.6-2.7 3-6.1 4.4-10.3 4.4s-7.7-1.5-10.4-4.4-4.1-6.5-4-10.7v-4.2zm33.2 1.3v-18.6c0-4.8 1.7-9 5-12.5s7.4-5.3 12.2-5.3 8.9 1.8 12.2 5.3 5 7.7 5 12.5v18.6c0 4.8-1.7 9-5 12.6s-7.4 5.4-12.2 5.4-8.9-1.8-12.2-5.4-5-7.8-5-12.6zm7.3-18.6v18.6c0 2.8 1 5.3 2.9 7.4s4.3 3.2 7 3.2 5.1-1.1 7-3.2 2.9-4.6 2.9-7.4v-18.6c0-2.8-1-5.2-2.9-7.3s-4.3-3.1-7-3.1-5.1 1-7 3.1c-2 2.1-2.9 4.5-2.9 7.3zm33.4 29.9h4.8v-41.1h-4.8v-5.8h14.6v5.8h-4.1v20l12.8-20h-5v-5.8h16v5.8h-4.6l-10.4 16.2 10.6 24.9h4.4v5.8h-16v-5.8h5.2l-8.1-18.8-5 7.8v11h4.1v5.8h-14.6zm68.4-7.8h6.7v13.6h-34.3v-6.9h4.9v-38.8h-4.9v-6.9h34.3v13.6h-6.7v-6.7h-16v15.9h16.2v6.9h-16.2v16h16zm13 6.7h4.9v-38.8h-4.9v-6.9h19.8c4 0 7.5 1.5 10.3 4.4s4.2 6.4 4.2 10.5c0 3.6-1.1 6.7-3.4 9.5s-5.1 4.5-8.6 5.1l6.8 16.2h5v6.7h-9.4l-9.6-22.7h-3.5v16h4.8v6.9h-16.4zm11.7-38.8v15.9h8.1c2.1 0 4-.7 5.5-2.3s2.3-3.5 2.3-5.6-.8-4-2.3-5.6-3.4-2.4-5.5-2.4z" fill="url(#SVGID_00000047032190624402711260000003463542487643322795_)"/></g></g></svg>