<svg id="Layer_2_00000128459349643920822000000003413343988445603234_" enable-background="new 0 0 512 512" viewBox="68 0 376 512" xmlns="http://www.w3.org/2000/svg" xmlns:xlink="http://www.w3.org/1999/xlink"><linearGradient id="lg1"><stop offset="0" stop-color="#454545"/><stop offset="1"/></linearGradient><linearGradient id="SVGID_1_" gradientTransform="matrix(1 0 0 -1 0 512)" gradientUnits="userSpaceOnUse" x1="48.749" x2="463.231" xlink:href="#lg1" y1="463.246" y2="48.754"/><linearGradient id="SVGID_00000050622284580173453000000016961021302118473890_" gradientTransform="matrix(1 0 0 -1 0 512)" gradientUnits="userSpaceOnUse" x1="55.818" x2="456.162" y1="456.172" y2="55.828"><stop offset="0" stop-color="#f2f2f2"/><stop offset="1" stop-color="#d9d9d9"/></linearGradient><linearGradient id="SVGID_00000049207488614546448640000011099446604333111194_" gradientTransform="matrix(1 0 0 -1 0 512)" gradientUnits="userSpaceOnUse" x1="72.368" x2="439.627" xlink:href="#lg1" y1="439.642" y2="72.373"/><g id="Icon"><g id="_63"><path d="m443.8 50v412c0 27.6-22.4 50-50 50h-275.6c-27.6 0-50-22.4-50-50v-412c0-27.6 22.4-50 50-50h275.5c27.7 0 50.1 22.4 50.1 50z" fill="url(#SVGID_1_)"/><path d="m433.8 50v412c0 22.1-17.9 40-40 40h-275.6c-22.1 0-40-17.9-40-40v-412c0-22.1 17.9-40 40-40h275.5c22.2 0 40.1 17.9 40.1 40z" fill="url(#SVGID_00000050622284580173453000000016961021302118473890_)"/><path d="m395.3 34h-278.6c-8 0-14.4 6.5-14.4 14.4v415.1c0 8 6.5 14.4 14.4 14.4h278.7c8 0 14.4-6.5 14.4-14.4v-415.1c-.1-7.9-6.5-14.4-14.5-14.4zm4.8 429.6c0 2.6-2.2 4.8-4.8 4.8h-278.6c-2.7 0-4.8-2.2-4.8-4.8v-415.2c0-2.7 2.2-4.8 4.8-4.8h278.7c2.6 0 4.8 2.2 4.8 4.8zm-172-147.2c0-7.7 6.2-14 14-14 4.7 0 8.9 2.4 11.4 5.9.1-6.5-1.9-11.5-5.8-15.5h16.6c-3.9 3.9-5.9 9-5.8 15.5 2.5-3.6 6.7-5.9 11.4-5.9 7.7 0 14 6.2 14 14s-6.2 14-14 14c-.7 0-1.4-.1-2.1-.2 1.3 2.1 2.1 4.6 2.1 7.4 0 7.7-6.2 14-14 14-7.7 0-14-6.2-14-14 0-2.7.8-5.2 2.1-7.4-.7.1-1.4.2-2.1.2-7.6 0-13.8-6.3-13.8-14zm0-120.8c0-7.7 6.2-14 14-14 .7 0 1.4.1 2.1.2-1.3-2.1-2.1-4.6-2.1-7.4 0-7.7 6.2-14 14-14 7.7 0 14 6.2 14 14 0 2.7-.8 5.2-2.1 7.4.7-.1 1.4-.2 2.1-.2 7.7 0 14 6.2 14 14s-6.2 14-14 14c-4.7 0-8.9-2.4-11.4-5.9-.1 6.4 1.9 11.5 5.8 15.5h-16.6c3.9-3.9 5.9-9 5.8-15.5-2.5 3.6-6.7 5.9-11.4 5.9-8-.1-14.2-6.3-14.2-14zm-32.5 88.3c-7.7 0-14-6.2-14-14 0-.7.1-1.4.2-2.1-2.1 1.3-4.7 2.1-7.3 2.1-7.7 0-14-6.2-14-14s6.2-14 14-14c2.7 0 5.2.8 7.3 2.1-.1-.7-.2-1.4-.2-2.1 0-7.7 6.2-14 14-14s14 6.2 14 14c0 4.7-2.4 8.9-5.9 11.4 6.4.1 11.5-1.9 15.5-5.8v16.6c-3.9-3.9-9-5.9-15.5-5.8 3.6 2.5 5.9 6.7 5.9 11.4-.1 8-6.3 14.2-14 14.2zm112.8-25.4c-6.4-.1-11.5 1.9-15.5 5.8v-16.6c3.9 3.9 9 5.9 15.5 5.8-3.6-2.5-5.9-6.7-5.9-11.4 0-7.7 6.2-14 14-14s14 6.2 14 14c0 .7-.1 1.4-.2 2.1 2.1-1.3 4.6-2.1 7.4-2.1 7.7 0 14 6.2 14 14s-6.2 14-14 14c-2.7 0-5.2-.8-7.4-2.1.1.7.2 1.4.2 2.1 0 7.7-6.2 14-14 14-7.7 0-14-6.2-14-14 0-4.9 2.3-9 5.9-11.6zm23.1-155.9c-2.7-2.7-2.7-7 0-9.7s7-2.7 9.7 0c.2.2.5.5.7.8.3-1.2.9-2.3 1.8-3.3 2.7-2.7 7-2.7 9.7 0s2.7 7 0 9.7c-.9.9-2.1 1.5-3.3 1.8.3.2.5.4.8.7 2.7 2.7 2.7 7 0 9.7s-7 2.7-9.7 0c-1.6-1.6-2.3-3.9-1.9-6-2.3 2.2-3.4 4.7-3.4 7.4l-5.8-5.8c2.7 0 5.2-1.1 7.4-3.4-2.1.3-4.4-.3-6-1.9zm-157 1.9c2.2 2.3 4.7 3.4 7.4 3.4l-5.8 5.8c0-2.7-1.1-5.2-3.4-7.4.4 2.1-.3 4.4-1.9 6-2.7 2.7-7 2.7-9.7 0s-2.7-7 0-9.7c.2-.2.5-.5.8-.7-1.2-.3-2.4-.9-3.3-1.8-2.7-2.7-2.7-7 0-9.7s7-2.7 9.7 0c.9.9 1.5 2.1 1.8 3.3.2-.3.4-.5.7-.8 2.7-2.7 7-2.7 9.7 0s2.7 7 0 9.7c-1.7 1.6-3.9 2.3-6 1.9zm163 303c-2.2-2.3-4.7-3.4-7.4-3.4l5.8-5.8c0 2.7 1.1 5.2 3.4 7.4-.4-2.1.3-4.4 1.9-6 2.7-2.7 7-2.7 9.7 0s2.7 7 0 9.7c-.2.2-.5.5-.8.7 1.2.3 2.4.9 3.3 1.8 2.7 2.7 2.7 7 0 9.7s-7 2.7-9.7 0c-.9-.9-1.5-2.1-1.8-3.3-.2.3-.4.5-.7.8-2.7 2.7-7 2.7-9.7 0s-2.7-7 0-9.7c1.6-1.6 3.9-2.3 6-1.9zm-157 1.9c2.7 2.7 2.7 7 0 9.7s-7 2.7-9.7 0c-.2-.2-.5-.5-.7-.8-.3 1.2-.9 2.4-1.8 3.3-2.7 2.7-7 2.7-9.7 0s-2.7-7 0-9.7c.9-.9 2.1-1.5 3.3-1.8-.3-.2-.5-.4-.8-.7-2.7-2.7-2.7-7 0-9.7s7-2.7 9.7 0c1.6 1.6 2.3 3.9 1.9 6 2.3-2.2 3.4-4.7 3.4-7.4l5.8 5.8c-2.7 0-5.2 1.1-7.4 3.4 2.1-.3 4.4.3 6 1.9zm-44.6-260.1v295h240.2v-376.6h-240.2zm230.6 285.4h-61.8c4.3-32.1 29.8-57.5 61.8-61.8zm0-357.4v61.8c-32.1-4.3-57.5-29.8-61.8-61.8zm-221 0h61.8c-4.3 32.1-29.8 57.5-61.8 61.8zm0 71.5c37.4-4.4 67.1-34.1 71.5-71.5h78c4.4 37.4 34.1 67.1 71.5 71.5v214.5c-37.4 4.4-67.1 34.1-71.5 71.5h-78c-4.4-37.4-34.1-67.1-71.5-71.5zm0 224.1c32.1 4.3 57.5 29.8 61.8 61.8h-61.8zm134.5-116.9c0 13.3-10.8 24-24 24s-24-10.8-24-24 10.8-24 24-24 24 10.7 24 24z" fill="url(#SVGID_00000049207488614546448640000011099446604333111194_)"/></g></g></svg>