<svg id="Layer_2_00000098179259285449384510000014356184115661397670_" enable-background="new 0 0 512 512" viewBox="68 0 376 512" xmlns="http://www.w3.org/2000/svg" xmlns:xlink="http://www.w3.org/1999/xlink"><linearGradient id="lg1"><stop offset="0" stop-color="#454545"/><stop offset="1"/></linearGradient><linearGradient id="SVGID_1_" gradientTransform="matrix(1 0 0 -1 0 512)" gradientUnits="userSpaceOnUse" x1="48.749" x2="463.231" xlink:href="#lg1" y1="463.246" y2="48.754"/><linearGradient id="SVGID_00000065063694783309437770000001900845001623387541_" gradientTransform="matrix(1 0 0 -1 0 512)" gradientUnits="userSpaceOnUse" x1="55.818" x2="456.162" y1="456.172" y2="55.828"><stop offset="0" stop-color="#f2f2f2"/><stop offset="1" stop-color="#d9d9d9"/></linearGradient><linearGradient id="SVGID_00000097465888303395043110000000404726604520491673_" gradientTransform="matrix(1 0 0 -1 0 512)" gradientUnits="userSpaceOnUse" x1="333.035" x2="353.395" xlink:href="#lg1" y1="110.74" y2="90.38"/><linearGradient id="SVGID_00000024718786960723540660000014514913824254376122_" gradientTransform="matrix(1 0 0 -1 0 512)" gradientUnits="userSpaceOnUse" x1="159.112" x2="178.458" xlink:href="#lg1" y1="110.233" y2="90.887"/><linearGradient id="SVGID_00000026145480704850066100000005465456087581216397_" gradientTransform="matrix(1 0 0 -1 0 512)" gradientUnits="userSpaceOnUse" x1="72.368" x2="439.627" xlink:href="#lg1" y1="439.642" y2="72.373"/><g id="Icon"><g id="_61"><path d="m443.8 50v412c0 27.6-22.4 50-50 50h-275.6c-27.6 0-50-22.4-50-50v-412c0-27.6 22.4-50 50-50h275.5c27.7 0 50.1 22.4 50.1 50z" fill="url(#SVGID_1_)"/><path d="m433.8 50v412c0 22.1-17.9 40-40 40h-275.6c-22.1 0-40-17.9-40-40v-412c0-22.1 17.9-40 40-40h275.5c22.2 0 40.1 17.9 40.1 40z" fill="url(#SVGID_00000065063694783309437770000001900845001623387541_)"/><path d="m353.4 405.3v1.5 14.8h-16.3c-4.1 0-7.4-3.3-7.4-7.4 0-4 3.2-7.2 7.1-7.4-2-1.9-4.3-2.7-6.7-2.7l5.8-5.8c0 2.5.9 4.7 2.7 6.7.1-4 3.4-7.1 7.4-7.1 4.1 0 7.4 3.3 7.4 7.4z" fill="url(#SVGID_00000097465888303395043110000000404726604520491673_)"/><path d="m158.6 405.3v1.5 14.8h16.3c4.1 0 7.4-3.3 7.4-7.4 0-4-3.2-7.2-7.1-7.4 2-1.9 4.3-2.7 6.7-2.7l-5.8-5.8c0 2.5-.9 4.7-2.7 6.7-.1-4-3.4-7.1-7.4-7.1-4.1 0-7.4 3.3-7.4 7.4z" fill="url(#SVGID_00000024718786960723540660000014514913824254376122_)"/><path d="m395.3 34h-278.6c-8 0-14.4 6.5-14.4 14.4v415.1c0 8 6.5 14.4 14.4 14.4h278.7c8 0 14.4-6.5 14.4-14.4v-415.1c-.1-7.9-6.5-14.4-14.5-14.4zm4.8 429.6c0 2.6-2.2 4.8-4.8 4.8h-278.6c-2.7 0-4.8-2.2-4.8-4.8v-415.2c0-2.7 2.2-4.8 4.8-4.8h278.7c2.6 0 4.8 2.2 4.8 4.8zm-120.7-156.8c5.9 5.9 5.9 15.4 0 21.2l-23.4 23.5-21.2-21.2-2.2-2.2c-5.9-5.9-5.9-15.4 0-21.2s15-5.8 20.9-.3c-.3-5.6-2.2-10-5.8-13.6h16.6c-3.5 3.5-5.5 8-5.8 13.6 5.9-5.6 15.2-5.5 20.9.2zm-46.8-101.7c-5.9-5.9-5.9-15.4 0-21.2l23.4-23.4 21.2 21.2 2.2 2.2c5.9 5.9 5.9 15.4 0 21.2-5.7 5.7-15 5.8-20.9.3.3 5.6 2.2 10.1 5.8 13.6h-16.6c3.5-3.5 5.5-8 5.8-13.6-6 5.6-15.2 5.5-20.9-.3zm-48.7 74.3-23.4-23.4 21.2-21.2 2.2-2.2c5.9-5.9 15.4-5.9 21.2 0 5.7 5.7 5.8 15 .3 20.9 5.6-.3 10.1-2.2 13.6-5.8v16.6c-3.5-3.5-8-5.5-13.6-5.8 5.5 5.9 5.4 15.1-.3 20.9s-15.3 5.9-21.2 0zm122.6-20.8c-5.6.3-10 2.2-13.6 5.8v-16.6c3.5 3.5 8 5.5 13.6 5.8-5.5-5.9-5.4-15.1.3-20.9 5.9-5.9 15.4-5.9 21.2 0l23.4 23.4-21.2 21.2-2.2 2.2c-5.9 5.9-15.4 5.9-21.2 0-5.7-5.8-5.8-15.1-.3-20.9zm23.2-160.8c0-4.1 3.3-7.4 7.4-7.4h16.3v16.3c0 4.1-3.3 7.4-7.4 7.4-4 0-7.2-3.2-7.4-7.1-1.9 2-2.7 4.3-2.7 6.7l-5.8-5.8c2.5 0 4.7-.9 6.7-2.7-3.9-.2-7.1-3.4-7.1-7.4zm-147.4 0c0 4-3.2 7.2-7.1 7.4 2 1.8 4.3 2.7 6.7 2.7l-5.8 5.8c0-2.4-.9-4.7-2.7-6.7-.1 4-3.4 7.1-7.4 7.1-4.1 0-7.4-3.3-7.4-7.4v-16.3h16.3c4 0 7.4 3.3 7.4 7.4zm-46.4 51.5v295h240.2v-376.6h-240.2zm230.6 285.4h-61.8c4.3-32.1 29.8-57.5 61.8-61.8zm0-357.4v61.8c-32.1-4.3-57.5-29.8-61.8-61.8zm-221 0h61.8c-4.3 32.1-29.8 57.5-61.8 61.8zm0 71.5c37.4-4.4 67.1-34.1 71.5-71.5h78c4.4 37.4 34.1 67.1 71.5 71.5v214.5c-37.4 4.4-67.1 34.1-71.5 71.5h-78c-4.4-37.4-34.1-67.1-71.5-71.5zm0 224.1c32.1 4.3 57.5 29.8 61.8 61.8h-61.8zm86.4-116.9c0-13.3 10.8-24 24-24 13.3 0 24 10.8 24 24s-10.8 24-24 24-24-10.7-24-24z" fill="url(#SVGID_00000026145480704850066100000005465456087581216397_)"/></g></g></svg>