<svg id="Layer_2_00000031205373908036423710000014628948657992378548_" enable-background="new 0 0 512 512" viewBox="68 0 376 512" xmlns="http://www.w3.org/2000/svg" xmlns:xlink="http://www.w3.org/1999/xlink"><linearGradient id="SVGID_1_" gradientTransform="matrix(1 0 0 -1 0 512)" gradientUnits="userSpaceOnUse" x1="48.749" x2="463.231" y1="463.246" y2="48.754"><stop offset="0" stop-color="#454545"/><stop offset="1"/></linearGradient><linearGradient id="SVGID_00000138542337007898399800000009604963754504327824_" gradientTransform="matrix(1 0 0 -1 0 512)" gradientUnits="userSpaceOnUse" x1="55.818" x2="456.162" y1="456.172" y2="55.828"><stop offset="0" stop-color="#f2f2f2"/><stop offset="1" stop-color="#d9d9d9"/></linearGradient><linearGradient id="SVGID_00000102539062922880530320000008671978761994434694_" gradientTransform="matrix(1 0 0 -1 0 512)" gradientUnits="userSpaceOnUse" x1="72.368" x2="439.627" y1="439.642" y2="72.373"><stop offset="0" stop-color="#fe5b42"/><stop offset="1" stop-color="#ba0000"/></linearGradient><g id="Icon"><g id="_64"><path d="m443.8 50v412c0 27.6-22.4 50-50 50h-275.6c-27.6 0-50-22.4-50-50v-412c0-27.6 22.4-50 50-50h275.5c27.7 0 50.1 22.4 50.1 50z" fill="url(#SVGID_1_)"/><path d="m433.8 50v412c0 22.1-17.9 40-40 40h-275.6c-22.1 0-40-17.9-40-40v-412c0-22.1 17.9-40 40-40h275.5c22.2 0 40.1 17.9 40.1 40z" fill="url(#SVGID_00000138542337007898399800000009604963754504327824_)"/><path d="m395.3 34h-278.6c-8 0-14.4 6.5-14.4 14.4v415.1c0 8 6.5 14.4 14.4 14.4h278.7c8 0 14.4-6.5 14.4-14.4v-415.1c-.1-7.9-6.5-14.4-14.5-14.4zm4.8 429.6c0 2.6-2.2 4.8-4.8 4.8h-278.6c-2.7 0-4.8-2.2-4.8-4.8v-415.2c0-2.7 2.2-4.8 4.8-4.8h278.7c2.6 0 4.8 2.2 4.8 4.8zm-144.1-112.1-25.1-29.3 25.1-29.3 25.1 29.3zm0-132.4-25.1-29.3 25.1-29.3 25.1 29.3zm-36.9 36.9-29.3 25.1-29.3-25.1 29.3-25.1zm103.1 25.1-29.3-25.1 29.3-25.1 29.3 25.1zm29.7-171.8-18.9 1.4 1.5-18.9 18.9-1.4zm-174.4-17.5 1.4 18.9-18.9-1.4-1.4-18.9zm157 328.4-1.5-18.9 18.9 1.5 1.5 18.9zm-174.4-17.5 18.9-1.5-1.4 18.9-18.9 1.5zm-24.2-253.4v295h240.2v-376.6h-240.2zm230.6 285.4h-61.8c4.3-32.1 29.8-57.5 61.8-61.8zm0-357.4v61.8c-32.1-4.3-57.5-29.8-61.8-61.8zm-221 0h61.8c-4.3 32.1-29.8 57.5-61.8 61.8zm0 71.5c37.4-4.4 67.1-34.1 71.5-71.5h78c4.4 37.4 34.1 67.1 71.5 71.5v214.5c-37.4 4.4-67.1 34.1-71.5 71.5h-78c-4.4-37.4-34.1-67.1-71.5-71.5zm0 224.1c32.1 4.3 57.5 29.8 61.8 61.8h-61.8zm110.5-140.9c13.3 0 24 10.8 24 24 0 13.3-10.8 24-24 24s-24-10.8-24-24 10.7-24 24-24z" fill="url(#SVGID_00000102539062922880530320000008671978761994434694_)"/></g></g></svg>