<svg id="Layer_2_00000169523636976952375410000011179601721159548558_" enable-background="new 0 0 512 512" viewBox="68 0 376 512" xmlns="http://www.w3.org/2000/svg" xmlns:xlink="http://www.w3.org/1999/xlink"><linearGradient id="SVGID_1_" gradientTransform="matrix(1 0 0 -1 0 512)" gradientUnits="userSpaceOnUse" x1="48.749" x2="463.231" y1="463.246" y2="48.754"><stop offset="0" stop-color="#454545"/><stop offset="1"/></linearGradient><linearGradient id="SVGID_00000137842909081182214080000002223025053239095715_" gradientTransform="matrix(1 0 0 -1 0 512)" gradientUnits="userSpaceOnUse" x1="55.818" x2="456.162" y1="456.172" y2="55.828"><stop offset="0" stop-color="#f2f2f2"/><stop offset="1" stop-color="#d9d9d9"/></linearGradient><linearGradient id="SVGID_00000136373306821716030530000011216574727095489194_" gradientTransform="matrix(1 0 0 -1 0 512)" gradientUnits="userSpaceOnUse" x1="72.368" x2="439.627" y1="439.642" y2="72.373"><stop offset="0" stop-color="#fe5b42"/><stop offset="1" stop-color="#ba0000"/></linearGradient><g id="Icon"><g id="_62"><path d="m443.8 50v412c0 27.6-22.4 50-50 50h-275.6c-27.6 0-50-22.4-50-50v-412c0-27.6 22.4-50 50-50h275.5c27.7 0 50.1 22.4 50.1 50z" fill="url(#SVGID_1_)"/><path d="m433.8 50v412c0 22.1-17.9 40-40 40h-275.6c-22.1 0-40-17.9-40-40v-412c0-22.1 17.9-40 40-40h275.5c22.2 0 40.1 17.9 40.1 40z" fill="url(#SVGID_00000137842909081182214080000002223025053239095715_)"/><path d="m395.3 34h-278.6c-8 0-14.4 6.5-14.4 14.4v415.1c0 8 6.5 14.4 14.4 14.4h278.7c8 0 14.4-6.5 14.4-14.4v-415.1c-.1-7.9-6.5-14.4-14.5-14.4zm4.8 429.6c0 2.6-2.2 4.8-4.8 4.8h-278.6c-2.7 0-4.8-2.2-4.8-4.8v-415.2c0-2.7 2.2-4.8 4.8-4.8h278.7c2.6 0 4.8 2.2 4.8 4.8zm-213.2-364.4c0 4.9-3.9 8.8-8.8 8.8h-1.8v1.8c0 4.9-3.9 8.8-8.8 8.8s-8.8-3.9-8.8-8.8v-19.4h19.3c4.9 0 8.8 3.9 8.9 8.8zm111.3 159.4 2.6-2.6-2.6-2.6c-7-7-7-18.3 0-25.3 7-7 18.3-7 25.3 0l28 28-25.3 25.3-2.6 2.6c-7 7-18.3 7-25.3 0-7.1-7-7.1-18.4-.1-25.4zm26.9 154.2c0-4.9 3.9-8.8 8.8-8.8h1.8v-1.8c0-4.9 3.9-8.8 8.8-8.8s8.8 3.9 8.8 8.8v19.4h-19.3c-4.9 0-8.9-3.9-8.9-8.8zm0-313.6c0-4.9 3.9-8.8 8.8-8.8h19.4v19.4c0 4.9-3.9 8.8-8.8 8.8s-8.8-3.9-8.8-8.8v-1.8h-1.8c-4.8 0-8.8-3.9-8.8-8.8zm-136.6 184.8-28-28 25.3-25.3 2.6-2.6c7-7 18.3-7 25.3 0 7 7 7 18.3 0 25.3l-2.6 2.6 2.6 2.6c7 7 7 18.3 0 25.3-6.9 7.1-18.2 7.1-25.2.1zm-1.6 128.8c0 4.9-3.9 8.8-8.8 8.8h-19.4v-19.4c0-4.9 3.9-8.8 8.8-8.8s8.8 3.9 8.8 8.8v1.8h1.8c4.8 0 8.8 3.9 8.8 8.8zm-51-263.5v295h240.2v-376.6h-240.2zm230.6 285.4h-61.8c4.3-32.1 29.8-57.5 61.8-61.8zm0-357.4v61.8c-32.1-4.3-57.5-29.8-61.8-61.8zm-221 0h61.8c-4.3 32.1-29.8 57.5-61.8 61.8zm0 71.5c37.4-4.4 67.1-34.1 71.5-71.5h78c4.4 37.4 34.1 67.1 71.5 71.5v214.5c-37.4 4.4-67.1 34.1-71.5 71.5h-78c-4.4-37.4-34.1-67.1-71.5-71.5zm0 224.1c32.1 4.3 57.5 29.8 61.8 61.8h-61.8zm110.5-140.9c13.3 0 24 10.8 24 24 0 13.3-10.8 24-24 24s-24-10.8-24-24 10.7-24 24-24zm-28-18.2c-7-7-7-18.3 0-25.3l28-28 25.3 25.3 2.6 2.6c7 7 7 18.3 0 25.3-7 7-18.3 7-25.3 0l-2.6-2.6-2.6 2.6c-7 7.1-18.4 7.1-25.4.1zm0 109.7c-7-7-7-18.3 0-25.3 7-7 18.3-7 25.3 0l2.6 2.6 2.6-2.6c7-7 18.3-7 25.3 0 7 7 7 18.3 0 25.3l-28 28-25.3-25.3z" fill="url(#SVGID_00000136373306821716030530000011216574727095489194_)"/></g></g></svg>