<svg id="Layer_2_00000150800686734183432390000007886320106636669880_" enable-background="new 0 0 512 512" viewBox="68 0 376 512" xmlns="http://www.w3.org/2000/svg" xmlns:xlink="http://www.w3.org/1999/xlink"><linearGradient id="lg1"><stop offset="0" stop-color="#454545"/><stop offset="1"/></linearGradient><linearGradient id="SVGID_1_" gradientTransform="matrix(1 0 0 -1 0 512)" gradientUnits="userSpaceOnUse" x1="48.749" x2="463.231" xlink:href="#lg1" y1="463.246" y2="48.754"/><linearGradient id="SVGID_00000136369076087450678110000004581371989572980901_" gradientTransform="matrix(1 0 0 -1 0 512)" gradientUnits="userSpaceOnUse" x1="55.818" x2="456.162" y1="456.172" y2="55.828"><stop offset="0" stop-color="#f2f2f2"/><stop offset="1" stop-color="#d9d9d9"/></linearGradient><linearGradient id="SVGID_00000083793984475007993220000005156892135412778375_" gradientTransform="matrix(1 0 0 -1 0 512)" gradientUnits="userSpaceOnUse" x1="103.463" x2="163.986" xlink:href="#lg1" y1="465.023" y2="404.501"/><linearGradient id="SVGID_00000023280313010962520570000010972407638789328769_" gradientTransform="matrix(1 0 0 -1 0 512)" gradientUnits="userSpaceOnUse" x1="348.014" x2="408.537" xlink:href="#lg1" y1="107.499" y2="46.977"/><linearGradient id="SVGID_00000129186098017643796500000007682620420192071829_" gradientTransform="matrix(1 0 0 -1 0 512)" gradientUnits="userSpaceOnUse" x1="356.86" x2="395.957" xlink:href="#lg1" y1="184.687" y2="145.6"/><linearGradient id="SVGID_00000075132770272687563980000008698844653775512241_" gradientTransform="matrix(1 0 0 -1 0 512)" gradientUnits="userSpaceOnUse" x1="213.868" x2="298.138" xlink:href="#lg1" y1="286.353" y2="202.083"/><linearGradient id="SVGID_00000116952529879145080960000002948809081720793265_" gradientTransform="matrix(1 0 0 -1 0 512)" gradientUnits="userSpaceOnUse" x1="116.045" x2="155.135" xlink:href="#lg1" y1="366.4" y2="327.31"/><g id="Icon"><g id="_06"><path d="m443.8 50v412c0 27.6-22.4 50-50 50h-275.6c-27.6 0-50-22.4-50-50v-412c0-27.6 22.4-50 50-50h275.5c27.7 0 50.1 22.4 50.1 50z" fill="url(#SVGID_1_)"/><path d="m433.8 50v412c0 22.1-17.9 40-40 40h-275.6c-22.1 0-40-17.9-40-40v-412c0-22.1 17.9-40 40-40h275.5c22.2 0 40.1 17.9 40.1 40z" fill="url(#SVGID_00000136369076087450678110000004581371989572980901_)"/><path d="m149.5 90.9h10.3v20.8h-51.5v-5.3c0-9.7 3.6-18.3 10.7-26 2.8-2.9 9.4-8.2 19.9-15.9 7.1-5.2 10.7-9.6 10.7-13.4 0-3.5-2-6.2-5.9-8.1-3.1-1.5-6.6-2.3-10.6-2.3-9.6 0-14.5 3.2-14.5 9.6 0 1.3.4 2.8 1.1 4.5l-9.6 4c-1.2-3-1.7-5.9-1.7-8.5 0-6.7 2.5-11.8 7.5-15.4 4.5-3.2 10.2-4.8 17.2-4.8s13 1.7 18 5.2c5.8 3.9 8.8 9.2 8.8 15.8 0 6.2-3.1 11.9-9.3 17.3-6.1 4.6-12.1 9.2-18.2 13.8-7.1 5.9-11.4 12.2-12.8 18.8h30z" fill="url(#SVGID_00000083793984475007993220000005156892135412778375_)"/><path d="m362.5 421.1h-10.3v-20.8h51.5v5.3c0 9.7-3.6 18.4-10.7 26-2.8 3-9.4 8.2-19.9 15.9-7.1 5.2-10.7 9.6-10.7 13.4 0 3.5 2 6.1 5.9 8.1 3.1 1.5 6.6 2.3 10.6 2.3 9.6 0 14.5-3.2 14.5-9.6 0-1.4-.4-2.9-1.1-4.5l9.6-4c1.1 3 1.7 5.9 1.7 8.5 0 6.7-2.5 11.8-7.5 15.4-4.5 3.2-10.2 4.8-17.2 4.8s-13-1.7-18-5.2c-5.9-3.9-8.8-9.2-8.8-15.8 0-6.1 3.1-11.9 9.3-17.3 6-4.6 12.1-9.2 18.1-13.8 7.1-5.9 11.4-12.2 12.8-18.8h-30z" fill="url(#SVGID_00000023280313010962520570000010972407638789328769_)"/><path d="m349.5 359 2.5 2.5 24.4 24.4 26.9-26.9c6.7-6.7 6.7-17.6 0-24.4-6.6-6.6-17.2-6.7-24-.4.3-6.4 2.6-11.5 6.6-15.6h-19.1c4 4 6.3 9.2 6.6 15.6-6.8-6.3-17.4-6.2-24 .4-6.6 6.8-6.6 17.7.1 24.4z" fill="url(#SVGID_00000129186098017643796500000007682620420192071829_)"/><path d="m314 241.5-5.4-5.4-52.6-52.6-58 58c-14.5 14.5-14.5 38 0 52.6 14.2 14.2 37.1 14.5 51.7.8-.6 13.8-5.6 24.9-14.2 33.6h41.2c-8.7-8.7-13.6-19.8-14.2-33.6 14.6 13.7 37.4 13.4 51.7-.8 14.3-14.6 14.3-38.1-.2-52.6z" fill="url(#SVGID_00000075132770272687563980000008698844653775512241_)"/><path d="m162.5 153-2.5-2.5-24.4-24.4-26.9 26.9c-6.7 6.7-6.7 17.6 0 24.4 6.6 6.6 17.2 6.7 24 .4-.3 6.4-2.6 11.6-6.6 15.6h19.1c-4-4.1-6.3-9.2-6.6-15.6 6.8 6.3 17.4 6.2 24-.4 6.6-6.8 6.6-17.7-.1-24.4z" fill="url(#SVGID_00000116952529879145080960000002948809081720793265_)"/></g></g></svg>