<svg id="Layer_2_00000003804551198226987590000009463231480634048906_" enable-background="new 0 0 512 512" viewBox="68 0 376 512" xmlns="http://www.w3.org/2000/svg" xmlns:xlink="http://www.w3.org/1999/xlink"><linearGradient id="lg1"><stop offset="0" stop-color="#454545"/><stop offset="1"/></linearGradient><linearGradient id="SVGID_1_" gradientTransform="matrix(1 0 0 -1 0 512)" gradientUnits="userSpaceOnUse" x1="48.749" x2="463.231" xlink:href="#lg1" y1="463.246" y2="48.754"/><linearGradient id="SVGID_00000176738091706952774840000005504241210959071879_" gradientTransform="matrix(1 0 0 -1 0 512)" gradientUnits="userSpaceOnUse" x1="55.818" x2="456.162" y1="456.172" y2="55.828"><stop offset="0" stop-color="#f2f2f2"/><stop offset="1" stop-color="#d9d9d9"/></linearGradient><linearGradient id="SVGID_00000039821140890664688530000013997610842070767542_" gradientTransform="matrix(1 0 0 -1 0 512)" gradientUnits="userSpaceOnUse" x1="105.91" x2="164.875" xlink:href="#lg1" y1="478.355" y2="419.39"/><linearGradient id="SVGID_00000042717704400795775200000013984319980233635502_" gradientTransform="matrix(1 0 0 -1 0 512)" gradientUnits="userSpaceOnUse" x1="347.115" x2="406.08" xlink:href="#lg1" y1="92.61" y2="33.645"/><linearGradient id="SVGID_00000170280659935063996140000000780409406069817781_" gradientTransform="matrix(1 0 0 -1 0 512)" gradientUnits="userSpaceOnUse" x1="356.86" x2="395.957" xlink:href="#lg1" y1="184.687" y2="145.6"/><linearGradient id="SVGID_00000005959404576000065630000000468906434615329152_" gradientTransform="matrix(1 0 0 -1 0 512)" gradientUnits="userSpaceOnUse" x1="213.868" x2="298.138" xlink:href="#lg1" y1="286.353" y2="202.083"/><linearGradient id="SVGID_00000034086242155950698060000007725241382844039099_" gradientTransform="matrix(1 0 0 -1 0 512)" gradientUnits="userSpaceOnUse" x1="116.045" x2="155.135" xlink:href="#lg1" y1="366.4" y2="327.31"/><g id="Icon"><g id="_07"><path d="m443.8 50v412c0 27.6-22.4 50-50 50h-275.6c-27.6 0-50-22.4-50-50v-412c0-27.6 22.4-50 50-50h275.5c27.7 0 50.1 22.4 50.1 50z" fill="url(#SVGID_1_)"/><path d="m433.8 50v412c0 22.1-17.9 40-40 40h-275.6c-22.1 0-40-17.9-40-40v-412c0-22.1 17.9-40 40-40h275.5c22.2 0 40.1 17.9 40.1 40z" fill="url(#SVGID_00000176738091706952774840000005504241210959071879_)"/><path d="m134.6 111.8c-6.1 0-11.7-2.1-16.5-6.3-4.4-3.8-7.7-8.8-9.8-15l9.8-3.5c1.3 4 3.4 7.3 6.1 9.8 3.1 2.9 6.6 4.4 10.5 4.4 4.9 0 9.1-1.9 12.6-5.8 3.5-3.8 5.3-8.2 5.3-13s-1.5-8.7-4.5-11.7-7-4.5-11.9-4.5c-2.2 0-4 .3-5.3.9s-2.8 1.7-4.6 3.4l-7.4-7.3 23.9-22.5h-23.1v10.3h-10.3v-20.9h52.6v6.6l-20.5 19.4c6.5 1.2 11.7 4.2 15.5 9.1s5.8 10.6 5.8 17.3c0 7.8-2.8 14.6-8.4 20.5-5.4 5.8-12.1 8.8-19.8 8.8z" fill="url(#SVGID_00000039821140890664688530000013997610842070767542_)"/><path d="m377.4 400.2c6.1 0 11.7 2.1 16.5 6.3 4.4 3.8 7.7 8.8 9.8 15l-9.8 3.5c-1.4-4-3.4-7.3-6.1-9.8-3.1-2.9-6.6-4.4-10.5-4.4-4.9 0-9.1 1.9-12.6 5.8-3.5 3.8-5.3 8.2-5.3 13s1.5 8.7 4.5 11.7 7 4.5 11.9 4.5c2.2 0 4-.3 5.3-.9s2.8-1.7 4.6-3.4l7.4 7.3-23.9 22.5h23.1v-10.3h10.3v20.9h-52.6v-6.6l20.5-19.4c-6.5-1.2-11.7-4.2-15.5-9.1s-5.8-10.6-5.8-17.3c0-7.8 2.8-14.6 8.4-20.5 5.4-5.8 12-8.8 19.8-8.8z" fill="url(#SVGID_00000042717704400795775200000013984319980233635502_)"/><path d="m349.5 359 2.5 2.5 24.4 24.4 26.9-26.9c6.7-6.7 6.7-17.6 0-24.4-6.6-6.6-17.2-6.7-24-.4.3-6.4 2.6-11.5 6.6-15.6h-19.1c4 4 6.3 9.2 6.6 15.6-6.8-6.3-17.4-6.2-24 .4-6.6 6.8-6.6 17.7.1 24.4z" fill="url(#SVGID_00000170280659935063996140000000780409406069817781_)"/><path d="m314 241.5-5.4-5.4-52.6-52.6-58 58c-14.5 14.5-14.5 38 0 52.6 14.2 14.2 37.1 14.5 51.7.8-.6 13.8-5.6 24.9-14.2 33.6h41.2c-8.7-8.7-13.6-19.8-14.2-33.6 14.6 13.7 37.4 13.4 51.7-.8 14.3-14.6 14.3-38.1-.2-52.6z" fill="url(#SVGID_00000005959404576000065630000000468906434615329152_)"/><path d="m162.5 153-2.5-2.5-24.4-24.4-26.9 26.9c-6.7 6.7-6.7 17.6 0 24.4 6.6 6.6 17.2 6.7 24 .4-.3 6.4-2.6 11.6-6.6 15.6h19.1c-4-4.1-6.3-9.2-6.6-15.6 6.8 6.3 17.4 6.2 24-.4 6.6-6.8 6.6-17.7-.1-24.4z" fill="url(#SVGID_00000034086242155950698060000007725241382844039099_)"/></g></g></svg>