<svg id="Layer_2_00000032625282086663021820000012915105361469322626_" enable-background="new 0 0 512 512" viewBox="68 0 376 512" xmlns="http://www.w3.org/2000/svg" xmlns:xlink="http://www.w3.org/1999/xlink"><linearGradient id="lg1"><stop offset="0" stop-color="#454545"/><stop offset="1"/></linearGradient><linearGradient id="SVGID_1_" gradientTransform="matrix(1 0 0 -1 0 512)" gradientUnits="userSpaceOnUse" x1="48.749" x2="463.231" xlink:href="#lg1" y1="463.246" y2="48.754"/><linearGradient id="SVGID_00000124121353078844962230000003537228999421420937_" gradientTransform="matrix(1 0 0 -1 0 512)" gradientUnits="userSpaceOnUse" x1="55.818" x2="456.162" y1="456.172" y2="55.828"><stop offset="0" stop-color="#f2f2f2"/><stop offset="1" stop-color="#d9d9d9"/></linearGradient><linearGradient id="SVGID_00000108291129189422380370000017212717612296610702_" gradientTransform="matrix(1 0 0 -1 0 512)" gradientUnits="userSpaceOnUse" x1="105.298" x2="161.838" xlink:href="#lg1" y1="474.014" y2="417.464"/><linearGradient id="SVGID_00000181782466041887546690000011446042712727037827_" gradientTransform="matrix(1 0 0 -1 0 512)" gradientUnits="userSpaceOnUse" x1="350.162" x2="406.702" xlink:href="#lg1" y1="94.536" y2="37.986"/><linearGradient id="SVGID_00000078016951329985574580000016493254090875977139_" gradientTransform="matrix(1 0 0 -1 0 512)" gradientUnits="userSpaceOnUse" x1="356.86" x2="395.957" xlink:href="#lg1" y1="184.687" y2="145.6"/><linearGradient id="SVGID_00000144307527772304889390000009678919024451637685_" gradientTransform="matrix(1 0 0 -1 0 512)" gradientUnits="userSpaceOnUse" x1="213.868" x2="298.138" xlink:href="#lg1" y1="286.353" y2="202.083"/><linearGradient id="SVGID_00000043441140471448871480000001890618169272920995_" gradientTransform="matrix(1 0 0 -1 0 512)" gradientUnits="userSpaceOnUse" x1="116.045" x2="155.135" xlink:href="#lg1" y1="366.4" y2="327.31"/><g id="Icon"><g id="_09"><path d="m443.8 50v412c0 27.6-22.4 50-50 50h-275.6c-27.6 0-50-22.4-50-50v-412c0-27.6 22.4-50 50-50h275.5c27.7 0 50.1 22.4 50.1 50z" fill="url(#SVGID_1_)"/><path d="m433.8 50v412c0 22.1-17.9 40-40 40h-275.6c-22.1 0-40-17.9-40-40v-412c0-22.1 17.9-40 40-40h275.5c22.2 0 40.1 17.9 40.1 40z" fill="url(#SVGID_00000124121353078844962230000003537228999421420937_)"/><path d="m134.1 112c-5.8 0-11.1-2-15.9-6-4.2-3.7-7.5-8.4-9.9-14.1l9.6-4c1.5 3.8 3.6 6.8 6.2 9.2 3 2.9 6.4 4.3 10 4.3 5.1 0 9.4-2.4 12.8-7.2 3.1-4.3 4.6-9 4.6-14.2s-1.5-10-4.6-14.2c-3.3-4.5-7.6-6.8-12.8-6.8-4.4 0-8.8 2.4-13.2 7.1l-7.5-4.4v-31.8h39v10.6h-28.7v10.3c3.3-1.5 6.8-2.3 10.3-2.3 8.1 0 14.8 3.3 20.2 9.9 5.1 6.2 7.6 13.4 7.6 21.6s-2.5 15.5-7.5 21.8c-5.4 6.7-12.2 10.1-20.2 10.2z" fill="url(#SVGID_00000108291129189422380370000017212717612296610702_)"/><path d="m377.9 400c5.8 0 11 2 15.9 6 4.2 3.6 7.5 8.4 9.9 14.1l-9.6 4c-1.5-3.8-3.6-6.8-6.2-9.2-3-2.9-6.4-4.3-10-4.3-5.1 0-9.4 2.4-12.8 7.2-3.1 4.3-4.6 9-4.6 14.2s1.5 10 4.6 14.2c3.3 4.5 7.6 6.8 12.8 6.8 4.4 0 8.8-2.4 13.2-7.1l7.5 4.4v31.8h-39v-10.6h28.7v-10.3c-3.3 1.5-6.8 2.3-10.3 2.3-8.1 0-14.8-3.3-20.2-9.9-5.1-6.1-7.6-13.4-7.6-21.6s2.5-15.5 7.5-21.8c5.4-6.7 12.2-10.1 20.2-10.2z" fill="url(#SVGID_00000181782466041887546690000011446042712727037827_)"/><path d="m349.5 359 2.5 2.5 24.4 24.4 26.9-26.9c6.7-6.7 6.7-17.6 0-24.4-6.6-6.6-17.2-6.7-24-.4.3-6.4 2.6-11.5 6.6-15.6h-19.1c4 4 6.3 9.2 6.6 15.6-6.8-6.3-17.4-6.2-24 .4-6.6 6.8-6.6 17.7.1 24.4z" fill="url(#SVGID_00000078016951329985574580000016493254090875977139_)"/><path d="m314 241.5-5.4-5.4-52.6-52.6-58 58c-14.5 14.5-14.5 38 0 52.6 14.2 14.2 37.1 14.5 51.7.8-.6 13.8-5.6 24.9-14.2 33.6h41.2c-8.7-8.7-13.6-19.8-14.2-33.6 14.6 13.7 37.4 13.4 51.7-.8 14.3-14.6 14.3-38.1-.2-52.6z" fill="url(#SVGID_00000144307527772304889390000009678919024451637685_)"/><path d="m162.5 153-2.5-2.5-24.4-24.4-26.9 26.9c-6.7 6.7-6.7 17.6 0 24.4 6.6 6.6 17.2 6.7 24 .4-.3 6.4-2.6 11.6-6.6 15.6h19.1c-4-4.1-6.3-9.2-6.6-15.6 6.8 6.3 17.4 6.2 24-.4 6.6-6.8 6.6-17.7-.1-24.4z" fill="url(#SVGID_00000043441140471448871480000001890618169272920995_)"/></g></g></svg>