<svg id="Layer_2_00000070102569616506022990000002233301984581013638_" enable-background="new 0 0 512 512" viewBox="68 0 376 512" xmlns="http://www.w3.org/2000/svg" xmlns:xlink="http://www.w3.org/1999/xlink"><linearGradient id="lg1"><stop offset="0" stop-color="#454545"/><stop offset="1"/></linearGradient><linearGradient id="SVGID_1_" gradientTransform="matrix(1 0 0 -1 0 512)" gradientUnits="userSpaceOnUse" x1="48.749" x2="463.231" xlink:href="#lg1" y1="463.246" y2="48.754"/><linearGradient id="SVGID_00000035499158087153074290000015962939036309969805_" gradientTransform="matrix(1 0 0 -1 0 512)" gradientUnits="userSpaceOnUse" x1="55.818" x2="456.162" y1="456.172" y2="55.828"><stop offset="0" stop-color="#f2f2f2"/><stop offset="1" stop-color="#d9d9d9"/></linearGradient><linearGradient id="SVGID_00000169546655269635006980000014283872512500628114_" gradientTransform="matrix(1 0 0 -1 0 512)" gradientUnits="userSpaceOnUse" x1="108.987" x2="160.478" xlink:href="#lg1" y1="467.287" y2="415.787"/><linearGradient id="SVGID_00000109014906099304615190000015587290566354021760_" gradientTransform="matrix(1 0 0 -1 0 512)" gradientUnits="userSpaceOnUse" x1="351.511" x2="403.005" xlink:href="#lg1" y1="96.21" y2="44.716"/><linearGradient id="SVGID_00000038390792215888257100000016033581204131637689_" gradientTransform="matrix(1 0 0 -1 0 512)" gradientUnits="userSpaceOnUse" x1="356.86" x2="395.957" xlink:href="#lg1" y1="184.687" y2="145.6"/><linearGradient id="SVGID_00000008129833034470281040000010490331534891821455_" gradientTransform="matrix(1 0 0 -1 0 512)" gradientUnits="userSpaceOnUse" x1="213.868" x2="298.138" xlink:href="#lg1" y1="286.353" y2="202.083"/><linearGradient id="SVGID_00000073683814321761064560000002781718561935583365_" gradientTransform="matrix(1 0 0 -1 0 512)" gradientUnits="userSpaceOnUse" x1="116.045" x2="155.135" xlink:href="#lg1" y1="366.4" y2="327.31"/><g id="Icon"><g id="_10"><path d="m443.8 50v412c0 27.6-22.4 50-50 50h-275.6c-27.6 0-50-22.4-50-50v-412c0-27.6 22.4-50 50-50h275.5c27.7 0 50.1 22.4 50.1 50z" fill="url(#SVGID_1_)"/><path d="m433.8 50v412c0 22.1-17.9 40-40 40h-275.6c-22.1 0-40-17.9-40-40v-412c0-22.1 17.9-40 40-40h275.5c22.2 0 40.1 17.9 40.1 40z" fill="url(#SVGID_00000035499158087153074290000015962939036309969805_)"/><path d="m108.6 77.4c-.2.3-.3-2-.3-6.8 0-11.3 1.5-20.3 4.6-27.2 4.4-9.4 11.5-14.1 21.4-14.1 4.9 0 9.4 1.3 13.6 3.9 4 2.6 7.2 6 9.7 10.4l-8.9 5.4c-3.5-6.1-8.2-9.1-14.3-9.1-7.9 0-12.9 5.9-14.8 17.8 4.4-3.9 9.3-5.9 14.7-5.9 7.9 0 14.4 3.3 19.4 9.9 4.5 6 6.7 13.1 6.7 21.3 0 7.7-2.4 14.5-7.2 20.4-5.1 6.2-11.4 9.3-18.9 9.3-3.7 0-7.6-1.2-11.6-3.7-4.3-2.6-7.7-7.3-10.3-14.1-2.1-5.4-3.3-11.2-3.8-17.5zm25.7 24.7c4.6 0 8.5-2.1 11.5-6.3 2.9-3.8 4.3-8.1 4.3-12.8 0-5.3-1.3-9.9-3.9-13.8-3-4.5-6.9-6.8-11.9-6.8-3.6 0-6.9 1.8-9.9 5.3-2.4 2.9-4.2 6.4-5.4 10.3.6 5.9 1.9 10.9 3.8 15.2 2.8 5.8 6.6 8.8 11.5 8.9z" fill="url(#SVGID_00000169546655269635006980000014283872512500628114_)"/><path d="m403.4 434.6h.1c.1-.3.2 2 .2 6.8 0 11.3-1.5 20.3-4.6 27.2-4.4 9.4-11.5 14.1-21.4 14.1-4.9 0-9.4-1.3-13.5-3.9-4-2.6-7.2-6-9.7-10.4l8.9-5.4c3.5 6.1 8.2 9.1 14.3 9.1 7.9 0 12.9-5.9 14.8-17.8-4.4 3.9-9.3 5.9-14.7 5.9-7.9 0-14.4-3.3-19.4-9.9-4.5-6-6.7-13.1-6.7-21.3 0-7.7 2.4-14.5 7.2-20.4 5.1-6.2 11.4-9.3 18.9-9.3 3.7 0 7.6 1.2 11.6 3.6 4.3 2.6 7.7 7.3 10.3 14.1 1.9 5.5 3.2 11.3 3.7 17.6zm-25.7-24.7c-4.6 0-8.5 2.1-11.5 6.3-2.9 3.8-4.3 8.1-4.3 12.9 0 5.3 1.3 9.9 3.9 13.8 3 4.5 6.9 6.8 11.9 6.8 3.6 0 7-1.8 9.9-5.3 2.4-2.9 4.2-6.4 5.4-10.4-.6-5.9-1.9-10.9-3.8-15.1-2.8-6-6.6-9-11.5-9z" fill="url(#SVGID_00000109014906099304615190000015587290566354021760_)"/><path d="m349.5 359 2.5 2.5 24.4 24.4 26.9-26.9c6.7-6.7 6.7-17.6 0-24.4-6.6-6.6-17.2-6.7-24-.4.3-6.4 2.6-11.5 6.6-15.6h-19.1c4 4 6.3 9.2 6.6 15.6-6.8-6.3-17.4-6.2-24 .4-6.6 6.8-6.6 17.7.1 24.4z" fill="url(#SVGID_00000038390792215888257100000016033581204131637689_)"/><path d="m314 241.5-5.4-5.4-52.6-52.6-58 58c-14.5 14.5-14.5 38 0 52.6 14.2 14.2 37.1 14.5 51.7.8-.6 13.8-5.6 24.9-14.2 33.6h41.2c-8.7-8.7-13.6-19.8-14.2-33.6 14.6 13.7 37.4 13.4 51.7-.8 14.3-14.6 14.3-38.1-.2-52.6z" fill="url(#SVGID_00000008129833034470281040000010490331534891821455_)"/><path d="m162.5 153-2.5-2.5-24.4-24.4-26.9 26.9c-6.7 6.7-6.7 17.6 0 24.4 6.6 6.6 17.2 6.7 24 .4-.3 6.4-2.6 11.6-6.6 15.6h19.1c-4-4.1-6.3-9.2-6.6-15.6 6.8 6.3 17.4 6.2 24-.4 6.6-6.8 6.6-17.7-.1-24.4z" fill="url(#SVGID_00000073683814321761064560000002781718561935583365_)"/></g></g></svg>