<svg id="Layer_2_00000091727530026185392360000003667499593921870494_" enable-background="new 0 0 512 512" viewBox="68 0 376 512" xmlns="http://www.w3.org/2000/svg" xmlns:xlink="http://www.w3.org/1999/xlink"><linearGradient id="lg1"><stop offset="0" stop-color="#454545"/><stop offset="1"/></linearGradient><linearGradient id="SVGID_1_" gradientTransform="matrix(1 0 0 -1 0 512)" gradientUnits="userSpaceOnUse" x1="48.749" x2="463.231" xlink:href="#lg1" y1="463.246" y2="48.754"/><linearGradient id="SVGID_00000098913311140391709370000004183858873474876575_" gradientTransform="matrix(1 0 0 -1 0 512)" gradientUnits="userSpaceOnUse" x1="55.818" x2="456.162" y1="456.172" y2="55.828"><stop offset="0" stop-color="#f2f2f2"/><stop offset="1" stop-color="#d9d9d9"/></linearGradient><linearGradient id="SVGID_00000077298009110361685300000018148887130000773039_" gradientTransform="matrix(1 0 0 -1 0 512)" gradientUnits="userSpaceOnUse" x1="108.332" x2="159.613" xlink:href="#lg1" y1="466.529" y2="415.248"/><linearGradient id="SVGID_00000156563001693435931330000013331145717178084252_" gradientTransform="matrix(1 0 0 -1 0 512)" gradientUnits="userSpaceOnUse" x1="352.385" x2="403.67" xlink:href="#lg1" y1="96.749" y2="45.474"/><linearGradient id="SVGID_00000027590562508821130950000009561880553984264080_" gradientTransform="matrix(1 0 0 -1 0 512)" gradientUnits="userSpaceOnUse" x1="356.86" x2="395.957" xlink:href="#lg1" y1="184.687" y2="145.6"/><linearGradient id="SVGID_00000166670623495273600700000002446178327621550268_" gradientTransform="matrix(1 0 0 -1 0 512)" gradientUnits="userSpaceOnUse" x1="213.868" x2="298.138" xlink:href="#lg1" y1="286.353" y2="202.083"/><linearGradient id="SVGID_00000132052277750526881520000004349787795357538730_" gradientTransform="matrix(1 0 0 -1 0 512)" gradientUnits="userSpaceOnUse" x1="116.045" x2="155.135" xlink:href="#lg1" y1="366.4" y2="327.31"/><g id="Icon"><g id="_13"><path d="m443.8 50v412c0 27.6-22.4 50-50 50h-275.6c-27.6 0-50-22.4-50-50v-412c0-27.6 22.4-50 50-50h275.5c27.7 0 50.1 22.4 50.1 50z" fill="url(#SVGID_1_)"/><path d="m433.8 50v412c0 22.1-17.9 40-40 40h-275.6c-22.1 0-40-17.9-40-40v-412c0-22.1 17.9-40 40-40h275.5c22.2 0 40.1 17.9 40.1 40z" fill="url(#SVGID_00000098913311140391709370000004183858873474876575_)"/><path d="m149.7 82.1c-4.5 3.6-9.6 5.4-15.2 5.4-7.6 0-13.9-3-18.9-8.9-4.9-5.8-7.3-12.5-7.3-20.1s2.4-14.4 7.3-20.1c5.1-6 11.4-9 18.9-9 9.3 0 16.4 4.8 21 14.5 3.6 7.5 5.4 16.5 5.4 27 0 11-1.8 20.2-5.3 27.4-4.6 9.6-11.8 14.3-21.7 14.3s-17.2-4.9-22.9-14.8l9-5.3c3.6 6.3 8.2 9.5 13.8 9.5 8.5 0 13.8-6.7 15.9-19.9zm-15.2-42.2c-4.6 0-8.5 2-11.6 5.9-2.9 3.6-4.3 7.8-4.3 12.6s1.5 8.9 4.3 12.6c3.1 4 6.9 5.9 11.6 5.9 3.9 0 7.3-1.5 10.2-4.5 2.6-2.7 4.3-6 5.3-10.1-1.8-14.9-7-22.4-15.5-22.4z" fill="url(#SVGID_00000077298009110361685300000018148887130000773039_)"/><path d="m362.3 429.9c4.5-3.6 9.5-5.4 15.2-5.4 7.6 0 13.9 3 18.9 8.9 4.9 5.8 7.3 12.5 7.3 20.1s-2.4 14.4-7.3 20.1c-5.1 6-11.4 9-18.9 9-9.4 0-16.4-4.8-21-14.5-3.6-7.5-5.4-16.5-5.4-27 0-11 1.8-20.1 5.3-27.4 4.6-9.5 11.9-14.3 21.7-14.3s17.2 4.9 22.9 14.8l-9 5.3c-3.6-6.3-8.2-9.5-13.8-9.5-8.5 0-13.8 6.7-15.9 19.9zm15.2 42.2c4.6 0 8.5-2 11.6-5.9 2.9-3.6 4.3-7.8 4.3-12.6s-1.5-8.9-4.3-12.6c-3.1-4-6.9-5.9-11.6-5.9-3.9 0-7.3 1.5-10.2 4.5-2.6 2.7-4.3 6-5.3 10.1 1.8 14.9 7 22.4 15.5 22.4z" fill="url(#SVGID_00000156563001693435931330000013331145717178084252_)"/><path d="m349.5 359 2.5 2.5 24.4 24.4 26.9-26.9c6.7-6.7 6.7-17.6 0-24.4-6.6-6.6-17.2-6.7-24-.4.3-6.4 2.6-11.5 6.6-15.6h-19.1c4 4 6.3 9.2 6.6 15.6-6.8-6.3-17.4-6.2-24 .4-6.6 6.8-6.6 17.7.1 24.4z" fill="url(#SVGID_00000027590562508821130950000009561880553984264080_)"/><path d="m314 241.5-5.4-5.4-52.6-52.6-58 58c-14.5 14.5-14.5 38 0 52.6 14.2 14.2 37.1 14.5 51.7.8-.6 13.8-5.6 24.9-14.2 33.6h41.2c-8.7-8.7-13.6-19.8-14.2-33.6 14.6 13.7 37.4 13.4 51.7-.8 14.3-14.6 14.3-38.1-.2-52.6z" fill="url(#SVGID_00000166670623495273600700000002446178327621550268_)"/><path d="m162.5 153-2.5-2.5-24.4-24.4-26.9 26.9c-6.7 6.7-6.7 17.6 0 24.4 6.6 6.6 17.2 6.7 24 .4-.3 6.4-2.6 11.6-6.6 15.6h19.1c-4-4.1-6.3-9.2-6.6-15.6 6.8 6.3 17.4 6.2 24-.4 6.6-6.8 6.6-17.7-.1-24.4z" fill="url(#SVGID_00000132052277750526881520000004349787795357538730_)"/></g></g></svg>