<svg xmlns:xlink="http://www.w3.org/1999/xlink" id="Layer_2_00000158721474809590650540000000749941750886829966_" enable-background="new 0 0 512 512"
     viewBox="68 0 376 512" xmlns="http://www.w3.org/2000/svg">
    <linearGradient id="lg1">
        <stop offset="0" stop-color="#454545"/>
        <stop offset="1"/>
    </linearGradient>
    <linearGradient id="SVGID_1_" gradientTransform="matrix(1 0 0 -1 0 512)" gradientUnits="userSpaceOnUse" x1="48.749" x2="463.231" xlink:href="#lg1"
                    y1="463.246" y2="48.754"/>
    <linearGradient id="SVGID_00000033342572363703961900000004152602436090283695_" gradientTransform="matrix(1 0 0 -1 0 512)" gradientUnits="userSpaceOnUse"
                    x1="55.818" x2="456.162" y1="456.172" y2="55.828">
        <stop offset="0" stop-color="#f2f2f2"/>
        <stop offset="1" stop-color="#d9d9d9"/>
    </linearGradient>
    <linearGradient id="SVGID_00000127747827898185065600000015911933470537884333_" gradientTransform="matrix(1 0 0 -1 0 512)" gradientUnits="userSpaceOnUse"
                    x1="106.378" x2="162.836" xlink:href="#lg1" y1="459.139" y2="402.691"/>
    <linearGradient id="SVGID_00000124146620290366203730000000148470131015656863_" gradientTransform="matrix(1 0 0 -1 0 512)" gradientUnits="userSpaceOnUse"
                    x1="349.154" x2="405.612" xlink:href="#lg1" y1="109.309" y2="52.861"/>
    <linearGradient id="SVGID_00000041269854215697477240000001043708799596944518_" gradientTransform="matrix(1 0 0 -1 0 512)" gradientUnits="userSpaceOnUse"
                    x1="356.86" x2="395.957" xlink:href="#lg1" y1="184.687" y2="145.6"/>
    <linearGradient id="SVGID_00000167395215077249375170000014080322885656731544_" gradientTransform="matrix(1 0 0 -1 0 512)" gradientUnits="userSpaceOnUse"
                    x1="213.868" x2="298.138" xlink:href="#lg1" y1="286.353" y2="202.083"/>
    <linearGradient id="SVGID_00000070808837145585663570000003740210208274350476_" gradientTransform="matrix(1 0 0 -1 0 512)" gradientUnits="userSpaceOnUse"
                    x1="116.045" x2="155.135" xlink:href="#lg1" y1="366.4" y2="327.31"/>
    <g id="Icon">
        <g id="_05">
            <path d="m443.8 50v412c0 27.6-22.4 50-50 50h-275.6c-27.6 0-50-22.4-50-50v-412c0-27.6 22.4-50 50-50h275.5c27.7 0 50.1 22.4 50.1 50z"
                  fill="url(#SVGID_1_)"/>
            <path d="m433.8 50v412c0 22.1-17.9 40-40 40h-275.6c-22.1 0-40-17.9-40-40v-412c0-22.1 17.9-40 40-40h275.5c22.2 0 40.1 17.9 40.1 40z"
                  fill="url(#SVGID_00000033342572363703961900000004152602436090283695_)"/>
            <path d="m129.7 101.5v9.7h-21.4v-9.7h7l13.3-70.8h12l13.4 70.8h7v9.7h-21.4v-9.7h4.6l-1.5-8.5h-16l-1.6 8.4zm-1.3-18.2h12.5l-6.2-33.1z"
                  fill="url(#SVGID_00000127747827898185065600000015911933470537884333_)"/>
            <path d="m382.3 410.5v-9.7h21.4v9.7h-7l-13.3 70.8h-12l-13.4-70.8h-7v-9.7h21.4v9.7h-4.6l1.5 8.5h16l1.6-8.5zm1.3 18.2h-12.5l6.2 33.1z"
                  fill="url(#SVGID_00000124146620290366203730000000148470131015656863_)"/>
            <path d="m349.5 359 2.5 2.5 24.4 24.4 26.9-26.9c6.7-6.7 6.7-17.6 0-24.4-6.6-6.6-17.2-6.7-24-.4.3-6.4 2.6-11.5 6.6-15.6h-19.1c4 4 6.3 9.2 6.6 15.6-6.8-6.3-17.4-6.2-24 .4-6.6 6.8-6.6 17.7.1 24.4z"
                  fill="url(#SVGID_00000041269854215697477240000001043708799596944518_)"/>
            <path d="m314 241.5-5.4-5.4-52.6-52.6-58 58c-14.5 14.5-14.5 38 0 52.6 14.2 14.2 37.1 14.5 51.7.8-.6 13.8-5.6 24.9-14.2 33.6h41.2c-8.7-8.7-13.6-19.8-14.2-33.6 14.6 13.7 37.4 13.4 51.7-.8 14.3-14.6 14.3-38.1-.2-52.6z"
                  fill="url(#SVGID_00000167395215077249375170000014080322885656731544_)"/>
            <path d="m162.5 153-2.5-2.5-24.4-24.4-26.9 26.9c-6.7 6.7-6.7 17.6 0 24.4 6.6 6.6 17.2 6.7 24 .4-.3 6.4-2.6 11.6-6.6 15.6h19.1c-4-4.1-6.3-9.2-6.6-15.6 6.8 6.3 17.4 6.2 24-.4 6.6-6.8 6.6-17.7-.1-24.4z"
                  fill="url(#SVGID_00000070808837145585663570000003740210208274350476_)"/>
        </g>
    </g>
</svg>