<svg id="Layer_2_00000134936062383969499500000018405984339018026650_" enable-background="new 0 0 512 512" viewBox="68 0 376 512" xmlns="http://www.w3.org/2000/svg" xmlns:xlink="http://www.w3.org/1999/xlink"><linearGradient id="lg1"><stop offset="0" stop-color="#454545"/><stop offset="1"/></linearGradient><linearGradient id="SVGID_1_" gradientTransform="matrix(1 0 0 -1 0 512)" gradientUnits="userSpaceOnUse" x1="48.749" x2="463.231" xlink:href="#lg1" y1="463.246" y2="48.754"/><linearGradient id="SVGID_00000084497655670358648100000013387357446580564121_" gradientTransform="matrix(1 0 0 -1 0 512)" gradientUnits="userSpaceOnUse" x1="55.818" x2="456.162" y1="456.172" y2="55.828"><stop offset="0" stop-color="#f2f2f2"/><stop offset="1" stop-color="#d9d9d9"/></linearGradient><linearGradient id="SVGID_00000014592292748644993350000007006937507188017331_" gradientTransform="matrix(1 0 0 -1 0 512)" gradientUnits="userSpaceOnUse" x1="116.002" x2="160.619" xlink:href="#lg1" y1="465.877" y2="421.26"/><linearGradient id="SVGID_00000085233120185140597610000009175423174480263063_" gradientTransform="matrix(1 0 0 -1 0 512)" gradientUnits="userSpaceOnUse" x1="351.381" x2="395.998" xlink:href="#lg1" y1="90.741" y2="46.123"/><linearGradient id="SVGID_00000057149582166887693130000009272443932426568860_" gradientTransform="matrix(1 0 0 -1 0 512)" gradientUnits="userSpaceOnUse" x1="356.86" x2="395.957" xlink:href="#lg1" y1="184.687" y2="145.6"/><linearGradient id="SVGID_00000136369840077705068430000007696403629091281795_" gradientTransform="matrix(1 0 0 -1 0 512)" gradientUnits="userSpaceOnUse" x1="213.868" x2="298.138" xlink:href="#lg1" y1="286.353" y2="202.083"/><linearGradient id="SVGID_00000119101403283751049650000006576194518902585747_" gradientTransform="matrix(1 0 0 -1 0 512)" gradientUnits="userSpaceOnUse" x1="116.045" x2="155.135" xlink:href="#lg1" y1="366.4" y2="327.31"/><g id="Icon"><g id="_15"><path d="m443.8 50v412c0 27.6-22.4 50-50 50h-275.6c-27.6 0-50-22.4-50-50v-412c0-27.6 22.4-50 50-50h275.5c27.7 0 50.1 22.4 50.1 50z" fill="url(#SVGID_1_)"/><path d="m433.8 50v412c0 22.1-17.9 40-40 40h-275.6c-22.1 0-40-17.9-40-40v-412c0-22.1 17.9-40 40-40h275.5c22.2 0 40.1 17.9 40.1 40z" fill="url(#SVGID_00000084497655670358648100000013387357446580564121_)"/><path d="m119.4 82.4c0 3.9 0 5.5 0 4.9 0 3.8.8 6.9 2.4 9.2 1.9 2.8 4.8 4.1 8.7 4.1 3.3 0 5.9-1.2 7.9-3.6 1.8-2.2 2.7-4.9 2.7-8.2v-47.5h-8.7v-11.4h28.2v11.4h-8.6v47.6c0 6.5-1.9 11.9-5.9 16.2-4.1 4.6-9.3 6.8-15.8 6.8-6.4 0-11.8-2.2-16-6.7s-6.2-10-6.1-16.4v-6.4z" fill="url(#SVGID_00000014592292748644993350000007006937507188017331_)"/><path d="m392.6 429.6c0-3.9 0-5.5 0-4.9 0-3.8-.8-6.9-2.4-9.2-1.9-2.8-4.8-4.1-8.6-4.1-3.3 0-5.9 1.2-7.9 3.6-1.8 2.2-2.7 4.9-2.7 8.2v47.6h8.7v11.4h-28.2v-11.4h8.4v-47.6c0-6.5 2-11.9 5.9-16.2 4.1-4.5 9.4-6.8 15.8-6.8s11.8 2.2 16 6.7 6.2 10 6.1 16.4v6.4z" fill="url(#SVGID_00000085233120185140597610000009175423174480263063_)"/><path d="m349.5 359 2.5 2.5 24.4 24.4 26.9-26.9c6.7-6.7 6.7-17.6 0-24.4-6.6-6.6-17.2-6.7-24-.4.3-6.4 2.6-11.5 6.6-15.6h-19.1c4 4 6.3 9.2 6.6 15.6-6.8-6.3-17.4-6.2-24 .4-6.6 6.8-6.6 17.7.1 24.4z" fill="url(#SVGID_00000057149582166887693130000009272443932426568860_)"/><path d="m314 241.5-5.4-5.4-52.6-52.6-58 58c-14.5 14.5-14.5 38 0 52.6 14.2 14.2 37.1 14.5 51.7.8-.6 13.8-5.6 24.9-14.2 33.6h41.2c-8.7-8.7-13.6-19.8-14.2-33.6 14.6 13.7 37.4 13.4 51.7-.8 14.3-14.6 14.3-38.1-.2-52.6z" fill="url(#SVGID_00000136369840077705068430000007696403629091281795_)"/><path d="m162.5 153-2.5-2.5-24.4-24.4-26.9 26.9c-6.7 6.7-6.7 17.6 0 24.4 6.6 6.6 17.2 6.7 24 .4-.3 6.4-2.6 11.6-6.6 15.6h19.1c-4-4.1-6.3-9.2-6.6-15.6 6.8 6.3 17.4 6.2 24-.4 6.6-6.8 6.6-17.7-.1-24.4z" fill="url(#SVGID_00000119101403283751049650000006576194518902585747_)"/></g></g></svg>