<svg id="Layer_2_00000002346247048318668880000007339886345263337631_" enable-background="new 0 0 512 512" viewBox="68 0 376 512" xmlns="http://www.w3.org/2000/svg" xmlns:xlink="http://www.w3.org/1999/xlink"><linearGradient id="lg1"><stop offset="0" stop-color="#454545"/><stop offset="1"/></linearGradient><linearGradient id="SVGID_1_" gradientTransform="matrix(1 0 0 -1 0 512)" gradientUnits="userSpaceOnUse" x1="48.749" x2="463.231" xlink:href="#lg1" y1="463.246" y2="48.754"/><linearGradient id="SVGID_00000075148935097145782110000000969279554492033943_" gradientTransform="matrix(1 0 0 -1 0 512)" gradientUnits="userSpaceOnUse" x1="55.818" x2="456.162" y1="456.172" y2="55.828"><stop offset="0" stop-color="#f2f2f2"/><stop offset="1" stop-color="#d9d9d9"/></linearGradient><linearGradient id="SVGID_00000083059703073899520110000001358294297144720805_" gradientTransform="matrix(1 0 0 -1 0 512)" gradientUnits="userSpaceOnUse" x1="101.342" x2="168.128" xlink:href="#lg1" y1="474.478" y2="407.682"/><linearGradient id="SVGID_00000069363036376815029670000011341701756276649118_" gradientTransform="matrix(1 0 0 -1 0 512)" gradientUnits="userSpaceOnUse" x1="343.862" x2="410.648" xlink:href="#lg1" y1="104.318" y2="37.522"/><linearGradient id="SVGID_00000019643852886659854430000011097298678820317319_" gradientTransform="matrix(1 0 0 -1 0 512)" gradientUnits="userSpaceOnUse" x1="356.86" x2="395.957" xlink:href="#lg1" y1="184.687" y2="145.6"/><linearGradient id="SVGID_00000062187727474750188200000016319704350967346305_" gradientTransform="matrix(1 0 0 -1 0 512)" gradientUnits="userSpaceOnUse" x1="213.868" x2="298.138" xlink:href="#lg1" y1="286.353" y2="202.083"/><linearGradient id="SVGID_00000112633216414009097280000015952810138921805479_" gradientTransform="matrix(1 0 0 -1 0 512)" gradientUnits="userSpaceOnUse" x1="116.045" x2="155.135" xlink:href="#lg1" y1="366.4" y2="327.31"/><g id="Icon"><g id="_17"><path d="m443.8 50v412c0 27.6-22.4 50-50 50h-275.6c-27.6 0-50-22.4-50-50v-412c0-27.6 22.4-50 50-50h275.5c27.7 0 50.1 22.4 50.1 50z" fill="url(#SVGID_1_)"/><path d="m433.8 50v412c0 22.1-17.9 40-40 40h-275.6c-22.1 0-40-17.9-40-40v-412c0-22.1 17.9-40 40-40h275.5c22.2 0 40.1 17.9 40.1 40z" fill="url(#SVGID_00000075148935097145782110000000969279554492033943_)"/><path d="m108.3 102.4h7.4v-63h-7.4v-8.8h22.4v8.8h-6.2v30.7l19.7-30.7h-7.6v-8.8h24.6v8.8h-7.1l-16 24.9 16.3 38.2h6.7v8.8h-24.6v-8.8h7.9l-12.4-28.9-7.7 12v16.9h6.2v8.8h-22.4z" fill="url(#SVGID_00000083059703073899520110000001358294297144720805_)"/><path d="m403.7 409.6h-7.4v63h7.4v8.8h-22.4v-8.8h6.2v-30.6l-19.7 30.6h7.6v8.8h-24.6v-8.8h7.1l16-24.9-16.3-38.1h-6.7v-8.8h24.6v8.8h-7.9l12.4 28.9 7.7-12v-16.9h-6.2v-8.8h22.4z" fill="url(#SVGID_00000069363036376815029670000011341701756276649118_)"/><path d="m349.5 359 2.5 2.5 24.4 24.4 26.9-26.9c6.7-6.7 6.7-17.6 0-24.4-6.6-6.6-17.2-6.7-24-.4.3-6.4 2.6-11.5 6.6-15.6h-19.1c4 4 6.3 9.2 6.6 15.6-6.8-6.3-17.4-6.2-24 .4-6.6 6.8-6.6 17.7.1 24.4z" fill="url(#SVGID_00000019643852886659854430000011097298678820317319_)"/><path d="m314 241.5-5.4-5.4-52.6-52.6-58 58c-14.5 14.5-14.5 38 0 52.6 14.2 14.2 37.1 14.5 51.7.8-.6 13.8-5.6 24.9-14.2 33.6h41.2c-8.7-8.7-13.6-19.8-14.2-33.6 14.6 13.7 37.4 13.4 51.7-.8 14.3-14.6 14.3-38.1-.2-52.6z" fill="url(#SVGID_00000062187727474750188200000016319704350967346305_)"/><path d="m162.5 153-2.5-2.5-24.4-24.4-26.9 26.9c-6.7 6.7-6.7 17.6 0 24.4 6.6 6.6 17.2 6.7 24 .4-.3 6.4-2.6 11.6-6.6 15.6h19.1c-4-4.1-6.3-9.2-6.6-15.6 6.8 6.3 17.4 6.2 24-.4 6.6-6.8 6.6-17.7-.1-24.4z" fill="url(#SVGID_00000112633216414009097280000015952810138921805479_)"/></g></g></svg>