<svg id="Layer_2_00000102542272938166588640000011167964136530550925_" enable-background="new 0 0 512 512" viewBox="68 0 376 512" xmlns="http://www.w3.org/2000/svg" xmlns:xlink="http://www.w3.org/1999/xlink"><linearGradient id="lg1"><stop offset="0" stop-color="#454545"/><stop offset="1"/></linearGradient><linearGradient id="SVGID_1_" gradientTransform="matrix(1 0 0 -1 0 512)" gradientUnits="userSpaceOnUse" x1="48.749" x2="463.231" xlink:href="#lg1" y1="463.246" y2="48.754"/><linearGradient id="SVGID_00000028299682625277495760000013304194363645948813_" gradientTransform="matrix(1 0 0 -1 0 512)" gradientUnits="userSpaceOnUse" x1="55.818" x2="456.162" y1="456.172" y2="55.828"><stop offset="0" stop-color="#f2f2f2"/><stop offset="1" stop-color="#d9d9d9"/></linearGradient><linearGradient id="SVGID_00000176724150412507356710000000046151427838233020_" gradientTransform="matrix(1 0 0 -1 0 512)" gradientUnits="userSpaceOnUse" x1="108.921" x2="167.468" xlink:href="#lg1" y1="466.13" y2="407.583"/><linearGradient id="SVGID_00000177463223362000350910000009602607815116961980_" gradientTransform="matrix(1 0 0 -1 0 512)" gradientUnits="userSpaceOnUse" x1="344.522" x2="403.069" xlink:href="#lg1" y1="104.417" y2="45.87"/><linearGradient id="SVGID_00000047770039069149488320000012434703987790422672_" gradientTransform="matrix(1 0 0 -1 0 512)" gradientUnits="userSpaceOnUse" x1="356.86" x2="395.957" xlink:href="#lg1" y1="184.687" y2="145.6"/><linearGradient id="SVGID_00000004512142544387833250000001382165534216063112_" gradientTransform="matrix(1 0 0 -1 0 512)" gradientUnits="userSpaceOnUse" x1="213.868" x2="298.138" xlink:href="#lg1" y1="286.353" y2="202.083"/><linearGradient id="SVGID_00000013872861483605194260000007312668625733086859_" gradientTransform="matrix(1 0 0 -1 0 512)" gradientUnits="userSpaceOnUse" x1="116.045" x2="155.135" xlink:href="#lg1" y1="366.4" y2="327.31"/><g id="Icon"><g id="_16"><path d="m443.8 50v412c0 27.6-22.4 50-50 50h-275.6c-27.6 0-50-22.4-50-50v-412c0-27.6 22.4-50 50-50h275.5c27.7 0 50.1 22.4 50.1 50z" fill="url(#SVGID_1_)"/><path d="m433.8 50v412c0 22.1-17.9 40-40 40h-275.6c-22.1 0-40-17.9-40-40v-412c0-22.1 17.9-40 40-40h275.5c22.2 0 40.1 17.9 40.1 40z" fill="url(#SVGID_00000028299682625277495760000013304194363645948813_)"/><path d="m161 110.9c-3.8 0-6.5-.2-8.2-.5-1.9-.4-3.8-1.3-5.6-2.7-4 3.3-8.5 4.9-13.3 4.9-5.2 0-9.8-1.9-13.9-5.6-4.3-3.8-6.4-8.3-6.4-13.4v-7.1h-5.3v-9.2c.2-.1 1.9-.2 5.3-.4v-28.5c0-5.2 2.2-9.7 6.4-13.5 4.1-3.7 8.7-5.6 13.9-5.6s9.9 1.9 14.1 5.7 6.3 8.3 6.3 13.5v45.3c0 2.2-.4 4.3-1.3 6.4.9.6 1.7 1 2.5 1.2h5.5zm-37.6-34c3.9.4 7.8 2.2 11.7 5.4 2.4 1.9 5.5 5 9.3 9.2v-43.2c0-2.3-1.1-4.4-3.3-6.2s-4.6-2.8-7.2-2.8-5 .9-7.2 2.8-3.4 3.9-3.4 6.2zm16.3 23.8-12.4-12.2c-1-1-2.3-1.7-3.9-1.9v7c0 2.3 1.1 4.3 3.4 6.2 2.2 1.9 4.6 2.8 7.2 2.8 2-.1 3.9-.7 5.7-1.9z" fill="url(#SVGID_00000176724150412507356710000000046151427838233020_)"/><path d="m351 401.1c3.8 0 6.5.2 8.2.5 1.9.5 3.8 1.4 5.6 2.7 4-3.3 8.5-4.9 13.3-4.9 5.2 0 9.8 1.9 13.9 5.6 4.3 3.8 6.4 8.3 6.4 13.5v7.1h5.3v9.2c-.2.1-2 .2-5.3.4v28.5c0 5.2-2.1 9.7-6.4 13.5-4.1 3.7-8.7 5.6-13.9 5.6s-9.9-1.9-14.1-5.7-6.3-8.3-6.3-13.5v-45.3c0-2.2.5-4.3 1.4-6.4-.9-.6-1.7-1-2.5-1.1h-5.6zm37.6 34c-3.9-.5-7.8-2.2-11.7-5.4-2.4-1.9-5.5-5-9.3-9.2v43.1c0 2.3 1.1 4.4 3.3 6.2 2.2 1.9 4.6 2.8 7.2 2.8s5-.9 7.2-2.8 3.4-3.9 3.4-6.2zm-16.3-23.8 12.4 12.2c1 1 2.3 1.7 3.9 2v-7c0-2.3-1.1-4.4-3.4-6.2-2.2-1.9-4.6-2.8-7.2-2.8-2 0-3.9.6-5.7 1.8z" fill="url(#SVGID_00000177463223362000350910000009602607815116961980_)"/><path d="m349.5 359 2.5 2.5 24.4 24.4 26.9-26.9c6.7-6.7 6.7-17.6 0-24.4-6.6-6.6-17.2-6.7-24-.4.3-6.4 2.6-11.5 6.6-15.6h-19.1c4 4 6.3 9.2 6.6 15.6-6.8-6.3-17.4-6.2-24 .4-6.6 6.8-6.6 17.7.1 24.4z" fill="url(#SVGID_00000047770039069149488320000012434703987790422672_)"/><path d="m314 241.5-5.4-5.4-52.6-52.6-58 58c-14.5 14.5-14.5 38 0 52.6 14.2 14.2 37.1 14.5 51.7.8-.6 13.8-5.6 24.9-14.2 33.6h41.2c-8.7-8.7-13.6-19.8-14.2-33.6 14.6 13.7 37.4 13.4 51.7-.8 14.3-14.6 14.3-38.1-.2-52.6z" fill="url(#SVGID_00000004512142544387833250000001382165534216063112_)"/><path d="m162.5 153-2.5-2.5-24.4-24.4-26.9 26.9c-6.7 6.7-6.7 17.6 0 24.4 6.6 6.6 17.2 6.7 24 .4-.3 6.4-2.6 11.6-6.6 15.6h19.1c-4-4.1-6.3-9.2-6.6-15.6 6.8 6.3 17.4 6.2 24-.4 6.6-6.8 6.6-17.7-.1-24.4z" fill="url(#SVGID_00000013872861483605194260000007312668625733086859_)"/></g></g></svg>