<svg id="Layer_2_00000095339961357004038660000002771495690797765533_" enable-background="new 0 0 512 512" viewBox="68 0 376 512" xmlns="http://www.w3.org/2000/svg" xmlns:xlink="http://www.w3.org/1999/xlink"><linearGradient id="lg1"><stop offset="0" stop-color="#454545"/><stop offset="1"/></linearGradient><linearGradient id="SVGID_1_" gradientTransform="matrix(1 0 0 -1 0 512)" gradientUnits="userSpaceOnUse" x1="48.749" x2="463.231" xlink:href="#lg1" y1="463.246" y2="48.754"/><linearGradient id="SVGID_00000018949704812270853270000000459568455321148559_" gradientTransform="matrix(1 0 0 -1 0 512)" gradientUnits="userSpaceOnUse" x1="55.818" x2="456.162" y1="456.172" y2="55.828"><stop offset="0" stop-color="#f2f2f2"/><stop offset="1" stop-color="#d9d9d9"/></linearGradient><linearGradient id="SVGID_00000121242437871376288470000011854380950202217885_" gradientTransform="matrix(1 0 0 -1 0 512)" gradientUnits="userSpaceOnUse" x1="109.486" x2="192.408" xlink:href="#lg1" y1="482.621" y2="399.699"/><linearGradient id="SVGID_00000151521001150419404400000003034264492649601454_" gradientTransform="matrix(1 0 0 -1 0 512)" gradientUnits="userSpaceOnUse" x1="319.595" x2="402.512" xlink:href="#lg1" y1="112.303" y2="29.377"/><linearGradient id="SVGID_00000157284717879173807350000006482971560230195614_" gradientTransform="matrix(1 0 0 -1 0 512)" gradientUnits="userSpaceOnUse" x1="356.86" x2="395.957" xlink:href="#lg1" y1="184.687" y2="145.6"/><linearGradient id="SVGID_00000107554855143333090090000007261327577822636164_" gradientTransform="matrix(1 0 0 -1 0 512)" gradientUnits="userSpaceOnUse" x1="213.868" x2="298.138" xlink:href="#lg1" y1="286.353" y2="202.083"/><linearGradient id="SVGID_00000080894076264454458050000017203781640407105694_" gradientTransform="matrix(1 0 0 -1 0 512)" gradientUnits="userSpaceOnUse" x1="116.045" x2="155.135" xlink:href="#lg1" y1="366.4" y2="327.31"/><g id="Icon"><g id="_14"><path d="m443.8 50v412c0 27.6-22.4 50-50 50h-275.6c-27.6 0-50-22.4-50-50v-412c0-27.6 22.4-50 50-50h275.5c27.7 0 50.1 22.4 50.1 50z" fill="url(#SVGID_1_)"/><path d="m433.8 50v412c0 22.1-17.9 40-40 40h-275.6c-22.1 0-40-17.9-40-40v-412c0-22.1 17.9-40 40-40h275.5c22.2 0 40.1 17.9 40.1 40z" fill="url(#SVGID_00000018949704812270853270000000459568455321148559_)"/><path d="m152.9 111.1h-44.6v-11.3h17v-57.9h-17v-11.3h28v69.2h16.6zm2.2-26.1v-28.5c0-7.4 2.6-13.8 7.7-19.2s11.4-8.1 18.7-8.1 13.6 2.7 18.7 8.1 7.7 11.8 7.7 19.2v28.5c0 7.4-2.6 13.9-7.7 19.4s-11.4 8.2-18.7 8.2-13.6-2.7-18.7-8.2-7.7-11.9-7.7-19.4zm11.2-28.5v28.5c0 4.4 1.5 8.2 4.5 11.4s6.6 4.8 10.8 4.8 7.8-1.6 10.8-4.9 4.5-7.1 4.5-11.3v-28.5c0-4.3-1.5-8-4.5-11.2s-6.6-4.7-10.8-4.7-7.8 1.6-10.8 4.7c-3.1 3.2-4.5 6.9-4.5 11.2z" fill="url(#SVGID_00000121242437871376288470000011854380950202217885_)"/><path d="m359.1 400.9h44.6v11.3h-17v57.9h17v11.3h-28v-69.2h-16.6zm-2.2 26.1v28.5c0 7.4-2.6 13.8-7.7 19.2s-11.4 8.1-18.7 8.1-13.6-2.7-18.7-8.1-7.7-11.8-7.7-19.2v-28.5c0-7.4 2.6-13.9 7.7-19.4s11.4-8.2 18.7-8.2c7.4 0 13.6 2.7 18.7 8.2s7.7 11.9 7.7 19.4zm-11.2 28.5v-28.5c0-4.4-1.5-8.1-4.5-11.4-3-3.2-6.6-4.9-10.8-4.9s-7.8 1.6-10.8 4.9-4.5 7-4.5 11.3v28.5c0 4.3 1.5 8 4.5 11.1s6.6 4.7 10.8 4.7 7.8-1.6 10.8-4.7c3.1-3 4.5-6.7 4.5-11z" fill="url(#SVGID_00000151521001150419404400000003034264492649601454_)"/><path d="m349.5 359 2.5 2.5 24.4 24.4 26.9-26.9c6.7-6.7 6.7-17.6 0-24.4-6.6-6.6-17.2-6.7-24-.4.3-6.4 2.6-11.5 6.6-15.6h-19.1c4 4 6.3 9.2 6.6 15.6-6.8-6.3-17.4-6.2-24 .4-6.6 6.8-6.6 17.7.1 24.4z" fill="url(#SVGID_00000157284717879173807350000006482971560230195614_)"/><path d="m314 241.5-5.4-5.4-52.6-52.6-58 58c-14.5 14.5-14.5 38 0 52.6 14.2 14.2 37.1 14.5 51.7.8-.6 13.8-5.6 24.9-14.2 33.6h41.2c-8.7-8.7-13.6-19.8-14.2-33.6 14.6 13.7 37.4 13.4 51.7-.8 14.3-14.6 14.3-38.1-.2-52.6z" fill="url(#SVGID_00000107554855143333090090000007261327577822636164_)"/><path d="m162.5 153-2.5-2.5-24.4-24.4-26.9 26.9c-6.7 6.7-6.7 17.6 0 24.4 6.6 6.6 17.2 6.7 24 .4-.3 6.4-2.6 11.6-6.6 15.6h19.1c-4-4.1-6.3-9.2-6.6-15.6 6.8 6.3 17.4 6.2 24-.4 6.6-6.8 6.6-17.7-.1-24.4z" fill="url(#SVGID_00000080894076264454458050000017203781640407105694_)"/></g></g></svg>