<?xml version="1.0" encoding="UTF-8" standalone="no"?>
<svg
   id="Layer_2_00000137126726011451936220000013561904778207378064_"
   enable-background="new 0 0 512 512"
   viewBox="0 0 512 512"
   version="1.1"
   sodipodi:docname="2d.svg"
   inkscape:version="1.4.2 (f4327f4, 2025-05-13)"
   xmlns:inkscape="http://www.inkscape.org/namespaces/inkscape"
   xmlns:sodipodi="http://sodipodi.sourceforge.net/DTD/sodipodi-0.dtd"
   xmlns:xlink="http://www.w3.org/1999/xlink"
   xmlns="http://www.w3.org/2000/svg"
   xmlns:svg="http://www.w3.org/2000/svg">
  <defs
     id="defs12" />
  <sodipodi:namedview
     id="namedview12"
     pagecolor="#ffffff"
     bordercolor="#000000"
     borderopacity="0.25"
     inkscape:showpageshadow="2"
     inkscape:pageopacity="0.0"
     inkscape:pagecheckerboard="0"
     inkscape:deskcolor="#d1d1d1"
     inkscape:zoom="1.6699219"
     inkscape:cx="256.29941"
     inkscape:cy="257.79649"
     inkscape:window-width="1920"
     inkscape:window-height="1057"
     inkscape:window-x="-8"
     inkscape:window-y="-8"
     inkscape:window-maximized="1"
     inkscape:current-layer="_45" />
  <linearGradient
     id="SVGID_1_"
     gradientTransform="matrix(1.3631523,0,0,-1,-24.766986,512)"
     gradientUnits="userSpaceOnUse"
     x1="48.749"
     x2="463.231"
     y1="463.246"
     y2="48.754">
    <stop
       offset="0"
       stop-color="#454545"
       id="stop1" />
    <stop
       offset="1"
       id="stop2" />
  </linearGradient>
  <linearGradient
     id="SVGID_00000142857865143734664390000010350257239855746442_"
     gradientTransform="matrix(1.3835771,0,0,-1,-29.995726,512)"
     gradientUnits="userSpaceOnUse"
     x1="55.818"
     x2="456.162"
     y1="456.172"
     y2="55.828">
    <stop
       offset="0"
       stop-color="#f2f2f2"
       id="stop3" />
    <stop
       offset="1"
       stop-color="#d9d9d9"
       id="stop4" />
  </linearGradient>
  <linearGradient
     id="lg1">
    <stop
       offset="0"
       stop-color="#fe5b42"
       id="stop5" />
    <stop
       offset="1"
       stop-color="#ba0000"
       id="stop6" />
  </linearGradient>
  <linearGradient
     id="SVGID_00000109012559178615303980000013361031157947279506_"
     gradientTransform="matrix(1.8396752,0,0,-1.8396752,-81.868826,916.63948)"
     gradientUnits="userSpaceOnUse"
     x1="103.463"
     x2="163.986"
     xlink:href="#lg1"
     y1="465.023"
     y2="404.501" />
  <linearGradient
     id="SVGID_00000132799725846795706040000013184812816766800519_"
     gradientTransform="matrix(-1.8273555,0,0,1.8273555,1168.9574,278.88442)"
     gradientUnits="userSpaceOnUse"
     x1="348.014"
     x2="408.537"
     xlink:href="#lg1"
     y1="107.499"
     y2="46.977" />
  <linearGradient
     id="SVGID_00000110441566945509289420000015701627935449108892_"
     gradientTransform="matrix(-1.8273555,0,0,1.8273555,1176.7888,-47.664011)"
     gradientUnits="userSpaceOnUse"
     x1="359.58"
     x2="393.21"
     xlink:href="#lg1"
     y1="176.51"
     y2="142.87" />
  <linearGradient
     id="SVGID_00000045582492514636953880000005872456061895977393_"
     gradientTransform="matrix(1 0 0 -1 0 512)"
     gradientUnits="userSpaceOnUse"
     x1="219.745"
     x2="292.245"
     xlink:href="#lg1"
     y1="292.255"
     y2="219.745" />
  <linearGradient
     id="SVGID_00000057117428245953197550000015591672489928848002_"
     gradientTransform="matrix(1.8396752,0,0,-1.8396752,-89.677316,916.63948)"
     gradientUnits="userSpaceOnUse"
     x1="118.78"
     x2="152.41"
     xlink:href="#lg1"
     y1="369.13"
     y2="335.49" />
  <g
     id="Icon"
     transform="translate(-68.2)">
    <g
       id="_45">
      <path
         d="m 580.2,68.158 v 375.617 c 0,27.6 -30.53461,68.225 -68.15761,68.225 H 136.35761 C 98.734611,512 68.2,471.375 68.2,443.775 V 68.158 C 68.2,40.558 98.735001,0 136.358,0 H 511.906 C 549.66532,0 580.2,40.558 580.2,68.158 Z"
         fill="url(#SVGID_1_)"
         id="path6"
         style="fill:url(#SVGID_1_);stroke-width:1.16754"
         sodipodi:nodetypes="sssssssss" />
      <path
         d="m 570.2,68.158 v 375.617 c 0,22.1 -27.64795,58.225 -58.225,58.225 H 136.358 C 105.78095,502 78.2,465.875 78.2,443.775 V 68.158 C 78.2,46.058 105.78095,10 136.358,10 H 511.83682 C 542.55223,10 570.2,46.058 570.2,68.158 Z"
         fill="url(#SVGID_00000142857865143734664390000010350257239855746442_)"
         id="path7"
         style="fill:url(#SVGID_00000142857865143734664390000010350257239855746442_);stroke-width:1.17625"
         sodipodi:nodetypes="sssssssss" />
      <path
         d="m 193.16262,141.95225 h 18.94866 V 180.2175 H 117.368 v -9.75028 c 0,-17.84485 6.62283,-33.66606 19.68453,-47.83156 5.15109,-5.33505 17.29295,-15.08533 36.60954,-29.250832 13.06169,-9.566311 19.68452,-17.660882 19.68452,-24.651648 0,-6.438863 -3.67935,-11.405986 -10.85408,-14.901369 -5.703,-2.759513 -12.14186,-4.231253 -19.50056,-4.231253 -17.66088,0 -26.67529,5.88696 -26.67529,17.660882 0,2.391578 0.73587,5.151091 2.02364,8.278539 l -17.66088,7.358701 c -2.20761,-5.519026 -3.12745,-10.854084 -3.12745,-15.63724 0,-12.325824 4.59919,-21.708168 13.79756,-28.330999 C 139.62807,33.04348 150.11422,30.1 162.99195,30.1 c 12.87773,0 23.91578,3.127448 33.11415,9.566311 10.67012,7.174734 16.18915,16.925013 16.18915,29.066869 0,11.405987 -5.703,21.892136 -17.10898,31.82638 -11.22202,8.46251 -22.26007,16.92501 -33.48209,25.38752 -13.0617,10.85408 -20.9723,22.44404 -23.54785,34.58589 h 55.19026 z"
         fill="url(#SVGID_00000109012559178615303980000013361031157947279506_)"
         id="path8"
         style="fill:url(#SVGID_00000109012559178615303980000013361031157947279506_);stroke-width:1.83968" />
      <path
         d="M 506.54104,444.99101 H 525.3628 V 483 H 431.254 v -9.68498 c 0,-17.72535 6.57848,-33.62334 19.5527,-47.51125 5.1166,-5.48206 17.17714,-14.98431 36.36438,-29.05495 12.97422,-9.50225 19.5527,-17.54261 19.5527,-24.48656 0,-6.39574 -3.65471,-11.14687 -10.7814,-14.80158 -5.6648,-2.74103 -12.06054,-4.20292 -19.36997,-4.20292 -17.54261,0 -26.49665,5.84754 -26.49665,17.54262 0,2.55829 0.73094,5.29933 2.01009,8.22309 l -17.54261,7.30943 c -2.01009,-5.48207 -3.10651,-10.7814 -3.10651,-15.53252 0,-12.24329 4.56839,-21.5628 13.70517,-28.14128 8.2231,-5.84754 18.63903,-8.7713 31.43051,-8.7713 12.79149,0 23.75563,3.1065 32.8924,9.50224 10.7814,7.12669 16.08073,16.81167 16.08073,28.87222 0,11.14687 -5.6648,21.74553 -16.99441,31.61325 -10.96413,8.40583 -22.111,16.81167 -33.07513,25.2175 -12.97422,10.7814 -20.83185,22.29374 -23.39015,34.35429 h 54.82066 z"
         fill="url(#SVGID_00000132799725846795706040000013184812816766800519_)"
         id="path9"
         style="fill:url(#SVGID_00000132799725846795706040000013184812816766800519_);stroke-width:1.82736" />
      <path
         d="m 541.6,244.16464 -52.62784,61.39915 -52.62783,-61.39915 52.62783,-61.39914 z"
         fill="url(#SVGID_00000110441566945509289420000015701627935449108892_)"
         id="path10"
         style="fill:url(#SVGID_00000110441566945509289420000015701627935449108892_);stroke-width:1.82736" />
      <path
         d="M 212.76529,268.52191 159.78265,330.335 106.8,268.52191 159.78265,206.70882 Z"
         fill="url(#SVGID_00000057117428245953197550000015591672489928848002_)"
         id="path12"
         style="fill:url(#SVGID_00000057117428245953197550000015591672489928848002_);stroke-width:1.83968" />
    </g>
  </g>
</svg>
