<?xml version="1.0" encoding="UTF-8" standalone="no"?>
<svg
   id="Layer_2_00000067926198529632114350000003236680894737647514_"
   enable-background="new 0 0 512 512"
   viewBox="0 0 512 512"
   version="1.1"
   sodipodi:docname="3d.svg"
   inkscape:version="1.4.2 (f4327f4, 2025-05-13)"
   xmlns:inkscape="http://www.inkscape.org/namespaces/inkscape"
   xmlns:sodipodi="http://sodipodi.sourceforge.net/DTD/sodipodi-0.dtd"
   xmlns:xlink="http://www.w3.org/1999/xlink"
   xmlns="http://www.w3.org/2000/svg"
   xmlns:svg="http://www.w3.org/2000/svg">
  <defs
     id="defs12" />
  <sodipodi:namedview
     id="namedview12"
     pagecolor="#ffffff"
     bordercolor="#000000"
     borderopacity="0.25"
     inkscape:showpageshadow="2"
     inkscape:pageopacity="0.0"
     inkscape:pagecheckerboard="0"
     inkscape:deskcolor="#d1d1d1"
     inkscape:zoom="1.6699219"
     inkscape:cx="256.29941"
     inkscape:cy="257.79649"
     inkscape:window-width="1920"
     inkscape:window-height="1057"
     inkscape:window-x="-8"
     inkscape:window-y="-8"
     inkscape:window-maximized="1"
     inkscape:current-layer="Icon" />
  <linearGradient
     id="SVGID_1_"
     gradientTransform="matrix(1.3631523,0,0,-1,-24.766986,512)"
     gradientUnits="userSpaceOnUse"
     x1="48.749"
     x2="463.231"
     y1="463.246"
     y2="48.754">
    <stop
       offset="0"
       stop-color="#454545"
       id="stop1" />
    <stop
       offset="1"
       id="stop2" />
  </linearGradient>
  <linearGradient
     id="SVGID_00000038392088660920313900000010707522983141061821_"
     gradientTransform="matrix(1.383577,0,0,-1,-29.995725,512)"
     gradientUnits="userSpaceOnUse"
     x1="55.818"
     x2="456.162"
     y1="456.172"
     y2="55.828">
    <stop
       offset="0"
       stop-color="#f2f2f2"
       id="stop3" />
    <stop
       offset="1"
       stop-color="#d9d9d9"
       id="stop4" />
  </linearGradient>
  <linearGradient
     id="lg1">
    <stop
       offset="0"
       stop-color="#fe5b42"
       id="stop5" />
    <stop
       offset="1"
       stop-color="#ba0000"
       id="stop6" />
  </linearGradient>
  <linearGradient
     id="SVGID_00000153690881691791614340000003311334422874090917_"
     gradientTransform="matrix(1.8396752,0,0,-1.8396752,-81.868826,916.63948)"
     gradientUnits="userSpaceOnUse"
     x1="105.91"
     x2="164.875"
     xlink:href="#lg1"
     y1="478.355"
     y2="419.39" />
  <linearGradient
     id="SVGID_00000057128028265261044830000013607858233947646142_"
     gradientTransform="matrix(-1.8273555,0,0,1.8273555,1168.9574,278.70168)"
     gradientUnits="userSpaceOnUse"
     x1="347.115"
     x2="406.08"
     xlink:href="#lg1"
     y1="92.61"
     y2="33.645" />
  <linearGradient
     id="SVGID_00000086686663037586280390000001908781439592248506_"
     gradientTransform="matrix(-1.8273555,0,0,1.8273555,1176.7888,-47.664011)"
     gradientUnits="userSpaceOnUse"
     x1="359.58"
     x2="393.21"
     xlink:href="#lg1"
     y1="176.51"
     y2="142.87" />
  <linearGradient
     id="SVGID_00000168820572491373585160000014734812081007591815_"
     gradientTransform="matrix(1 0 0 -1 0 512)"
     gradientUnits="userSpaceOnUse"
     x1="219.745"
     x2="292.245"
     xlink:href="#lg1"
     y1="292.255"
     y2="219.745" />
  <linearGradient
     id="SVGID_00000171678112184400722630000012407941612554570685_"
     gradientTransform="matrix(1.8396752,0,0,-1.8396752,-89.677316,916.63948)"
     gradientUnits="userSpaceOnUse"
     x1="118.78"
     x2="152.41"
     xlink:href="#lg1"
     y1="369.13"
     y2="335.49" />
  <g
     id="Icon"
     transform="translate(-68.2)">
    <g
       id="_46">
      <path
         d="m 580.2,68.158 v 375.548 c 0,27.6 -30.53461,68.294 -68.15761,68.294 H 136.35761 C 98.734611,512 68.2,471.306 68.2,443.706 V 68.158 C 68.2,40.558 98.735001,0 136.358,0 H 511.906 C 549.66532,0 580.2,40.558 580.2,68.158 Z"
         fill="url(#SVGID_1_)"
         id="path6"
         style="fill:url(#SVGID_1_);stroke-width:1.16754"
         sodipodi:nodetypes="sssssssss" />
      <path
         d="m 570.2,68.158 v 375.548 c 0,22.1 -27.64777,58.294 -58.22482,58.294 H 136.358 C 105.78095,502 78.2,465.806 78.2,443.706 V 68.158 C 78.2,46.058 105.78095,10 136.358,10 H 511.83681 C 542.55223,10 570.2,46.058 570.2,68.158 Z"
         fill="url(#SVGID_00000038392088660920313900000010707522983141061821_)"
         id="path7"
         style="fill:url(#SVGID_00000038392088660920313900000010707522983141061821_);stroke-width:1.17625"
         sodipodi:nodetypes="sssssssss" />
      <path
         d="m 165.75146,180.40147 c -11.22202,0 -21.5242,-3.86332 -30.35464,-11.58996 -8.09457,-6.99076 -14.1655,-16.18914 -18.02882,-27.59513 l 18.02882,-6.43886 c 2.39158,7.3587 6.2549,13.42963 11.22202,18.02882 5.70299,5.33506 12.14186,8.09457 19.31659,8.09457 9.01441,0 16.74104,-3.49538 23.17991,-10.67012 6.43886,-6.99076 9.75028,-15.08533 9.75028,-23.91577 0,-8.83045 -2.75952,-16.00518 -8.27854,-21.52421 -5.51903,-5.519021 -12.87773,-8.278534 -21.89214,-8.278534 -4.04728,0 -7.3587,0.551903 -9.75028,1.655708 -2.39157,1.103805 -5.15109,3.127446 -8.4625,6.254896 L 136.86856,90.993251 180.8368,49.600558 H 138.3403 V 68.549213 H 119.39165 V 30.1 h 96.76691 v 12.141857 l -37.71334,35.689699 c 11.95789,2.207611 21.5242,7.726636 28.51497,16.741045 6.99076,9.014409 10.67011,19.500559 10.67011,31.826379 0,14.34947 -5.15109,26.85926 -15.45327,37.71335 -9.93424,10.67011 -22.26007,16.18914 -36.42557,16.18914 z"
         fill="url(#SVGID_00000153690881691791614340000003311334422874090917_)"
         id="path8"
         style="fill:url(#SVGID_00000153690881691791614340000003311334422874090917_);stroke-width:1.83968" />
      <path
         d="m 479.31345,483 c -11.14687,0 -21.38006,-3.83745 -30.15137,-11.51234 -8.04036,-6.94395 -14.07063,-16.08073 -17.90808,-27.41033 l 17.90808,-6.39575 c 2.5583,7.30943 6.21301,13.3397 11.14687,17.90809 5.6648,5.29933 12.06055,8.04036 19.18723,8.04036 8.95404,0 16.62894,-3.47197 23.02468,-10.59866 6.39575,-6.94395 9.68499,-14.98431 9.68499,-23.75562 0,-8.77131 -2.74104,-15.89799 -8.2231,-21.38006 -5.48207,-5.48207 -12.79149,-8.2231 -21.74553,-8.2231 -4.02019,0 -7.30943,0.54821 -9.68499,1.64462 -2.37556,1.09641 -5.11659,3.10651 -8.40583,6.21301 l -13.52243,-13.3397 43.67379,-41.11549 h -42.21191 v 18.82176 h -18.82176 v -38.19173 h 96.1189 v 12.06055 L 491.9222,381.2163 c 11.87781,2.19283 21.38006,7.67489 28.32401,16.62894 6.94395,8.95404 10.59866,19.36996 10.59866,31.61325 0,14.25337 -5.11659,26.67938 -15.34978,37.46078 C 505.62737,477.51793 493.56682,483 479.31345,483 Z"
         fill="url(#SVGID_00000057128028265261044830000013607858233947646142_)"
         id="path9"
         style="fill:url(#SVGID_00000057128028265261044830000013607858233947646142_);stroke-width:1.82736" />
      <path
         d="m 541.6,244.16464 -52.62784,61.39915 -52.62783,-61.39915 52.62783,-61.39914 z"
         fill="url(#SVGID_00000086686663037586280390000001908781439592248506_)"
         id="path10"
         style="fill:url(#SVGID_00000086686663037586280390000001908781439592248506_);stroke-width:1.82736" />
      <path
         d="M 212.76529,268.52191 159.78265,330.335 106.8,268.52191 159.78265,206.70882 Z"
         fill="url(#SVGID_00000171678112184400722630000012407941612554570685_)"
         id="path12"
         style="fill:url(#SVGID_00000171678112184400722630000012407941612554570685_);stroke-width:1.83968" />
    </g>
  </g>
</svg>
