<?xml version="1.0" encoding="UTF-8" standalone="no"?>
<svg
   id="Layer_2_00000059274071582901719760000004069389823991338421_"
   enable-background="new 0 0 512 512"
   viewBox="0 0 512 512"
   version="1.1"
   sodipodi:docname="6d.svg"
   inkscape:version="1.4.2 (f4327f4, 2025-05-13)"
   xmlns:inkscape="http://www.inkscape.org/namespaces/inkscape"
   xmlns:sodipodi="http://sodipodi.sourceforge.net/DTD/sodipodi-0.dtd"
   xmlns:xlink="http://www.w3.org/1999/xlink"
   xmlns="http://www.w3.org/2000/svg"
   xmlns:svg="http://www.w3.org/2000/svg">
  <defs
     id="defs12" />
  <sodipodi:namedview
     id="namedview12"
     pagecolor="#ffffff"
     bordercolor="#000000"
     borderopacity="0.25"
     inkscape:showpageshadow="2"
     inkscape:pageopacity="0.0"
     inkscape:pagecheckerboard="0"
     inkscape:deskcolor="#d1d1d1"
     inkscape:zoom="1.6699219"
     inkscape:cx="256.29941"
     inkscape:cy="257.79649"
     inkscape:window-width="1920"
     inkscape:window-height="1057"
     inkscape:window-x="-8"
     inkscape:window-y="-8"
     inkscape:window-maximized="1"
     inkscape:current-layer="Layer_2_00000059274071582901719760000004069389823991338421_" />
  <linearGradient
     id="SVGID_1_"
     gradientTransform="matrix(1.3631523,0,0,-1,-24.766986,512)"
     gradientUnits="userSpaceOnUse"
     x1="48.749"
     x2="463.231"
     y1="463.246"
     y2="48.754">
    <stop
       offset="0"
       stop-color="#454545"
       id="stop1" />
    <stop
       offset="1"
       id="stop2" />
  </linearGradient>
  <linearGradient
     id="SVGID_00000036930197251264156620000005113001335554209182_"
     gradientTransform="matrix(1.3835771,0,0,-1,-29.995726,512)"
     gradientUnits="userSpaceOnUse"
     x1="55.818"
     x2="456.162"
     y1="456.172"
     y2="55.828">
    <stop
       offset="0"
       stop-color="#f2f2f2"
       id="stop3" />
    <stop
       offset="1"
       stop-color="#d9d9d9"
       id="stop4" />
  </linearGradient>
  <linearGradient
     id="lg1">
    <stop
       offset="0"
       stop-color="#fe5b42"
       id="stop5" />
    <stop
       offset="1"
       stop-color="#ba0000"
       id="stop6" />
  </linearGradient>
  <linearGradient
     id="SVGID_00000017483643093287988970000017259509192072435366_"
     gradientTransform="matrix(1.8307012,0,0,-1.8307012,-80.99294,912.97947)"
     gradientUnits="userSpaceOnUse"
     x1="108.987"
     x2="160.478"
     xlink:href="#lg1"
     y1="467.287"
     y2="415.787" />
  <linearGradient
     id="SVGID_00000066509370780676844600000005207686075865428916_"
     gradientTransform="matrix(-1.8273555,0,0,1.8273555,1168.9574,277.05706)"
     gradientUnits="userSpaceOnUse"
     x1="351.511"
     x2="403.005"
     xlink:href="#lg1"
     y1="96.21"
     y2="44.716" />
  <linearGradient
     id="SVGID_00000005964882376950326810000002438255945319832196_"
     gradientTransform="matrix(-1.8273555,0,0,1.8273555,1176.7888,-47.664011)"
     gradientUnits="userSpaceOnUse"
     x1="359.58"
     x2="393.21"
     xlink:href="#lg1"
     y1="176.51"
     y2="142.87" />
  <linearGradient
     id="SVGID_00000082329246103867649650000013539443434542534296_"
     gradientTransform="matrix(1,0,0,-1,0,512)"
     gradientUnits="userSpaceOnUse"
     x1="219.745"
     x2="292.245"
     xlink:href="#lg1"
     y1="292.255"
     y2="219.745" />
  <linearGradient
     id="SVGID_00000152947441276189027870000007198690049979281302_"
     gradientTransform="matrix(1.8307012,0,0,-1.8307012,-88.71889,912.97947)"
     gradientUnits="userSpaceOnUse"
     x1="118.78"
     x2="152.41"
     xlink:href="#lg1"
     y1="369.13"
     y2="335.49" />
  <g
     id="Icon"
     transform="translate(-68.2)">
    <g
       id="_49">
      <path
         d="m 580.2,68.158 v 375.548 c 0,27.6 -30.53461,68.294 -68.15761,68.294 H 136.35761 C 98.734611,512 68.2,471.306 68.2,443.706 V 68.158 C 68.2,40.558 98.735001,0 136.358,0 H 511.906 C 549.66532,0 580.2,40.558 580.2,68.158 Z"
         fill="url(#SVGID_1_)"
         id="path6"
         style="fill:url(#SVGID_1_);stroke-width:1.16754"
         sodipodi:nodetypes="sssssssss" />
      <path
         d="m 570.2,68.158 v 375.548 c 0,22.1 -27.64777,58.294 -58.22482,58.294 H 136.358 C 105.78095,502 78.2,465.806 78.2,443.706 V 68.158 C 78.2,46.058 105.78095,10 136.358,10 H 511.83682 C 542.55223,10 570.2,46.058 570.2,68.158 Z"
         fill="url(#SVGID_00000036930197251264156620000005113001335554209182_)"
         id="path7"
         style="fill:url(#SVGID_00000036930197251264156620000005113001335554209182_);stroke-width:1.17625"
         sodipodi:nodetypes="sssssssss" />
      <path
         d="m 117.82121,117.35673 c -0.36614,0.54921 -0.54921,-3.6614 -0.54921,-12.44877 0,-20.686923 2.74605,-37.163234 8.42123,-49.795073 C 133.74831,37.904296 146.74629,29.3 164.87023,29.3 c 8.97044,0 17.2086,2.379912 24.89754,7.139735 7.3228,4.759823 13.18105,10.984207 17.7578,19.039292 l -16.29324,9.885787 C 184.82488,54.197537 176.22058,48.705433 165.0533,48.705433 c -14.46254,0 -23.61604,10.801137 -27.09437,32.586482 8.05508,-7.139735 17.02552,-10.801138 26.9113,-10.801138 14.46254,0 26.3621,6.041314 35.51561,18.123943 8.23815,10.984207 12.2657,23.98219 12.2657,38.99394 0,14.09639 -4.39369,26.54516 -13.18105,37.3463 -9.33658,11.35035 -20.87,17.02552 -34.60026,17.02552 -6.77359,0 -13.91333,-2.19684 -21.23613,-6.77359 -7.87202,-4.75983 -14.0964,-13.36412 -18.85622,-25.81289 -3.84448,-9.88579 -6.04132,-20.50385 -6.95667,-32.03727 z m 47.04902,45.21832 c 8.42123,0 15.56096,-3.84447 21.05307,-11.53342 5.30903,-6.95666 7.87201,-14.82868 7.87201,-23.43297 0,-9.70272 -2.37991,-18.12395 -7.13973,-25.26368 -5.49211,-8.238157 -12.63184,-12.44877 -21.78535,-12.44877 -6.59052,0 -12.63183,3.295263 -18.12394,9.702717 -4.39368,5.309033 -7.68894,11.716483 -9.88579,18.856223 1.09843,10.80114 3.47834,19.95464 6.95667,27.82666 5.12596,10.61807 12.08263,16.11017 21.05306,16.29324 z"
         fill="url(#SVGID_00000017483643093287988970000017259509192072435366_)"
         id="path8"
         style="fill:url(#SVGID_00000017483643093287988970000017259509192072435366_);stroke-width:1.8307" />
      <path
         d="m 431.80221,418.49435 h -0.18274 c -0.18274,0.54821 -0.36547,-3.65471 -0.36547,-12.42601 0,-20.64912 2.74103,-37.09532 8.40583,-49.70407 8.04037,-17.17714 21.01459,-25.76571 39.10541,-25.76571 8.95404,0 17.17714,2.37556 24.6693,7.12668 7.30942,4.75113 13.15696,10.96413 17.72535,19.0045 l -16.26347,9.86772 c -6.39574,-11.14687 -14.98431,-16.62894 -26.13118,-16.62894 -14.43611,0 -23.57288,10.7814 -27.04486,32.52693 8.04036,-7.12669 16.99441,-10.7814 26.86213,-10.7814 14.4361,0 26.31391,6.03028 35.45069,18.09082 8.2231,10.96413 12.24328,23.93836 12.24328,38.92267 0,14.07064 -4.38565,26.49666 -13.15696,37.27805 C 503.80001,477.3352 492.28767,483 478.58251,483 c -6.76122,0 -13.88791,-2.19283 -21.19733,-6.57848 -7.85763,-4.75112 -14.07063,-13.33969 -18.82176,-25.76571 -3.47197,-10.05046 -5.84754,-20.64912 -6.76121,-32.16146 z m 46.96303,45.13568 c 8.40584,0 15.53252,-3.83744 21.01459,-11.51234 5.29933,-6.94395 7.85763,-14.80158 7.85763,-23.57288 0,-9.68499 -2.37557,-18.09082 -7.12669,-25.21751 -5.48207,-8.2231 -12.60875,-12.42601 -21.74553,-12.42601 -6.57848,0 -12.79149,3.28923 -18.09082,9.68498 -4.38565,5.29933 -7.67489,11.69507 -9.86772,19.0045 1.09642,10.78139 3.47198,19.91817 6.94395,27.59306 5.1166,10.96414 12.06055,16.4462 21.01459,16.4462 z"
         fill="url(#SVGID_00000066509370780676844600000005207686075865428916_)"
         id="path9"
         style="fill:url(#SVGID_00000066509370780676844600000005207686075865428916_);stroke-width:1.82736" />
      <path
         d="m 541.6,244.16464 -52.62784,61.39915 -52.62783,-61.39915 52.62783,-61.39914 z"
         fill="url(#SVGID_00000005964882376950326810000002438255945319832196_)"
         id="path10"
         style="fill:url(#SVGID_00000005964882376950326810000002438255945319832196_);stroke-width:1.82736" />
      <path
         d="M 212.24839,268.02344 159.5242,329.535 106.8,268.02344 159.5242,206.51188 Z"
         fill="url(#SVGID_00000152947441276189027870000007198690049979281302_)"
         id="path12"
         style="fill:url(#SVGID_00000152947441276189027870000007198690049979281302_);stroke-width:1.8307" />
    </g>
  </g>
</svg>
