<?xml version="1.0" encoding="UTF-8" standalone="no"?>
<svg
   id="Layer_2_00000088855894776245823410000012727817089183774635_"
   enable-background="new 0 0 512 512"
   viewBox="0 0 512 512"
   version="1.1"
   sodipodi:docname="8d.svg"
   inkscape:version="1.4.2 (f4327f4, 2025-05-13)"
   xmlns:inkscape="http://www.inkscape.org/namespaces/inkscape"
   xmlns:sodipodi="http://sodipodi.sourceforge.net/DTD/sodipodi-0.dtd"
   xmlns:xlink="http://www.w3.org/1999/xlink"
   xmlns="http://www.w3.org/2000/svg"
   xmlns:svg="http://www.w3.org/2000/svg">
  <defs
     id="defs12" />
  <sodipodi:namedview
     id="namedview12"
     pagecolor="#ffffff"
     bordercolor="#000000"
     borderopacity="0.25"
     inkscape:showpageshadow="2"
     inkscape:pageopacity="0.0"
     inkscape:pagecheckerboard="0"
     inkscape:deskcolor="#d1d1d1"
     inkscape:zoom="1.6699219"
     inkscape:cx="256.29941"
     inkscape:cy="257.79649"
     inkscape:window-width="1920"
     inkscape:window-height="1057"
     inkscape:window-x="-8"
     inkscape:window-y="-8"
     inkscape:window-maximized="1"
     inkscape:current-layer="Layer_2_00000088855894776245823410000012727817089183774635_" />
  <linearGradient
     id="SVGID_1_"
     gradientTransform="matrix(1.3631523,0,0,-1,-24.766986,512)"
     gradientUnits="userSpaceOnUse"
     x1="48.749"
     x2="463.231"
     y1="463.246"
     y2="48.754">
    <stop
       offset="0"
       stop-color="#454545"
       id="stop1" />
    <stop
       offset="1"
       id="stop2" />
  </linearGradient>
  <linearGradient
     id="SVGID_00000145758403927256068890000001778512675609313689_"
     gradientTransform="matrix(1.3835771,0,0,-1,-29.995726,512)"
     gradientUnits="userSpaceOnUse"
     x1="55.818"
     x2="456.162"
     y1="456.172"
     y2="55.828">
    <stop
       offset="0"
       stop-color="#f2f2f2"
       id="stop3" />
    <stop
       offset="1"
       stop-color="#d9d9d9"
       id="stop4" />
  </linearGradient>
  <linearGradient
     id="lg1">
    <stop
       offset="0"
       stop-color="#fe5b42"
       id="stop5" />
    <stop
       offset="1"
       stop-color="#ba0000"
       id="stop6" />
  </linearGradient>
  <linearGradient
     id="SVGID_00000116199755069157529860000000133929597201375161_"
     gradientTransform="matrix(1.8385487,0,0,-1.8385487,-81.75882,916.18048)"
     gradientUnits="userSpaceOnUse"
     x1="108.854"
     x2="160.852"
     xlink:href="#lg1"
     y1="466.431"
     y2="414.434" />
  <linearGradient
     id="SVGID_00000068638858639064886770000014693023525395840908_"
     gradientTransform="matrix(-1.8273555,0,0,1.8273555,1168.9572,278.51895)"
     gradientUnits="userSpaceOnUse"
     x1="351.148"
     x2="403.146"
     xlink:href="#lg1"
     y1="97.566"
     y2="45.569" />
  <linearGradient
     id="SVGID_00000021103937826511975210000004981733562566369711_"
     gradientTransform="matrix(-1.8273555,0,0,1.8273555,1176.7888,-47.664011)"
     gradientUnits="userSpaceOnUse"
     x1="359.58"
     x2="393.21"
     xlink:href="#lg1"
     y1="176.51"
     y2="142.87" />
  <linearGradient
     id="SVGID_00000050628179841623708800000003405996029556717971_"
     gradientTransform="matrix(1,0,0,-1,0,512)"
     gradientUnits="userSpaceOnUse"
     x1="219.745"
     x2="292.245"
     xlink:href="#lg1"
     y1="292.255"
     y2="219.745" />
  <linearGradient
     id="SVGID_00000167360423823850665620000000070848278094625467_"
     gradientTransform="matrix(1.8385487,0,0,-1.8385487,-89.557,916.18048)"
     gradientUnits="userSpaceOnUse"
     x1="118.78"
     x2="152.41"
     xlink:href="#lg1"
     y1="369.13"
     y2="335.49" />
  <g
     id="Icon"
     transform="translate(-68.2)">
    <g
       id="_51">
      <path
         d="m 580.2,68.158 v 375.548 c 0,27.6 -30.53461,68.294 -68.15761,68.294 H 136.35761 C 98.734611,512 68.2,471.306 68.2,443.706 V 68.158 C 68.2,40.558 98.735001,0 136.358,0 H 511.906 C 549.66532,0 580.2,40.558 580.2,68.158 Z"
         fill="url(#SVGID_1_)"
         id="path6"
         style="fill:url(#SVGID_1_);stroke-width:1.16754"
         sodipodi:nodetypes="sssssssss" />
      <path
         d="m 570.2,68.158 v 375.548 c 0,22.1 -27.64777,58.294 -58.22482,58.294 H 136.358 C 105.78095,502 78.2,465.806 78.2,443.706 V 68.158 C 78.2,46.058 105.78095,10 136.358,10 H 511.83682 C 542.55223,10 570.2,46.058 570.2,68.158 Z"
         fill="url(#SVGID_00000145758403927256068890000001778512675609313689_)"
         id="path7"
         style="fill:url(#SVGID_00000145758403927256068890000001778512675609313689_);stroke-width:1.17625"
         sodipodi:nodetypes="sssssssss" />
      <path
         d="m 166.07753,180.57715 c -13.05369,0 -24.45268,-4.22866 -33.82929,-12.68601 -9.92815,-8.64117 -14.89224,-19.48861 -14.89224,-32.35845 0,-15.0761 6.61879,-27.21052 19.67248,-36.219403 -9.37661,-7.721905 -14.15685,-17.65007 -14.15685,-29.416779 0,-11.766712 4.41252,-20.959455 13.23759,-28.865215 C 144.56653,33.677096 154.67854,30 166.07753,30 c 11.39903,0 21.51104,3.677096 29.96835,11.031293 8.82503,7.721904 13.23755,17.466211 13.23755,28.865215 0,11.399001 -4.7802,21.694874 -14.15681,29.416779 13.05369,9.008883 19.67248,20.959453 19.67248,36.219403 0,12.86984 -4.78024,23.53342 -14.52456,32.17459 -9.7443,8.64121 -20.95946,12.86987 -34.19701,12.86987 z m 0,-70.60028 c -7.72188,0 -14.34067,2.39011 -20.40788,6.98648 -6.43493,4.96409 -9.56043,11.21515 -9.56043,18.7532 0,7.53805 3.1255,13.60526 9.56043,18.7532 5.88335,4.59636 12.686,6.80264 20.40788,6.80264 7.72191,0 14.3407,-2.20628 20.40792,-6.80264 6.43489,-4.96409 9.56043,-11.21515 9.56043,-18.7532 0,-7.53805 -3.12554,-13.78911 -9.56043,-18.7532 -5.88336,-4.59637 -12.68601,-6.98648 -20.40792,-6.98648 z m 0,-60.672109 c -6.25104,0 -11.76671,1.83855 -16.36308,5.699502 -5.33178,4.044808 -7.90574,9.008887 -7.90574,14.892245 0,5.883354 2.57396,11.031289 7.90574,14.892241 4.78023,3.6771 10.11204,5.699503 16.36308,5.699503 6.25107,0 11.76671,-1.83855 16.36308,-5.699503 5.33182,-4.044804 7.90577,-9.008887 7.90577,-14.892241 0,-5.883358 -2.57395,-11.031293 -7.90577,-14.892245 -4.59637,-3.860952 -10.11201,-5.699502 -16.36308,-5.699502 z"
         fill="url(#SVGID_00000116199755069157529860000000133929597201375161_)"
         id="path8"
         style="fill:url(#SVGID_00000116199755069157529860000000133929597201375161_);stroke-width:1.83855" />
      <path
         d="m 479.67866,483 c -12.97423,0 -24.30383,-4.20292 -33.80608,-12.60875 -9.86772,-8.58857 -14.80158,-19.36997 -14.80158,-32.16146 0,-14.98431 6.57848,-27.04486 19.55271,-35.9989 -9.31952,-7.67489 -14.07064,-17.54261 -14.07064,-29.23769 0,-11.69507 4.38565,-20.83185 13.15696,-28.68948 8.40583,-7.30942 18.45629,-10.96413 29.78589,-10.96413 11.32961,0 21.38006,3.65471 29.7859,10.96413 8.7713,7.67489 13.15696,17.35988 13.15696,28.68948 0,11.32961 -4.75113,21.5628 -14.07064,29.23769 12.97422,8.95404 19.5527,20.83185 19.5527,35.9989 0,12.79149 -4.75112,23.39015 -14.43611,31.97872 C 504.16522,478.79708 492.83562,483 479.67866,483 Z m 0,-70.17045 c -7.67489,0 -14.43611,2.37556 -20.10091,6.94395 -6.39575,4.93386 -9.50225,11.14687 -9.50225,18.45629 0,7.30942 3.1065,13.52243 9.50225,18.45629 5.84754,4.56839 12.60875,6.76122 20.10091,6.76122 7.49216,0 14.43611,-2.19283 20.10091,-6.76122 6.39574,-4.93386 9.50225,-11.14687 9.50225,-18.45629 0,-7.30942 -3.10651,-13.70516 -9.50225,-18.45629 -5.6648,-4.56839 -12.42602,-6.94395 -20.10091,-6.94395 z m 0,-60.30273 c -6.21301,0 -11.69508,1.82736 -16.26346,5.6648 -5.29934,4.02018 -7.85763,8.95404 -7.85763,14.80158 0,5.84754 2.55829,10.96413 7.85763,14.80158 4.75112,3.65471 10.05045,5.6648 16.26346,5.6648 6.21301,0 11.69507,-1.82735 16.26346,-5.6648 5.29933,-4.02018 7.85763,-8.95404 7.85763,-14.80158 0,-5.84754 -2.5583,-10.96413 -7.85763,-14.80158 -4.56839,-3.83744 -10.05045,-5.6648 -16.26346,-5.6648 z"
         fill="url(#SVGID_00000068638858639064886770000014693023525395840908_)"
         id="path9"
         style="fill:url(#SVGID_00000068638858639064886770000014693023525395840908_);stroke-width:1.82736" />
      <path
         d="m 541.6,244.16464 -52.62784,61.39915 -52.62783,-61.39915 52.62783,-61.39914 z"
         fill="url(#SVGID_00000021103937826511975210000004981733562566369711_)"
         id="path10"
         style="fill:url(#SVGID_00000021103937826511975210000004981733562566369711_);stroke-width:1.82736" />
      <path
         d="M 212.70041,268.45978 159.75019,330.235 106.8,268.45978 159.75019,206.68452 Z"
         fill="url(#SVGID_00000167360423823850665620000000070848278094625467_)"
         id="path12"
         style="fill:url(#SVGID_00000167360423823850665620000000070848278094625467_);stroke-width:1.83855" />
    </g>
  </g>
</svg>
