<?xml version="1.0" encoding="UTF-8" standalone="no"?>
<svg
   id="Layer_2_00000015314013966121000740000004535505475304969136_"
   enable-background="new 0 0 512 512"
   viewBox="0 0 512 512"
   version="1.1"
   sodipodi:docname="9d.svg"
   inkscape:version="1.4.2 (f4327f4, 2025-05-13)"
   xmlns:inkscape="http://www.inkscape.org/namespaces/inkscape"
   xmlns:sodipodi="http://sodipodi.sourceforge.net/DTD/sodipodi-0.dtd"
   xmlns:xlink="http://www.w3.org/1999/xlink"
   xmlns="http://www.w3.org/2000/svg"
   xmlns:svg="http://www.w3.org/2000/svg">
  <defs
     id="defs12" />
  <sodipodi:namedview
     id="namedview12"
     pagecolor="#ffffff"
     bordercolor="#000000"
     borderopacity="0.25"
     inkscape:showpageshadow="2"
     inkscape:pageopacity="0.0"
     inkscape:pagecheckerboard="0"
     inkscape:deskcolor="#d1d1d1"
     inkscape:zoom="1.6699219"
     inkscape:cx="256.29941"
     inkscape:cy="258.39532"
     inkscape:window-width="1920"
     inkscape:window-height="1057"
     inkscape:window-x="-8"
     inkscape:window-y="-8"
     inkscape:window-maximized="1"
     inkscape:current-layer="Layer_2_00000015314013966121000740000004535505475304969136_" />
  <linearGradient
     id="SVGID_1_"
     gradientTransform="matrix(1.3631523,0,0,-1,-24.766986,512)"
     gradientUnits="userSpaceOnUse"
     x1="48.749"
     x2="463.231"
     y1="463.246"
     y2="48.754">
    <stop
       offset="0"
       stop-color="#454545"
       id="stop1" />
    <stop
       offset="1"
       id="stop2" />
  </linearGradient>
  <linearGradient
     id="SVGID_00000086665936769812880270000013397129746041920935_"
     gradientTransform="matrix(1.3835771,0,0,-1,-29.995726,512)"
     gradientUnits="userSpaceOnUse"
     x1="55.818"
     x2="456.162"
     y1="456.172"
     y2="55.828">
    <stop
       offset="0"
       stop-color="#f2f2f2"
       id="stop3" />
    <stop
       offset="1"
       stop-color="#d9d9d9"
       id="stop4" />
  </linearGradient>
  <linearGradient
     id="lg1">
    <stop
       offset="0"
       stop-color="#fe5b42"
       id="stop5" />
    <stop
       offset="1"
       stop-color="#ba0000"
       id="stop6" />
  </linearGradient>
  <linearGradient
     id="SVGID_00000165195648261499011300000001511596603745123991_"
     gradientTransform="matrix(1.8318182,0,0,-1.8318182,-81.101912,913.43546)"
     gradientUnits="userSpaceOnUse"
     x1="108.332"
     x2="159.613"
     xlink:href="#lg1"
     y1="466.529"
     y2="415.248" />
  <linearGradient
     id="SVGID_00000142858480976703409280000012944085721433388421_"
     gradientTransform="matrix(-1.8273555,0,0,1.8273555,1168.9574,277.2398)"
     gradientUnits="userSpaceOnUse"
     x1="352.385"
     x2="403.67"
     xlink:href="#lg1"
     y1="96.749"
     y2="45.474" />
  <linearGradient
     id="SVGID_00000000203898030401841500000011914681925319622331_"
     gradientTransform="matrix(-1.8273555,0,0,1.8273555,1176.7888,-47.664011)"
     gradientUnits="userSpaceOnUse"
     x1="359.58"
     x2="393.21"
     xlink:href="#lg1"
     y1="176.51"
     y2="142.87" />
  <linearGradient
     id="SVGID_00000096026012239299476210000001211180440645553568_"
     gradientTransform="matrix(1,0,0,-1,0,512)"
     gradientUnits="userSpaceOnUse"
     x1="219.745"
     x2="292.245"
     xlink:href="#lg1"
     y1="292.255"
     y2="219.745" />
  <linearGradient
     id="SVGID_00000016772559282160329080000005891148694980710285_"
     gradientTransform="matrix(1.8318182,0,0,-1.8318182,-88.838182,913.43546)"
     gradientUnits="userSpaceOnUse"
     x1="118.78"
     x2="152.41"
     xlink:href="#lg1"
     y1="369.13"
     y2="335.49" />
  <g
     id="Icon"
     transform="translate(-68.2)">
    <g
       id="_52">
      <path
         d="m 580.2,68.158 v 375.548 c 0,27.6 -30.53461,68.294 -68.15761,68.294 H 136.35761 C 98.734611,512 68.2,471.306 68.2,443.706 V 68.158 C 68.2,40.558 98.735001,0 136.358,0 H 511.906 C 549.66532,0 580.2,40.558 580.2,68.158 Z"
         fill="url(#SVGID_1_)"
         id="path6"
         style="fill:url(#SVGID_1_);stroke-width:1.16754"
         sodipodi:nodetypes="sssssssss" />
      <path
         d="m 570.2,68.158 v 375.548 c 0,22.1 -27.64777,58.294 -58.22482,58.294 H 136.358 C 105.78095,502 78.2,465.806 78.2,443.706 V 68.158 C 78.2,46.058 105.78095,10 136.358,10 H 511.83682 C 542.55223,10 570.2,46.058 570.2,68.158 Z"
         fill="url(#SVGID_00000086665936769812880270000013397129746041920935_)"
         id="path7"
         style="fill:url(#SVGID_00000086665936769812880270000013397129746041920935_);stroke-width:1.17625"
         sodipodi:nodetypes="sssssssss" />
      <path
         d="m 193.12127,125.93682 c -8.24318,6.59454 -17.58545,9.89182 -27.84364,9.89182 -13.92181,0 -25.46227,-5.49546 -34.62136,-16.30319 C 121.68036,108.90091 117.284,96.627727 117.284,82.705909 c 0,-13.921818 4.39636,-26.378182 13.37227,-36.819545 C 139.99854,34.895455 151.539,29.4 165.27763,29.4 c 17.03591,0 30.04182,8.792727 38.46819,26.561364 6.59454,13.738636 9.89181,30.225 9.89181,49.459086 0,20.15 -3.29727,37.00273 -9.70863,50.19182 -8.42637,17.58546 -21.61546,26.195 -39.75046,26.195 -18.135,0 -31.50727,-8.97591 -41.94863,-27.11091 l 16.48636,-9.70863 c 6.59455,11.54045 15.02091,17.40227 25.27909,17.40227 15.57046,0 25.27909,-12.27318 29.12591,-36.45318 z M 165.27763,48.634091 c -8.42636,0 -15.57045,3.663636 -21.24909,10.807727 -5.31227,6.594546 -7.87682,14.288182 -7.87682,23.080909 0,8.792728 2.74773,16.303182 7.87682,23.080913 5.67864,7.32727 12.63955,10.80772 21.24909,10.80772 7.14409,0 13.37228,-2.74772 18.68455,-8.24318 4.76273,-4.94591 7.87682,-10.990907 9.70864,-18.501362 -3.29728,-27.294091 -12.82273,-41.032727 -28.39319,-41.032727 z"
         fill="url(#SVGID_00000165195648261499011300000001511596603745123991_)"
         id="path8"
         style="fill:url(#SVGID_00000165195648261499011300000001511596603745123991_);stroke-width:1.83182" />
      <path
         d="m 506.90651,427.26566 c -8.22309,6.57848 -17.35987,9.86772 -27.7758,9.86772 -13.8879,0 -25.40024,-5.48207 -34.53702,-16.26347 -8.95404,-10.59866 -13.33969,-22.84194 -13.33969,-36.72984 0,-13.8879 4.38565,-26.31392 13.33969,-36.72984 9.31952,-10.96414 20.83186,-16.4462 34.53702,-16.4462 17.17714,0 29.96863,8.7713 38.37447,26.49665 6.57848,13.70517 9.86772,30.15137 9.86772,49.3386 0,20.10091 -3.28924,36.72984 -9.68499,50.06954 C 509.28208,474.22869 495.94238,483 478.0343,483 c -17.90808,0 -31.43052,-8.95404 -41.84644,-27.04486 l 16.4462,-9.68498 c 6.57848,11.51233 14.98431,17.35987 25.2175,17.35987 15.53252,0 25.21751,-12.24328 29.05495,-36.36437 z m -27.7758,-77.1144 c -8.40583,0 -15.53252,3.65471 -21.19732,10.7814 -5.29933,6.57848 -7.85763,14.25337 -7.85763,23.02467 0,8.77131 2.74103,16.26347 7.85763,23.02468 5.6648,7.30942 12.60875,10.7814 21.19732,10.7814 7.12669,0 13.3397,-2.74103 18.63903,-8.2231 4.75112,-4.93386 7.85763,-10.96413 9.68498,-18.45629 -3.28924,-27.2276 -12.79149,-40.93276 -28.32401,-40.93276 z"
         fill="url(#SVGID_00000142858480976703409280000012944085721433388421_)"
         id="path9"
         style="fill:url(#SVGID_00000142858480976703409280000012944085721433388421_);stroke-width:1.82736" />
      <path
         d="m 541.6,244.16464 -52.62784,61.39915 -52.62783,-61.39915 52.62783,-61.39914 z"
         fill="url(#SVGID_00000000203898030401841500000011914681925319622331_)"
         id="path10"
         style="fill:url(#SVGID_00000000203898030401841500000011914681925319622331_);stroke-width:1.82736" />
      <path
         d="M 212.31273,268.08591 159.55636,329.635 106.8,268.08591 159.55636,206.53682 Z"
         fill="url(#SVGID_00000016772559282160329080000005891148694980710285_)"
         id="path12"
         style="fill:url(#SVGID_00000016772559282160329080000005891148694980710285_);stroke-width:1.83182" />
    </g>
  </g>
</svg>
