<?xml version="1.0" encoding="UTF-8" standalone="no"?>
<svg
   id="Layer_2_00000044876542681997750770000002089746939515088048_"
   enable-background="new 0 0 512 512"
   viewBox="0 0 512 512"
   version="1.1"
   sodipodi:docname="Kd.svg"
   inkscape:version="1.4.2 (f4327f4, 2025-05-13)"
   xmlns:inkscape="http://www.inkscape.org/namespaces/inkscape"
   xmlns:sodipodi="http://sodipodi.sourceforge.net/DTD/sodipodi-0.dtd"
   xmlns:xlink="http://www.w3.org/1999/xlink"
   xmlns="http://www.w3.org/2000/svg"
   xmlns:svg="http://www.w3.org/2000/svg">
  <defs
     id="defs12" />
  <sodipodi:namedview
     id="namedview12"
     pagecolor="#ffffff"
     bordercolor="#000000"
     borderopacity="0.25"
     inkscape:showpageshadow="2"
     inkscape:pageopacity="0.0"
     inkscape:pagecheckerboard="0"
     inkscape:deskcolor="#d1d1d1"
     inkscape:zoom="1.6699219"
     inkscape:cx="256.29941"
     inkscape:cy="257.79649"
     inkscape:window-width="1920"
     inkscape:window-height="1057"
     inkscape:window-x="-8"
     inkscape:window-y="-8"
     inkscape:window-maximized="1"
     inkscape:current-layer="Layer_2_00000044876542681997750770000002089746939515088048_" />
  <linearGradient
     id="SVGID_1_"
     gradientTransform="matrix(1.3631523,0,0,-1,-24.766986,512)"
     gradientUnits="userSpaceOnUse"
     x1="48.749"
     x2="463.231"
     y1="463.246"
     y2="48.754">
    <stop
       offset="0"
       stop-color="#454545"
       id="stop1" />
    <stop
       offset="1"
       id="stop2" />
  </linearGradient>
  <linearGradient
     id="SVGID_00000138543751365256295330000016716329588093116838_"
     gradientTransform="matrix(1.3835771,0,0,-1,-29.995726,512)"
     gradientUnits="userSpaceOnUse"
     x1="55.818"
     x2="456.162"
     y1="456.172"
     y2="55.828">
    <stop
       offset="0"
       stop-color="#f2f2f2"
       id="stop3" />
    <stop
       offset="1"
       stop-color="#d9d9d9"
       id="stop4" />
  </linearGradient>
  <linearGradient
     id="lg1">
    <stop
       offset="0"
       stop-color="#fe5b42"
       id="stop5" />
    <stop
       offset="1"
       stop-color="#ba0000"
       id="stop6" />
  </linearGradient>
  <linearGradient
     id="SVGID_00000060721123495492401240000012879432188568242832_"
     gradientTransform="matrix(1.8453288,0,0,-1.8453288,-82.420049,918.94128)"
     gradientUnits="userSpaceOnUse"
     x1="101.342"
     x2="168.128"
     xlink:href="#lg1"
     y1="474.478"
     y2="407.682" />
  <linearGradient
     id="SVGID_00000101084272562137550020000016059132536079669675_"
     gradientTransform="matrix(-1.8273555,0,0,1.8273555,1168.9569,279.79809)"
     gradientUnits="userSpaceOnUse"
     x1="343.862"
     x2="410.648"
     xlink:href="#lg1"
     y1="104.318"
     y2="37.522" />
  <linearGradient
     id="SVGID_00000129172913623835487510000001455751646642916773_"
     gradientTransform="matrix(-1.8273555,0,0,1.8273555,1176.7888,-47.664011)"
     gradientUnits="userSpaceOnUse"
     x1="359.58"
     x2="393.21"
     xlink:href="#lg1"
     y1="176.51"
     y2="142.87" />
  <linearGradient
     id="SVGID_00000145036426978524118890000008150832805658822530_"
     gradientTransform="matrix(1,0,0,-1,0,512)"
     gradientUnits="userSpaceOnUse"
     x1="219.745"
     x2="292.245"
     xlink:href="#lg1"
     y1="292.255"
     y2="219.745" />
  <linearGradient
     id="SVGID_00000090254827306786190210000017175230030055120264_"
     gradientTransform="matrix(1.8453288,0,0,-1.8453288,-90.281119,918.94128)"
     gradientUnits="userSpaceOnUse"
     x1="118.78"
     x2="152.41"
     xlink:href="#lg1"
     y1="369.13"
     y2="335.49" />
  <g
     id="Icon"
     transform="translate(-68.2)">
    <g
       id="_56">
      <path
         d="m 580.2,68.158 v 375.548 c 0,27.6 -30.53461,68.294 -68.15761,68.294 H 136.35761 C 98.734611,512 68.2,471.306 68.2,443.706 V 68.158 C 68.2,40.558 98.735001,0 136.358,0 H 511.906 C 549.66532,0 580.2,40.558 580.2,68.158 Z"
         fill="url(#SVGID_1_)"
         id="path6"
         style="fill:url(#SVGID_1_);stroke-width:1.16754"
         sodipodi:nodetypes="sssssssss" />
      <path
         d="m 570.2,68.158 v 375.548 c 0,22.1 -27.64777,58.294 -58.22482,58.294 H 136.358 C 105.78095,502 78.2,465.806 78.2,443.706 V 68.158 C 78.2,46.058 105.78095,10 136.358,10 H 511.83682 C 542.55223,10 570.2,46.058 570.2,68.158 Z"
         fill="url(#SVGID_00000138543751365256295330000016716329588093116838_)"
         id="path7"
         style="fill:url(#SVGID_00000138543751365256295330000016716329588093116838_);stroke-width:1.17625"
         sodipodi:nodetypes="sssssssss" />
      <path
         d="M 117.42906,163.09461 H 131.0845 V 46.838894 H 117.42906 V 30.6 h 41.33537 v 16.238894 h -11.44104 v 56.651596 l 36.35298,-56.651596 h -14.0245 V 30.6 h 45.39509 v 16.238894 h -13.10184 l -29.52526,45.948687 30.07886,70.491559 h 12.36371 v 16.2389 h -45.39509 v -16.2389 h 14.57809 l -22.88207,-53.33 -14.20904,22.14395 v 31.18605 h 11.44104 v 16.2389 H 117.06 Z"
         fill="url(#SVGID_00000060721123495492401240000012879432188568242832_)"
         id="path8"
         style="fill:url(#SVGID_00000060721123495492401240000012879432188568242832_);stroke-width:1.84533" />
      <path
         d="M 431.25347,466.91927 H 444.7759 V 351.79588 h -13.52243 v -16.08073 h 40.93276 v 16.08073 h -11.3296 v 55.91708 l 35.9989,-55.91708 h -13.8879 v -16.08073 h 44.95294 v 16.08073 h -12.97422 l -29.23769,45.50115 29.7859,69.62224 h 12.24328 V 483 H 482.78489 V 466.91927 H 497.221 l -22.65921,-52.81057 -14.07063,21.92826 v 30.88231 h 11.3296 V 483 H 430.888 Z"
         fill="url(#SVGID_00000101084272562137550020000016059132536079669675_)"
         id="path9"
         style="fill:url(#SVGID_00000101084272562137550020000016059132536079669675_);stroke-width:1.82736" />
      <path
         d="m 541.6,244.16464 -52.62784,61.39915 -52.62783,-61.39915 52.62783,-61.39914 z"
         fill="url(#SVGID_00000129172913623835487510000001455751646642916773_)"
         id="path10"
         style="fill:url(#SVGID_00000129172913623835487510000001455751646642916773_);stroke-width:1.82736" />
      <path
         d="M 213.09094,268.83195 159.94547,330.835 106.8,268.83195 159.94547,206.8289 Z"
         fill="url(#SVGID_00000090254827306786190210000017175230030055120264_)"
         id="path12"
         style="fill:url(#SVGID_00000090254827306786190210000017175230030055120264_);stroke-width:1.84533" />
    </g>
  </g>
</svg>
