<?xml version="1.0" encoding="UTF-8" standalone="no"?>
<svg
   id="Layer_2_00000056387958415418967510000010882161400457680293_"
   enable-background="new 0 0 512 512"
   viewBox="0 0 512 512"
   version="1.1"
   sodipodi:docname="Qd.svg"
   inkscape:version="1.4.2 (f4327f4, 2025-05-13)"
   xmlns:inkscape="http://www.inkscape.org/namespaces/inkscape"
   xmlns:sodipodi="http://sodipodi.sourceforge.net/DTD/sodipodi-0.dtd"
   xmlns:xlink="http://www.w3.org/1999/xlink"
   xmlns="http://www.w3.org/2000/svg"
   xmlns:svg="http://www.w3.org/2000/svg">
  <defs
     id="defs12" />
  <sodipodi:namedview
     id="namedview12"
     pagecolor="#ffffff"
     bordercolor="#000000"
     borderopacity="0.25"
     inkscape:showpageshadow="2"
     inkscape:pageopacity="0.0"
     inkscape:pagecheckerboard="0"
     inkscape:deskcolor="#d1d1d1"
     inkscape:zoom="1.6699219"
     inkscape:cx="256.29941"
     inkscape:cy="257.79649"
     inkscape:window-width="1920"
     inkscape:window-height="1057"
     inkscape:window-x="-8"
     inkscape:window-y="-8"
     inkscape:window-maximized="1"
     inkscape:current-layer="Layer_2_00000056387958415418967510000010882161400457680293_" />
  <linearGradient
     id="SVGID_1_"
     gradientTransform="matrix(1.3631523,0,0,-1,-24.766986,512)"
     gradientUnits="userSpaceOnUse"
     x1="48.749"
     x2="463.231"
     y1="463.246"
     y2="48.754">
    <stop
       offset="0"
       stop-color="#454545"
       id="stop1" />
    <stop
       offset="1"
       id="stop2" />
  </linearGradient>
  <linearGradient
     id="SVGID_00000106828663073155703680000016107700299693308320_"
     gradientTransform="matrix(1.3835771,0,0,-1,-29.995726,512)"
     gradientUnits="userSpaceOnUse"
     x1="55.818"
     x2="456.162"
     y1="456.172"
     y2="55.828">
    <stop
       offset="0"
       stop-color="#f2f2f2"
       id="stop3" />
    <stop
       offset="1"
       stop-color="#d9d9d9"
       id="stop4" />
  </linearGradient>
  <linearGradient
     id="lg1">
    <stop
       offset="0"
       stop-color="#fe5b42"
       id="stop5" />
    <stop
       offset="1"
       stop-color="#ba0000"
       id="stop6" />
  </linearGradient>
  <linearGradient
     id="SVGID_00000083081022799666766450000008680679355658982314_"
     gradientTransform="matrix(1.8307012,0,0,-1.8307012,-80.99294,912.97947)"
     gradientUnits="userSpaceOnUse"
     x1="108.921"
     x2="167.468"
     xlink:href="#lg1"
     y1="466.13"
     y2="407.583" />
  <linearGradient
     id="SVGID_00000036964117191484877700000015851392596376456320_"
     gradientTransform="matrix(-1.8273555,0,0,1.8273555,1168.9574,277.2398)"
     gradientUnits="userSpaceOnUse"
     x1="344.522"
     x2="403.069"
     xlink:href="#lg1"
     y1="104.417"
     y2="45.87" />
  <linearGradient
     id="SVGID_00000093171662863100768670000004619905284980276137_"
     gradientTransform="matrix(-1.8273555,0,0,1.8273555,1176.7888,-47.664011)"
     gradientUnits="userSpaceOnUse"
     x1="359.58"
     x2="393.21"
     xlink:href="#lg1"
     y1="176.51"
     y2="142.87" />
  <linearGradient
     id="SVGID_00000024721768370892604120000002256540871086891169_"
     gradientTransform="matrix(1,0,0,-1,0,512)"
     gradientUnits="userSpaceOnUse"
     x1="219.745"
     x2="292.245"
     xlink:href="#lg1"
     y1="292.255"
     y2="219.745" />
  <linearGradient
     id="SVGID_00000121264261128878942160000013234299917967764112_"
     gradientTransform="matrix(1.8307012,0,0,-1.8307012,-88.71889,912.97947)"
     gradientUnits="userSpaceOnUse"
     x1="118.78"
     x2="152.41"
     xlink:href="#lg1"
     y1="369.13"
     y2="335.49" />
  <g
     id="Icon"
     transform="translate(-68.2)">
    <g
       id="_55">
      <path
         d="m 580.2,68.158 v 375.548 c 0,27.6 -30.53461,68.294 -68.15761,68.294 H 136.35761 C 98.734611,512 68.2,471.306 68.2,443.706 V 68.158 C 68.2,40.558 98.735001,0 136.358,0 H 511.906 C 549.66532,0 580.2,40.558 580.2,68.158 Z"
         fill="url(#SVGID_1_)"
         id="path6"
         style="fill:url(#SVGID_1_);stroke-width:1.16754"
         sodipodi:nodetypes="sssssssss" />
      <path
         d="m 570.2,68.158 v 375.548 c 0,22.1 -27.64777,58.294 -58.22482,58.294 H 136.358 C 105.78095,502 78.2,465.806 78.2,443.706 V 68.158 C 78.2,46.058 105.78095,10 136.358,10 H 511.83682 C 542.55223,10 570.2,46.058 570.2,68.158 Z"
         fill="url(#SVGID_00000106828663073155703680000016107700299693308320_)"
         id="path7"
         style="fill:url(#SVGID_00000106828663073155703680000016107700299693308320_);stroke-width:1.17625"
         sodipodi:nodetypes="sssssssss" />
      <path
         d="m 213.74996,178.68522 c -6.95667,0 -11.89956,-0.36614 -15.01175,-0.91535 -3.47834,-0.73228 -6.95667,-2.37991 -10.25193,-4.94289 -7.32281,6.04131 -15.56096,8.97043 -24.34833,8.97043 -9.51964,0 -17.94087,-3.47833 -25.44674,-10.25193 -7.87202,-6.95666 -11.71649,-15.19482 -11.71649,-24.53139 V 134.01611 H 117.272 v -16.84245 c 0.36614,-0.18307 3.47833,-0.36614 9.70272,-0.73228 V 64.266393 c 0,-9.519646 4.02754,-17.757802 11.71649,-24.714466 C 146.19708,32.778332 154.61831,29.3 164.13795,29.3 c 9.51965,0 18.12395,3.478332 25.81289,10.434997 7.68895,6.956665 11.53342,15.19482 11.53342,24.714466 v 82.930767 c 0,4.02754 -0.73228,7.87201 -2.37991,11.71649 1.64763,1.09842 3.11219,1.8307 4.57675,2.19684 h 10.06886 z m -68.83437,-62.24384 c 7.13974,0.73228 14.27947,4.02754 21.4192,9.88578 4.39369,3.47834 10.06886,9.15351 17.02553,16.84246 V 64.083323 c 0,-4.210613 -2.01378,-8.055085 -6.04132,-11.350347 -4.02754,-3.295263 -8.42122,-5.125964 -13.18105,-5.125964 -4.75982,0 -9.1535,1.647631 -13.18105,5.125964 -4.02754,3.478332 -6.22438,7.139734 -6.22438,11.350347 z m 29.84043,43.57069 -22.70069,-22.33456 c -1.83071,-1.8307 -4.21062,-3.11219 -7.13974,-3.47833 v 12.81491 c 0,4.21061 2.01377,7.87201 6.22438,11.35035 4.02755,3.47833 8.42123,5.12596 13.18105,5.12596 3.66141,-0.18307 7.13974,-1.28149 10.435,-3.47833 z"
         fill="url(#SVGID_00000083081022799666766450000008680679355658982314_)"
         id="path8"
         style="fill:url(#SVGID_00000083081022799666766450000008680679355658982314_);stroke-width:1.8307" />
      <path
         d="m 527.55563,479.8935 c -6.94395,0 -11.87781,-0.36548 -14.98431,-0.91368 -3.47198,-0.91368 -6.94395,-2.5583 -10.23319,-4.93386 C 495.0287,480.07623 486.8056,483 478.0343,483 c -9.50225,0 -17.90808,-3.47198 -25.40024,-10.23319 -7.85763,-6.94395 -11.69508,-15.16705 -11.69508,-24.6693 V 435.12329 H 431.254 v -16.81167 c 0.36547,-0.18274 3.65471,-0.36547 9.68498,-0.73095 v -52.07963 c 0,-9.50224 3.83745,-17.72534 11.69508,-24.66929 7.49216,-6.76122 15.89799,-10.23319 25.40024,-10.23319 9.50225,0 18.09082,3.47197 25.76571,10.41592 7.67489,6.94395 11.51234,15.16705 11.51234,24.6693 v 82.7792 c 0,4.02018 -0.91368,7.85763 -2.5583,11.69508 1.64462,1.09641 3.10651,1.82735 4.56839,2.01009 h 10.23319 z m -68.70856,-62.13009 c 7.12668,0.91368 14.25337,4.02018 21.38006,9.86772 4.38565,3.47198 10.05045,9.13678 16.9944,16.81167 v -78.75902 c 0,-4.20292 -2.01009,-8.04036 -6.03027,-11.3296 -4.02018,-3.47198 -8.40584,-5.1166 -13.15696,-5.1166 -4.75113,0 -9.13678,1.64462 -13.15696,5.1166 -4.02018,3.47197 -6.21301,7.12668 -6.21301,11.3296 z m 29.78589,43.49106 -22.65921,-22.29374 c -1.82735,-1.82735 -4.20291,-3.1065 -7.12668,-3.65471 v 12.79149 c 0,4.20292 2.01009,8.04036 6.213,11.3296 4.02019,3.47198 8.40584,5.1166 13.15696,5.1166 3.65472,0 7.12669,-1.09641 10.41593,-3.28924 z"
         fill="url(#SVGID_00000036964117191484877700000015851392596376456320_)"
         id="path9"
         style="fill:url(#SVGID_00000036964117191484877700000015851392596376456320_);stroke-width:1.82736" />
      <path
         d="m 541.6,244.16464 -52.62784,61.39915 -52.62783,-61.39915 52.62783,-61.39914 z"
         fill="url(#SVGID_00000093171662863100768670000004619905284980276137_)"
         id="path10"
         style="fill:url(#SVGID_00000093171662863100768670000004619905284980276137_);stroke-width:1.82736" />
      <path
         d="M 212.24839,268.02344 159.5242,329.535 106.8,268.02344 159.5242,206.51188 Z"
         fill="url(#SVGID_00000121264261128878942160000013234299917967764112_)"
         id="path12"
         style="fill:url(#SVGID_00000121264261128878942160000013234299917967764112_);stroke-width:1.8307" />
    </g>
  </g>
</svg>
