<?xml version="1.0" encoding="UTF-8" standalone="no"?>
<svg
   id="Layer_2_00000154416291089080511140000015791164208081694090_"
   enable-background="new 0 0 512 512"
   viewBox="0 0 512 512"
   version="1.1"
   sodipodi:docname="Td.svg"
   inkscape:version="1.4.2 (f4327f4, 2025-05-13)"
   xmlns:inkscape="http://www.inkscape.org/namespaces/inkscape"
   xmlns:sodipodi="http://sodipodi.sourceforge.net/DTD/sodipodi-0.dtd"
   xmlns:xlink="http://www.w3.org/1999/xlink"
   xmlns="http://www.w3.org/2000/svg"
   xmlns:svg="http://www.w3.org/2000/svg">
  <defs
     id="defs12" />
  <sodipodi:namedview
     id="namedview12"
     pagecolor="#ffffff"
     bordercolor="#000000"
     borderopacity="0.25"
     inkscape:showpageshadow="2"
     inkscape:pageopacity="0.0"
     inkscape:pagecheckerboard="0"
     inkscape:deskcolor="#d1d1d1"
     inkscape:zoom="1.6699219"
     inkscape:cx="255.70058"
     inkscape:cy="259.59298"
     inkscape:window-width="1920"
     inkscape:window-height="1057"
     inkscape:window-x="-8"
     inkscape:window-y="-8"
     inkscape:window-maximized="1"
     inkscape:current-layer="Layer_2_00000154416291089080511140000015791164208081694090_" />
  <linearGradient
     id="SVGID_1_"
     gradientTransform="matrix(1.3631523,0,0,-1,-24.766986,512)"
     gradientUnits="userSpaceOnUse"
     x1="48.749"
     x2="463.231"
     y1="463.246"
     y2="48.754">
    <stop
       offset="0"
       stop-color="#454545"
       id="stop1" />
    <stop
       offset="1"
       id="stop2" />
  </linearGradient>
  <linearGradient
     id="SVGID_00000068678227925682865400000006911651359295958409_"
     gradientTransform="matrix(1.3835771,0,0,-1,-29.995726,512)"
     gradientUnits="userSpaceOnUse"
     x1="55.818"
     x2="456.162"
     y1="456.172"
     y2="55.828">
    <stop
       offset="0"
       stop-color="#f2f2f2"
       id="stop3" />
    <stop
       offset="1"
       stop-color="#d9d9d9"
       id="stop4" />
  </linearGradient>
  <linearGradient
     id="lg1">
    <stop
       offset="0"
       stop-color="#fe5b42"
       id="stop5" />
    <stop
       offset="1"
       stop-color="#ba0000"
       id="stop6" />
  </linearGradient>
  <linearGradient
     id="SVGID_00000065043591198070769860000004475896717312248466_"
     gradientTransform="matrix(1.8295856,0,0,-1.8295856,-80.884124,912.52393)"
     gradientUnits="userSpaceOnUse"
     x1="109.486"
     x2="192.408"
     xlink:href="#lg1"
     y1="482.621"
     y2="399.699" />
  <linearGradient
     id="SVGID_00000114074263936526089580000000306112448917591176_"
     gradientTransform="matrix(-1.8273555,0,0,1.8273555,1086.8634,277.2398)"
     gradientUnits="userSpaceOnUse"
     x1="319.595"
     x2="402.512"
     xlink:href="#lg1"
     y1="112.303"
     y2="29.377" />
  <linearGradient
     id="SVGID_00000021089309401690783840000014094166321902377388_"
     gradientTransform="matrix(-1.8273555,0,0,1.8273555,1176.7888,-47.664011)"
     gradientUnits="userSpaceOnUse"
     x1="359.58"
     x2="393.21"
     xlink:href="#lg1"
     y1="176.51"
     y2="142.87" />
  <linearGradient
     id="SVGID_00000024694690843593239580000011740896619784551335_"
     gradientTransform="matrix(1 0 0 -1 0 512)"
     gradientUnits="userSpaceOnUse"
     x1="219.745"
     x2="292.245"
     xlink:href="#lg1"
     y1="292.255"
     y2="219.745" />
  <linearGradient
     id="SVGID_00000175318263726051685280000015779228139025976455_"
     gradientTransform="matrix(1.8295856,0,0,-1.8295856,-88.599744,912.52393)"
     gradientUnits="userSpaceOnUse"
     x1="118.78"
     x2="152.41"
     xlink:href="#lg1"
     y1="369.13"
     y2="335.49" />
  <g
     id="Icon"
     transform="translate(-68.2)">
    <g
       id="_53">
      <path
         d="m 580.2,68.158 v 375.548 c 0,27.6 -30.53461,68.294 -68.15761,68.294 H 136.35761 C 98.734611,512 68.2,471.306 68.2,443.706 V 68.158 C 68.2,40.558 98.735001,0 136.358,0 H 511.906 C 549.66532,0 580.2,40.558 580.2,68.158 Z"
         fill="url(#SVGID_1_)"
         id="path6"
         style="fill:url(#SVGID_1_);stroke-width:1.16754"
         sodipodi:nodetypes="sssssssss" />
      <path
         d="m 570.2,68.158 v 375.548 c 0,22.1 -27.64799,58.294 -58.22504,58.294 H 136.358 C 105.78095,502 78.2,465.806 78.2,443.706 V 68.158 C 78.2,46.058 105.78095,10 136.358,10 H 511.83704 C 542.55245,10 570.2,46.058 570.2,68.158 Z"
         fill="url(#SVGID_00000068678227925682865400000006911651359295958409_)"
         id="path7"
         style="fill:url(#SVGID_00000068678227925682865400000006911651359295958409_);stroke-width:1.17625"
         sodipodi:nodetypes="sssssssss" />
      <path
         d="M 198.85952,179.04306 H 117.26 v -20.67432 h 31.10295 V 52.435737 H 117.26 V 31.76142 h 51.2284 v 126.60732 h 30.37112 z m 4.02509,-47.75218 V 79.147687 c 0,-13.538933 4.75692,-25.248281 14.0878,-35.128043 C 226.3033,34.139881 237.82969,29.2 251.18567,29.2 c 13.35597,0 24.88236,4.939881 34.21325,14.819644 9.33088,9.879762 14.08781,21.58911 14.08781,35.128043 v 52.143193 c 0,13.53893 -4.75693,25.43124 -14.08781,35.49396 -9.33089,10.06272 -20.85728,15.0026 -34.21325,15.0026 -13.35598,0 -24.88237,-4.93988 -34.21326,-15.0026 -9.33088,-10.06272 -14.0878,-21.77207 -14.0878,-35.49396 z m 20.49135,-52.143193 v 52.143193 c 0,8.05017 2.74438,15.0026 8.23314,20.85727 5.48876,5.85468 12.07526,8.78201 19.75952,8.78201 7.68426,0 14.27077,-2.92733 19.75953,-8.96496 5.48876,-6.03764 8.23313,-12.99006 8.23313,-20.67432 V 79.147687 c 0,-7.867218 -2.74437,-14.636685 -8.23313,-20.491359 -5.48876,-5.854674 -12.07527,-8.599052 -19.75953,-8.599052 -7.68426,0 -14.27076,2.927337 -19.75952,8.599052 -5.67172,5.854674 -8.23314,12.624141 -8.23314,20.491359 z"
         fill="url(#SVGID_00000065043591198070769860000004475896717312248466_)"
         id="path8"
         style="fill:url(#SVGID_00000065043591198070769860000004475896717312248466_);stroke-width:1.82959" />
      <path
         d="M 430.66006,480.25897 H 349.16 v -20.64912 h 31.06505 V 353.80597 H 349.16 v -20.64912 h 51.16596 v 126.453 h 30.3341 z m 4.02018,-47.69398 v -52.07963 c 0,-13.52243 4.75112,-25.21751 14.07064,-35.08523 9.31951,-9.86772 20.83185,-14.80157 34.17154,-14.80157 13.3397,0 24.85204,4.93385 34.17155,14.80157 9.31951,9.86772 14.07064,21.5628 14.07064,35.08523 v 52.07963 c 0,13.52243 -4.75113,25.40024 -14.07064,35.4507 C 507.77446,478.06614 496.26212,483 482.92242,483 c -13.52243,0 -24.85203,-4.93386 -34.17154,-14.98431 -9.31952,-10.05046 -14.07064,-21.74553 -14.07064,-35.4507 z m 20.46638,-52.07963 v 52.07963 c 0,8.04036 2.74103,14.80158 8.2231,20.83185 5.48207,5.84754 12.06055,8.95404 19.73544,8.95404 7.67489,0 14.25337,-2.92377 19.73544,-8.95404 5.48206,-6.03027 8.2231,-12.79149 8.2231,-20.64911 v -52.07964 c 0,-7.85762 -2.74104,-14.61884 -8.2231,-20.28364 -5.48207,-5.6648 -12.06055,-8.58857 -19.73544,-8.58857 -7.67489,0 -14.25337,2.92377 -19.73544,8.58857 -5.6648,5.48207 -8.2231,12.24328 -8.2231,20.10091 z"
         fill="url(#SVGID_00000114074263936526089580000000306112448917591176_)"
         id="path9"
         style="fill:url(#SVGID_00000114074263936526089580000000306112448917591176_);stroke-width:1.82736" />
      <path
         d="m 541.6,244.16464 -52.62784,61.39915 -52.62783,-61.39915 52.62783,-61.39914 z"
         fill="url(#SVGID_00000021089309401690783840000014094166321902377388_)"
         id="path10"
         style="fill:url(#SVGID_00000021089309401690783840000014094166321902377388_);stroke-width:1.82736" />
      <path
         d="M 212.18413,267.96092 159.49207,329.435 106.8,267.96092 159.49207,206.48685 Z"
         fill="url(#SVGID_00000175318263726051685280000015779228139025976455_)"
         id="path12"
         style="fill:url(#SVGID_00000175318263726051685280000015779228139025976455_);stroke-width:1.82959" />
    </g>
  </g>
</svg>
