<svg id="Layer_2_00000031190433043291956670000004740309322585105541_" enable-background="new 0 0 512 512" viewBox="68 0 376 512" xmlns="http://www.w3.org/2000/svg" xmlns:xlink="http://www.w3.org/1999/xlink"><linearGradient id="SVGID_1_" gradientTransform="matrix(1 0 0 -1 0 512)" gradientUnits="userSpaceOnUse" x1="48.749" x2="463.231" y1="463.246" y2="48.754"><stop offset="0" stop-color="#454545"/><stop offset="1"/></linearGradient><linearGradient id="SVGID_00000151541432943788332730000012600907586578928014_" gradientTransform="matrix(1 0 0 -1 0 512)" gradientUnits="userSpaceOnUse" x1="55.818" x2="456.162" y1="456.172" y2="55.828"><stop offset="0" stop-color="#f2f2f2"/><stop offset="1" stop-color="#d9d9d9"/></linearGradient><linearGradient id="lg1"><stop offset="0" stop-color="#fe5b42"/><stop offset="1" stop-color="#ba0000"/></linearGradient><linearGradient id="SVGID_00000088832174770631763150000012591090869995036293_" gradientTransform="matrix(1 0 0 -1 0 512)" gradientUnits="userSpaceOnUse" x1="103.463" x2="163.986" xlink:href="#lg1" y1="465.023" y2="404.501"/><linearGradient id="SVGID_00000130612583481161752580000003426788427877154972_" gradientTransform="matrix(1 0 0 -1 0 512)" gradientUnits="userSpaceOnUse" x1="348.014" x2="408.537" xlink:href="#lg1" y1="107.499" y2="46.977"/><linearGradient id="SVGID_00000147184453047842632080000012389302524209782704_" gradientTransform="matrix(1 0 0 -1 0 512)" gradientUnits="userSpaceOnUse" x1="112.253" x2="158.938" xlink:href="#lg1" y1="388.698" y2="342.013"/><linearGradient id="SVGID_00000050621660575353466440000008326383872684377757_" gradientTransform="matrix(1 0 0 -1 0 512)" gradientUnits="userSpaceOnUse" x1="353.062" x2="399.747" xlink:href="#lg1" y1="169.988" y2="123.303"/><linearGradient id="SVGID_00000164513340627556612470000000087011363954900108_" gradientTransform="matrix(1 0 0 -1 0 512)" gradientUnits="userSpaceOnUse" x1="205.683" x2="306.308" xlink:href="#lg1" y1="334.438" y2="233.813"/><g id="Icon"><g id="_19"><path d="m443.8 50v412c0 27.6-22.4 50-50 50h-275.6c-27.6 0-50-22.4-50-50v-412c0-27.6 22.4-50 50-50h275.5c27.7 0 50.1 22.4 50.1 50z" fill="url(#SVGID_1_)"/><path d="m433.8 50v412c0 22.1-17.9 40-40 40h-275.6c-22.1 0-40-17.9-40-40v-412c0-22.1 17.9-40 40-40h275.5c22.2 0 40.1 17.9 40.1 40z" fill="url(#SVGID_00000151541432943788332730000012600907586578928014_)"/><path d="m149.5 90.9h10.3v20.8h-51.5v-5.3c0-9.7 3.6-18.3 10.7-26 2.8-2.9 9.4-8.2 19.9-15.9 7.1-5.2 10.7-9.6 10.7-13.4 0-3.5-2-6.2-5.9-8.1-3.1-1.5-6.6-2.3-10.6-2.3-9.6 0-14.5 3.2-14.5 9.6 0 1.3.4 2.8 1.1 4.5l-9.6 4c-1.2-3-1.7-5.9-1.7-8.5 0-6.7 2.5-11.8 7.5-15.4 4.5-3.2 10.2-4.8 17.2-4.8s13 1.7 18 5.2c5.8 3.9 8.8 9.2 8.8 15.8 0 6.2-3.1 11.9-9.3 17.3-6.1 4.6-12.1 9.2-18.2 13.8-7.1 5.9-11.4 12.2-12.8 18.8h30z" fill="url(#SVGID_00000088832174770631763150000012591090869995036293_)"/><path d="m362.5 421.1h-10.3v-20.8h51.5v5.3c0 9.7-3.6 18.4-10.7 26-2.8 3-9.4 8.2-19.9 15.9-7.1 5.2-10.7 9.6-10.7 13.4 0 3.5 2 6.1 5.9 8.1 3.1 1.5 6.6 2.3 10.6 2.3 9.6 0 14.5-3.2 14.5-9.6 0-1.4-.4-2.9-1.1-4.5l9.6-4c1.1 3 1.7 5.9 1.7 8.5 0 6.7-2.5 11.8-7.5 15.4-4.5 3.2-10.2 4.8-17.2 4.8s-13-1.7-18-5.2c-5.9-3.9-8.8-9.2-8.8-15.8 0-6.1 3.1-11.9 9.3-17.3 6-4.6 12.1-9.2 18.1-13.8 7.1-5.9 11.4-12.2 12.8-18.8h-30z" fill="url(#SVGID_00000130612583481161752580000003426788427877154972_)"/><path d="m167.7 132.1c-8-8-21.1-8-29.1 0l-3 3-3-3c-8-8-21.1-8-29.1 0-8 8-8 21.1 0 29.1l3 3 29.1 29.1 32.1-32.1c8.1-8 8.1-21.1 0-29.1z" fill="url(#SVGID_00000147184453047842632080000012389302524209782704_)"/><path d="m344.3 379.9c8 8 21.1 8 29.1 0l3-3 3 3c8 8 21.1 8 29.1 0 8-8 8-21.1 0-29.1l-3-3-29.1-29.1-32.1 32.1c-8.1 8-8.1 21.1 0 29.1z" fill="url(#SVGID_00000050621660575353466440000008326383872684377757_)"/><path d="m325.2 196.5c-17.3-17.3-45.4-17.3-62.8 0l-6.4 6.5-6.5-6.5c-17.3-17.3-45.4-17.3-62.8 0-17.3 17.3-17.3 45.4 0 62.8l6.5 6.5 62.8 62.8 69.2-69.2c17.4-17.5 17.4-45.6 0-62.9z" fill="url(#SVGID_00000164513340627556612470000000087011363954900108_)"/></g></g></svg>