<svg id="Layer_2_00000176733173450595175280000011606045421883347101_" enable-background="new 0 0 512 512" viewBox="68 0 376 512" xmlns="http://www.w3.org/2000/svg" xmlns:xlink="http://www.w3.org/1999/xlink"><linearGradient id="SVGID_1_" gradientTransform="matrix(1 0 0 -1 0 512)" gradientUnits="userSpaceOnUse" x1="48.749" x2="463.231" y1="463.246" y2="48.754"><stop offset="0" stop-color="#454545"/><stop offset="1"/></linearGradient><linearGradient id="SVGID_00000153705234203908711090000016627714895618878381_" gradientTransform="matrix(1 0 0 -1 0 512)" gradientUnits="userSpaceOnUse" x1="55.818" x2="456.162" y1="456.172" y2="55.828"><stop offset="0" stop-color="#f2f2f2"/><stop offset="1" stop-color="#d9d9d9"/></linearGradient><linearGradient id="lg1"><stop offset="0" stop-color="#fe5b42"/><stop offset="1" stop-color="#ba0000"/></linearGradient><linearGradient id="SVGID_00000140705962742631301960000001371101613654867129_" gradientTransform="matrix(1 0 0 -1 0 512)" gradientUnits="userSpaceOnUse" x1="105.91" x2="164.875" xlink:href="#lg1" y1="478.355" y2="419.39"/><linearGradient id="SVGID_00000009589442765740182620000002503768019586491799_" gradientTransform="matrix(1 0 0 -1 0 512)" gradientUnits="userSpaceOnUse" x1="347.115" x2="406.08" xlink:href="#lg1" y1="92.61" y2="33.645"/><linearGradient id="SVGID_00000060719954976583729140000017851576134292267407_" gradientTransform="matrix(1 0 0 -1 0 512)" gradientUnits="userSpaceOnUse" x1="112.253" x2="158.938" xlink:href="#lg1" y1="388.698" y2="342.013"/><linearGradient id="SVGID_00000018214223296898129840000005504877726667629240_" gradientTransform="matrix(1 0 0 -1 0 512)" gradientUnits="userSpaceOnUse" x1="353.062" x2="399.747" xlink:href="#lg1" y1="169.988" y2="123.303"/><linearGradient id="SVGID_00000119090145769507866410000016134263228131334798_" gradientTransform="matrix(1 0 0 -1 0 512)" gradientUnits="userSpaceOnUse" x1="205.683" x2="306.308" xlink:href="#lg1" y1="334.438" y2="233.813"/><g id="Icon"><g id="_20"><path d="m443.8 50v412c0 27.6-22.4 50-50 50h-275.6c-27.6 0-50-22.4-50-50v-412c0-27.6 22.4-50 50-50h275.5c27.7 0 50.1 22.4 50.1 50z" fill="url(#SVGID_1_)"/><path d="m433.8 50v412c0 22.1-17.9 40-40 40h-275.6c-22.1 0-40-17.9-40-40v-412c0-22.1 17.9-40 40-40h275.5c22.2 0 40.1 17.9 40.1 40z" fill="url(#SVGID_00000153705234203908711090000016627714895618878381_)"/><path d="m134.6 111.8c-6.1 0-11.7-2.1-16.5-6.3-4.4-3.8-7.7-8.8-9.8-15l9.8-3.5c1.3 4 3.4 7.3 6.1 9.8 3.1 2.9 6.6 4.4 10.5 4.4 4.9 0 9.1-1.9 12.6-5.8 3.5-3.8 5.3-8.2 5.3-13s-1.5-8.7-4.5-11.7-7-4.5-11.9-4.5c-2.2 0-4 .3-5.3.9s-2.8 1.7-4.6 3.4l-7.4-7.3 23.9-22.5h-23.1v10.3h-10.3v-20.9h52.6v6.6l-20.5 19.4c6.5 1.2 11.7 4.2 15.5 9.1s5.8 10.6 5.8 17.3c0 7.8-2.8 14.6-8.4 20.5-5.4 5.8-12.1 8.8-19.8 8.8z" fill="url(#SVGID_00000140705962742631301960000001371101613654867129_)"/><path d="m377.4 400.2c6.1 0 11.7 2.1 16.5 6.3 4.4 3.8 7.7 8.8 9.8 15l-9.8 3.5c-1.4-4-3.4-7.3-6.1-9.8-3.1-2.9-6.6-4.4-10.5-4.4-4.9 0-9.1 1.9-12.6 5.8-3.5 3.8-5.3 8.2-5.3 13s1.5 8.7 4.5 11.7 7 4.5 11.9 4.5c2.2 0 4-.3 5.3-.9s2.8-1.7 4.6-3.4l7.4 7.3-23.9 22.5h23.1v-10.3h10.3v20.9h-52.6v-6.6l20.5-19.4c-6.5-1.2-11.7-4.2-15.5-9.1s-5.8-10.6-5.8-17.3c0-7.8 2.8-14.6 8.4-20.5 5.4-5.8 12-8.8 19.8-8.8z" fill="url(#SVGID_00000009589442765740182620000002503768019586491799_)"/><path d="m167.7 132.1c-8-8-21.1-8-29.1 0l-3 3-3-3c-8-8-21.1-8-29.1 0-8 8-8 21.1 0 29.1l3 3 29.1 29.1 32.1-32.1c8.1-8 8.1-21.1 0-29.1z" fill="url(#SVGID_00000060719954976583729140000017851576134292267407_)"/><path d="m344.3 379.9c8 8 21.1 8 29.1 0l3-3 3 3c8 8 21.1 8 29.1 0 8-8 8-21.1 0-29.1l-3-3-29.1-29.1-32.1 32.1c-8.1 8-8.1 21.1 0 29.1z" fill="url(#SVGID_00000018214223296898129840000005504877726667629240_)"/><path d="m325.2 196.5c-17.3-17.3-45.4-17.3-62.8 0l-6.4 6.5-6.5-6.5c-17.3-17.3-45.4-17.3-62.8 0-17.3 17.3-17.3 45.4 0 62.8l6.5 6.5 62.8 62.8 69.2-69.2c17.4-17.5 17.4-45.6 0-62.9z" fill="url(#SVGID_00000119090145769507866410000016134263228131334798_)"/></g></g></svg>