<svg id="Layer_2_00000099642083011372390190000008850561928151130507_" enable-background="new 0 0 512 512" viewBox="68 0 376 512" xmlns="http://www.w3.org/2000/svg" xmlns:xlink="http://www.w3.org/1999/xlink"><linearGradient id="SVGID_1_" gradientTransform="matrix(1 0 0 -1 0 512)" gradientUnits="userSpaceOnUse" x1="48.749" x2="463.231" y1="463.246" y2="48.754"><stop offset="0" stop-color="#454545"/><stop offset="1"/></linearGradient><linearGradient id="SVGID_00000118395109826383212320000011870106711177814962_" gradientTransform="matrix(1 0 0 -1 0 512)" gradientUnits="userSpaceOnUse" x1="55.818" x2="456.162" y1="456.172" y2="55.828"><stop offset="0" stop-color="#f2f2f2"/><stop offset="1" stop-color="#d9d9d9"/></linearGradient><linearGradient id="lg1"><stop offset="0" stop-color="#fe5b42"/><stop offset="1" stop-color="#ba0000"/></linearGradient><linearGradient id="SVGID_00000130640073165509091280000001926316006697376440_" gradientTransform="matrix(1 0 0 -1 0 512)" gradientUnits="userSpaceOnUse" x1="108.987" x2="160.478" xlink:href="#lg1" y1="467.287" y2="415.787"/><linearGradient id="SVGID_00000071522115950220522280000000849311728782627993_" gradientTransform="matrix(1 0 0 -1 0 512)" gradientUnits="userSpaceOnUse" x1="351.511" x2="403.005" xlink:href="#lg1" y1="96.21" y2="44.716"/><linearGradient id="SVGID_00000025410912077878923820000002579137147260395415_" gradientTransform="matrix(1 0 0 -1 0 512)" gradientUnits="userSpaceOnUse" x1="112.253" x2="158.938" xlink:href="#lg1" y1="388.698" y2="342.013"/><linearGradient id="SVGID_00000154422537060845065220000005140217351165894077_" gradientTransform="matrix(1 0 0 -1 0 512)" gradientUnits="userSpaceOnUse" x1="353.062" x2="399.747" xlink:href="#lg1" y1="169.988" y2="123.303"/><linearGradient id="SVGID_00000155850667890731213510000012791635327361925787_" gradientTransform="matrix(1 0 0 -1 0 512)" gradientUnits="userSpaceOnUse" x1="205.683" x2="306.308" xlink:href="#lg1" y1="334.438" y2="233.813"/><g id="Icon"><g id="_23"><path d="m443.8 50v412c0 27.6-22.4 50-50 50h-275.6c-27.6 0-50-22.4-50-50v-412c0-27.6 22.4-50 50-50h275.5c27.7 0 50.1 22.4 50.1 50z" fill="url(#SVGID_1_)"/><path d="m433.8 50v412c0 22.1-17.9 40-40 40h-275.6c-22.1 0-40-17.9-40-40v-412c0-22.1 17.9-40 40-40h275.5c22.2 0 40.1 17.9 40.1 40z" fill="url(#SVGID_00000118395109826383212320000011870106711177814962_)"/><path d="m108.6 77.4c-.2.3-.3-2-.3-6.8 0-11.3 1.5-20.3 4.6-27.2 4.4-9.4 11.5-14.1 21.4-14.1 4.9 0 9.4 1.3 13.6 3.9 4 2.6 7.2 6 9.7 10.4l-8.9 5.4c-3.5-6.1-8.2-9.1-14.3-9.1-7.9 0-12.9 5.9-14.8 17.8 4.4-3.9 9.3-5.9 14.7-5.9 7.9 0 14.4 3.3 19.4 9.9 4.5 6 6.7 13.1 6.7 21.3 0 7.7-2.4 14.5-7.2 20.4-5.1 6.2-11.4 9.3-18.9 9.3-3.7 0-7.6-1.2-11.6-3.7-4.3-2.6-7.7-7.3-10.3-14.1-2.1-5.4-3.3-11.2-3.8-17.5zm25.7 24.7c4.6 0 8.5-2.1 11.5-6.3 2.9-3.8 4.3-8.1 4.3-12.8 0-5.3-1.3-9.9-3.9-13.8-3-4.5-6.9-6.8-11.9-6.8-3.6 0-6.9 1.8-9.9 5.3-2.4 2.9-4.2 6.4-5.4 10.3.6 5.9 1.9 10.9 3.8 15.2 2.8 5.8 6.6 8.8 11.5 8.9z" fill="url(#SVGID_00000130640073165509091280000001926316006697376440_)"/><path d="m403.4 434.6h.1c.1-.3.2 2 .2 6.8 0 11.3-1.5 20.3-4.6 27.2-4.4 9.4-11.5 14.1-21.4 14.1-4.9 0-9.4-1.3-13.5-3.9-4-2.6-7.2-6-9.7-10.4l8.9-5.4c3.5 6.1 8.2 9.1 14.3 9.1 7.9 0 12.9-5.9 14.8-17.8-4.4 3.9-9.3 5.9-14.7 5.9-7.9 0-14.4-3.3-19.4-9.9-4.5-6-6.7-13.1-6.7-21.3 0-7.7 2.4-14.5 7.2-20.4 5.1-6.2 11.4-9.3 18.9-9.3 3.7 0 7.6 1.2 11.6 3.6 4.3 2.6 7.7 7.3 10.3 14.1 1.9 5.5 3.2 11.3 3.7 17.6zm-25.7-24.7c-4.6 0-8.5 2.1-11.5 6.3-2.9 3.8-4.3 8.1-4.3 12.9 0 5.3 1.3 9.9 3.9 13.8 3 4.5 6.9 6.8 11.9 6.8 3.6 0 7-1.8 9.9-5.3 2.4-2.9 4.2-6.4 5.4-10.4-.6-5.9-1.9-10.9-3.8-15.1-2.8-6-6.6-9-11.5-9z" fill="url(#SVGID_00000071522115950220522280000000849311728782627993_)"/><path d="m167.7 132.1c-8-8-21.1-8-29.1 0l-3 3-3-3c-8-8-21.1-8-29.1 0-8 8-8 21.1 0 29.1l3 3 29.1 29.1 32.1-32.1c8.1-8 8.1-21.1 0-29.1z" fill="url(#SVGID_00000025410912077878923820000002579137147260395415_)"/><path d="m344.3 379.9c8 8 21.1 8 29.1 0l3-3 3 3c8 8 21.1 8 29.1 0 8-8 8-21.1 0-29.1l-3-3-29.1-29.1-32.1 32.1c-8.1 8-8.1 21.1 0 29.1z" fill="url(#SVGID_00000154422537060845065220000005140217351165894077_)"/><path d="m325.2 196.5c-17.3-17.3-45.4-17.3-62.8 0l-6.4 6.5-6.5-6.5c-17.3-17.3-45.4-17.3-62.8 0-17.3 17.3-17.3 45.4 0 62.8l6.5 6.5 62.8 62.8 69.2-69.2c17.4-17.5 17.4-45.6 0-62.9z" fill="url(#SVGID_00000155850667890731213510000012791635327361925787_)"/></g></g></svg>