<svg id="Layer_2_00000093885941807547619120000003047034482604950455_" enable-background="new 0 0 512 512" viewBox="68 0 376 512" xmlns="http://www.w3.org/2000/svg" xmlns:xlink="http://www.w3.org/1999/xlink"><linearGradient id="SVGID_1_" gradientTransform="matrix(1 0 0 -1 0 512)" gradientUnits="userSpaceOnUse" x1="48.749" x2="463.231" y1="463.246" y2="48.754"><stop offset="0" stop-color="#454545"/><stop offset="1"/></linearGradient><linearGradient id="SVGID_00000096753589277013351690000007051366777638131589_" gradientTransform="matrix(1 0 0 -1 0 512)" gradientUnits="userSpaceOnUse" x1="55.818" x2="456.162" y1="456.172" y2="55.828"><stop offset="0" stop-color="#f2f2f2"/><stop offset="1" stop-color="#d9d9d9"/></linearGradient><linearGradient id="lg1"><stop offset="0" stop-color="#fe5b42"/><stop offset="1" stop-color="#ba0000"/></linearGradient><linearGradient id="SVGID_00000034802761644036180700000006393597915828914853_" gradientTransform="matrix(1 0 0 -1 0 512)" gradientUnits="userSpaceOnUse" x1="103.478" x2="155.898" xlink:href="#lg1" y1="476.223" y2="423.803"/><linearGradient id="SVGID_00000176745193188543612710000006164312493778948763_" gradientTransform="matrix(1 0 0 -1 0 512)" gradientUnits="userSpaceOnUse" x1="356.093" x2="408.513" xlink:href="#lg1" y1="88.198" y2="35.778"/><linearGradient id="SVGID_00000147938163516416081320000015419546074889631909_" gradientTransform="matrix(1 0 0 -1 0 512)" gradientUnits="userSpaceOnUse" x1="112.253" x2="158.938" xlink:href="#lg1" y1="388.698" y2="342.013"/><linearGradient id="SVGID_00000129888979640275939470000014000823547994095530_" gradientTransform="matrix(1 0 0 -1 0 512)" gradientUnits="userSpaceOnUse" x1="353.062" x2="399.747" xlink:href="#lg1" y1="169.988" y2="123.303"/><linearGradient id="SVGID_00000105411240670049680080000000982180694029385602_" gradientTransform="matrix(1 0 0 -1 0 512)" gradientUnits="userSpaceOnUse" x1="205.683" x2="306.308" xlink:href="#lg1" y1="334.438" y2="233.813"/><g id="Icon"><g id="_24"><path d="m443.8 50v412c0 27.6-22.4 50-50 50h-275.6c-27.6 0-50-22.4-50-50v-412c0-27.6 22.4-50 50-50h275.5c27.7 0 50.1 22.4 50.1 50z" fill="url(#SVGID_1_)"/><path d="m433.8 50v412c0 22.1-17.9 40-40 40h-275.6c-22.1 0-40-17.9-40-40v-412c0-22.1 17.9-40 40-40h275.5c22.2 0 40.1 17.9 40.1 40z" fill="url(#SVGID_00000096753589277013351690000007051366777638131589_)"/><path d="m108.3 52.4v-21.4h47l5.3 9.2c-13.1 18.8-22.3 42.4-27.4 70.7h-11.2c4.6-25.9 12.5-48.8 23.9-68.6h-26.5v10.1z" fill="url(#SVGID_00000034802761644036180700000006393597915828914853_)"/><path d="m403.7 459.6v21.4h-47l-5.3-9.2c13.1-18.8 22.3-42.4 27.4-70.7h11.2c-4.5 26-12.5 48.8-23.9 68.6h26.5v-10.1z" fill="url(#SVGID_00000176745193188543612710000006164312493778948763_)"/><path d="m167.7 132.1c-8-8-21.1-8-29.1 0l-3 3-3-3c-8-8-21.1-8-29.1 0-8 8-8 21.1 0 29.1l3 3 29.1 29.1 32.1-32.1c8.1-8 8.1-21.1 0-29.1z" fill="url(#SVGID_00000147938163516416081320000015419546074889631909_)"/><path d="m344.3 379.9c8 8 21.1 8 29.1 0l3-3 3 3c8 8 21.1 8 29.1 0 8-8 8-21.1 0-29.1l-3-3-29.1-29.1-32.1 32.1c-8.1 8-8.1 21.1 0 29.1z" fill="url(#SVGID_00000129888979640275939470000014000823547994095530_)"/><path d="m325.2 196.5c-17.3-17.3-45.4-17.3-62.8 0l-6.4 6.5-6.5-6.5c-17.3-17.3-45.4-17.3-62.8 0-17.3 17.3-17.3 45.4 0 62.8l6.5 6.5 62.8 62.8 69.2-69.2c17.4-17.5 17.4-45.6 0-62.9z" fill="url(#SVGID_00000105411240670049680080000000982180694029385602_)"/></g></g></svg>