<svg id="Layer_2_00000135653794262669226060000004719197448873101485_" enable-background="new 0 0 512 512" viewBox="68 0 376 512" xmlns="http://www.w3.org/2000/svg" xmlns:xlink="http://www.w3.org/1999/xlink"><linearGradient id="SVGID_1_" gradientTransform="matrix(1 0 0 -1 0 512)" gradientUnits="userSpaceOnUse" x1="48.749" x2="463.231" y1="463.246" y2="48.754"><stop offset="0" stop-color="#454545"/><stop offset="1"/></linearGradient><linearGradient id="SVGID_00000098917194855705563790000002747592378595518363_" gradientTransform="matrix(1 0 0 -1 0 512)" gradientUnits="userSpaceOnUse" x1="55.818" x2="456.162" y1="456.172" y2="55.828"><stop offset="0" stop-color="#f2f2f2"/><stop offset="1" stop-color="#d9d9d9"/></linearGradient><linearGradient id="lg1"><stop offset="0" stop-color="#fe5b42"/><stop offset="1" stop-color="#ba0000"/></linearGradient><linearGradient id="SVGID_00000076581697809641746990000016723021732177845410_" gradientTransform="matrix(1 0 0 -1 0 512)" gradientUnits="userSpaceOnUse" x1="108.332" x2="159.613" xlink:href="#lg1" y1="466.529" y2="415.248"/><linearGradient id="SVGID_00000137122039639739748350000011611470700084751805_" gradientTransform="matrix(1 0 0 -1 0 512)" gradientUnits="userSpaceOnUse" x1="352.385" x2="403.67" xlink:href="#lg1" y1="96.749" y2="45.474"/><linearGradient id="SVGID_00000166662333721483020960000006380720736735662215_" gradientTransform="matrix(1 0 0 -1 0 512)" gradientUnits="userSpaceOnUse" x1="112.253" x2="158.938" xlink:href="#lg1" y1="388.698" y2="342.013"/><linearGradient id="SVGID_00000024696830531710980740000010134526202442023343_" gradientTransform="matrix(1 0 0 -1 0 512)" gradientUnits="userSpaceOnUse" x1="353.062" x2="399.747" xlink:href="#lg1" y1="169.988" y2="123.303"/><linearGradient id="SVGID_00000150811949783174799530000015336535140733579963_" gradientTransform="matrix(1 0 0 -1 0 512)" gradientUnits="userSpaceOnUse" x1="205.683" x2="306.308" xlink:href="#lg1" y1="334.438" y2="233.813"/><g id="Icon"><g id="_26"><path d="m443.8 50v412c0 27.6-22.4 50-50 50h-275.6c-27.6 0-50-22.4-50-50v-412c0-27.6 22.4-50 50-50h275.5c27.7 0 50.1 22.4 50.1 50z" fill="url(#SVGID_1_)"/><path d="m433.8 50v412c0 22.1-17.9 40-40 40h-275.6c-22.1 0-40-17.9-40-40v-412c0-22.1 17.9-40 40-40h275.5c22.2 0 40.1 17.9 40.1 40z" fill="url(#SVGID_00000098917194855705563790000002747592378595518363_)"/><path d="m149.7 82.1c-4.5 3.6-9.6 5.4-15.2 5.4-7.6 0-13.9-3-18.9-8.9-4.9-5.8-7.3-12.5-7.3-20.1s2.4-14.4 7.3-20.1c5.1-6 11.4-9 18.9-9 9.3 0 16.4 4.8 21 14.5 3.6 7.5 5.4 16.5 5.4 27 0 11-1.8 20.2-5.3 27.4-4.6 9.6-11.8 14.3-21.7 14.3s-17.2-4.9-22.9-14.8l9-5.3c3.6 6.3 8.2 9.5 13.8 9.5 8.5 0 13.8-6.7 15.9-19.9zm-15.2-42.2c-4.6 0-8.5 2-11.6 5.9-2.9 3.6-4.3 7.8-4.3 12.6s1.5 8.9 4.3 12.6c3.1 4 6.9 5.9 11.6 5.9 3.9 0 7.3-1.5 10.2-4.5 2.6-2.7 4.3-6 5.3-10.1-1.8-14.9-7-22.4-15.5-22.4z" fill="url(#SVGID_00000076581697809641746990000016723021732177845410_)"/><path d="m362.3 429.9c4.5-3.6 9.5-5.4 15.2-5.4 7.6 0 13.9 3 18.9 8.9 4.9 5.8 7.3 12.5 7.3 20.1s-2.4 14.4-7.3 20.1c-5.1 6-11.4 9-18.9 9-9.4 0-16.4-4.8-21-14.5-3.6-7.5-5.4-16.5-5.4-27 0-11 1.8-20.1 5.3-27.4 4.6-9.5 11.9-14.3 21.7-14.3s17.2 4.9 22.9 14.8l-9 5.3c-3.6-6.3-8.2-9.5-13.8-9.5-8.5 0-13.8 6.7-15.9 19.9zm15.2 42.2c4.6 0 8.5-2 11.6-5.9 2.9-3.6 4.3-7.8 4.3-12.6s-1.5-8.9-4.3-12.6c-3.1-4-6.9-5.9-11.6-5.9-3.9 0-7.3 1.5-10.2 4.5-2.6 2.7-4.3 6-5.3 10.1 1.8 14.9 7 22.4 15.5 22.4z" fill="url(#SVGID_00000137122039639739748350000011611470700084751805_)"/><path d="m167.7 132.1c-8-8-21.1-8-29.1 0l-3 3-3-3c-8-8-21.1-8-29.1 0-8 8-8 21.1 0 29.1l3 3 29.1 29.1 32.1-32.1c8.1-8 8.1-21.1 0-29.1z" fill="url(#SVGID_00000166662333721483020960000006380720736735662215_)"/><path d="m344.3 379.9c8 8 21.1 8 29.1 0l3-3 3 3c8 8 21.1 8 29.1 0 8-8 8-21.1 0-29.1l-3-3-29.1-29.1-32.1 32.1c-8.1 8-8.1 21.1 0 29.1z" fill="url(#SVGID_00000024696830531710980740000010134526202442023343_)"/><path d="m325.2 196.5c-17.3-17.3-45.4-17.3-62.8 0l-6.4 6.5-6.5-6.5c-17.3-17.3-45.4-17.3-62.8 0-17.3 17.3-17.3 45.4 0 62.8l6.5 6.5 62.8 62.8 69.2-69.2c17.4-17.5 17.4-45.6 0-62.9z" fill="url(#SVGID_00000150811949783174799530000015336535140733579963_)"/></g></g></svg>