<svg id="Layer_2_00000016061277335977189080000013359398233278668721_" enable-background="new 0 0 512 512" viewBox="68 0 376 512" xmlns="http://www.w3.org/2000/svg" xmlns:xlink="http://www.w3.org/1999/xlink"><linearGradient id="SVGID_1_" gradientTransform="matrix(1 0 0 -1 0 512)" gradientUnits="userSpaceOnUse" x1="48.749" x2="463.231" y1="463.246" y2="48.754"><stop offset="0" stop-color="#454545"/><stop offset="1"/></linearGradient><linearGradient id="SVGID_00000176020968010635039120000000652621069280946618_" gradientTransform="matrix(1 0 0 -1 0 512)" gradientUnits="userSpaceOnUse" x1="55.818" x2="456.162" y1="456.172" y2="55.828"><stop offset="0" stop-color="#f2f2f2"/><stop offset="1" stop-color="#d9d9d9"/></linearGradient><linearGradient id="lg1"><stop offset="0" stop-color="#fe5b42"/><stop offset="1" stop-color="#ba0000"/></linearGradient><linearGradient id="SVGID_00000060001646890222475710000009338563981581946014_" gradientTransform="matrix(1 0 0 -1 0 512)" gradientUnits="userSpaceOnUse" x1="106.378" x2="162.836" xlink:href="#lg1" y1="459.139" y2="402.691"/><linearGradient id="SVGID_00000045593023493397648160000012264843656404657070_" gradientTransform="matrix(1 0 0 -1 0 512)" gradientUnits="userSpaceOnUse" x1="349.154" x2="405.612" xlink:href="#lg1" y1="109.309" y2="52.861"/><linearGradient id="SVGID_00000003815690060886470090000008886268299815662475_" gradientTransform="matrix(1 0 0 -1 0 512)" gradientUnits="userSpaceOnUse" x1="112.253" x2="158.938" xlink:href="#lg1" y1="388.698" y2="342.013"/><linearGradient id="SVGID_00000129892133477119117110000003011160184286134409_" gradientTransform="matrix(1 0 0 -1 0 512)" gradientUnits="userSpaceOnUse" x1="353.062" x2="399.747" xlink:href="#lg1" y1="169.988" y2="123.303"/><linearGradient id="SVGID_00000121261113565119974900000005904688854701749169_" gradientTransform="matrix(1 0 0 -1 0 512)" gradientUnits="userSpaceOnUse" x1="205.683" x2="306.308" xlink:href="#lg1" y1="334.438" y2="233.813"/><g id="Icon"><g id="_18"><path d="m443.8 50v412c0 27.6-22.4 50-50 50h-275.6c-27.6 0-50-22.4-50-50v-412c0-27.6 22.4-50 50-50h275.5c27.7 0 50.1 22.4 50.1 50z" fill="url(#SVGID_1_)"/><path d="m433.8 50v412c0 22.1-17.9 40-40 40h-275.6c-22.1 0-40-17.9-40-40v-412c0-22.1 17.9-40 40-40h275.5c22.2 0 40.1 17.9 40.1 40z" fill="url(#SVGID_00000176020968010635039120000000652621069280946618_)"/><path d="m129.7 101.5v9.7h-21.4v-9.7h7l13.3-70.8h12l13.4 70.8h7v9.7h-21.4v-9.7h4.6l-1.5-8.5h-16l-1.6 8.4zm-1.3-18.2h12.5l-6.2-33.1z" fill="url(#SVGID_00000060001646890222475710000009338563981581946014_)"/><path d="m382.3 410.5v-9.7h21.4v9.7h-7l-13.3 70.8h-12l-13.4-70.8h-7v-9.7h21.4v9.7h-4.6l1.5 8.5h16l1.6-8.5zm1.3 18.2h-12.5l6.2 33.1z" fill="url(#SVGID_00000045593023493397648160000012264843656404657070_)"/><path d="m167.7 132.1c-8-8-21.1-8-29.1 0l-3 3-3-3c-8-8-21.1-8-29.1 0-8 8-8 21.1 0 29.1l3 3 29.1 29.1 32.1-32.1c8.1-8 8.1-21.1 0-29.1z" fill="url(#SVGID_00000003815690060886470090000008886268299815662475_)"/><path d="m344.3 379.9c8 8 21.1 8 29.1 0l3-3 3 3c8 8 21.1 8 29.1 0 8-8 8-21.1 0-29.1l-3-3-29.1-29.1-32.1 32.1c-8.1 8-8.1 21.1 0 29.1z" fill="url(#SVGID_00000129892133477119117110000003011160184286134409_)"/><path d="m325.2 196.5c-17.3-17.3-45.4-17.3-62.8 0l-6.4 6.5-6.5-6.5c-17.3-17.3-45.4-17.3-62.8 0-17.3 17.3-17.3 45.4 0 62.8l6.5 6.5 62.8 62.8 69.2-69.2c17.4-17.5 17.4-45.6 0-62.9z" fill="url(#SVGID_00000121261113565119974900000005904688854701749169_)"/></g></g></svg>