<svg id="Layer_2_00000018925650316699801410000006847697176377420674_" enable-background="new 0 0 512 512" viewBox="68 0 376 512" xmlns="http://www.w3.org/2000/svg" xmlns:xlink="http://www.w3.org/1999/xlink"><linearGradient id="SVGID_1_" gradientTransform="matrix(1 0 0 -1 0 512)" gradientUnits="userSpaceOnUse" x1="48.749" x2="463.231" y1="463.246" y2="48.754"><stop offset="0" stop-color="#454545"/><stop offset="1"/></linearGradient><linearGradient id="SVGID_00000131360732570492813470000006900271757933185664_" gradientTransform="matrix(1 0 0 -1 0 512)" gradientUnits="userSpaceOnUse" x1="55.818" x2="456.162" y1="456.172" y2="55.828"><stop offset="0" stop-color="#f2f2f2"/><stop offset="1" stop-color="#d9d9d9"/></linearGradient><linearGradient id="lg1"><stop offset="0" stop-color="#fe5b42"/><stop offset="1" stop-color="#ba0000"/></linearGradient><linearGradient id="SVGID_00000003799486009257403520000002764248309177769657_" gradientTransform="matrix(1 0 0 -1 0 512)" gradientUnits="userSpaceOnUse" x1="116.002" x2="160.619" xlink:href="#lg1" y1="465.877" y2="421.26"/><linearGradient id="SVGID_00000035488762899795474060000016957559635141456556_" gradientTransform="matrix(1 0 0 -1 0 512)" gradientUnits="userSpaceOnUse" x1="351.381" x2="395.998" xlink:href="#lg1" y1="90.741" y2="46.123"/><linearGradient id="SVGID_00000098933206998103015900000007715245078443477677_" gradientTransform="matrix(1 0 0 -1 0 512)" gradientUnits="userSpaceOnUse" x1="112.253" x2="158.938" xlink:href="#lg1" y1="388.698" y2="342.013"/><linearGradient id="SVGID_00000011743666184869977460000003070518980995876796_" gradientTransform="matrix(1 0 0 -1 0 512)" gradientUnits="userSpaceOnUse" x1="353.062" x2="399.747" xlink:href="#lg1" y1="169.988" y2="123.303"/><linearGradient id="SVGID_00000151513964536562937450000006960725945446658725_" gradientTransform="matrix(1 0 0 -1 0 512)" gradientUnits="userSpaceOnUse" x1="205.683" x2="306.308" xlink:href="#lg1" y1="334.438" y2="233.813"/><g id="Icon"><g id="_28"><path d="m443.8 50v412c0 27.6-22.4 50-50 50h-275.6c-27.6 0-50-22.4-50-50v-412c0-27.6 22.4-50 50-50h275.5c27.7 0 50.1 22.4 50.1 50z" fill="url(#SVGID_1_)"/><path d="m433.8 50v412c0 22.1-17.9 40-40 40h-275.6c-22.1 0-40-17.9-40-40v-412c0-22.1 17.9-40 40-40h275.5c22.2 0 40.1 17.9 40.1 40z" fill="url(#SVGID_00000131360732570492813470000006900271757933185664_)"/><path d="m119.4 82.4c0 3.9 0 5.5 0 4.9 0 3.8.8 6.9 2.4 9.2 1.9 2.8 4.8 4.1 8.7 4.1 3.3 0 5.9-1.2 7.9-3.6 1.8-2.2 2.7-4.9 2.7-8.2v-47.5h-8.7v-11.4h28.2v11.4h-8.6v47.6c0 6.5-1.9 11.9-5.9 16.2-4.1 4.6-9.3 6.8-15.8 6.8-6.4 0-11.8-2.2-16-6.7s-6.2-10-6.1-16.4v-6.4z" fill="url(#SVGID_00000003799486009257403520000002764248309177769657_)"/><path d="m392.6 429.6c0-3.9 0-5.5 0-4.9 0-3.8-.8-6.9-2.4-9.2-1.9-2.8-4.8-4.1-8.6-4.1-3.3 0-5.9 1.2-7.9 3.6-1.8 2.2-2.7 4.9-2.7 8.2v47.6h8.7v11.4h-28.2v-11.4h8.4v-47.6c0-6.5 2-11.9 5.9-16.2 4.1-4.5 9.4-6.8 15.8-6.8s11.8 2.2 16 6.7 6.2 10 6.1 16.4v6.4z" fill="url(#SVGID_00000035488762899795474060000016957559635141456556_)"/><path d="m167.7 132.1c-8-8-21.1-8-29.1 0l-3 3-3-3c-8-8-21.1-8-29.1 0-8 8-8 21.1 0 29.1l3 3 29.1 29.1 32.1-32.1c8.1-8 8.1-21.1 0-29.1z" fill="url(#SVGID_00000098933206998103015900000007715245078443477677_)"/><path d="m344.3 379.9c8 8 21.1 8 29.1 0l3-3 3 3c8 8 21.1 8 29.1 0 8-8 8-21.1 0-29.1l-3-3-29.1-29.1-32.1 32.1c-8.1 8-8.1 21.1 0 29.1z" fill="url(#SVGID_00000011743666184869977460000003070518980995876796_)"/><path d="m325.2 196.5c-17.3-17.3-45.4-17.3-62.8 0l-6.4 6.5-6.5-6.5c-17.3-17.3-45.4-17.3-62.8 0-17.3 17.3-17.3 45.4 0 62.8l6.5 6.5 62.8 62.8 69.2-69.2c17.4-17.5 17.4-45.6 0-62.9z" fill="url(#SVGID_00000151513964536562937450000006960725945446658725_)"/></g></g></svg>