<svg id="Layer_2_00000065051284506543371020000004632032509670405806_" enable-background="new 0 0 512 512" viewBox="68 0 376 512" xmlns="http://www.w3.org/2000/svg" xmlns:xlink="http://www.w3.org/1999/xlink"><linearGradient id="SVGID_1_" gradientTransform="matrix(1 0 0 -1 0 512)" gradientUnits="userSpaceOnUse" x1="48.749" x2="463.231" y1="463.246" y2="48.754"><stop offset="0" stop-color="#454545"/><stop offset="1"/></linearGradient><linearGradient id="SVGID_00000083793133722048564610000015692294671172912796_" gradientTransform="matrix(1 0 0 -1 0 512)" gradientUnits="userSpaceOnUse" x1="55.818" x2="456.162" y1="456.172" y2="55.828"><stop offset="0" stop-color="#f2f2f2"/><stop offset="1" stop-color="#d9d9d9"/></linearGradient><linearGradient id="lg1"><stop offset="0" stop-color="#fe5b42"/><stop offset="1" stop-color="#ba0000"/></linearGradient><linearGradient id="SVGID_00000124867399507149919770000010162979155126749370_" gradientTransform="matrix(1 0 0 -1 0 512)" gradientUnits="userSpaceOnUse" x1="101.342" x2="168.128" xlink:href="#lg1" y1="474.478" y2="407.682"/><linearGradient id="SVGID_00000179634632025946532730000012101588313642294427_" gradientTransform="matrix(1 0 0 -1 0 512)" gradientUnits="userSpaceOnUse" x1="343.862" x2="410.648" xlink:href="#lg1" y1="104.318" y2="37.522"/><linearGradient id="SVGID_00000098916441553335509940000013000624144177648025_" gradientTransform="matrix(1 0 0 -1 0 512)" gradientUnits="userSpaceOnUse" x1="112.253" x2="158.938" xlink:href="#lg1" y1="388.698" y2="342.013"/><linearGradient id="SVGID_00000172435439547554970380000015269622761078928544_" gradientTransform="matrix(1 0 0 -1 0 512)" gradientUnits="userSpaceOnUse" x1="353.062" x2="399.747" xlink:href="#lg1" y1="169.988" y2="123.303"/><linearGradient id="SVGID_00000023276760300838359550000018013352165278566552_" gradientTransform="matrix(1 0 0 -1 0 512)" gradientUnits="userSpaceOnUse" x1="205.683" x2="306.308" xlink:href="#lg1" y1="334.438" y2="233.813"/><g id="Icon"><g id="_30"><path d="m443.8 50v412c0 27.6-22.4 50-50 50h-275.6c-27.6 0-50-22.4-50-50v-412c0-27.6 22.4-50 50-50h275.5c27.7 0 50.1 22.4 50.1 50z" fill="url(#SVGID_1_)"/><path d="m433.8 50v412c0 22.1-17.9 40-40 40h-275.6c-22.1 0-40-17.9-40-40v-412c0-22.1 17.9-40 40-40h275.5c22.2 0 40.1 17.9 40.1 40z" fill="url(#SVGID_00000083793133722048564610000015692294671172912796_)"/><path d="m108.3 102.4h7.4v-63h-7.4v-8.8h22.4v8.8h-6.2v30.7l19.7-30.7h-7.6v-8.8h24.6v8.8h-7.1l-16 24.9 16.3 38.2h6.7v8.8h-24.6v-8.8h7.9l-12.4-28.9-7.7 12v16.9h6.2v8.8h-22.4z" fill="url(#SVGID_00000124867399507149919770000010162979155126749370_)"/><path d="m403.7 409.6h-7.4v63h7.4v8.8h-22.4v-8.8h6.2v-30.6l-19.7 30.6h7.6v8.8h-24.6v-8.8h7.1l16-24.9-16.3-38.1h-6.7v-8.8h24.6v8.8h-7.9l12.4 28.9 7.7-12v-16.9h-6.2v-8.8h22.4z" fill="url(#SVGID_00000179634632025946532730000012101588313642294427_)"/><path d="m167.7 132.1c-8-8-21.1-8-29.1 0l-3 3-3-3c-8-8-21.1-8-29.1 0-8 8-8 21.1 0 29.1l3 3 29.1 29.1 32.1-32.1c8.1-8 8.1-21.1 0-29.1z" fill="url(#SVGID_00000098916441553335509940000013000624144177648025_)"/><path d="m344.3 379.9c8 8 21.1 8 29.1 0l3-3 3 3c8 8 21.1 8 29.1 0 8-8 8-21.1 0-29.1l-3-3-29.1-29.1-32.1 32.1c-8.1 8-8.1 21.1 0 29.1z" fill="url(#SVGID_00000172435439547554970380000015269622761078928544_)"/><path d="m325.2 196.5c-17.3-17.3-45.4-17.3-62.8 0l-6.4 6.5-6.5-6.5c-17.3-17.3-45.4-17.3-62.8 0-17.3 17.3-17.3 45.4 0 62.8l6.5 6.5 62.8 62.8 69.2-69.2c17.4-17.5 17.4-45.6 0-62.9z" fill="url(#SVGID_00000023276760300838359550000018013352165278566552_)"/></g></g></svg>