<svg id="Layer_2_00000140012295934449084090000006519791513552493758_" enable-background="new 0 0 512 512" viewBox="68 0 376 512" xmlns="http://www.w3.org/2000/svg" xmlns:xlink="http://www.w3.org/1999/xlink"><linearGradient id="SVGID_1_" gradientTransform="matrix(1 0 0 -1 0 512)" gradientUnits="userSpaceOnUse" x1="48.749" x2="463.231" y1="463.246" y2="48.754"><stop offset="0" stop-color="#454545"/><stop offset="1"/></linearGradient><linearGradient id="SVGID_00000168083772760958232820000000021368863884650427_" gradientTransform="matrix(1 0 0 -1 0 512)" gradientUnits="userSpaceOnUse" x1="55.818" x2="456.162" y1="456.172" y2="55.828"><stop offset="0" stop-color="#f2f2f2"/><stop offset="1" stop-color="#d9d9d9"/></linearGradient><linearGradient id="lg1"><stop offset="0" stop-color="#fe5b42"/><stop offset="1" stop-color="#ba0000"/></linearGradient><linearGradient id="SVGID_00000081609829825679361100000007838623813653911466_" gradientTransform="matrix(1 0 0 -1 0 512)" gradientUnits="userSpaceOnUse" x1="108.921" x2="167.468" xlink:href="#lg1" y1="466.13" y2="407.583"/><linearGradient id="SVGID_00000131345851666605688520000012656091798568055967_" gradientTransform="matrix(1 0 0 -1 0 512)" gradientUnits="userSpaceOnUse" x1="344.522" x2="403.069" xlink:href="#lg1" y1="104.417" y2="45.87"/><linearGradient id="SVGID_00000088102000313028483320000013966622969081989797_" gradientTransform="matrix(1 0 0 -1 0 512)" gradientUnits="userSpaceOnUse" x1="112.253" x2="158.938" xlink:href="#lg1" y1="388.698" y2="342.013"/><linearGradient id="SVGID_00000065783305684026358990000017232262015900759187_" gradientTransform="matrix(1 0 0 -1 0 512)" gradientUnits="userSpaceOnUse" x1="353.062" x2="399.747" xlink:href="#lg1" y1="169.988" y2="123.303"/><linearGradient id="SVGID_00000098913681007869205220000010658333854792200118_" gradientTransform="matrix(1 0 0 -1 0 512)" gradientUnits="userSpaceOnUse" x1="205.683" x2="306.308" xlink:href="#lg1" y1="334.438" y2="233.813"/><g id="Icon"><g id="_29"><path d="m443.8 50v412c0 27.6-22.4 50-50 50h-275.6c-27.6 0-50-22.4-50-50v-412c0-27.6 22.4-50 50-50h275.5c27.7 0 50.1 22.4 50.1 50z" fill="url(#SVGID_1_)"/><path d="m433.8 50v412c0 22.1-17.9 40-40 40h-275.6c-22.1 0-40-17.9-40-40v-412c0-22.1 17.9-40 40-40h275.5c22.2 0 40.1 17.9 40.1 40z" fill="url(#SVGID_00000168083772760958232820000000021368863884650427_)"/><path d="m161 110.9c-3.8 0-6.5-.2-8.2-.5-1.9-.4-3.8-1.3-5.6-2.7-4 3.3-8.5 4.9-13.3 4.9-5.2 0-9.8-1.9-13.9-5.6-4.3-3.8-6.4-8.3-6.4-13.4v-7.1h-5.3v-9.2c.2-.1 1.9-.2 5.3-.4v-28.5c0-5.2 2.2-9.7 6.4-13.5 4.1-3.7 8.7-5.6 13.9-5.6s9.9 1.9 14.1 5.7 6.3 8.3 6.3 13.5v45.3c0 2.2-.4 4.3-1.3 6.4.9.6 1.7 1 2.5 1.2h5.5zm-37.6-34c3.9.4 7.8 2.2 11.7 5.4 2.4 1.9 5.5 5 9.3 9.2v-43.2c0-2.3-1.1-4.4-3.3-6.2s-4.6-2.8-7.2-2.8-5 .9-7.2 2.8-3.4 3.9-3.4 6.2zm16.3 23.8-12.4-12.2c-1-1-2.3-1.7-3.9-1.9v7c0 2.3 1.1 4.3 3.4 6.2 2.2 1.9 4.6 2.8 7.2 2.8 2-.1 3.9-.7 5.7-1.9z" fill="url(#SVGID_00000081609829825679361100000007838623813653911466_)"/><path d="m351 401.1c3.8 0 6.5.2 8.2.5 1.9.5 3.8 1.4 5.6 2.7 4-3.3 8.5-4.9 13.3-4.9 5.2 0 9.8 1.9 13.9 5.6 4.3 3.8 6.4 8.3 6.4 13.5v7.1h5.3v9.2c-.2.1-2 .2-5.3.4v28.5c0 5.2-2.1 9.7-6.4 13.5-4.1 3.7-8.7 5.6-13.9 5.6s-9.9-1.9-14.1-5.7-6.3-8.3-6.3-13.5v-45.3c0-2.2.5-4.3 1.4-6.4-.9-.6-1.7-1-2.5-1.1h-5.6zm37.6 34c-3.9-.5-7.8-2.2-11.7-5.4-2.4-1.9-5.5-5-9.3-9.2v43.1c0 2.3 1.1 4.4 3.3 6.2 2.2 1.9 4.6 2.8 7.2 2.8s5-.9 7.2-2.8 3.4-3.9 3.4-6.2zm-16.3-23.8 12.4 12.2c1 1 2.3 1.7 3.9 2v-7c0-2.3-1.1-4.4-3.4-6.2-2.2-1.9-4.6-2.8-7.2-2.8-2 0-3.9.6-5.7 1.8z" fill="url(#SVGID_00000131345851666605688520000012656091798568055967_)"/><path d="m167.7 132.1c-8-8-21.1-8-29.1 0l-3 3-3-3c-8-8-21.1-8-29.1 0-8 8-8 21.1 0 29.1l3 3 29.1 29.1 32.1-32.1c8.1-8 8.1-21.1 0-29.1z" fill="url(#SVGID_00000088102000313028483320000013966622969081989797_)"/><path d="m344.3 379.9c8 8 21.1 8 29.1 0l3-3 3 3c8 8 21.1 8 29.1 0 8-8 8-21.1 0-29.1l-3-3-29.1-29.1-32.1 32.1c-8.1 8-8.1 21.1 0 29.1z" fill="url(#SVGID_00000065783305684026358990000017232262015900759187_)"/><path d="m325.2 196.5c-17.3-17.3-45.4-17.3-62.8 0l-6.4 6.5-6.5-6.5c-17.3-17.3-45.4-17.3-62.8 0-17.3 17.3-17.3 45.4 0 62.8l6.5 6.5 62.8 62.8 69.2-69.2c17.4-17.5 17.4-45.6 0-62.9z" fill="url(#SVGID_00000098913681007869205220000010658333854792200118_)"/></g></g></svg>