<svg id="Layer_2_00000173129008358280934570000006141044097681905851_" enable-background="new 0 0 512 512" viewBox="68 0 376 512" xmlns="http://www.w3.org/2000/svg" xmlns:xlink="http://www.w3.org/1999/xlink"><linearGradient id="SVGID_1_" gradientTransform="matrix(1 0 0 -1 0 512)" gradientUnits="userSpaceOnUse" x1="48.749" x2="463.231" y1="463.246" y2="48.754"><stop offset="0" stop-color="#454545"/><stop offset="1"/></linearGradient><linearGradient id="SVGID_00000093891899395641090730000005628397534937311376_" gradientTransform="matrix(1 0 0 -1 0 512)" gradientUnits="userSpaceOnUse" x1="55.818" x2="456.162" y1="456.172" y2="55.828"><stop offset="0" stop-color="#f2f2f2"/><stop offset="1" stop-color="#d9d9d9"/></linearGradient><linearGradient id="lg1"><stop offset="0" stop-color="#fe5b42"/><stop offset="1" stop-color="#ba0000"/></linearGradient><linearGradient id="SVGID_00000011745382883554437410000000755723229280634287_" gradientTransform="matrix(1 0 0 -1 0 512)" gradientUnits="userSpaceOnUse" x1="109.486" x2="192.408" xlink:href="#lg1" y1="482.621" y2="399.699"/><linearGradient id="SVGID_00000147186941876302569700000009355102504336945035_" gradientTransform="matrix(1 0 0 -1 0 512)" gradientUnits="userSpaceOnUse" x1="319.595" x2="402.512" xlink:href="#lg1" y1="112.303" y2="29.377"/><linearGradient id="SVGID_00000153664893847692672660000013377203305316356793_" gradientTransform="matrix(1 0 0 -1 0 512)" gradientUnits="userSpaceOnUse" x1="112.253" x2="158.938" xlink:href="#lg1" y1="388.698" y2="342.013"/><linearGradient id="SVGID_00000052076755244389894960000010203172737274183074_" gradientTransform="matrix(1 0 0 -1 0 512)" gradientUnits="userSpaceOnUse" x1="353.062" x2="399.747" xlink:href="#lg1" y1="169.988" y2="123.303"/><linearGradient id="SVGID_00000010285715320437946270000017445999660819453317_" gradientTransform="matrix(1 0 0 -1 0 512)" gradientUnits="userSpaceOnUse" x1="205.683" x2="306.308" xlink:href="#lg1" y1="334.438" y2="233.813"/><g id="Icon"><g id="_27"><path d="m443.8 50v412c0 27.6-22.4 50-50 50h-275.6c-27.6 0-50-22.4-50-50v-412c0-27.6 22.4-50 50-50h275.5c27.7 0 50.1 22.4 50.1 50z" fill="url(#SVGID_1_)"/><path d="m433.8 50v412c0 22.1-17.9 40-40 40h-275.6c-22.1 0-40-17.9-40-40v-412c0-22.1 17.9-40 40-40h275.5c22.2 0 40.1 17.9 40.1 40z" fill="url(#SVGID_00000093891899395641090730000005628397534937311376_)"/><path d="m152.9 111.1h-44.6v-11.3h17v-57.9h-17v-11.3h28v69.2h16.6zm2.2-26.1v-28.5c0-7.4 2.6-13.8 7.7-19.2s11.4-8.1 18.7-8.1 13.6 2.7 18.7 8.1 7.7 11.8 7.7 19.2v28.5c0 7.4-2.6 13.9-7.7 19.4s-11.4 8.2-18.7 8.2-13.6-2.7-18.7-8.2-7.7-11.9-7.7-19.4zm11.2-28.5v28.5c0 4.4 1.5 8.2 4.5 11.4s6.6 4.8 10.8 4.8 7.8-1.6 10.8-4.9 4.5-7.1 4.5-11.3v-28.5c0-4.3-1.5-8-4.5-11.2s-6.6-4.7-10.8-4.7-7.8 1.6-10.8 4.7c-3.1 3.2-4.5 6.9-4.5 11.2z" fill="url(#SVGID_00000011745382883554437410000000755723229280634287_)"/><path d="m359.1 400.9h44.6v11.3h-17v57.9h17v11.3h-28v-69.2h-16.6zm-2.2 26.1v28.5c0 7.4-2.6 13.8-7.7 19.2s-11.4 8.1-18.7 8.1-13.6-2.7-18.7-8.1-7.7-11.8-7.7-19.2v-28.5c0-7.4 2.6-13.9 7.7-19.4s11.4-8.2 18.7-8.2c7.4 0 13.6 2.7 18.7 8.2s7.7 11.9 7.7 19.4zm-11.2 28.5v-28.5c0-4.4-1.5-8.1-4.5-11.4-3-3.2-6.6-4.9-10.8-4.9s-7.8 1.6-10.8 4.9-4.5 7-4.5 11.3v28.5c0 4.3 1.5 8 4.5 11.1s6.6 4.7 10.8 4.7 7.8-1.6 10.8-4.7c3.1-3 4.5-6.7 4.5-11z" fill="url(#SVGID_00000147186941876302569700000009355102504336945035_)"/><path d="m167.7 132.1c-8-8-21.1-8-29.1 0l-3 3-3-3c-8-8-21.1-8-29.1 0-8 8-8 21.1 0 29.1l3 3 29.1 29.1 32.1-32.1c8.1-8 8.1-21.1 0-29.1z" fill="url(#SVGID_00000153664893847692672660000013377203305316356793_)"/><path d="m344.3 379.9c8 8 21.1 8 29.1 0l3-3 3 3c8 8 21.1 8 29.1 0 8-8 8-21.1 0-29.1l-3-3-29.1-29.1-32.1 32.1c-8.1 8-8.1 21.1 0 29.1z" fill="url(#SVGID_00000052076755244389894960000010203172737274183074_)"/><path d="m325.2 196.5c-17.3-17.3-45.4-17.3-62.8 0l-6.4 6.5-6.5-6.5c-17.3-17.3-45.4-17.3-62.8 0-17.3 17.3-17.3 45.4 0 62.8l6.5 6.5 62.8 62.8 69.2-69.2c17.4-17.5 17.4-45.6 0-62.9z" fill="url(#SVGID_00000010285715320437946270000017445999660819453317_)"/></g></g></svg>