<?xml version="1.0" encoding="UTF-8" standalone="no"?>
<svg
   id="Layer_2_00000150800686734183432390000007886320106636669880_"
   enable-background="new 0 0 512 512"
   viewBox="0 0 512 512"
   version="1.1"
   sodipodi:docname="2s.svg"
   inkscape:version="1.4.2 (f4327f4, 2025-05-13)"
   xmlns:inkscape="http://www.inkscape.org/namespaces/inkscape"
   xmlns:sodipodi="http://sodipodi.sourceforge.net/DTD/sodipodi-0.dtd"
   xmlns:xlink="http://www.w3.org/1999/xlink"
   xmlns="http://www.w3.org/2000/svg"
   xmlns:svg="http://www.w3.org/2000/svg">
  <defs
     id="defs10" />
  <sodipodi:namedview
     id="namedview10"
     pagecolor="#ffffff"
     bordercolor="#000000"
     borderopacity="0.25"
     inkscape:showpageshadow="2"
     inkscape:pageopacity="0.0"
     inkscape:pagecheckerboard="0"
     inkscape:deskcolor="#d1d1d1"
     inkscape:zoom="1.6699219"
     inkscape:cx="256.29941"
     inkscape:cy="257.79649"
     inkscape:window-width="1920"
     inkscape:window-height="1057"
     inkscape:window-x="-8"
     inkscape:window-y="-8"
     inkscape:window-maximized="1"
     inkscape:current-layer="_06" />
  <linearGradient
     id="lg1">
    <stop
       offset="0"
       stop-color="#454545"
       id="stop1" />
    <stop
       offset="1"
       id="stop2" />
  </linearGradient>
  <linearGradient
     id="SVGID_1_"
     gradientTransform="matrix(1.3631523,0,0,-1,-24.766986,512)"
     gradientUnits="userSpaceOnUse"
     x1="48.749"
     x2="463.231"
     xlink:href="#lg1"
     y1="463.246"
     y2="48.754" />
  <linearGradient
     id="SVGID_00000136369076087450678110000004581371989572980901_"
     gradientTransform="matrix(1.3835771,0,0,-1,-29.995726,512)"
     gradientUnits="userSpaceOnUse"
     x1="55.818"
     x2="456.162"
     y1="456.172"
     y2="55.828">
    <stop
       offset="0"
       stop-color="#f2f2f2"
       id="stop3" />
    <stop
       offset="1"
       stop-color="#d9d9d9"
       id="stop4" />
  </linearGradient>
  <linearGradient
     id="SVGID_00000083793984475007993220000005156892135412778375_"
     gradientTransform="matrix(1.8397734,0,0,-1.8397734,-81.879474,916.6868)"
     gradientUnits="userSpaceOnUse"
     x1="103.463"
     x2="163.986"
     xlink:href="#lg1"
     y1="465.023"
     y2="404.501" />
  <linearGradient
     id="SVGID_00000023280313010962520570000010972407638789328769_"
     gradientTransform="matrix(-1.8263495,0,0,1.8263495,1168.5512,279.09673)"
     gradientUnits="userSpaceOnUse"
     x1="348.014"
     x2="408.537"
     xlink:href="#lg1"
     y1="107.499"
     y2="46.977" />
  <linearGradient
     id="SVGID_00000129186098017643796500000007682620420192071829_"
     gradientTransform="matrix(-1.8263495,0,0,1.8263495,1173.8333,-47.637191)"
     gradientUnits="userSpaceOnUse"
     x1="356.86"
     x2="395.957"
     xlink:href="#lg1"
     y1="184.687"
     y2="145.6" />
  <linearGradient
     id="SVGID_00000075132770272687563980000008698844653775512241_"
     gradientTransform="matrix(1 0 0 -1 0 512)"
     gradientUnits="userSpaceOnUse"
     x1="213.868"
     x2="298.138"
     xlink:href="#lg1"
     y1="286.353"
     y2="202.083" />
  <linearGradient
     id="SVGID_00000116952529879145080960000002948809081720793265_"
     gradientTransform="matrix(1.8397734,0,0,-1.8397734,-87.063514,916.6868)"
     gradientUnits="userSpaceOnUse"
     x1="116.045"
     x2="155.135"
     xlink:href="#lg1"
     y1="366.4"
     y2="327.31" />
  <g
     id="Icon"
     transform="translate(-68.2)">
    <g
       id="_06">
      <path
         d="m 580.2,68.158 v 375.548 c 0,27.6 -30.53461,68.294 -68.15761,68.294 H 136.35761 C 98.734611,512 68.2,471.306 68.2,443.706 V 68.158 C 68.2,40.558 98.735001,0 136.358,0 H 511.906 C 549.66532,0 580.2,40.558 580.2,68.158 Z"
         fill="url(#SVGID_1_)"
         id="path4"
         style="fill:url(#SVGID_1_);stroke-width:1.16754"
         sodipodi:nodetypes="sssssssss" />
      <path
         d="m 570.2,68.158 v 375.548 c 0,22.1 -27.64777,58.294 -58.22482,58.294 H 136.358 C 105.78095,502 78.2,465.806 78.2,443.706 V 68.158 C 78.2,46.058 105.78095,10 136.358,10 H 511.83682 C 542.55223,10 570.2,46.058 570.2,68.158 Z"
         fill="url(#SVGID_00000136369076087450678110000004581371989572980901_)"
         id="path5"
         style="fill:url(#SVGID_00000136369076087450678110000004581371989572980901_);stroke-width:1.17625"
         sodipodi:nodetypes="sssssssss" />
      <path
         d="m 193.16666,141.95822 h 18.94966 v 38.26729 H 117.368 v -9.75078 c 0,-17.84582 6.62316,-33.66787 19.68558,-47.83413 5.15135,-5.33534 17.29386,-15.08614 36.61148,-29.252396 13.06238,-9.566819 19.68558,-17.661824 19.68558,-24.652963 0,-6.439204 -3.67956,-11.406594 -10.85467,-14.902165 -5.70329,-2.759659 -12.14251,-4.231477 -19.5016,-4.231477 -17.66183,0 -26.67672,5.887273 -26.67672,17.661824 0,2.391705 0.73593,5.151364 2.02377,8.278979 l -17.66182,7.359095 c -2.20775,-5.51932 -3.12762,-10.854663 -3.12762,-15.638074 0,-12.326482 4.59943,-21.709327 13.79827,-28.332509 8.279,-5.887277 18.76571,-8.830914 31.64412,-8.830914 12.8784,0 23.91705,3.127615 33.11593,9.566823 10.67069,7.175114 16.19,16.925915 16.19,29.068418 0,11.406598 -5.70329,21.893305 -17.10991,31.828079 -11.2226,8.46296 -22.26126,16.92592 -33.48386,25.38888 -13.06238,10.85466 -20.97342,22.44523 -23.5491,34.58772 h 55.19321 z"
         fill="url(#SVGID_00000083793984475007993220000005156892135412778375_)"
         id="path6"
         style="fill:url(#SVGID_00000083793984475007993220000005156892135412778375_);stroke-width:1.83977" />
      <path
         d="M 506.4996,445.11193 H 525.311 V 483.1 h -94.057 v -9.67965 c 0,-17.71559 6.57486,-33.60483 19.54194,-47.48509 5.11378,-5.47905 17.16769,-14.97607 36.34436,-29.03896 12.96708,-9.49702 19.54194,-17.53295 19.54194,-24.47308 0,-6.39223 -3.6527,-11.14073 -10.77547,-14.79343 -5.66168,-2.73953 -12.0539,-4.20061 -19.3593,-4.20061 -17.53296,0 -26.48207,5.84432 -26.48207,17.53296 0,2.55689 0.73054,5.29641 2.00899,8.21857 l -17.53296,7.3054 c -2.00899,-5.47905 -3.10479,-10.77546 -3.10479,-15.52397 0,-12.23654 4.56587,-21.55093 13.69762,-28.12579 8.21857,-5.84431 18.62876,-8.76647 31.41321,-8.76647 12.78445,0 23.74254,3.10479 32.87429,9.49701 10.77546,7.12277 16.07188,16.80242 16.07188,28.85633 0,11.14073 -5.66169,21.73356 -16.98505,31.59584 -10.9581,8.40121 -22.09883,16.80242 -33.05693,25.20363 -12.96708,10.77546 -20.82039,22.28146 -23.37727,34.33537 h 54.79048 z"
         fill="url(#SVGID_00000023280313010962520570000010972407638789328769_)"
         id="path7"
         style="fill:url(#SVGID_00000023280313010962520570000010972407638789328769_);stroke-width:1.82635" />
      <path
         d="m 535.52421,231.7943 -4.56588,-4.56587 -44.56293,-44.56293 -49.1288,49.1288 c -12.23654,12.23654 -12.23654,32.14375 0,44.56293 12.05391,12.05391 31.41321,12.23654 43.83239,0.73054 -0.54791,11.68864 -4.74851,21.00302 -12.05391,28.49105 h 34.88328 c -7.3054,-7.30539 -11.506,-16.80241 -12.05391,-28.49105 12.41918,11.506 31.77848,11.32337 43.83239,-0.73054 12.05391,-12.41918 12.05391,-32.32639 -0.18263,-44.56293 z"
         fill="url(#SVGID_00000129186098017643796500000007682620420192071829_)"
         id="path8"
         style="fill:url(#SVGID_00000129186098017643796500000007682620420192071829_);stroke-width:1.82635" />
      <path
         d="m 211.89968,256.20815 -4.59944,-4.59943 -44.89048,-44.89048 -49.48991,49.48991 c -12.32646,12.3265 -12.32646,32.38001 0,44.89048 12.14251,12.14251 31.64411,12.3265 44.15458,0.73589 -0.55194,11.77455 -4.78341,21.34139 -12.14251,28.70048 h 35.13966 c -7.35909,-7.54307 -11.59056,-16.92593 -12.14251,-28.70048 12.51048,11.59061 32.01208,11.40662 44.15459,-0.73589 12.14247,-12.51047 12.14247,-32.56398 -0.18384,-44.89048 z"
         fill="url(#SVGID_00000116952529879145080960000002948809081720793265_)"
         id="path10"
         style="fill:url(#SVGID_00000116952529879145080960000002948809081720793265_);stroke-width:1.83977" />
    </g>
  </g>
</svg>
