<?xml version="1.0" encoding="UTF-8" standalone="no"?>
<svg
   id="Layer_2_00000003804551198226987590000009463231480634048906_"
   enable-background="new 0 0 512 512"
   viewBox="0 0 512 512"
   version="1.1"
   sodipodi:docname="3s.svg"
   inkscape:version="1.4.2 (f4327f4, 2025-05-13)"
   xmlns:inkscape="http://www.inkscape.org/namespaces/inkscape"
   xmlns:sodipodi="http://sodipodi.sourceforge.net/DTD/sodipodi-0.dtd"
   xmlns:xlink="http://www.w3.org/1999/xlink"
   xmlns="http://www.w3.org/2000/svg"
   xmlns:svg="http://www.w3.org/2000/svg">
  <defs
     id="defs10" />
  <sodipodi:namedview
     id="namedview10"
     pagecolor="#ffffff"
     bordercolor="#000000"
     borderopacity="0.25"
     inkscape:showpageshadow="2"
     inkscape:pageopacity="0.0"
     inkscape:pagecheckerboard="0"
     inkscape:deskcolor="#d1d1d1"
     inkscape:zoom="1.6699219"
     inkscape:cx="256.29941"
     inkscape:cy="257.79649"
     inkscape:window-width="1920"
     inkscape:window-height="1057"
     inkscape:window-x="-8"
     inkscape:window-y="-8"
     inkscape:window-maximized="1"
     inkscape:current-layer="Layer_2_00000003804551198226987590000009463231480634048906_" />
  <linearGradient
     id="lg1">
    <stop
       offset="0"
       stop-color="#454545"
       id="stop1" />
    <stop
       offset="1"
       id="stop2" />
  </linearGradient>
  <linearGradient
     id="SVGID_1_"
     gradientTransform="matrix(1.3631523,0,0,-1,-24.766986,512)"
     gradientUnits="userSpaceOnUse"
     x1="48.749"
     x2="463.231"
     xlink:href="#lg1"
     y1="463.246"
     y2="48.754" />
  <linearGradient
     id="SVGID_00000176738091706952774840000005504241210959071879_"
     gradientTransform="matrix(1.3835771,0,0,-1,-29.995727,512)"
     gradientUnits="userSpaceOnUse"
     x1="55.818"
     x2="456.162"
     y1="456.172"
     y2="55.828">
    <stop
       offset="0"
       stop-color="#f2f2f2"
       id="stop3" />
    <stop
       offset="1"
       stop-color="#d9d9d9"
       id="stop4" />
  </linearGradient>
  <linearGradient
     id="SVGID_00000039821140890664688530000013997610842070767542_"
     gradientTransform="matrix(1.8397734,0,0,-1.8397734,-81.87946,916.6868)"
     gradientUnits="userSpaceOnUse"
     x1="105.91"
     x2="164.875"
     xlink:href="#lg1"
     y1="478.355"
     y2="419.39" />
  <linearGradient
     id="SVGID_00000042717704400795775200000013984319980233635502_"
     gradientTransform="matrix(-1.8263495,0,0,1.8263495,1168.5512,278.9141)"
     gradientUnits="userSpaceOnUse"
     x1="347.115"
     x2="406.08"
     xlink:href="#lg1"
     y1="92.61"
     y2="33.645" />
  <linearGradient
     id="SVGID_00000170280659935063996140000000780409406069817781_"
     gradientTransform="matrix(-1.8263495,0,0,1.8263495,1173.8333,-47.637191)"
     gradientUnits="userSpaceOnUse"
     x1="356.86"
     x2="395.957"
     xlink:href="#lg1"
     y1="184.687"
     y2="145.6" />
  <linearGradient
     id="SVGID_00000005959404576000065630000000468906434615329152_"
     gradientTransform="matrix(1 0 0 -1 0 512)"
     gradientUnits="userSpaceOnUse"
     x1="213.868"
     x2="298.138"
     xlink:href="#lg1"
     y1="286.353"
     y2="202.083" />
  <linearGradient
     id="SVGID_00000034086242155950698060000007725241382844039099_"
     gradientTransform="matrix(1.8397734,0,0,-1.8397734,-87.06351,916.6868)"
     gradientUnits="userSpaceOnUse"
     x1="116.045"
     x2="155.135"
     xlink:href="#lg1"
     y1="366.4"
     y2="327.31" />
  <g
     id="Icon"
     transform="translate(-68.2)">
    <g
       id="_07">
      <path
         d="m 580.2,68.158 v 375.684 c 0,27.6 -30.535,68.158 -68.158,68.158 H 136.35762 C 98.734611,512 68.2,471.442 68.2,443.842 V 68.158 C 68.2,40.558 98.734991,0 136.358,0 H 511.90607 C 549.66538,0 580.2,40.558 580.2,68.158 Z"
         fill="url(#SVGID_1_)"
         id="path4"
         style="fill:url(#SVGID_1_);stroke-width:1.16754"
         sodipodi:nodetypes="sssssssss" />
      <path
         d="m 570.2,68.158 v 375.684 c 0,22.1 -27.51173,58.158 -58.08878,58.158 H 136.358 C 105.78094,502 78.2,465.942 78.2,443.842 V 68.158 C 78.2,46.058 105.78094,10 136.358,10 H 511.97278 C 542.6882,10 570.2,46.058 570.2,68.158 Z"
         fill="url(#SVGID_00000176738091706952774840000005504241210959071879_)"
         id="path5"
         style="fill:url(#SVGID_00000176738091706952774840000005504241210959071879_);stroke-width:1.17625"
         sodipodi:nodetypes="sssssssss" />
      <path
         d="m 165.75404,180.40949 c -11.22261,0 -21.52535,-3.86353 -30.35626,-11.59057 -8.095,-6.99114 -14.16625,-16.19001 -18.02978,-27.59661 l 18.02978,-6.4392 c 2.39171,7.35909 6.25523,13.43034 11.22262,18.02978 5.7033,5.33534 12.1425,8.095 19.31762,8.095 9.01489,0 16.74194,-3.49557 23.18115,-10.67069 6.4392,-6.99113 9.75079,-15.08614 9.75079,-23.91705 0,-8.83091 -2.75966,-16.00603 -8.27898,-21.52535 -5.51932,-5.519319 -12.87841,-8.278979 -21.8933,-8.278979 -4.0475,0 -7.35909,0.551932 -9.7508,1.655796 -2.3917,1.103864 -5.15136,3.127613 -8.46296,6.255233 L 136.8696,90.9965 180.84019,49.601598 H 138.34142 V 68.551265 H 119.39175 V 30.1 h 96.77208 v 12.142505 l -37.71535,35.691604 c 11.95853,2.207728 21.52535,7.727048 28.51649,16.741938 6.99114,9.014893 10.67068,19.501603 10.67068,31.828083 0,14.35023 -5.15136,26.86069 -15.45409,37.71535 -9.93478,10.67069 -22.26126,16.19001 -36.42752,16.19001 z"
         fill="url(#SVGID_00000039821140890664688530000013997610842070767542_)"
         id="path6"
         style="fill:url(#SVGID_00000039821140890664688530000013997610842070767542_);stroke-width:1.83977" />
      <path
         d="m 479.28699,483.1 c -11.14073,0 -21.36829,-3.83533 -30.13476,-11.506 -8.03594,-6.94013 -14.0629,-16.07188 -17.89823,-27.39525 l 17.89823,-6.39222 c 2.55689,7.3054 6.20958,13.33235 11.14073,17.89823 5.66168,5.29641 12.05391,8.03593 19.17667,8.03593 8.94911,0 16.61978,-3.47006 23.012,-10.59282 6.39223,-6.94013 9.67966,-14.97607 9.67966,-23.74255 0,-8.76647 -2.73953,-15.88924 -8.21858,-21.36829 -5.47905,-5.47905 -12.78444,-8.21857 -21.73356,-8.21857 -4.01797,0 -7.3054,0.54791 -9.67965,1.64372 -2.37425,1.0958 -5.11378,3.10479 -8.40121,6.20958 l -13.51498,-13.33235 43.64975,-41.09286 h -42.18867 v 18.8114 h -18.81141 v -38.17071 h 96.06599 v 12.05391 l -37.44016,35.43118 c 11.87127,2.19162 21.36829,7.67067 28.30841,16.61978 6.94013,8.94911 10.59283,19.35931 10.59283,31.59585 0,14.24552 -5.11378,26.6647 -15.34134,37.44016 C 505.58643,477.62095 493.53252,483.1 479.28699,483.1 Z"
         fill="url(#SVGID_00000042717704400795775200000013984319980233635502_)"
         id="path7"
         style="fill:url(#SVGID_00000042717704400795775200000013984319980233635502_);stroke-width:1.82635" />
      <path
         d="m 535.52421,231.7943 -4.56588,-4.56587 -44.56293,-44.56293 -49.1288,49.1288 c -12.23654,12.23654 -12.23654,32.14375 0,44.56293 12.05391,12.05391 31.41321,12.23654 43.83239,0.73054 -0.54791,11.68864 -4.74851,21.00302 -12.05391,28.49105 h 34.88328 c -7.3054,-7.30539 -11.506,-16.80241 -12.05391,-28.49105 12.41918,11.506 31.77848,11.32337 43.83239,-0.73054 12.05391,-12.41918 12.05391,-32.32639 -0.18263,-44.56293 z"
         fill="url(#SVGID_00000170280659935063996140000000780409406069817781_)"
         id="path8"
         style="fill:url(#SVGID_00000170280659935063996140000000780409406069817781_);stroke-width:1.82635" />
      <path
         d="m 211.89967,256.20815 -4.59943,-4.59943 -44.89047,-44.89047 -49.48991,49.4899 c -12.32648,12.32649 -12.32648,32.38002 0,44.89048 12.14251,12.1425 31.6441,12.32648 44.15456,0.7359 -0.55193,11.77455 -4.78341,21.34138 -12.1425,28.70047 h 35.13967 c -7.35909,-7.54307 -11.59057,-16.92592 -12.1425,-28.70047 12.51046,11.59058 32.01205,11.4066 44.15456,-0.7359 12.1425,-12.51046 12.1425,-32.56399 -0.18398,-44.89048 z"
         fill="url(#SVGID_00000034086242155950698060000007725241382844039099_)"
         id="path10"
         style="fill:url(#SVGID_00000034086242155950698060000007725241382844039099_);stroke-width:1.83977" />
    </g>
  </g>
</svg>
