<?xml version="1.0" encoding="UTF-8" standalone="no"?>
<svg
   id="Layer_2_00000085937483002371442770000000206079185991425676_"
   enable-background="new 0 0 512 512"
   viewBox="0 0 512 512"
   version="1.1"
   sodipodi:docname="4s.svg"
   inkscape:version="1.4.2 (f4327f4, 2025-05-13)"
   xmlns:inkscape="http://www.inkscape.org/namespaces/inkscape"
   xmlns:sodipodi="http://sodipodi.sourceforge.net/DTD/sodipodi-0.dtd"
   xmlns:xlink="http://www.w3.org/1999/xlink"
   xmlns="http://www.w3.org/2000/svg"
   xmlns:svg="http://www.w3.org/2000/svg">
  <defs
     id="defs10" />
  <sodipodi:namedview
     id="namedview10"
     pagecolor="#ffffff"
     bordercolor="#000000"
     borderopacity="0.25"
     inkscape:showpageshadow="2"
     inkscape:pageopacity="0.0"
     inkscape:pagecheckerboard="0"
     inkscape:deskcolor="#d1d1d1"
     inkscape:zoom="1.6699219"
     inkscape:cx="256.29941"
     inkscape:cy="257.79649"
     inkscape:window-width="1920"
     inkscape:window-height="1057"
     inkscape:window-x="-8"
     inkscape:window-y="-8"
     inkscape:window-maximized="1"
     inkscape:current-layer="Layer_2_00000085937483002371442770000000206079185991425676_" />
  <linearGradient
     id="lg1">
    <stop
       offset="0"
       stop-color="#454545"
       id="stop1" />
    <stop
       offset="1"
       id="stop2" />
  </linearGradient>
  <linearGradient
     id="SVGID_1_"
     gradientTransform="matrix(1.3631523,0,0,-1,-24.766986,512)"
     gradientUnits="userSpaceOnUse"
     x1="48.749"
     x2="463.231"
     xlink:href="#lg1"
     y1="463.246"
     y2="48.754" />
  <linearGradient
     id="SVGID_00000005983112146365812820000001219038148313043631_"
     gradientTransform="matrix(1.3835771,0,0,-1,-29.995726,512)"
     gradientUnits="userSpaceOnUse"
     x1="55.818"
     x2="456.162"
     y1="456.172"
     y2="55.828">
    <stop
       offset="0"
       stop-color="#f2f2f2"
       id="stop3" />
    <stop
       offset="1"
       stop-color="#d9d9d9"
       id="stop4" />
  </linearGradient>
  <linearGradient
     id="SVGID_00000075147458372634121180000013878316785312431762_"
     gradientTransform="matrix(1.8476937,0,0,-1.8476937,-82.651227,919.91021)"
     gradientUnits="userSpaceOnUse"
     x1="120.218"
     x2="167.208"
     xlink:href="#lg1"
     y1="459.773"
     y2="412.783" />
  <linearGradient
     id="SVGID_00000119097626249221126030000013391634884687293596_"
     gradientTransform="matrix(-1.8263495,0,0,1.8263495,1168.5512,280.37518)"
     gradientUnits="userSpaceOnUse"
     x1="344.783"
     x2="391.773"
     xlink:href="#lg1"
     y1="99.218"
     y2="52.228" />
  <linearGradient
     id="SVGID_00000182499211535136454350000008719288281230896015_"
     gradientTransform="matrix(-1.8263495,0,0,1.8263495,1173.8333,-47.637191)"
     gradientUnits="userSpaceOnUse"
     x1="356.86"
     x2="395.957"
     xlink:href="#lg1"
     y1="184.687"
     y2="145.6" />
  <linearGradient
     id="SVGID_00000181775835926131480430000009303933924665579964_"
     gradientTransform="matrix(1,0,0,-1,0,512)"
     gradientUnits="userSpaceOnUse"
     x1="213.868"
     x2="298.138"
     xlink:href="#lg1"
     y1="286.353"
     y2="202.083" />
  <linearGradient
     id="SVGID_00000071557151883287522800000010186958555410140066_"
     gradientTransform="matrix(1.8476937,0,0,-1.8476937,-87.884647,919.91021)"
     gradientUnits="userSpaceOnUse"
     x1="116.045"
     x2="155.135"
     xlink:href="#lg1"
     y1="366.4"
     y2="327.31" />
  <g
     id="Icon"
     transform="translate(-68.2)">
    <g
       id="_08">
      <path
         d="m 580.2,68.158 v 375.548 c 0,27.6 -30.53461,68.294 -68.15761,68.294 H 136.35761 C 98.734611,512 68.2,471.306 68.2,443.706 V 68.158 C 68.2,40.558 98.735001,0 136.358,0 H 511.906 C 549.66532,0 580.2,40.558 580.2,68.158 Z"
         fill="url(#SVGID_1_)"
         id="path4"
         style="fill:url(#SVGID_1_);stroke-width:1.16754"
         sodipodi:nodetypes="sssssssss" />
      <path
         d="m 570.2,68.158 v 375.548 c 0,22.1 -27.64777,58.294 -58.22482,58.294 H 136.358 C 105.78095,502 78.2,465.806 78.2,443.706 V 68.158 C 78.2,46.058 105.78095,10 136.358,10 H 511.83682 C 542.55223,10 570.2,46.058 570.2,68.158 Z"
         fill="url(#SVGID_00000005983112146365812820000001219038148313043631_)"
         id="path5"
         style="fill:url(#SVGID_00000005983112146365812820000001219038148313043631_);stroke-width:1.17625"
         sodipodi:nodetypes="sssssssss" />
      <path
         d="m 164.38542,159.58425 h 12.01001 V 143.87886 H 117.454 V 128.35823 L 178.9822,30.8 h 16.25971 v 93.4933 h 18.29217 v 19.58556 h -18.29217 v 15.70539 h 9.0537 v 19.40079 H 164.20065 Z M 142.95218,124.2933 h 33.44325 V 71.264493 Z"
         fill="url(#SVGID_00000075147458372634121180000013878316785312431762_)"
         id="path6"
         style="fill:url(#SVGID_00000075147458372634121180000013878316785312431762_);stroke-width:1.84769" />
      <path
         d="m 477.64328,463.92333 h 11.87127 V 448.39936 H 431.254 v -15.34134 l 60.81744,-96.61389 h 16.07188 v 92.41329 h 18.08086 v 19.54194 h -18.08086 v 15.52397 h 8.94911 V 483.1 h -39.63179 z m -21.18566,-34.88328 h 33.05693 v -52.41623 z"
         fill="url(#SVGID_00000119097626249221126030000013391634884687293596_)"
         id="path7"
         style="fill:url(#SVGID_00000119097626249221126030000013391634884687293596_);stroke-width:1.82635" />
      <path
         d="m 535.52421,231.7943 -4.56588,-4.56587 -44.56293,-44.56293 -49.1288,49.1288 c -12.23654,12.23654 -12.23654,32.14375 0,44.56293 12.05391,12.05391 31.41321,12.23654 43.83239,0.73054 -0.54791,11.68864 -4.74851,21.00302 -12.05391,28.49105 h 34.88328 c -7.3054,-7.30539 -11.506,-16.80241 -12.05391,-28.49105 12.41918,11.506 31.77848,11.32337 43.83239,-0.73054 12.05391,-12.41918 12.05391,-32.32639 -0.18263,-44.56293 z"
         fill="url(#SVGID_00000182499211535136454350000008719288281230896015_)"
         id="path8"
         style="fill:url(#SVGID_00000182499211535136454350000008719288281230896015_);stroke-width:1.82635" />
      <path
         d="m 212.36558,256.58817 -4.61923,-4.61923 -45.08373,-45.08373 -49.70296,49.70296 c -12.37955,12.37955 -12.37955,32.51941 0,45.08373 12.19478,12.19478 31.78033,12.37955 44.34465,0.73908 -0.55431,11.82524 -4.804,21.43325 -12.19478,28.82402 h 35.29095 c -7.39077,-7.57554 -11.64047,-16.99878 -12.19478,-28.82402 12.56432,11.64047 32.14987,11.4557 44.34465,-0.73908 12.19478,-12.56432 12.19478,-32.70418 -0.18477,-45.08373 z"
         fill="url(#SVGID_00000071557151883287522800000010186958555410140066_)"
         id="path10"
         style="fill:url(#SVGID_00000071557151883287522800000010186958555410140066_);stroke-width:1.84769" />
    </g>
  </g>
</svg>
