<?xml version="1.0" encoding="UTF-8" standalone="no"?>
<svg
   id="Layer_2_00000032625282086663021820000012915105361469322626_"
   enable-background="new 0 0 512 512"
   viewBox="0 0 512 512"
   version="1.1"
   sodipodi:docname="5s.svg"
   inkscape:version="1.4.2 (f4327f4, 2025-05-13)"
   xmlns:inkscape="http://www.inkscape.org/namespaces/inkscape"
   xmlns:sodipodi="http://sodipodi.sourceforge.net/DTD/sodipodi-0.dtd"
   xmlns:xlink="http://www.w3.org/1999/xlink"
   xmlns="http://www.w3.org/2000/svg"
   xmlns:svg="http://www.w3.org/2000/svg">
  <defs
     id="defs10" />
  <sodipodi:namedview
     id="namedview10"
     pagecolor="#ffffff"
     bordercolor="#000000"
     borderopacity="0.25"
     inkscape:showpageshadow="2"
     inkscape:pageopacity="0.0"
     inkscape:pagecheckerboard="0"
     inkscape:deskcolor="#d1d1d1"
     inkscape:zoom="1.6699219"
     inkscape:cx="256.29941"
     inkscape:cy="257.79649"
     inkscape:window-width="1920"
     inkscape:window-height="1057"
     inkscape:window-x="-8"
     inkscape:window-y="-8"
     inkscape:window-maximized="1"
     inkscape:current-layer="Layer_2_00000032625282086663021820000012915105361469322626_" />
  <linearGradient
     id="lg1">
    <stop
       offset="0"
       stop-color="#454545"
       id="stop1" />
    <stop
       offset="1"
       id="stop2" />
  </linearGradient>
  <linearGradient
     id="SVGID_1_"
     gradientTransform="matrix(1.3631523,0,0,-1,-24.766986,512)"
     gradientUnits="userSpaceOnUse"
     x1="48.749"
     x2="463.231"
     xlink:href="#lg1"
     y1="463.246"
     y2="48.754" />
  <linearGradient
     id="SVGID_00000124121353078844962230000003537228999421420937_"
     gradientTransform="matrix(1.3835771,0,0,-1,-29.995726,512)"
     gradientUnits="userSpaceOnUse"
     x1="55.818"
     x2="456.162"
     y1="456.172"
     y2="55.828">
    <stop
       offset="0"
       stop-color="#f2f2f2"
       id="stop3" />
    <stop
       offset="1"
       stop-color="#d9d9d9"
       id="stop4" />
  </linearGradient>
  <linearGradient
     id="SVGID_00000108291129189422380370000017212717612296610702_"
     gradientTransform="matrix(1.8375229,0,0,-1.8375229,-81.65973,915.76979)"
     gradientUnits="userSpaceOnUse"
     x1="105.298"
     x2="161.838"
     xlink:href="#lg1"
     y1="474.014"
     y2="417.464" />
  <linearGradient
     id="SVGID_00000181782466041887546690000011446042712727037827_"
     gradientTransform="matrix(-1.8263495,0,0,1.8263495,1168.5512,278.54883)"
     gradientUnits="userSpaceOnUse"
     x1="350.162"
     x2="406.702"
     xlink:href="#lg1"
     y1="94.536"
     y2="37.986" />
  <linearGradient
     id="SVGID_00000078016951329985574580000016493254090875977139_"
     gradientTransform="matrix(-1.8263495,0,0,1.8263495,1173.8333,-47.637191)"
     gradientUnits="userSpaceOnUse"
     x1="356.86"
     x2="395.957"
     xlink:href="#lg1"
     y1="184.687"
     y2="145.6" />
  <linearGradient
     id="SVGID_00000144307527772304889390000009678919024451637685_"
     gradientTransform="matrix(1,0,0,-1,0,512)"
     gradientUnits="userSpaceOnUse"
     x1="213.868"
     x2="298.138"
     xlink:href="#lg1"
     y1="286.353"
     y2="202.083" />
  <linearGradient
     id="SVGID_00000043441140471448871480000001890618169272920995_"
     gradientTransform="matrix(1.8375229,0,0,-1.8375229,-86.83019,915.76979)"
     gradientUnits="userSpaceOnUse"
     x1="116.045"
     x2="155.135"
     xlink:href="#lg1"
     y1="366.4"
     y2="327.31" />
  <g
     id="Icon"
     transform="translate(-68.2)">
    <g
       id="_09">
      <path
         d="m 580.2,68.158 v 375.548 c 0,27.6 -30.53461,68.294 -68.15761,68.294 H 136.35761 C 98.734611,512 68.2,471.306 68.2,443.706 V 68.158 C 68.2,40.558 98.735001,0 136.358,0 H 511.906 C 549.66532,0 580.2,40.558 580.2,68.158 Z"
         fill="url(#SVGID_1_)"
         id="path4"
         style="fill:url(#SVGID_1_);stroke-width:1.16754"
         sodipodi:nodetypes="sssssssss" />
      <path
         d="m 570.2,68.158 v 375.548 c 0,22.1 -27.64777,58.294 -58.22482,58.294 H 136.358 C 105.78095,502 78.2,465.806 78.2,443.706 V 68.158 C 78.2,46.058 105.78095,10 136.358,10 H 511.83682 C 542.55223,10 570.2,46.058 570.2,68.158 Z"
         fill="url(#SVGID_00000124121353078844962230000003537228999421420937_)"
         id="path5"
         style="fill:url(#SVGID_00000124121353078844962230000003537228999421420937_);stroke-width:1.17625"
         sodipodi:nodetypes="sssssssss" />
      <path
         d="m 164.7521,180.76063 c -10.65764,0 -20.39651,-3.67504 -29.21662,-11.02513 -7.7176,-6.79884 -13.78142,-15.4352 -18.19148,-25.90908 l 17.64022,-7.35009 c 2.75629,6.98259 6.61509,12.49516 11.39265,16.90521 5.51256,5.32882 11.76014,7.90135 18.37523,7.90135 9.37136,0 17.27271,-4.41006 23.52029,-13.23017 5.69632,-7.90134 8.4526,-16.5377 8.4526,-26.09282 0,-9.55512 -2.75628,-18.37523 -8.4526,-26.092827 -6.06383,-8.268853 -13.96518,-12.495156 -23.52029,-12.495156 -8.08511,0 -16.17021,4.410055 -24.25531,13.046413 L 126.71537,88.333229 V 29.9 h 71.6634 v 19.477743 h -52.73691 v 18.926486 c 6.06382,-2.756284 12.49515,-4.226302 18.92648,-4.226302 14.88394,0 27.19534,6.063825 37.11797,18.191477 9.37136,11.392642 13.96517,24.622806 13.96517,39.690496 0,15.06769 -4.59381,28.4816 -13.78142,40.058 -9.92263,12.3114 -22.41778,18.55898 -37.11796,18.74273 z"
         fill="url(#SVGID_00000108291129189422380370000017212717612296610702_)"
         id="path6"
         style="fill:url(#SVGID_00000108291129189422380370000017212717612296610702_);stroke-width:1.83752" />
      <path
         d="m 478.37382,483.1 c -10.59283,0 -20.08985,-3.6527 -29.03896,-10.9581 -7.67067,-6.57486 -13.69762,-15.34133 -18.08086,-25.75153 l 17.53296,-7.30539 c 2.73952,6.94012 6.57485,12.41917 11.32336,16.80241 5.47905,5.29642 11.68864,7.8533 18.2635,7.8533 9.31438,0 17.16768,-4.38323 23.37727,-13.14971 5.66169,-7.85331 8.40121,-16.43715 8.40121,-25.93417 0,-9.49701 -2.73952,-18.26349 -8.40121,-25.93416 -6.02695,-8.21857 -13.88025,-12.41918 -23.37727,-12.41918 -8.03594,0 -16.07188,4.38324 -24.10782,12.96709 l -13.69762,-8.03594 V 333.1567 h 71.22764 v 19.35931 h -52.41624 v 18.8114 c 6.02696,-2.73953 12.41918,-4.20061 18.8114,-4.20061 14.79344,0 27.02998,6.02696 36.89226,18.08086 9.31439,11.14074 13.88026,24.47309 13.88026,39.44915 0,14.97607 -4.56587,28.30842 -13.69762,39.81442 -9.86229,12.23655 -22.28146,18.44614 -36.89226,18.62877 z"
         fill="url(#SVGID_00000181782466041887546690000011446042712727037827_)"
         id="path7"
         style="fill:url(#SVGID_00000181782466041887546690000011446042712727037827_);stroke-width:1.82635" />
      <path
         d="m 535.52421,231.7943 -4.56588,-4.56587 -44.56293,-44.56293 -49.1288,49.1288 c -12.23654,12.23654 -12.23654,32.14375 0,44.56293 12.05391,12.05391 31.41321,12.23654 43.83239,0.73054 -0.54791,11.68864 -4.74851,21.00302 -12.05391,28.49105 h 34.88328 c -7.3054,-7.30539 -11.506,-16.80241 -12.05391,-28.49105 12.41918,11.506 31.77848,11.32337 43.83239,-0.73054 12.05391,-12.41918 12.05391,-32.32639 -0.18263,-44.56293 z"
         fill="url(#SVGID_00000078016951329985574580000016493254090875977139_)"
         id="path8"
         style="fill:url(#SVGID_00000078016951329985574580000016493254090875977139_);stroke-width:1.82635" />
      <path
         d="m 211.76729,256.09907 -4.59381,-4.5938 -44.83556,-44.83556 -49.42937,49.42936 c -12.3114,12.31141 -12.3114,32.34041 0,44.83556 12.12765,12.12765 31.6054,12.31141 44.10055,0.73501 -0.55125,11.76015 -4.77756,21.31527 -12.12765,28.66536 h 35.09669 c -7.35009,-7.53384 -11.57639,-16.90521 -12.12765,-28.66536 12.49515,11.5764 31.9729,11.39264 44.10055,-0.73501 12.12765,-12.49515 12.12765,-32.52415 -0.18375,-44.83556 z"
         fill="url(#SVGID_00000043441140471448871480000001890618169272920995_)"
         id="path10"
         style="fill:url(#SVGID_00000043441140471448871480000001890618169272920995_);stroke-width:1.83752" />
    </g>
  </g>
</svg>
