<?xml version="1.0" encoding="UTF-8" standalone="no"?>
<svg
   id="Layer_2_00000070102569616506022990000002233301984581013638_"
   enable-background="new 0 0 512 512"
   viewBox="0 0 512 512"
   version="1.1"
   sodipodi:docname="6s.svg"
   inkscape:version="1.4.2 (f4327f4, 2025-05-13)"
   xmlns:inkscape="http://www.inkscape.org/namespaces/inkscape"
   xmlns:sodipodi="http://sodipodi.sourceforge.net/DTD/sodipodi-0.dtd"
   xmlns:xlink="http://www.w3.org/1999/xlink"
   xmlns="http://www.w3.org/2000/svg"
   xmlns:svg="http://www.w3.org/2000/svg">
  <defs
     id="defs10" />
  <sodipodi:namedview
     id="namedview10"
     pagecolor="#ffffff"
     bordercolor="#000000"
     borderopacity="0.25"
     inkscape:showpageshadow="2"
     inkscape:pageopacity="0.0"
     inkscape:pagecheckerboard="0"
     inkscape:deskcolor="#d1d1d1"
     inkscape:zoom="1.6699219"
     inkscape:cx="256.29941"
     inkscape:cy="257.79649"
     inkscape:window-width="1920"
     inkscape:window-height="1057"
     inkscape:window-x="-8"
     inkscape:window-y="-8"
     inkscape:window-maximized="1"
     inkscape:current-layer="Layer_2_00000070102569616506022990000002233301984581013638_" />
  <linearGradient
     id="lg1">
    <stop
       offset="0"
       stop-color="#454545"
       id="stop1" />
    <stop
       offset="1"
       id="stop2" />
  </linearGradient>
  <linearGradient
     id="SVGID_1_"
     gradientTransform="matrix(1.3631523,0,0,-1,-24.766986,512)"
     gradientUnits="userSpaceOnUse"
     x1="48.749"
     x2="463.231"
     xlink:href="#lg1"
     y1="463.246"
     y2="48.754" />
  <linearGradient
     id="SVGID_00000035499158087153074290000015962939036309969805_"
     gradientTransform="matrix(1.3835771,0,0,-1,-29.995726,512)"
     gradientUnits="userSpaceOnUse"
     x1="55.818"
     x2="456.162"
     y1="456.172"
     y2="55.828">
    <stop
       offset="0"
       stop-color="#f2f2f2"
       id="stop3" />
    <stop
       offset="1"
       stop-color="#d9d9d9"
       id="stop4" />
  </linearGradient>
  <linearGradient
     id="SVGID_00000169546655269635006980000014283872512500628114_"
     gradientTransform="matrix(1.8308044,0,0,-1.8308044,-81.004115,913.02928)"
     gradientUnits="userSpaceOnUse"
     x1="108.987"
     x2="160.478"
     xlink:href="#lg1"
     y1="467.287"
     y2="415.787" />
  <linearGradient
     id="SVGID_00000109014906099304615190000015587290566354021760_"
     gradientTransform="matrix(-1.8263495,0,0,1.8263495,1168.5512,277.27038)"
     gradientUnits="userSpaceOnUse"
     x1="351.511"
     x2="403.005"
     xlink:href="#lg1"
     y1="96.21"
     y2="44.716" />
  <linearGradient
     id="SVGID_00000038390792215888257100000016033581204131637689_"
     gradientTransform="matrix(-1.8263495,0,0,1.8263495,1173.8333,-47.637191)"
     gradientUnits="userSpaceOnUse"
     x1="356.86"
     x2="395.957"
     xlink:href="#lg1"
     y1="184.687"
     y2="145.6" />
  <linearGradient
     id="SVGID_00000008129833034470281040000010490331534891821455_"
     gradientTransform="matrix(1,0,0,-1,0,512)"
     gradientUnits="userSpaceOnUse"
     x1="213.868"
     x2="298.138"
     xlink:href="#lg1"
     y1="286.353"
     y2="202.083" />
  <linearGradient
     id="SVGID_00000073683814321761064560000002781718561935583365_"
     gradientTransform="matrix(1.8308044,0,0,-1.8308044,-86.133645,913.02928)"
     gradientUnits="userSpaceOnUse"
     x1="116.045"
     x2="155.135"
     xlink:href="#lg1"
     y1="366.4"
     y2="327.31" />
  <g
     id="Icon"
     transform="translate(-68.2)">
    <g
       id="_10">
      <path
         d="m 580.2,68.158 v 375.548 c 0,27.6 -30.53461,68.294 -68.15761,68.294 H 136.35761 C 98.734611,512 68.2,471.306 68.2,443.706 V 68.158 C 68.2,40.558 98.735001,0 136.358,0 H 511.906 C 549.66532,0 580.2,40.558 580.2,68.158 Z"
         fill="url(#SVGID_1_)"
         id="path4"
         style="fill:url(#SVGID_1_);stroke-width:1.16754"
         sodipodi:nodetypes="sssssssss" />
      <path
         d="m 570.2,68.158 v 375.548 c 0,22.1 -27.64777,58.294 -58.22482,58.294 H 136.358 C 105.78095,502 78.2,465.806 78.2,443.706 V 68.158 C 78.2,46.058 105.78095,10 136.358,10 H 511.83682 C 542.55223,10 570.2,46.058 570.2,68.158 Z"
         fill="url(#SVGID_00000035499158087153074290000015962939036309969805_)"
         id="path5"
         style="fill:url(#SVGID_00000035499158087153074290000015962939036309969805_);stroke-width:1.17625"
         sodipodi:nodetypes="sssssssss" />
      <path
         d="m 117.82124,117.36169 c -0.36616,0.54924 -0.54924,-3.66161 -0.54924,-12.44947 0,-20.688088 2.74621,-37.165328 8.4217,-49.797878 C 133.74924,37.904781 146.74795,29.3 164.87291,29.3 c 8.97095,0 17.20957,2.380046 24.89894,7.140137 7.32322,4.760092 13.1818,10.984826 17.75881,19.040366 L 191.2365,65.366846 C 184.82868,54.19894 176.2239,48.706527 165.05599,48.706527 c -14.46335,0 -23.61737,10.801745 -27.0959,32.588318 8.05554,-7.140138 17.02648,-10.801746 26.91282,-10.801746 14.46336,0 26.36359,6.041654 35.51761,18.124963 8.23862,10.984826 12.26639,23.983538 12.26639,38.996138 0,14.09719 -4.39393,26.54666 -13.18179,37.34841 -9.33711,11.35098 -20.87117,17.02648 -34.60221,17.02648 -6.77397,0 -13.91411,-2.19697 -21.23733,-6.77398 -7.87246,-4.76009 -14.09719,-13.36487 -18.85728,-25.81434 -3.84469,-9.88635 -6.04166,-20.50501 -6.95706,-32.03908 z m 47.05167,45.22087 c 8.4217,0 15.56184,-3.84469 21.05425,-11.53407 5.30934,-6.95705 7.87246,-14.82951 7.87246,-23.43429 0,-9.70327 -2.38004,-18.12497 -7.14013,-25.2651 -5.49242,-8.238625 -12.63255,-12.449475 -21.78658,-12.449475 -6.59089,0 -12.63255,3.295448 -18.12496,9.703263 -4.39393,5.309332 -7.68938,11.717152 -9.88634,18.857282 1.09848,10.80175 3.47853,19.95577 6.95705,27.82823 5.12626,10.61867 12.08331,16.11108 21.05425,16.29416 z"
         fill="url(#SVGID_00000169546655269635006980000014283872512500628114_)"
         id="path6"
         style="fill:url(#SVGID_00000169546655269635006980000014283872512500628114_);stroke-width:1.8308" />
      <path
         d="m 431.80191,418.62986 h -0.18264 c -0.18263,0.54791 -0.36527,-3.6527 -0.36527,-12.41918 0,-20.63775 2.73952,-37.07489 8.40121,-49.6767 8.03594,-17.16769 21.00302,-25.75153 39.08388,-25.75153 8.94911,0 17.16768,2.37425 24.65572,7.12276 7.3054,4.74851 13.14971,10.9581 17.71559,18.99404 l -16.25451,9.86228 c -6.39223,-11.14073 -14.97607,-16.61978 -26.1168,-16.61978 -14.42816,0 -23.55991,10.77547 -27.02997,32.50902 8.03593,-7.12276 16.98505,-10.77546 26.84733,-10.77546 14.42817,0 26.29944,6.02696 35.43118,18.08086 8.21858,10.9581 12.23655,23.92518 12.23655,38.90125 0,14.06289 -4.38324,26.48207 -13.14972,37.25753 -9.31438,11.32337 -20.82038,16.98505 -34.51801,16.98505 -6.75749,0 -13.88025,-2.19162 -21.18565,-6.57486 -7.8533,-4.74851 -14.06289,-13.33235 -18.8114,-25.75153 -3.47007,-10.04492 -5.84432,-20.63775 -6.75749,-32.14375 z m 46.93718,45.11083 c 8.40121,0 15.52397,-3.83533 21.00302,-11.506 5.29641,-6.94013 7.8533,-14.79343 7.8533,-23.55991 0,-9.67965 -2.37425,-18.08086 -7.12276,-25.20362 -5.47905,-8.21857 -12.60181,-12.41918 -21.73356,-12.41918 -6.57486,0 -12.78445,3.28743 -18.08086,9.67966 -4.38324,5.29641 -7.67067,11.68863 -9.86229,18.99403 1.09581,10.77546 3.47006,19.90721 6.94013,27.57788 5.11378,10.9581 12.05391,16.43714 21.00302,16.43714 z"
         fill="url(#SVGID_00000109014906099304615190000015587290566354021760_)"
         id="path7"
         style="fill:url(#SVGID_00000109014906099304615190000015587290566354021760_);stroke-width:1.82635" />
      <path
         d="m 535.52421,231.7943 -4.56588,-4.56587 -44.56293,-44.56293 -49.1288,49.1288 c -12.23654,12.23654 -12.23654,32.14375 0,44.56293 12.05391,12.05391 31.41321,12.23654 43.83239,0.73054 -0.54791,11.68864 -4.74851,21.00302 -12.05391,28.49105 h 34.88328 c -7.3054,-7.30539 -11.506,-16.80241 -12.05391,-28.49105 12.41918,11.506 31.77848,11.32337 43.83239,-0.73054 12.05391,-12.41918 12.05391,-32.32639 -0.18263,-44.56293 z"
         fill="url(#SVGID_00000038390792215888257100000016033581204131637689_)"
         id="path8"
         style="fill:url(#SVGID_00000038390792215888257100000016033581204131637689_);stroke-width:1.82635" />
      <path
         d="m 211.37207,255.7705 -4.57701,-4.57701 -44.67163,-44.67163 -49.24864,49.24864 c -12.26639,12.26639 -12.26639,32.22216 0,44.67163 12.08331,12.08331 31.48984,12.26639 43.93931,0.73232 -0.54924,11.71715 -4.76009,21.23733 -12.08331,28.56055 h 34.96836 c -7.32322,-7.5063 -11.53407,-16.8434 -12.08331,-28.56055 12.44947,11.53407 31.856,11.35099 43.93931,-0.73232 12.08331,-12.44947 12.08331,-32.40524 -0.18308,-44.67163 z"
         fill="url(#SVGID_00000073683814321761064560000002781718561935583365_)"
         id="path10"
         style="fill:url(#SVGID_00000073683814321761064560000002781718561935583365_);stroke-width:1.8308" />
    </g>
  </g>
</svg>
