<?xml version="1.0" encoding="UTF-8" standalone="no"?>
<svg
   id="Layer_2_00000011737349351820667620000008293298824062152069_"
   enable-background="new 0 0 512 512"
   viewBox="0 0 512 512"
   version="1.1"
   sodipodi:docname="7s.svg"
   inkscape:version="1.4.2 (f4327f4, 2025-05-13)"
   xmlns:inkscape="http://www.inkscape.org/namespaces/inkscape"
   xmlns:sodipodi="http://sodipodi.sourceforge.net/DTD/sodipodi-0.dtd"
   xmlns:xlink="http://www.w3.org/1999/xlink"
   xmlns="http://www.w3.org/2000/svg"
   xmlns:svg="http://www.w3.org/2000/svg">
  <defs
     id="defs10" />
  <sodipodi:namedview
     id="namedview10"
     pagecolor="#ffffff"
     bordercolor="#000000"
     borderopacity="0.25"
     inkscape:showpageshadow="2"
     inkscape:pageopacity="0.0"
     inkscape:pagecheckerboard="0"
     inkscape:deskcolor="#d1d1d1"
     inkscape:zoom="1.6699219"
     inkscape:cx="256.29941"
     inkscape:cy="257.79649"
     inkscape:window-width="1920"
     inkscape:window-height="1057"
     inkscape:window-x="-8"
     inkscape:window-y="-8"
     inkscape:window-maximized="1"
     inkscape:current-layer="Layer_2_00000011737349351820667620000008293298824062152069_" />
  <linearGradient
     id="lg1">
    <stop
       offset="0"
       stop-color="#454545"
       id="stop1" />
    <stop
       offset="1"
       id="stop2" />
  </linearGradient>
  <linearGradient
     id="SVGID_1_"
     gradientTransform="matrix(1.3631523,0,0,-1,-24.766986,512)"
     gradientUnits="userSpaceOnUse"
     x1="48.749"
     x2="463.231"
     xlink:href="#lg1"
     y1="463.246"
     y2="48.754" />
  <linearGradient
     id="SVGID_00000042730129094013703560000013555429347186226839_"
     gradientTransform="matrix(1.3835771,0,0,-1,-29.995726,512)"
     gradientUnits="userSpaceOnUse"
     x1="55.818"
     x2="456.162"
     y1="456.172"
     y2="55.828">
    <stop
       offset="0"
       stop-color="#f2f2f2"
       id="stop3" />
    <stop
       offset="1"
       stop-color="#d9d9d9"
       id="stop4" />
  </linearGradient>
  <linearGradient
     id="SVGID_00000182490841529566955440000014664801017386219688_"
     gradientTransform="matrix(1.8499693,0,0,-1.8499693,-82.872659,920.83522)"
     gradientUnits="userSpaceOnUse"
     x1="103.478"
     x2="155.898"
     xlink:href="#lg1"
     y1="476.223"
     y2="423.803" />
  <linearGradient
     id="SVGID_00000035512889441437248430000002710290286482956178_"
     gradientTransform="matrix(-1.8263495,0,0,1.8263495,1168.5512,280.55781)"
     gradientUnits="userSpaceOnUse"
     x1="356.093"
     x2="408.513"
     xlink:href="#lg1"
     y1="88.198"
     y2="35.778" />
  <linearGradient
     id="SVGID_00000013181132011219502680000014539241747470022045_"
     gradientTransform="matrix(-1.8263495,0,0,1.8263495,1173.8333,-47.637191)"
     gradientUnits="userSpaceOnUse"
     x1="356.86"
     x2="395.957"
     xlink:href="#lg1"
     y1="184.687"
     y2="145.6" />
  <linearGradient
     id="SVGID_00000122699156512342706760000006314434258305788342_"
     gradientTransform="matrix(1,0,0,-1,0,512)"
     gradientUnits="userSpaceOnUse"
     x1="213.868"
     x2="298.138"
     xlink:href="#lg1"
     y1="286.353"
     y2="202.083" />
  <linearGradient
     id="SVGID_00000094618535412685401960000010720775842831136186_"
     gradientTransform="matrix(1.8499693,0,0,-1.8499693,-88.120559,920.83522)"
     gradientUnits="userSpaceOnUse"
     x1="116.045"
     x2="155.135"
     xlink:href="#lg1"
     y1="366.4"
     y2="327.31" />
  <g
     id="Icon"
     transform="translate(-68.2)">
    <g
       id="_11">
      <path
         d="m 580.2,68.158 v 375.548 c 0,27.6 -30.53461,68.294 -68.15761,68.294 H 136.35761 C 98.734611,512 68.2,471.306 68.2,443.706 V 68.158 C 68.2,40.558 98.735001,0 136.358,0 H 511.906 C 549.66532,0 580.2,40.558 580.2,68.158 Z"
         fill="url(#SVGID_1_)"
         id="path4"
         style="fill:url(#SVGID_1_);stroke-width:1.16754"
         sodipodi:nodetypes="sssssssss" />
      <path
         d="m 570.2,68.158 v 375.548 c 0,22.1 -27.64777,58.294 -58.22482,58.294 H 136.358 C 105.78095,502 78.2,465.806 78.2,443.706 V 68.158 C 78.2,46.058 105.78095,10 136.358,10 H 511.83682 C 542.55223,10 570.2,46.058 570.2,68.158 Z"
         fill="url(#SVGID_00000042730129094013703560000013555429347186226839_)"
         id="path5"
         style="fill:url(#SVGID_00000042730129094013703560000013555429347186226839_);stroke-width:1.17625"
         sodipodi:nodetypes="sssssssss" />
      <path
         d="M 117.479,70.589342 V 31 h 86.94856 l 9.80484,17.019717 C 189.99779,82.799139 172.97809,126.45841 163.54324,178.81254 h -20.71965 c 8.50985,-47.9142 23.12461,-90.278497 44.21426,-126.907888 h -49.02418 v 18.68469 z"
         fill="url(#SVGID_00000182490841529566955440000014664801017386219688_)"
         id="path6"
         style="fill:url(#SVGID_00000182490841529566955440000014664801017386219688_);stroke-width:1.84997" />
      <path
         d="m 431.254,376.25855 v -39.08388 h 85.83843 l 9.67965,16.80242 C 502.8469,388.31246 486.04449,431.41431 476.7301,483.1 h -20.45511 c 8.21857,-47.48509 22.82937,-89.12586 43.64975,-125.28758 h -48.39826 v 18.44613 z"
         fill="url(#SVGID_00000035512889441437248430000002710290286482956178_)"
         id="path7"
         style="fill:url(#SVGID_00000035512889441437248430000002710290286482956178_);stroke-width:1.82635" />
      <path
         d="m 535.52421,231.7943 -4.56588,-4.56587 -44.56293,-44.56293 -49.1288,49.1288 c -12.23654,12.23654 -12.23654,32.14375 0,44.56293 12.05391,12.05391 31.41321,12.23654 43.83239,0.73054 -0.54791,11.68864 -4.74851,21.00302 -12.05391,28.49105 h 34.88328 c -7.3054,-7.30539 -11.506,-16.80241 -12.05391,-28.49105 12.41918,11.506 31.77848,11.32337 43.83239,-0.73054 12.05391,-12.41918 12.05391,-32.32639 -0.18263,-44.56293 z"
         fill="url(#SVGID_00000013181132011219502680000014539241747470022045_)"
         id="path8"
         style="fill:url(#SVGID_00000013181132011219502680000014539241747470022045_);stroke-width:1.82635" />
      <path
         d="m 212.49944,256.69625 -4.62492,-4.62492 -45.13926,-45.13926 -49.76416,49.76418 c -12.3948,12.39479 -12.3948,32.55945 0,45.13924 12.20979,12.2098 31.81946,12.3948 44.39926,0.74 -0.555,11.8398 -4.80992,21.45963 -12.2098,28.85951 h 35.33441 c -7.39988,-7.58488 -11.6548,-17.01971 -12.2098,-28.85951 12.5798,11.6548 32.18947,11.4698 44.39927,-0.74 12.20979,-12.57979 12.20979,-32.74445 -0.18492,-45.13924 z"
         fill="url(#SVGID_00000094618535412685401960000010720775842831136186_)"
         id="path10"
         style="fill:url(#SVGID_00000094618535412685401960000010720775842831136186_);stroke-width:1.84997" />
    </g>
  </g>
</svg>
