<?xml version="1.0" encoding="UTF-8" standalone="no"?>
<svg
   id="Layer_2_00000000195299597175373500000013254559279776748418_"
   enable-background="new 0 0 512 512"
   viewBox="0 0 512 512"
   version="1.1"
   sodipodi:docname="8s.svg"
   inkscape:version="1.4.2 (f4327f4, 2025-05-13)"
   xmlns:inkscape="http://www.inkscape.org/namespaces/inkscape"
   xmlns:sodipodi="http://sodipodi.sourceforge.net/DTD/sodipodi-0.dtd"
   xmlns:xlink="http://www.w3.org/1999/xlink"
   xmlns="http://www.w3.org/2000/svg"
   xmlns:svg="http://www.w3.org/2000/svg">
  <defs
     id="defs10" />
  <sodipodi:namedview
     id="namedview10"
     pagecolor="#ffffff"
     bordercolor="#000000"
     borderopacity="0.25"
     inkscape:showpageshadow="2"
     inkscape:pageopacity="0.0"
     inkscape:pagecheckerboard="0"
     inkscape:deskcolor="#d1d1d1"
     inkscape:zoom="1.6699219"
     inkscape:cx="256.29941"
     inkscape:cy="257.79649"
     inkscape:window-width="1920"
     inkscape:window-height="1057"
     inkscape:window-x="-8"
     inkscape:window-y="-8"
     inkscape:window-maximized="1"
     inkscape:current-layer="Layer_2_00000000195299597175373500000013254559279776748418_" />
  <linearGradient
     id="lg1">
    <stop
       offset="0"
       stop-color="#454545"
       id="stop1" />
    <stop
       offset="1"
       id="stop2" />
  </linearGradient>
  <linearGradient
     id="SVGID_1_"
     gradientTransform="matrix(1.3631523,0,0,-1,-24.766986,512)"
     gradientUnits="userSpaceOnUse"
     x1="48.749"
     x2="463.231"
     xlink:href="#lg1"
     y1="463.246"
     y2="48.754" />
  <linearGradient
     id="SVGID_00000168823127332956505560000001285692385777547963_"
     gradientTransform="matrix(1.3835771,0,0,-1,-29.995726,512)"
     gradientUnits="userSpaceOnUse"
     x1="55.818"
     x2="456.162"
     y1="456.172"
     y2="55.828">
    <stop
       offset="0"
       stop-color="#f2f2f2"
       id="stop3" />
    <stop
       offset="1"
       stop-color="#d9d9d9"
       id="stop4" />
  </linearGradient>
  <linearGradient
     id="SVGID_00000095341132144606503670000000356703104878272188_"
     gradientTransform="matrix(1.8386475,0,0,-1.8386475,-81.769519,916.22809)"
     gradientUnits="userSpaceOnUse"
     x1="108.854"
     x2="160.852"
     xlink:href="#lg1"
     y1="466.431"
     y2="414.434" />
  <linearGradient
     id="SVGID_00000156588414595834927940000008459373705179278995_"
     gradientTransform="matrix(-1.8263495,0,0,1.8263495,1168.5509,278.73146)"
     gradientUnits="userSpaceOnUse"
     x1="351.148"
     x2="403.146"
     xlink:href="#lg1"
     y1="97.566"
     y2="45.569" />
  <linearGradient
     id="SVGID_00000045611161833621792550000012520140307119976621_"
     gradientTransform="matrix(-1.8263495,0,0,1.8263495,1173.8333,-47.637191)"
     gradientUnits="userSpaceOnUse"
     x1="356.86"
     x2="395.957"
     xlink:href="#lg1"
     y1="184.687"
     y2="145.6" />
  <linearGradient
     id="SVGID_00000021824553171031180960000008544564795916503171_"
     gradientTransform="matrix(1,0,0,-1,0,512)"
     gradientUnits="userSpaceOnUse"
     x1="213.868"
     x2="298.138"
     xlink:href="#lg1"
     y1="286.353"
     y2="202.083" />
  <linearGradient
     id="SVGID_00000167388654047067865170000015645465089060825996_"
     gradientTransform="matrix(1.8386475,0,0,-1.8386475,-86.946779,916.22809)"
     gradientUnits="userSpaceOnUse"
     x1="116.045"
     x2="155.135"
     xlink:href="#lg1"
     y1="366.4"
     y2="327.31" />
  <g
     id="Icon"
     transform="translate(-68.2)">
    <g
       id="_12">
      <path
         d="m 580.2,68.158 v 375.548 c 0,27.6 -30.53461,68.294 -68.15761,68.294 H 136.35761 C 98.734611,512 68.2,471.306 68.2,443.706 V 68.158 C 68.2,40.558 98.735001,0 136.358,0 H 511.906 C 549.66532,0 580.2,40.558 580.2,68.158 Z"
         fill="url(#SVGID_1_)"
         id="path4"
         style="fill:url(#SVGID_1_);stroke-width:1.16754"
         sodipodi:nodetypes="sssssssss" />
      <path
         d="m 570.2,68.158 v 375.548 c 0,22.1 -27.64777,58.294 -58.22482,58.294 H 136.358 C 105.78095,502 78.2,465.806 78.2,443.706 V 68.158 C 78.2,46.058 105.78095,10 136.358,10 H 511.83682 C 542.55223,10 570.2,46.058 570.2,68.158 Z"
         fill="url(#SVGID_00000168823127332956505560000001285692385777547963_)"
         id="path5"
         style="fill:url(#SVGID_00000168823127332956505560000001285692385777547963_);stroke-width:1.17625"
         sodipodi:nodetypes="sssssssss" />
      <path
         d="m 166.08016,180.58523 c -13.05439,0 -24.45401,-4.22889 -33.83111,-12.68667 -9.9287,-8.64164 -14.89305,-19.48966 -14.89305,-32.36019 0,-15.07691 6.61914,-27.21199 19.67353,-36.22136 -9.3771,-7.722319 -14.15758,-17.651016 -14.15758,-29.418359 0,-11.767344 4.41275,-20.960582 13.23826,-28.866766 C 144.56799,33.677295 154.68055,30 166.08016,30 c 11.39962,0 21.51218,3.677295 29.96996,11.031885 8.82551,7.722319 13.23826,17.467151 13.23826,28.866766 0,11.399614 -4.78048,21.69604 -14.15759,29.418359 13.0544,9.00937 19.67353,20.96058 19.67353,36.22136 0,12.87053 -4.78048,23.53468 -14.52531,32.17633 -9.74484,8.64164 -20.96058,12.87053 -34.19885,12.87053 z m 0,-70.60406 c -7.72232,0 -14.34145,2.39024 -20.40898,6.98686 -6.43527,4.96434 -9.56097,11.21575 -9.56097,18.7542 0,7.53846 3.1257,13.60599 9.56097,18.75421 5.88367,4.59661 12.68666,6.80299 20.40898,6.80299 7.72232,0 14.34145,-2.20638 20.40899,-6.80299 6.43527,-4.96435 9.56097,-11.21575 9.56097,-18.75421 0,-7.53845 -3.1257,-13.78986 -9.56097,-18.7542 -5.88367,-4.59662 -12.68667,-6.98686 -20.40899,-6.98686 z m 0,-60.675371 c -6.2514,0 -11.76734,1.838647 -16.36396,5.699807 -5.33208,4.045024 -7.90618,9.009373 -7.90618,14.893045 0,5.883672 2.5741,11.031884 7.90618,14.893044 4.78048,3.677295 10.11256,5.699807 16.36396,5.699807 6.2514,0 11.76735,-1.838647 16.36397,-5.699807 5.33207,-4.045024 7.90618,-9.009372 7.90618,-14.893044 0,-5.883672 -2.57411,-11.031885 -7.90618,-14.893045 -4.59662,-3.86116 -10.11257,-5.699807 -16.36397,-5.699807 z"
         fill="url(#SVGID_00000095341132144606503670000000356703104878272188_)"
         id="path6"
         style="fill:url(#SVGID_00000095341132144606503670000000356703104878272188_);stroke-width:1.83865" />
      <path
         d="m 479.65189,483.1 c -12.96708,0 -24.29045,-4.2006 -33.78746,-12.60181 -9.86229,-8.58384 -14.79343,-19.35931 -14.79343,-32.14375 0,-14.97607 6.57485,-27.02998 19.54194,-35.97909 -9.31439,-7.67067 -14.0629,-17.53296 -14.0629,-29.22159 0,-11.68864 4.38324,-20.82039 13.14972,-28.67369 8.40121,-7.3054 18.44613,-10.9581 29.7695,-10.9581 11.32337,0 21.36829,3.6527 29.7695,10.9581 8.76647,7.67067 13.14971,17.35032 13.14971,28.67369 0,11.32336 -4.74851,21.55092 -14.06289,29.22159 12.96708,8.94911 19.54194,20.82038 19.54194,35.97909 0,12.78444 -4.74851,23.37727 -14.42816,31.96111 C 504.12498,478.8994 492.80161,483.1 479.65189,483.1 Z m 0,-70.13182 c -7.67066,0 -14.42816,2.37425 -20.08984,6.94013 -6.39223,4.93114 -9.49702,11.14073 -9.49702,18.44613 0,7.30539 3.10479,13.51498 9.49702,18.44613 5.84432,4.56587 12.60181,6.75749 20.08984,6.75749 7.48804,0 14.42816,-2.19162 20.08985,-6.75749 6.39222,-4.93115 9.49702,-11.14074 9.49702,-18.44613 0,-7.3054 -3.1048,-13.69763 -9.49702,-18.44613 -5.66169,-4.56588 -12.41918,-6.94013 -20.08985,-6.94013 z m 0,-60.26954 c -6.20959,0 -11.68863,1.82635 -16.25451,5.66169 -5.29641,4.01796 -7.8533,8.94911 -7.8533,14.79343 0,5.84432 2.55689,10.95809 7.8533,14.79343 4.74851,3.6527 10.04492,5.66168 16.25451,5.66168 6.20959,0 11.68864,-1.82635 16.25451,-5.66168 5.29642,-4.01797 7.85331,-8.94911 7.85331,-14.79343 0,-5.84432 -2.55689,-10.9581 -7.85331,-14.79343 -4.56587,-3.83534 -10.04492,-5.66169 -16.25451,-5.66169 z"
         fill="url(#SVGID_00000156588414595834927940000008459373705179278995_)"
         id="path7"
         style="fill:url(#SVGID_00000156588414595834927940000008459373705179278995_);stroke-width:1.82635" />
      <path
         d="m 535.52421,231.7943 -4.56588,-4.56587 -44.56293,-44.56293 -49.1288,49.1288 c -12.23654,12.23654 -12.23654,32.14375 0,44.56293 12.05391,12.05391 31.41321,12.23654 43.83239,0.73054 -0.54791,11.68864 -4.74851,21.00302 -12.05391,28.49105 h 34.88328 c -7.3054,-7.30539 -11.506,-16.80241 -12.05391,-28.49105 12.41918,11.506 31.77848,11.32337 43.83239,-0.73054 12.05391,-12.41918 12.05391,-32.32639 -0.18263,-44.56293 z"
         fill="url(#SVGID_00000045611161833621792550000012520140307119976621_)"
         id="path8"
         style="fill:url(#SVGID_00000045611161833621792550000012520140307119976621_);stroke-width:1.82635" />
      <path
         d="m 211.83344,256.15364 -4.59662,-4.59662 -44.863,-44.863 -49.45962,49.45962 c -12.31893,12.31894 -12.31893,32.3602 0,44.863 12.13508,12.13507 31.62474,12.31894 44.12754,0.73546 -0.55159,11.76734 -4.78048,21.32831 -12.13507,28.6829 h 35.11817 c -7.35459,-7.53845 -11.58348,-16.91556 -12.13508,-28.6829 12.50281,11.58348 31.99247,11.39961 44.12754,-0.73546 12.13508,-12.5028 12.13508,-32.54406 -0.18386,-44.863 z"
         fill="url(#SVGID_00000167388654047067865170000015645465089060825996_)"
         id="path10"
         style="fill:url(#SVGID_00000167388654047067865170000015645465089060825996_);stroke-width:1.83865" />
    </g>
  </g>
</svg>
