<?xml version="1.0" encoding="UTF-8" standalone="no"?>
<svg
   id="Layer_2_00000091727530026185392360000003667499593921870494_"
   enable-background="new 0 0 512 512"
   viewBox="0 0 512 512"
   version="1.1"
   sodipodi:docname="9s.svg"
   inkscape:version="1.4.2 (f4327f4, 2025-05-13)"
   xmlns:inkscape="http://www.inkscape.org/namespaces/inkscape"
   xmlns:sodipodi="http://sodipodi.sourceforge.net/DTD/sodipodi-0.dtd"
   xmlns:xlink="http://www.w3.org/1999/xlink"
   xmlns="http://www.w3.org/2000/svg"
   xmlns:svg="http://www.w3.org/2000/svg">
  <defs
     id="defs10" />
  <sodipodi:namedview
     id="namedview10"
     pagecolor="#ffffff"
     bordercolor="#000000"
     borderopacity="0.25"
     inkscape:showpageshadow="2"
     inkscape:pageopacity="0.0"
     inkscape:pagecheckerboard="0"
     inkscape:deskcolor="#d1d1d1"
     inkscape:zoom="1.6699219"
     inkscape:cx="256.29941"
     inkscape:cy="257.79649"
     inkscape:window-width="1920"
     inkscape:window-height="1057"
     inkscape:window-x="-8"
     inkscape:window-y="-8"
     inkscape:window-maximized="1"
     inkscape:current-layer="Layer_2_00000091727530026185392360000003667499593921870494_" />
  <linearGradient
     id="lg1">
    <stop
       offset="0"
       stop-color="#454545"
       id="stop1" />
    <stop
       offset="1"
       id="stop2" />
  </linearGradient>
  <linearGradient
     id="SVGID_1_"
     gradientTransform="matrix(1.3631523,0,0,-1,-24.766986,512)"
     gradientUnits="userSpaceOnUse"
     x1="48.749"
     x2="463.231"
     xlink:href="#lg1"
     y1="463.246"
     y2="48.754" />
  <linearGradient
     id="SVGID_00000098913311140391709370000004183858873474876575_"
     gradientTransform="matrix(1.3835771,0,0,-1,-29.995726,512)"
     gradientUnits="userSpaceOnUse"
     x1="55.818"
     x2="456.162"
     y1="456.172"
     y2="55.828">
    <stop
       offset="0"
       stop-color="#f2f2f2"
       id="stop3" />
    <stop
       offset="1"
       stop-color="#d9d9d9"
       id="stop4" />
  </linearGradient>
  <linearGradient
     id="SVGID_00000077298009110361685300000018148887130000773039_"
     gradientTransform="matrix(1.8319207,0,0,-1.8319207,-81.113012,913.48493)"
     gradientUnits="userSpaceOnUse"
     x1="108.332"
     x2="159.613"
     xlink:href="#lg1"
     y1="466.529"
     y2="415.248" />
  <linearGradient
     id="SVGID_00000156563001693435931330000013331145717178084252_"
     gradientTransform="matrix(-1.8263495,0,0,1.8263495,1168.5512,277.45302)"
     gradientUnits="userSpaceOnUse"
     x1="352.385"
     x2="403.67"
     xlink:href="#lg1"
     y1="96.749"
     y2="45.474" />
  <linearGradient
     id="SVGID_00000027590562508821130950000009561880553984264080_"
     gradientTransform="matrix(-1.8263495,0,0,1.8263495,1173.8333,-47.637191)"
     gradientUnits="userSpaceOnUse"
     x1="356.86"
     x2="395.957"
     xlink:href="#lg1"
     y1="184.687"
     y2="145.6" />
  <linearGradient
     id="SVGID_00000166670623495273600700000002446178327621550268_"
     gradientTransform="matrix(1,0,0,-1,0,512)"
     gradientUnits="userSpaceOnUse"
     x1="213.868"
     x2="298.138"
     xlink:href="#lg1"
     y1="286.353"
     y2="202.083" />
  <linearGradient
     id="SVGID_00000132052277750526881520000004349787795357538730_"
     gradientTransform="matrix(1.8319207,0,0,-1.8319207,-86.249382,913.48493)"
     gradientUnits="userSpaceOnUse"
     x1="116.045"
     x2="155.135"
     xlink:href="#lg1"
     y1="366.4"
     y2="327.31" />
  <g
     id="Icon"
     transform="translate(-68.2)">
    <g
       id="_13">
      <path
         d="m 580.2,68.158 v 375.548 c 0,27.6 -30.53461,68.294 -68.15761,68.294 H 136.35761 C 98.734611,512 68.2,471.306 68.2,443.706 V 68.158 C 68.2,40.558 98.735001,0 136.358,0 H 511.906 C 549.66532,0 580.2,40.558 580.2,68.158 Z"
         fill="url(#SVGID_1_)"
         id="path4"
         style="fill:url(#SVGID_1_);stroke-width:1.16754"
         sodipodi:nodetypes="sssssssss" />
      <path
         d="m 570.2,68.158 v 375.548 c 0,22.1 -27.64777,58.294 -58.22482,58.294 H 136.358 C 105.78095,502 78.2,465.806 78.2,443.706 V 68.158 C 78.2,46.058 105.78095,10 136.358,10 H 511.83682 C 542.55223,10 570.2,46.058 570.2,68.158 Z"
         fill="url(#SVGID_00000098913311140391709370000004183858873474876575_)"
         id="path5"
         style="fill:url(#SVGID_00000098913311140391709370000004183858873474876575_);stroke-width:1.17625"
         sodipodi:nodetypes="sssssssss" />
      <path
         d="m 193.12552,125.94222 c -8.24364,6.59492 -17.58644,9.89237 -27.84519,9.89237 -13.9226,0 -25.4637,-5.49576 -34.62331,-16.30409 C 121.68061,108.90536 117.284,96.631491 117.284,82.708893 c 0,-13.922597 4.39661,-26.379658 13.37302,-36.821606 C 139.99982,34.895762 151.54092,29.4 165.28033,29.4 c 17.03686,0 30.0435,8.79322 38.47033,26.562851 6.59492,13.739405 9.89237,30.226692 9.89237,49.461859 0,20.15113 -3.29745,37.0048 -9.70918,50.19463 -8.42683,17.58644 -21.61666,26.19646 -39.75268,26.19646 -18.13601,0 -31.50903,-8.97641 -41.95098,-27.11242 l 16.48729,-9.70918 c 6.59491,11.5411 15.02175,17.40325 25.2805,17.40325 15.57133,0 25.28051,-12.27387 29.12754,-36.45523 z M 165.28033,48.635168 c -8.42684,0 -15.57133,3.663841 -21.25028,10.808332 -5.31257,6.594915 -7.87726,14.288982 -7.87726,23.082201 0,8.79322 2.74788,16.304095 7.87726,23.082199 5.67895,7.32769 12.64025,10.80833 21.25028,10.80833 7.14449,0 13.37302,-2.74788 18.68559,-8.24364 4.76299,-4.94618 7.87726,-10.991523 9.70918,-18.502398 -3.29746,-27.295619 -12.82345,-41.035024 -28.39477,-41.035024 z"
         fill="url(#SVGID_00000077298009110361685300000018148887130000773039_)"
         id="path6"
         style="fill:url(#SVGID_00000077298009110361685300000018148887130000773039_);stroke-width:1.83192" />
      <path
         d="m 506.86487,427.39634 c -8.21857,6.57486 -17.35032,9.86229 -27.76051,9.86229 -13.88026,0 -25.38626,-5.47905 -34.51801,-16.25451 -8.94911,-10.59283 -13.33235,-22.82937 -13.33235,-36.70963 0,-13.88026 4.38324,-26.29943 13.33235,-36.70963 9.31438,-10.95809 20.82039,-16.43714 34.51801,-16.43714 17.16768,0 29.95213,8.76648 38.35334,26.48207 6.57486,13.69762 9.86229,30.13476 9.86229,49.31143 0,20.08985 -3.28743,36.70963 -9.67966,50.04198 -8.4012,17.35032 -21.73356,26.1168 -39.63178,26.1168 -17.89823,0 -31.41321,-8.94911 -41.82341,-27.02997 l 16.43715,-9.67966 c 6.57486,11.50601 14.97607,17.35032 25.20362,17.35032 15.52397,0 25.20363,-12.23654 29.03896,-36.34435 z m -27.76051,-77.07195 c -8.40121,0 -15.52397,3.6527 -21.18566,10.77546 -5.29641,6.57486 -7.8533,14.24553 -7.8533,23.012 0,8.76648 2.73952,16.25452 7.8533,23.01201 5.66169,7.3054 12.60182,10.77546 21.18566,10.77546 7.12276,0 13.33235,-2.73952 18.62876,-8.21857 4.74851,-4.93115 7.85331,-10.9581 9.67966,-18.44613 -3.28743,-27.21261 -12.78445,-40.91023 -28.30842,-40.91023 z"
         fill="url(#SVGID_00000156563001693435931330000013331145717178084252_)"
         id="path7"
         style="fill:url(#SVGID_00000156563001693435931330000013331145717178084252_);stroke-width:1.82635" />
      <path
         d="m 535.52421,231.7943 -4.56588,-4.56587 -44.56293,-44.56293 -49.1288,49.1288 c -12.23654,12.23654 -12.23654,32.14375 0,44.56293 12.05391,12.05391 31.41321,12.23654 43.83239,0.73054 -0.54791,11.68864 -4.74851,21.00302 -12.05391,28.49105 h 34.88328 c -7.3054,-7.30539 -11.506,-16.80241 -12.05391,-28.49105 12.41918,11.506 31.77848,11.32337 43.83239,-0.73054 12.05391,-12.41918 12.05391,-32.32639 -0.18263,-44.56293 z"
         fill="url(#SVGID_00000027590562508821130950000009561880553984264080_)"
         id="path8"
         style="fill:url(#SVGID_00000027590562508821130950000009561880553984264080_);stroke-width:1.82635" />
      <path
         d="m 211.43774,255.8254 -4.5798,-4.5798 -44.69887,-44.69887 -49.27867,49.27867 c -12.27387,12.27387 -12.27387,32.24181 0,44.69887 12.09068,12.09068 31.50904,12.27387 43.9661,0.73277 -0.54958,11.72429 -4.76299,21.25028 -12.09068,28.57796 h 34.98969 c -7.32768,-7.51087 -11.5411,-16.85367 -12.09068,-28.57796 12.45706,11.5411 31.87542,11.35791 43.9661,-0.73277 12.09068,-12.45706 12.09068,-32.425 -0.18319,-44.69887 z"
         fill="url(#SVGID_00000132052277750526881520000004349787795357538730_)"
         id="path10"
         style="fill:url(#SVGID_00000132052277750526881520000004349787795357538730_);stroke-width:1.83192" />
    </g>
  </g>
</svg>
