<?xml version="1.0" encoding="UTF-8" standalone="no"?>
<svg
   id="Layer_2_00000158721474809590650540000000749941750886829966_"
   enable-background="new 0 0 512 512"
   viewBox="0 0 512 512"
   version="1.1"
   sodipodi:docname="As.svg"
   inkscape:version="1.4.2 (f4327f4, 2025-05-13)"
   xmlns:inkscape="http://www.inkscape.org/namespaces/inkscape"
   xmlns:sodipodi="http://sodipodi.sourceforge.net/DTD/sodipodi-0.dtd"
   xmlns:xlink="http://www.w3.org/1999/xlink"
   xmlns="http://www.w3.org/2000/svg"
   xmlns:svg="http://www.w3.org/2000/svg">
  <defs
     id="defs10" />
  <sodipodi:namedview
     id="namedview10"
     pagecolor="#ffffff"
     bordercolor="#000000"
     borderopacity="0.25"
     inkscape:showpageshadow="2"
     inkscape:pageopacity="0.0"
     inkscape:pagecheckerboard="0"
     inkscape:deskcolor="#d1d1d1"
     inkscape:zoom="1.6699219"
     inkscape:cx="256.29941"
     inkscape:cy="257.79649"
     inkscape:window-width="1920"
     inkscape:window-height="1057"
     inkscape:window-x="-8"
     inkscape:window-y="-8"
     inkscape:window-maximized="1"
     inkscape:current-layer="_05" />
  <linearGradient
     id="lg1">
    <stop
       offset="0"
       stop-color="#454545"
       id="stop1" />
    <stop
       offset="1"
       id="stop2" />
  </linearGradient>
  <linearGradient
     id="SVGID_1_"
     gradientTransform="matrix(1.3631523,0,0,-1,-24.766986,512)"
     gradientUnits="userSpaceOnUse"
     x1="48.749"
     x2="463.231"
     xlink:href="#lg1"
     y1="463.246"
     y2="48.754" />
  <linearGradient
     id="SVGID_00000033342572363703961900000004152602436090283695_"
     gradientTransform="matrix(1.3835771,0,0,-1,-29.995726,512)"
     gradientUnits="userSpaceOnUse"
     x1="55.818"
     x2="456.162"
     y1="456.172"
     y2="55.828">
    <stop
       offset="0"
       stop-color="#f2f2f2"
       id="stop3" />
    <stop
       offset="1"
       stop-color="#d9d9d9"
       id="stop4" />
  </linearGradient>
  <linearGradient
     id="SVGID_00000127747827898185065600000015911933470537884333_"
     gradientTransform="matrix(1.8465581,0,0,-1.8465581,-82.540239,919.44841)"
     gradientUnits="userSpaceOnUse"
     x1="106.378"
     x2="162.836"
     xlink:href="#lg1"
     y1="459.139"
     y2="402.691" />
  <linearGradient
     id="SVGID_00000124146620290366203730000000148470131015656863_"
     gradientTransform="matrix(-1.8263495,0,0,1.8263495,1168.5513,280.00991)"
     gradientUnits="userSpaceOnUse"
     x1="349.154"
     x2="405.612"
     xlink:href="#lg1"
     y1="109.309"
     y2="52.861" />
  <linearGradient
     id="SVGID_00000041269854215697477240000001043708799596944518_"
     gradientTransform="matrix(-1.8263617,0,0,1.8263495,1173.8379,-47.637191)"
     gradientUnits="userSpaceOnUse"
     x1="356.86"
     x2="395.957"
     xlink:href="#lg1"
     y1="184.687"
     y2="145.6" />
  <linearGradient
     id="SVGID_00000167395215077249375170000014080322885656731544_"
     gradientTransform="matrix(1,0,0,-1,0,512)"
     gradientUnits="userSpaceOnUse"
     x1="213.868"
     x2="298.138"
     xlink:href="#lg1"
     y1="286.353"
     y2="202.083" />
  <linearGradient
     id="SVGID_00000070808837145585663570000003740210208274350476_"
     gradientTransform="matrix(1.8465581,0,0,-1.8465581,-87.766909,919.44841)"
     gradientUnits="userSpaceOnUse"
     x1="116.045"
     x2="155.135"
     xlink:href="#lg1"
     y1="366.4"
     y2="327.31" />
  <g
     id="Icon"
     transform="translate(-68.2)">
    <g
       id="_05">
      <path
         d="m 580.2,68.158 v 375.548 c 0,27.6 -30.53461,68.294 -68.15761,68.294 H 136.35761 C 98.734611,512 68.2,471.306 68.2,443.706 V 68.158 C 68.2,40.558 98.735001,0 136.358,0 H 511.906 C 549.66532,0 580.2,40.558 580.2,68.158 Z"
         fill="url(#SVGID_1_)"
         id="path4"
         style="fill:url(#SVGID_1_);stroke-width:1.16754"
         sodipodi:nodetypes="sssssssss" />
      <path
         d="m 570.2,68.158 v 375.548 c 0,22.1 -27.64777,58.294 -58.22482,58.294 H 136.358 C 105.78095,502 78.2,465.806 78.2,443.706 V 68.158 C 78.2,46.058 105.78095,10 136.358,10 H 511.83682 C 542.55223,10 570.2,46.058 570.2,68.158 Z"
         fill="url(#SVGID_00000033342572363703961900000004152602436090283695_)"
         id="path5"
         style="fill:url(#SVGID_00000033342572363703961900000004152602436090283695_);stroke-width:1.17625"
         sodipodi:nodetypes="sssssssss" />
      <path
         d="m 156.95834,161.43631 v 17.91162 H 117.442 v -17.91162 h 12.92591 L 154.92713,30.7 h 22.1587 l 24.74388,130.73631 h 12.9259 v 17.91162 h -39.51634 v -17.91162 h 8.49417 l -2.76984,-15.69574 h -29.54493 l -2.95449,15.51109 z m -2.40052,-33.60735 h 23.08197 L 166.19113,66.707883 Z"
         fill="url(#SVGID_00000127747827898185065600000015911933470537884333_)"
         id="path6"
         style="fill:url(#SVGID_00000127747827898185065600000015911933470537884333_);stroke-width:1.84656" />
      <path
         d="M 470.33789,465.38441 V 483.1 H 431.254 v -17.71559 h 12.78445 L 468.3289,336.07886 h 21.9162 l 24.47308,129.30555 h 12.78445 V 483.1 h -39.08388 v -17.71559 h 8.4012 l -2.73952,-15.52397 h -29.22159 l -2.92216,15.52397 z m -2.37426,-33.23956 H 490.793 l -11.32337,-60.45217 z"
         fill="url(#SVGID_00000124146620290366203730000000148470131015656863_)"
         id="path7"
         style="fill:url(#SVGID_00000124146620290366203730000000148470131015656863_);stroke-width:1.82635" />
      <path
         d="m 535.52458,231.7943 -4.56591,-4.56587 -44.56324,-44.56293 -49.12913,49.1288 c -12.23662,12.23654 -12.23662,32.14375 0,44.56293 12.054,12.05391 31.41343,12.23654 43.8327,0.73054 -0.54792,11.68864 -4.74855,21.00302 -12.054,28.49105 h 34.88351 c -7.30545,-7.30539 -11.50607,-16.80241 -12.05399,-28.49105 12.41926,11.506 31.7787,11.32337 43.8327,-0.73054 12.05398,-12.41918 12.05398,-32.32639 -0.18264,-44.56293 z"
         fill="url(#SVGID_00000041269854215697477240000001043708799596944518_)"
         id="path8"
         style="fill:url(#SVGID_00000041269854215697477240000001043708799596944518_);stroke-width:1.82635" />
      <path
         d="m 212.29878,256.53405 -4.6164,-4.61639 -45.05601,-45.05602 -49.67242,49.67241 c -12.37193,12.37194 -12.37193,32.49943 0,45.05602 12.18729,12.18728 31.7608,12.37194 44.3174,0.73862 -0.55397,11.81798 -4.80105,21.42008 -12.18729,28.80631 h 35.26926 c -7.38623,-7.57089 -11.63331,-16.98833 -12.18728,-28.80631 12.5566,11.63332 32.13011,11.44866 44.3174,-0.73862 12.18728,-12.55659 12.18728,-32.68408 -0.18466,-45.05602 z"
         fill="url(#SVGID_00000070808837145585663570000003740210208274350476_)"
         id="path10"
         style="fill:url(#SVGID_00000070808837145585663570000003740210208274350476_);stroke-width:1.84656" />
    </g>
  </g>
</svg>
