<?xml version="1.0" encoding="UTF-8" standalone="no"?>
<svg
   id="Layer_2_00000134936062383969499500000018405984339018026650_"
   enable-background="new 0 0 512 512"
   viewBox="0 0 512 512"
   version="1.1"
   sodipodi:docname="Js.svg"
   inkscape:version="1.4.2 (f4327f4, 2025-05-13)"
   xmlns:inkscape="http://www.inkscape.org/namespaces/inkscape"
   xmlns:sodipodi="http://sodipodi.sourceforge.net/DTD/sodipodi-0.dtd"
   xmlns:xlink="http://www.w3.org/1999/xlink"
   xmlns="http://www.w3.org/2000/svg"
   xmlns:svg="http://www.w3.org/2000/svg">
  <defs
     id="defs10" />
  <sodipodi:namedview
     id="namedview10"
     pagecolor="#ffffff"
     bordercolor="#000000"
     borderopacity="0.25"
     inkscape:showpageshadow="2"
     inkscape:pageopacity="0.0"
     inkscape:pagecheckerboard="0"
     inkscape:deskcolor="#d1d1d1"
     inkscape:zoom="1.6699219"
     inkscape:cx="256.29941"
     inkscape:cy="257.79649"
     inkscape:window-width="1920"
     inkscape:window-height="1057"
     inkscape:window-x="-8"
     inkscape:window-y="-8"
     inkscape:window-maximized="1"
     inkscape:current-layer="Layer_2_00000134936062383969499500000018405984339018026650_" />
  <linearGradient
     id="lg1">
    <stop
       offset="0"
       stop-color="#454545"
       id="stop1" />
    <stop
       offset="1"
       id="stop2" />
  </linearGradient>
  <linearGradient
     id="SVGID_1_"
     gradientTransform="matrix(1.3631523,0,0,-1,-24.766986,512)"
     gradientUnits="userSpaceOnUse"
     x1="48.749"
     x2="463.231"
     xlink:href="#lg1"
     y1="463.246"
     y2="48.754" />
  <linearGradient
     id="SVGID_00000084497655670358648100000013387357446580564121_"
     gradientTransform="matrix(1.3835771,0,0,-1,-29.995726,512)"
     gradientUnits="userSpaceOnUse"
     x1="55.818"
     x2="456.162"
     y1="456.172"
     y2="55.828">
    <stop
       offset="0"
       stop-color="#f2f2f2"
       id="stop3" />
    <stop
       offset="1"
       stop-color="#d9d9d9"
       id="stop4" />
  </linearGradient>
  <linearGradient
     id="SVGID_00000014592292748644993350000007006937507188017331_"
     gradientTransform="matrix(1.8375229,0,0,-1.8375229,-81.65942,915.76979)"
     gradientUnits="userSpaceOnUse"
     x1="116.002"
     x2="160.619"
     xlink:href="#lg1"
     y1="465.877"
     y2="421.26" />
  <linearGradient
     id="SVGID_00000085233120185140597610000009175423174480263063_"
     gradientTransform="matrix(-1.8263495,0,0,1.8263495,1168.5508,278.9141)"
     gradientUnits="userSpaceOnUse"
     x1="351.381"
     x2="395.998"
     xlink:href="#lg1"
     y1="90.741"
     y2="46.123" />
  <linearGradient
     id="SVGID_00000057149582166887693130000009272443932426568860_"
     gradientTransform="matrix(-1.8263495,0,0,1.8263495,1173.8333,-47.637191)"
     gradientUnits="userSpaceOnUse"
     x1="356.86"
     x2="395.957"
     xlink:href="#lg1"
     y1="184.687"
     y2="145.6" />
  <linearGradient
     id="SVGID_00000136369840077705068430000007696403629091281795_"
     gradientTransform="matrix(1,0,0,-1,0,512)"
     gradientUnits="userSpaceOnUse"
     x1="213.868"
     x2="298.138"
     xlink:href="#lg1"
     y1="286.353"
     y2="202.083" />
  <linearGradient
     id="SVGID_00000119101403283751049650000006576194518902585747_"
     gradientTransform="matrix(1.8375229,0,0,-1.8375229,-86.83019,915.76979)"
     gradientUnits="userSpaceOnUse"
     x1="116.045"
     x2="155.135"
     xlink:href="#lg1"
     y1="366.4"
     y2="327.31" />
  <g
     id="Icon"
     transform="translate(-68.2)">
    <g
       id="_15">
      <path
         d="m 580.2,68.158 v 375.548 c 0,27.6 -30.53461,68.294 -68.15761,68.294 H 136.35761 C 98.734611,512 68.2,471.306 68.2,443.706 V 68.158 C 68.2,40.558 98.735001,0 136.358,0 H 511.906 C 549.66532,0 580.2,40.558 580.2,68.158 Z"
         fill="url(#SVGID_1_)"
         id="path4"
         style="fill:url(#SVGID_1_);stroke-width:1.16754"
         sodipodi:nodetypes="sssssssss" />
      <path
         d="m 570.2,68.158 v 375.548 c 0,22.1 -27.64777,58.294 -58.22482,58.294 H 136.358 C 105.78095,502 78.2,465.806 78.2,443.706 V 68.158 C 78.2,46.058 105.78095,10 136.358,10 H 511.83682 C 542.55223,10 570.2,46.058 570.2,68.158 Z"
         fill="url(#SVGID_00000084497655670358648100000013387357446580564121_)"
         id="path5"
         style="fill:url(#SVGID_00000084497655670358648100000013387357446580564121_);stroke-width:1.17625"
         sodipodi:nodetypes="sssssssss" />
      <path
         d="m 137.74082,126.36995 c 0,7.16634 0,10.10638 0,9.00387 0,6.98258 1.47002,12.6789 4.41005,16.90521 3.4913,5.14506 8.82011,7.53384 15.98645,7.53384 6.06383,0 10.84139,-2.20503 14.51643,-6.61508 3.30755,-4.04255 4.96132,-9.00386 4.96132,-15.06769 V 50.847761 H 161.62862 V 29.9 h 51.81814 v 20.947761 h -15.80269 v 87.466089 c 0,11.9439 -3.4913,21.86653 -10.84139,29.76787 -7.53384,8.45261 -17.08896,12.49516 -29.03286,12.49516 -11.76015,0 -21.68277,-4.04255 -29.40037,-12.3114 -7.7176,-8.26886 -11.39264,-18.37523 -11.20889,-30.13538 v -11.76015 z"
         fill="url(#SVGID_00000014592292748644993350000007006937507188017331_)"
         id="path6"
         style="fill:url(#SVGID_00000014592292748644993350000007006937507188017331_);stroke-width:1.83752" />
      <path
         d="m 451.526,429.40532 c 0,7.12277 0,10.04493 0,8.94912 0,6.94012 1.46108,12.60181 4.38324,16.80241 3.47006,5.11378 8.76648,7.48804 15.70661,7.48804 6.02695,0 10.77546,-2.19162 14.42816,-6.57486 3.28743,-4.01797 4.93114,-8.94912 4.93114,-14.97607 v -86.93424 h -15.88924 v -20.82038 h 51.50306 v 20.82038 h -15.34134 v 86.93424 c 0,11.87127 -3.6527,21.73356 -10.77546,29.58686 -7.48803,8.21858 -17.16769,12.41918 -28.85632,12.41918 -11.68864,0 -21.55093,-4.01797 -29.2216,-12.23654 -7.67067,-8.21857 -11.32336,-18.2635 -11.14073,-29.95213 v -11.68864 z"
         fill="url(#SVGID_00000085233120185140597610000009175423174480263063_)"
         id="path7"
         style="fill:url(#SVGID_00000085233120185140597610000009175423174480263063_);stroke-width:1.82635" />
      <path
         d="m 535.52421,231.7943 -4.56588,-4.56587 -44.56293,-44.56293 -49.1288,49.1288 c -12.23654,12.23654 -12.23654,32.14375 0,44.56293 12.05391,12.05391 31.41321,12.23654 43.83239,0.73054 -0.54791,11.68864 -4.74851,21.00302 -12.05391,28.49105 h 34.88328 c -7.3054,-7.30539 -11.506,-16.80241 -12.05391,-28.49105 12.41918,11.506 31.77848,11.32337 43.83239,-0.73054 12.05391,-12.41918 12.05391,-32.32639 -0.18263,-44.56293 z"
         fill="url(#SVGID_00000057149582166887693130000009272443932426568860_)"
         id="path8"
         style="fill:url(#SVGID_00000057149582166887693130000009272443932426568860_);stroke-width:1.82635" />
      <path
         d="m 211.76729,256.09907 -4.59381,-4.5938 -44.83556,-44.83556 -49.42937,49.42936 c -12.3114,12.31141 -12.3114,32.34041 0,44.83556 12.12765,12.12765 31.6054,12.31141 44.10055,0.73501 -0.55125,11.76015 -4.77756,21.31527 -12.12765,28.66536 h 35.09669 c -7.35009,-7.53384 -11.57639,-16.90521 -12.12765,-28.66536 12.49515,11.5764 31.9729,11.39264 44.10055,-0.73501 12.12765,-12.49515 12.12765,-32.52415 -0.18375,-44.83556 z"
         fill="url(#SVGID_00000119101403283751049650000006576194518902585747_)"
         id="path10"
         style="fill:url(#SVGID_00000119101403283751049650000006576194518902585747_);stroke-width:1.83752" />
    </g>
  </g>
</svg>
