<?xml version="1.0" encoding="UTF-8" standalone="no"?>
<svg
   id="Layer_2_00000102542272938166588640000011167964136530550925_"
   enable-background="new 0 0 512 512"
   viewBox="0 0 512 512"
   version="1.1"
   sodipodi:docname="Qs.svg"
   inkscape:version="1.4.2 (f4327f4, 2025-05-13)"
   xmlns:inkscape="http://www.inkscape.org/namespaces/inkscape"
   xmlns:sodipodi="http://sodipodi.sourceforge.net/DTD/sodipodi-0.dtd"
   xmlns:xlink="http://www.w3.org/1999/xlink"
   xmlns="http://www.w3.org/2000/svg"
   xmlns:svg="http://www.w3.org/2000/svg">
  <defs
     id="defs10" />
  <sodipodi:namedview
     id="namedview10"
     pagecolor="#ffffff"
     bordercolor="#000000"
     borderopacity="0.25"
     inkscape:showpageshadow="2"
     inkscape:pageopacity="0.0"
     inkscape:pagecheckerboard="0"
     inkscape:deskcolor="#d1d1d1"
     inkscape:zoom="1.6699219"
     inkscape:cx="256.29941"
     inkscape:cy="257.79649"
     inkscape:window-width="1920"
     inkscape:window-height="1057"
     inkscape:window-x="-8"
     inkscape:window-y="-8"
     inkscape:window-maximized="1"
     inkscape:current-layer="Layer_2_00000102542272938166588640000011167964136530550925_" />
  <linearGradient
     id="lg1">
    <stop
       offset="0"
       stop-color="#454545"
       id="stop1" />
    <stop
       offset="1"
       id="stop2" />
  </linearGradient>
  <linearGradient
     id="SVGID_1_"
     gradientTransform="matrix(1.3631523,0,0,-1,-24.766986,512)"
     gradientUnits="userSpaceOnUse"
     x1="48.749"
     x2="463.231"
     xlink:href="#lg1"
     y1="463.246"
     y2="48.754" />
  <linearGradient
     id="SVGID_00000028299682625277495760000013304194363645948813_"
     gradientTransform="matrix(1.3835771,0,0,-1,-29.995726,512)"
     gradientUnits="userSpaceOnUse"
     x1="55.818"
     x2="456.162"
     y1="456.172"
     y2="55.828">
    <stop
       offset="0"
       stop-color="#f2f2f2"
       id="stop3" />
    <stop
       offset="1"
       stop-color="#d9d9d9"
       id="stop4" />
  </linearGradient>
  <linearGradient
     id="SVGID_00000176724150412507356710000000046151427838233020_"
     gradientTransform="matrix(1.8307983,0,0,-1.8307983,-81.003453,913.02634)"
     gradientUnits="userSpaceOnUse"
     x1="108.921"
     x2="167.468"
     xlink:href="#lg1"
     y1="466.13"
     y2="407.583" />
  <linearGradient
     id="SVGID_00000177463223362000350910000009602607815116961980_"
     gradientTransform="matrix(-1.8263495,0,0,1.8263495,1168.5512,277.45302)"
     gradientUnits="userSpaceOnUse"
     x1="344.522"
     x2="403.069"
     xlink:href="#lg1"
     y1="104.417"
     y2="45.87" />
  <linearGradient
     id="SVGID_00000047770039069149488320000012434703987790422672_"
     gradientTransform="matrix(-1.8263495,0,0,1.8263495,1173.8333,-47.637191)"
     gradientUnits="userSpaceOnUse"
     x1="356.86"
     x2="395.957"
     xlink:href="#lg1"
     y1="184.687"
     y2="145.6" />
  <linearGradient
     id="SVGID_00000004512142544387833250000001382165534216063112_"
     gradientTransform="matrix(1,0,0,-1,0,512)"
     gradientUnits="userSpaceOnUse"
     x1="213.868"
     x2="298.138"
     xlink:href="#lg1"
     y1="286.353"
     y2="202.083" />
  <linearGradient
     id="SVGID_00000013872861483605194260000007312668625733086859_"
     gradientTransform="matrix(1.8307983,0,0,-1.8307983,-86.133013,913.02634)"
     gradientUnits="userSpaceOnUse"
     x1="116.045"
     x2="155.135"
     xlink:href="#lg1"
     y1="366.4"
     y2="327.31" />
  <g
     id="Icon"
     transform="translate(-68.2)">
    <g
       id="_16">
      <path
         d="m 580.2,68.158 v 375.548 c 0,27.6 -30.53461,68.294 -68.15761,68.294 H 136.35761 C 98.734611,512 68.2,471.306 68.2,443.706 V 68.158 C 68.2,40.558 98.735001,0 136.358,0 H 511.906 C 549.66532,0 580.2,40.558 580.2,68.158 Z"
         fill="url(#SVGID_1_)"
         id="path4"
         style="fill:url(#SVGID_1_);stroke-width:1.16754"
         sodipodi:nodetypes="sssssssss" />
      <path
         d="m 570.2,68.158 v 375.548 c 0,22.1 -27.64777,58.294 -58.22482,58.294 H 136.358 C 105.78095,502 78.2,465.806 78.2,443.706 V 68.158 C 78.2,46.058 105.78095,10 136.358,10 H 511.83682 C 542.55223,10 570.2,46.058 570.2,68.158 Z"
         fill="url(#SVGID_00000028299682625277495760000013304194363645948813_)"
         id="path5"
         style="fill:url(#SVGID_00000028299682625277495760000013304194363645948813_);stroke-width:1.17625"
         sodipodi:nodetypes="sssssssss" />
      <path
         d="m 213.75507,178.69314 c -6.95703,0 -11.90019,-0.36616 -15.01254,-0.9154 -3.47852,-0.73232 -6.95704,-2.38004 -10.25247,-4.94315 -7.3232,6.04163 -15.56179,8.97091 -24.34962,8.97091 -9.52015,0 -17.94182,-3.47852 -25.4481,-10.25247 -7.87243,-6.95704 -11.71711,-15.19563 -11.71711,-24.5327 V 134.02166 H 117.272 v -16.84334 c 0.36616,-0.18308 3.47852,-0.36616 9.70323,-0.73232 V 64.268247 c 0,-9.520151 4.02776,-17.758743 11.71711,-24.715777 C 146.19862,32.778517 154.62029,29.3 164.14044,29.3 c 9.52015,0 18.1249,3.478517 25.81425,10.43555 7.68936,6.957034 11.53403,15.195626 11.53403,24.715777 v 82.935163 c 0,4.02776 -0.73232,7.87243 -2.38003,11.71711 1.64771,1.09848 3.11235,1.8308 4.57699,2.19696 h 10.06939 z M 144.91706,116.446 c 7.14011,0.73232 14.28022,4.02776 21.42034,9.88631 4.39391,3.47852 10.06939,9.15399 17.02642,16.84334 V 64.085168 c 0,-4.210836 -2.01388,-8.055513 -6.04163,-11.35095 -4.02776,-3.295437 -8.42168,-5.126235 -13.18175,-5.126235 -4.76008,0 -9.15399,1.647718 -13.18175,5.126235 -4.02776,3.478517 -6.22471,7.140114 -6.22471,11.35095 z m 29.84201,43.573 -22.7019,-22.33574 c -1.8308,-1.8308 -4.21084,-3.11236 -7.14011,-3.47852 v 12.81559 c 0,4.21084 2.01387,7.87243 6.22471,11.35095 4.02776,3.47852 8.42167,5.12623 13.18175,5.12623 3.66159,-0.18307 7.14011,-1.28155 10.43555,-3.47851 z"
         fill="url(#SVGID_00000176724150412507356710000000046151427838233020_)"
         id="path6"
         style="fill:url(#SVGID_00000176724150412507356710000000046151427838233020_);stroke-width:1.8308" />
      <path
         d="m 527.50262,479.99521 c -6.94013,0 -11.87127,-0.36527 -14.97606,-0.91318 -3.47007,-0.91317 -6.94013,-2.55689 -10.22756,-4.93114 -7.3054,6.02695 -15.52397,8.94911 -24.29045,8.94911 -9.49702,0 -17.89823,-3.47006 -25.38626,-10.22756 -7.8533,-6.94013 -11.68864,-15.1587 -11.68864,-24.65572 V 435.24964 H 431.254 v -16.80241 c 0.36527,-0.18264 3.6527,-0.36527 9.67965,-0.73054 v -52.05097 c 0,-9.49701 3.83534,-17.71559 11.68864,-24.65571 7.48803,-6.7575 15.88924,-10.22756 25.38626,-10.22756 9.49702,0 18.08086,3.47006 25.75153,10.41019 7.67067,6.94013 11.506,15.1587 11.506,24.65572 v 82.73363 c 0,4.01797 -0.91318,7.85331 -2.55689,11.68864 1.64371,1.09581 3.10479,1.82635 4.56587,2.00899 h 10.22756 z m -68.67074,-62.09589 c 7.12276,0.91318 14.24552,4.01797 21.36829,9.86229 4.38324,3.47006 10.04492,9.13175 16.98505,16.80241 v -78.71566 c 0,-4.20061 -2.00899,-8.03594 -6.02695,-11.32337 -4.01797,-3.47006 -8.40121,-5.11378 -13.14972,-5.11378 -4.74851,0 -9.13175,1.64372 -13.14972,5.11378 -4.01797,3.47007 -6.20959,7.12276 -6.20959,11.32337 z m 29.7695,43.46712 -22.64674,-22.28146 c -1.82635,-1.82635 -4.2006,-3.1048 -7.12276,-3.6527 v 12.78444 c 0,4.20061 2.00898,8.03594 6.20959,11.32337 4.01797,3.47006 8.4012,5.11378 13.14971,5.11378 3.6527,0 7.12277,-1.09581 10.4102,-3.28743 z"
         fill="url(#SVGID_00000177463223362000350910000009602607815116961980_)"
         id="path7"
         style="fill:url(#SVGID_00000177463223362000350910000009602607815116961980_);stroke-width:1.82635" />
      <path
         d="m 535.52421,231.7943 -4.56588,-4.56587 -44.56293,-44.56293 -49.1288,49.1288 c -12.23654,12.23654 -12.23654,32.14375 0,44.56293 12.05391,12.05391 31.41321,12.23654 43.83239,0.73054 -0.54791,11.68864 -4.74851,21.00302 -12.05391,28.49105 h 34.88328 c -7.3054,-7.30539 -11.506,-16.80241 -12.05391,-28.49105 12.41918,11.506 31.77848,11.32337 43.83239,-0.73054 12.05391,-12.41918 12.05391,-32.32639 -0.18263,-44.56293 z"
         fill="url(#SVGID_00000047770039069149488320000012434703987790422672_)"
         id="path8"
         style="fill:url(#SVGID_00000047770039069149488320000012434703987790422672_);stroke-width:1.82635" />
      <path
         d="m 211.37171,255.76975 -4.577,-4.577 -44.67147,-44.67148 -49.24848,49.24848 c -12.26635,12.26635 -12.26635,32.22205 0,44.67148 12.08327,12.08327 31.48973,12.26635 43.93916,0.73232 -0.54924,11.71711 -4.76008,21.23726 -12.08327,28.56045 h 34.96825 c -7.32319,-7.50627 -11.53403,-16.84334 -12.08327,-28.56045 12.44943,11.53403 31.85589,11.35095 43.93916,-0.73232 12.08327,-12.44943 12.08327,-32.40513 -0.18308,-44.67148 z"
         fill="url(#SVGID_00000013872861483605194260000007312668625733086859_)"
         id="path10"
         style="fill:url(#SVGID_00000013872861483605194260000007312668625733086859_);stroke-width:1.8308" />
    </g>
  </g>
</svg>
