<?xml version="1.0" encoding="UTF-8" standalone="no"?>
<svg
   id="Layer_2_00000095339961357004038660000002771495690797765533_"
   enable-background="new 0 0 512 512"
   viewBox="0 0 512 512"
   version="1.1"
   sodipodi:docname="Ts.svg"
   inkscape:version="1.4.2 (f4327f4, 2025-05-13)"
   xmlns:inkscape="http://www.inkscape.org/namespaces/inkscape"
   xmlns:sodipodi="http://sodipodi.sourceforge.net/DTD/sodipodi-0.dtd"
   xmlns:xlink="http://www.w3.org/1999/xlink"
   xmlns="http://www.w3.org/2000/svg"
   xmlns:svg="http://www.w3.org/2000/svg">
  <defs
     id="defs10" />
  <sodipodi:namedview
     id="namedview10"
     pagecolor="#ffffff"
     bordercolor="#000000"
     borderopacity="0.25"
     inkscape:showpageshadow="2"
     inkscape:pageopacity="0.0"
     inkscape:pagecheckerboard="0"
     inkscape:deskcolor="#d1d1d1"
     inkscape:zoom="1.6699219"
     inkscape:cx="255.70058"
     inkscape:cy="258.39532"
     inkscape:window-width="1920"
     inkscape:window-height="1057"
     inkscape:window-x="-8"
     inkscape:window-y="-8"
     inkscape:window-maximized="1"
     inkscape:current-layer="Layer_2_00000095339961357004038660000002771495690797765533_" />
  <linearGradient
     id="lg1">
    <stop
       offset="0"
       stop-color="#454545"
       id="stop1" />
    <stop
       offset="1"
       id="stop2" />
  </linearGradient>
  <linearGradient
     id="SVGID_1_"
     gradientTransform="matrix(1.3631523,0,0,-1,-24.766986,512)"
     gradientUnits="userSpaceOnUse"
     x1="48.749"
     x2="463.231"
     xlink:href="#lg1"
     y1="463.246"
     y2="48.754" />
  <linearGradient
     id="SVGID_00000018949704812270853270000000459568455321148559_"
     gradientTransform="matrix(1.3835771,0,0,-1,-29.995726,512)"
     gradientUnits="userSpaceOnUse"
     x1="55.818"
     x2="456.162"
     y1="456.172"
     y2="55.828">
    <stop
       offset="0"
       stop-color="#f2f2f2"
       id="stop3" />
    <stop
       offset="1"
       stop-color="#d9d9d9"
       id="stop4" />
  </linearGradient>
  <linearGradient
     id="SVGID_00000121242437871376288470000011854380950202217885_"
     gradientTransform="matrix(1.8296894,0,0,-1.8296894,-80.895359,912.57404)"
     gradientUnits="userSpaceOnUse"
     x1="109.486"
     x2="192.408"
     xlink:href="#lg1"
     y1="482.621"
     y2="399.699" />
  <linearGradient
     id="SVGID_00000151521001150419404400000003034264492649601454_"
     gradientTransform="matrix(-1.8263495,0,0,1.8263495,1086.4573,277.45302)"
     gradientUnits="userSpaceOnUse"
     x1="319.595"
     x2="402.512"
     xlink:href="#lg1"
     y1="112.303"
     y2="29.377" />
  <linearGradient
     id="SVGID_00000157284717879173807350000006482971560230195614_"
     gradientTransform="matrix(-1.8263495,0,0,1.8263495,1173.8337,-47.637191)"
     gradientUnits="userSpaceOnUse"
     x1="356.86"
     x2="395.957"
     xlink:href="#lg1"
     y1="184.687"
     y2="145.6" />
  <linearGradient
     id="SVGID_00000107554855143333090090000007261327577822636164_"
     gradientTransform="matrix(1 0 0 -1 0 512)"
     gradientUnits="userSpaceOnUse"
     x1="213.868"
     x2="298.138"
     xlink:href="#lg1"
     y1="286.353"
     y2="202.083" />
  <linearGradient
     id="SVGID_00000080894076264454458050000017203781640407105694_"
     gradientTransform="matrix(1.8296894,0,0,-1.8296894,-86.018049,912.57404)"
     gradientUnits="userSpaceOnUse"
     x1="116.045"
     x2="155.135"
     xlink:href="#lg1"
     y1="366.4"
     y2="327.31" />
  <g
     id="Icon"
     transform="translate(-68.2)">
    <g
       id="_14">
      <path
         d="m 580.2,68.158 v 375.548 c 0,27.6 -30.53461,68.294 -68.15761,68.294 H 136.35761 C 98.734611,512 68.2,471.306 68.2,443.706 V 68.158 C 68.2,40.558 98.735001,0 136.358,0 H 511.906 C 549.66532,0 580.2,40.558 580.2,68.158 Z"
         fill="url(#SVGID_1_)"
         id="path4"
         style="fill:url(#SVGID_1_);stroke-width:1.16754"
         sodipodi:nodetypes="sssssssss" />
      <path
         d="m 570.2,68.158 v 375.548 c 0,22.1 -27.64777,58.294 -58.22482,58.294 H 136.358 C 105.78095,502 78.2,465.806 78.2,443.706 V 68.158 C 78.2,46.058 105.78095,10 136.358,10 H 511.83682 C 542.55223,10 570.2,46.058 570.2,68.158 Z"
         fill="url(#SVGID_00000018949704812270853270000000459568455321148559_)"
         id="path5"
         style="fill:url(#SVGID_00000018949704812270853270000000459568455321148559_);stroke-width:1.17625"
         sodipodi:nodetypes="sssssssss" />
      <path
         d="M 198.86415,179.05156 H 117.26 v -20.67549 h 31.10472 V 52.437055 H 117.26 v -20.67549 h 51.23131 V 158.37607 h 30.37284 z m 4.02532,-47.75489 V 79.150521 c 0,-13.539702 4.75719,-25.249714 14.08861,-35.130037 C 226.30949,34.140161 237.83654,29.2 251.19327,29.2 c 13.35673,0 24.88377,4.940161 34.21519,14.820484 9.33142,9.880323 14.08861,21.590335 14.08861,35.130037 v 52.146149 c 0,13.5397 -4.75719,25.43268 -14.08861,35.49597 -9.33142,10.06329 -20.85846,15.00346 -34.21519,15.00346 -13.35673,0 -24.88378,-4.94017 -34.21519,-15.00346 -9.33142,-10.06329 -14.08861,-21.7733 -14.08861,-35.49597 z m 20.49252,-52.146149 v 52.146149 c 0,8.05063 2.74453,15.00345 8.2336,20.85846 5.48907,5.855 12.07595,8.78251 19.76065,8.78251 7.68469,0 14.27157,-2.92751 19.76064,-8.96548 5.48907,-6.03798 8.2336,-12.9908 8.2336,-20.67549 V 79.150521 c 0,-7.867665 -2.74453,-14.637516 -8.2336,-20.492522 -5.48907,-5.855006 -12.07595,-8.59954 -19.76064,-8.59954 -7.6847,0 -14.27158,2.927503 -19.76065,8.59954 -5.67204,5.855006 -8.2336,12.624857 -8.2336,20.492522 z"
         fill="url(#SVGID_00000121242437871376288470000011854380950202217885_)"
         id="path6"
         style="fill:url(#SVGID_00000121242437871376288470000011854380950202217885_);stroke-width:1.82969" />
      <path
         d="M 430.61519,480.36048 H 349.16 v -20.63775 h 31.04794 V 353.97709 H 349.16 v -20.63775 h 51.13779 v 126.38339 h 30.3174 z m 4.01797,-47.66773 v -52.05096 c 0,-13.51499 4.74851,-25.20362 14.06289,-35.06591 9.31438,-9.86229 20.82038,-14.79343 34.15273,-14.79343 13.33236,0 24.83836,4.93114 34.15274,14.79343 9.31438,9.86229 14.06289,21.55092 14.06289,35.06591 v 52.05096 c 0,13.51499 -4.74851,25.38626 -14.06289,35.43118 -9.31438,10.04493 -20.82038,14.97607 -34.15274,14.97607 -13.51498,0 -24.83835,-4.93114 -34.15273,-14.97607 -9.31438,-10.04492 -14.06289,-21.73356 -14.06289,-35.43118 z m 20.45511,-52.05096 v 52.05096 c 0,8.03594 2.73953,14.79343 8.21857,20.82039 5.47905,5.84432 12.05391,8.94911 19.72458,8.94911 7.67067,0 14.24553,-2.92216 19.72457,-8.94911 5.47905,-6.02696 8.21858,-12.78445 8.21858,-20.63775 v -52.05096 c 0,-7.85331 -2.73953,-14.6108 -8.21858,-20.27248 -5.47904,-5.66169 -12.0539,-8.58385 -19.72457,-8.58385 -7.67067,0 -14.24553,2.92216 -19.72458,8.58385 -5.66168,5.47904 -8.21857,12.23654 -8.21857,20.08984 z"
         fill="url(#SVGID_00000151521001150419404400000003034264492649601454_)"
         id="path7"
         style="fill:url(#SVGID_00000151521001150419404400000003034264492649601454_);stroke-width:1.82635" />
      <path
         d="m 535.52464,231.7943 -4.56588,-4.56587 -44.56293,-44.56293 -49.1288,49.1288 c -12.23654,12.23654 -12.23654,32.14375 0,44.56293 12.05391,12.05391 31.41321,12.23654 43.83239,0.73054 -0.54791,11.68864 -4.74851,21.00302 -12.05391,28.49105 h 34.88328 c -7.3054,-7.30539 -11.506,-16.80241 -12.05391,-28.49105 12.41918,11.506 31.77848,11.32337 43.83239,-0.73054 12.05391,-12.41918 12.05391,-32.32639 -0.18263,-44.56293 z"
         fill="url(#SVGID_00000157284717879173807350000006482971560230195614_)"
         id="path8"
         style="fill:url(#SVGID_00000157284717879173807350000006482971560230195614_);stroke-width:1.82635" />
      <path
         d="m 211.30648,255.71555 -4.57422,-4.57423 -44.64443,-44.64442 -49.21864,49.21865 c -12.25892,12.25892 -12.25892,32.20253 0,44.64442 12.07595,12.07595 31.47066,12.25892 43.91254,0.73188 -0.5489,11.71001 -4.75719,21.22439 -12.07595,28.54315 h 34.94707 c -7.31876,-7.50173 -11.52704,-16.83314 -12.07595,-28.54315 12.44189,11.52704 31.8366,11.34407 43.91255,-0.73188 12.07595,-12.44189 12.07595,-32.3855 -0.18297,-44.64442 z"
         fill="url(#SVGID_00000080894076264454458050000017203781640407105694_)"
         id="path10"
         style="fill:url(#SVGID_00000080894076264454458050000017203781640407105694_);stroke-width:1.82969" />
    </g>
  </g>
</svg>
